<?xml version="1.0" encoding="UTF-8" standalone="no"?>
<svg
   height="64"
   width="64"
   version="1.1"
   id="svg45"
   sodipodi:docname="drive-harddisk-scsi.svg"
   inkscape:version="1.2.1 (9c6d41e410, 2022-07-14, custom)"
   xmlns:inkscape="http://www.inkscape.org/namespaces/inkscape"
   xmlns:sodipodi="http://sodipodi.sourceforge.net/DTD/sodipodi-0.dtd"
   xmlns:xlink="http://www.w3.org/1999/xlink"
   xmlns="http://www.w3.org/2000/svg"
   xmlns:svg="http://www.w3.org/2000/svg">
  <defs
     id="defs49">
    <inkscape:path-effect
       effect="fillet_chamfer"
       id="path-effect1922"
       is_visible="true"
       lpeversion="1"
       nodesatellites_param="F,0,0,1,0,2,0,1 @ F,0,0,1,0,2,0,1 @ F,0,0,1,0,2,0,1 @ F,0,0,1,0,2,0,1 @ F,0,0,1,0,2,0,1 @ F,0,0,1,0,2,0,1 @ F,0,0,1,0,2,0,1 @ F,0,0,1,0,2,0,1 @ F,0,0,1,0,2,0,1 @ F,0,0,1,0,2,0,1"
       unit="px"
       method="auto"
       mode="F"
       radius="0"
       chamfer_steps="1"
       flexible="false"
       use_knot_distance="true"
       apply_no_radius="true"
       apply_with_radius="true"
       only_selected="false"
       hide_knots="false" />
    <inkscape:path-effect
       effect="fillet_chamfer"
       id="path-effect1920"
       is_visible="true"
       lpeversion="1"
       nodesatellites_param="F,0,0,1,0,2,0,1 @ F,0,0,1,0,2,0,1 @ F,0,0,1,0,2,0,1 @ F,0,0,1,0,2,0,1"
       unit="px"
       method="auto"
       mode="F"
       radius="0"
       chamfer_steps="1"
       flexible="false"
       use_knot_distance="true"
       apply_no_radius="true"
       apply_with_radius="true"
       only_selected="false"
       hide_knots="false" />
    <linearGradient
       inkscape:collect="always"
       xlink:href="#e"
       id="linearGradient1892"
       gradientUnits="userSpaceOnUse"
       x1="16"
       y1="16"
       x2="44"
       y2="44"
       gradientTransform="translate(2.1437513,-8.3157562)" />
  </defs>
  <sodipodi:namedview
     id="namedview47"
     pagecolor="#505050"
     bordercolor="#ffffff"
     borderopacity="1"
     inkscape:showpageshadow="0"
     inkscape:pageopacity="0"
     inkscape:pagecheckerboard="1"
     inkscape:deskcolor="#505050"
     showgrid="false"
     inkscape:zoom="12.926796"
     inkscape:cx="20.422694"
     inkscape:cy="23.01421"
     inkscape:window-width="2560"
     inkscape:window-height="1367"
     inkscape:window-x="5120"
     inkscape:window-y="0"
     inkscape:window-maximized="1"
     inkscape:current-layer="svg45" />
  <linearGradient
     id="a"
     gradientUnits="userSpaceOnUse"
     x1="20"
     x2="20"
     y1="40"
     y2="16">
    <stop
       offset="0"
       stop-color="#3e3e3e"
       id="stop2" />
    <stop
       offset="1"
       stop-color="#5c5c5c"
       id="stop4" />
  </linearGradient>
  <linearGradient
     id="b"
     gradientUnits="userSpaceOnUse"
     x1="16"
     x2="44"
     xlink:href="#e"
     y1="16"
     y2="44" />
  <linearGradient
     id="c"
     gradientUnits="userSpaceOnUse"
     x1="386.571"
     x2="386.571"
     y1="549.798"
     y2="497.798">
    <stop
       offset="0"
       stop-color="#7f8c8d"
       id="stop8" />
    <stop
       offset="1"
       stop-color="#afb0b3"
       id="stop10" />
  </linearGradient>
  <linearGradient
     id="d"
     gradientUnits="userSpaceOnUse"
     x1="12"
     x2="12"
     y1="48"
     y2="10">
    <stop
       offset="0"
       stop-color="#eef1f2"
       id="stop13" />
    <stop
       offset="1"
       stop-color="#f9fafb"
       id="stop15" />
  </linearGradient>
  <linearGradient
     id="e"
     gradientUnits="userSpaceOnUse"
     x1="400.571"
     x2="420.571"
     y1="511.798"
     y2="531.798">
    <stop
       offset="0"
       stop-color="#292c2f"
       id="stop18" />
    <stop
       offset="1"
       stop-opacity="0"
       id="stop20" />
  </linearGradient>
  <path
     d="m386.571 497.798h44v52h-44z"
     fill="url(#c)"
     transform="translate(-376.571 -491.798)"
     id="path23" />
  <path
     d="m47 52h7v6h-7zm-37 0h7v6h-7z"
     fill="#292c2f"
     opacity=".2"
     id="path25" />
  <path
     d="m10 52h7v6h-1zm37 0h7v6h-7z"
     fill="#292c2f"
     opacity=".2"
     id="path27" />
  <path
     d="m16 52h32v6h-32z"
     fill="#292c2e"
     id="path29" />
  <path
     d="m20 54h14v2h-14zm16 0h8v2h-8z"
     fill="#f6b44d"
     id="path31" />
  <path
     d="m390.571 533.798 16 16h24v-38.728l-6.636-6.636z"
     fill="url(#e)"
     opacity=".2"
     transform="translate(-376.571 -491.798)"
     id="path33" />
  <path
     d="m23 10a9 9 0 0 0 -9 9v8.535a6 6 0 0 1 2 4.465 6 6 0 0 1 -2 4.463v5.537l6 6h24l6-6v-5.535a6 6 0 0 1 -2-4.465 6 6 0 0 1 2-4.463v-8.537a9 9 0 0 0 -9-9z"
     fill="url(#d)"
     id="path35" />
  <path
     d="m10 57h44v1h-44z"
     fill="#292c2f"
     opacity=".4"
     id="path37" />
  <path
     d="M 32.64064,15.562557 17.176265,30.540933 36.68929,50.815151 52.609188,50.664206 35.490515,31.539969 46.143751,29.684244 50,44 46.143751,29.684244 Z"
     fill="url(#b)"
     opacity="0.2"
     id="path39"
     sodipodi:nodetypes="ccccccccc" />
  <path
     d="m 35.834168,31.883622 10.309583,11.800622 h 6 v -8 l -6,-6 z"
     fill="url(#b)"
     id="path41"
     style="fill:url(#linearGradient1892)"
     sodipodi:nodetypes="cccccc" />
  <g
     id="g2414"
     transform="matrix(2.2959413,0,0,2.2959413,-920.27973,-1186.7493)"
     style="fill:#3f3f3f;fill-opacity:1">
    <g
       style="overflow:visible;fill:#3f3f3f;fill-opacity:1"
       id="g536"
       transform="matrix(0.07483919,0,0,0.07483919,408.16683,523.52512)">
      <g
         id="g3"
         style="fill:#3f3f3f;fill-opacity:1">
	<path
   d="m 136.91421,62.085786 6.17158,-6.171572 a 2,2 90 0 0 0,-2.828428 L 91.914214,1.9142136 a 2,2 0 0 0 -2.828428,0 L 1.9142136,89.085786 a 2,2 90 0 0 0,2.828428 L 89.085786,179.08579 a 2,2 0 0 0 2.828428,0 l 51.171576,-51.17158 a 2,2 90 0 0 0,-2.82842 l -6.17158,-6.17158 a 2,2 0 0 0 -2.82842,0 l -42.171576,42.17158 a 2,2 0 0 1 -2.828428,0 L 19.914214,91.914214 a 2,2 90 0 1 0,-2.828428 L 89.085786,19.914214 a 2,2 180 0 1 2.828428,0 l 42.171576,42.171572 a 2,2 0 0 0 2.82842,0 z"
   id="path5"
   style="fill:#3f3f3f;fill-opacity:1"
   inkscape:path-effect="#path-effect1922"
   inkscape:original-d="m 135.5,63.5 9,-9 -54,-54 -90,90 90,90 54,-54 -9,-9 -45,45 -72,-72 72,-72 z" />

	<path
   d="m 172.5,94.9 v -8.8 a 2,2 45 0 0 -2,-2 h -60 a 2,2 135 0 0 -2,2 v 8.8 a 2,2 45 0 0 2,2 l 60,0 a 2,2 135 0 0 2,-2 z"
   id="path7"
   style="fill:#3f3f3f;fill-opacity:1"
   inkscape:path-effect="#path-effect1920"
   inkscape:original-d="M 172.5,96.9 V 84.1 h -64 v 12.8 z" />

	
	
	
	
	
	
	
	
</g>
    </g>
  </g>
</svg>
