<?xml version="1.0" encoding="UTF-8" standalone="no"?>
<!-- Created with Inkscape (http://www.inkscape.org/) -->

<svg
   width="64"
   version="1.1"
   height="64"
   id="svg45"
   sodipodi:docname="scsi-card.svg"
   inkscape:version="1.2.1 (9c6d41e410, 2022-07-14, custom)"
   xmlns:inkscape="http://www.inkscape.org/namespaces/inkscape"
   xmlns:sodipodi="http://sodipodi.sourceforge.net/DTD/sodipodi-0.dtd"
   xmlns:xlink="http://www.w3.org/1999/xlink"
   xmlns="http://www.w3.org/2000/svg"
   xmlns:svg="http://www.w3.org/2000/svg">
  <sodipodi:namedview
     id="namedview47"
     pagecolor="#505050"
     bordercolor="#ffffff"
     borderopacity="1"
     inkscape:showpageshadow="0"
     inkscape:pageopacity="0"
     inkscape:pagecheckerboard="1"
     inkscape:deskcolor="#505050"
     showgrid="false"
     inkscape:zoom="22.627417"
     inkscape:cx="19.666407"
     inkscape:cy="22.07499"
     inkscape:window-width="2560"
     inkscape:window-height="1367"
     inkscape:window-x="5120"
     inkscape:window-y="0"
     inkscape:window-maximized="1"
     inkscape:current-layer="layer1" />
  <defs
     id="defs5455">
    <linearGradient
       inkscape:collect="always"
       id="linearGradient4251-0">
      <stop
         style="stop-color:#63984b"
         id="stop4253-4" />
      <stop
         offset="1"
         style="stop-color:#8fc278"
         id="stop4255-2" />
    </linearGradient>
    <linearGradient
       inkscape:collect="always"
       xlink:href="#linearGradient4251-0"
       id="linearGradient4232"
       y1="54"
       y2="12"
       x2="0"
       gradientUnits="userSpaceOnUse" />
    <linearGradient
       inkscape:collect="always"
       xlink:href="#linearGradient4159"
       id="linearGradient4384"
       y1="1043.3622"
       y2="1012.3622"
       x2="0"
       gradientUnits="userSpaceOnUse"
       gradientTransform="matrix(0.625 0 0 0.54839315 437.17147 -33.374703)" />
    <linearGradient
       inkscape:collect="always"
       id="linearGradient4159">
      <stop
         style="stop-color:#2a2c2f"
         id="stop4161" />
      <stop
         offset="1"
         style="stop-color:#424649"
         id="stop4163" />
    </linearGradient>
    <linearGradient
       inkscape:collect="always"
       id="linearGradient4300-2">
      <stop
         style="stop-color:#22a7f0"
         id="stop4302-4" />
      <stop
         offset="1"
         style="stop-color:#19b5fe"
         id="stop4304-7" />
    </linearGradient>
    <linearGradient
       id="linearGradient4300-2-3">
      <stop
         style="stop-color:#f9b425"
         id="stop4302-4-0" />
      <stop
         offset="1"
         style="stop-color:#f9bf3b"
         id="stop4304-1" />
    </linearGradient>
    <linearGradient
       inkscape:collect="always"
       xlink:href="#linearGradient4300-2"
       id="linearGradient4830"
       y1="523.79797"
       y2="516.79797"
       gradientUnits="userSpaceOnUse"
       x2="0"
       gradientTransform="matrix(1,0,0,3.4999995,-376.5722,-3018.7874)" />
    <linearGradient
       inkscape:collect="always"
       id="linearGradient4227">
      <stop
         style="stop-color:#292c2f"
         id="stop4229" />
      <stop
         offset="1"
         style="stop-opacity:0"
         id="stop4231" />
    </linearGradient>
    <linearGradient
       inkscape:collect="always"
       xlink:href="#linearGradient4227"
       id="linearGradient4864"
       y1="20"
       x1="20"
       y2="48"
       x2="48"
       gradientUnits="userSpaceOnUse" />
    <linearGradient
       inkscape:collect="always"
       xlink:href="#linearGradient4227"
       id="linearGradient4940"
       y1="6"
       x1="-6"
       y2="36"
       gradientUnits="userSpaceOnUse"
       x2="24"
       gradientTransform="matrix(1 0 0 1 0 18)" />
    <inkscape:path-effect
       effect="fillet_chamfer"
       id="path-effect1922"
       is_visible="true"
       lpeversion="1"
       nodesatellites_param="F,0,0,1,0,2,0,1 @ F,0,0,1,0,2,0,1 @ F,0,0,1,0,2,0,1 @ F,0,0,1,0,2,0,1 @ F,0,0,1,0,2,0,1 @ F,0,0,1,0,2,0,1 @ F,0,0,1,0,2,0,1 @ F,0,0,1,0,2,0,1 @ F,0,0,1,0,2,0,1 @ F,0,0,1,0,2,0,1"
       unit="px"
       method="auto"
       mode="F"
       radius="0"
       chamfer_steps="1"
       flexible="false"
       use_knot_distance="true"
       apply_no_radius="true"
       apply_with_radius="true"
       only_selected="false"
       hide_knots="false" />
    <inkscape:path-effect
       effect="fillet_chamfer"
       id="path-effect1920"
       is_visible="true"
       lpeversion="1"
       nodesatellites_param="F,0,0,1,0,2,0,1 @ F,0,0,1,0,2,0,1 @ F,0,0,1,0,2,0,1 @ F,0,0,1,0,2,0,1"
       unit="px"
       method="auto"
       mode="F"
       radius="0"
       chamfer_steps="1"
       flexible="false"
       use_knot_distance="true"
       apply_no_radius="true"
       apply_with_radius="true"
       only_selected="false"
       hide_knots="false" />
  </defs>
  <metadata
     id="metadata5458" />
  <g
     inkscape:label="Capa 1"
     inkscape:groupmode="layer"
     id="layer1"
     transform="matrix(1 0 0 1 -376.57144 -491.79797)">
    <path
       inkscape:connector-curvature="0"
       style="fill:url(#linearGradient4232)"
       id="rect4200"
       d="m 6,12 0,42 4,0 0,-4 12,0 0,4 30,0 0,-4 6,0 0,-26 -18,0 -30,0 0,-10 0,-2 z"
       transform="matrix(1 0 0 1 376.57144 491.79797)" />
    <path
       style="fill:url(#linearGradient4940);opacity:0.2;fill-rule:evenodd"
       id="path4938"
       d="M 15 40 L 10 44 L 16 50 L 22 50 L 22 54 L 29 54 L 15 40 z "
       transform="matrix(1 0 0 1 376.57144 491.79797)" />
    <path
       inkscape:connector-curvature="0"
       style="fill:url(#linearGradient4864);opacity:0.2;fill-rule:evenodd"
       id="path4842"
       d="m 48,30 -20,17 6,7 18,0 0,-4 6,0 0,-10 z"
       transform="matrix(1 0 0 1 376.57144 491.79797)" />
    <rect
       width="29.999998"
       x="398.57144"
       y="544.79797"
       height="0.999996"
       style="fill:#dce269"
       id="rect4234" />
    <path
       inkscape:connector-curvature="0"
       style="color:#000000"
       id="path4303"
       d="m 406.57144,539.79797 0,1 1,0 0,-1 -1,0 z m 1,1 0,1 1,0 0,-1 -1,0 z m 1,0 1,0 0,-1 -1,0 0,1 z m 1,0 0,1 1,0 0,-1 -1,0 z m 1,0 1,0 0,-1 -1,0 0,1 z m 1,0 0,1 1,0 0,-1 -1,0 z m 1,0 1,0 0,-1 -1,0 0,1 z m 1,0 0,1 1,0 0,-1 -1,0 z m 1,0 1,0 0,-1 -1,0 0,1 z m 1,0 0,1 1,0 0,-1 -1,0 z m 1,0 1,0 0,-1 -1,0 0,1 z m 1,0 0,1 1,0 0,-1 -1,0 z m 1,0 1,0 0,-1 -1,0 0,1 z m 1,0 0,1 1,0 0,-1 -1,0 z m 1,0 1,0 0,-1 -1,0 0,1 z m 1,0 0,1 1,0 0,-1 -1,0 z" />
    <path
       inkscape:connector-curvature="0"
       style="color:#000000"
       id="path4313"
       d="m 390.57144,538.79797 0,1 1,0 0,-1 -1,0 z m 1,1 0,1 1,0 0,-1 -1,0 z m 1,0 1,0 0,-1 -1,0 0,1 z m 1,0 0,1 1,0 0,-1 -1,0 z m 1,0 1,0 0,-1 -1,0 0,1 z m -4,0 -1,0 0,1 1,0 0,-1 z" />
    <rect
       width="20"
       x="404.67142"
       y="521.79797"
       height="17.00019"
       style="fill:url(#linearGradient4384);fill-rule:evenodd"
       id="rect4241" />
    <rect
       width="4"
       x="382.57144"
       y="503.79797"
       height="42"
       style="fill:#afc0c6"
       id="rect4487" />
    <rect
       width="1"
       x="382.57144"
       y="503.79797"
       height="42"
       style="fill:#96aab5"
       id="rect4489" />
    <path
       inkscape:connector-curvature="0"
       style="color:#000000"
       id="path4497"
       d="m 422.57144,518.79797 0,1 -1,0 0,-1 1,0 z m -1,1 0,1 -1,0 0,-1 1,0 z m -1,0 -1,0 0,-1 1,0 0,1 z m -1,0 0,1 -1,0 0,-1 1,0 z m -1,0 -1,0 0,-1 1,0 0,1 z m -1,0 0,1 -1,0 0,-1 1,0 z m -1,0 -1,0 0,-1 1,0 0,1 z m -1,0 0,1 -1,0 0,-1 1,0 z m -1,0 -1,0 0,-1 1,0 0,1 z m -1,0 0,1 -1,0 0,-1 1,0 z m -1,0 -1,0 0,-1 1,0 0,1 z m -1,0 0,1 -1,0 0,-1 1,0 z m -1,0 -1,0 0,-1 1,0 0,1 z m -1,0 0,1 -1,0 0,-1 1,0 z m -1,0 -1,0 0,-1 1,0 0,1 z m -1,0 0,1 -1,0 0,-1 1,0 z" />
    <path
       inkscape:connector-curvature="0"
       style="fill:url(#linearGradient4830);stroke-width:1.87083"
       id="path4828"
       d="m 386.57145,521.79797 v 14 h 3.90039 c 0.0355,0 0.0651,-0.056 0.0996,-0.0682 v 0.0682 h 1 v -14 h -1 v 0.0682 c -0.0345,-0.014 -0.0641,-0.0682 -0.0996,-0.0682 z"
       sodipodi:nodetypes="ccsccccccsc" />
    <rect
       width="5"
       x="386.57144"
       y="534.79797"
       height="1"
       style="opacity:0.09"
       id="rect4832" />
    <rect
       width="2"
       x="381.57144"
       y="521.79797"
       height="14.000004"
       style="fill:#afc0c6;stroke-width:1.87083"
       id="rect4197-5" />
    <g
       style="overflow:visible;fill:#afc0c6;fill-opacity:1"
       id="g536"
       transform="matrix(0.07483919,0,0,0.07483919,408.16683,523.52512)">
      <g
         id="g3"
         style="fill:#afc0c6;fill-opacity:1">
	<path
   d="m 136.91421,62.085786 6.17158,-6.171572 a 2,2 90 0 0 0,-2.828428 L 91.914214,1.9142136 a 2,2 0 0 0 -2.828428,0 L 1.9142136,89.085786 a 2,2 90 0 0 0,2.828428 L 89.085786,179.08579 a 2,2 0 0 0 2.828428,0 l 51.171576,-51.17158 a 2,2 90 0 0 0,-2.82842 l -6.17158,-6.17158 a 2,2 0 0 0 -2.82842,0 l -42.171576,42.17158 a 2,2 0 0 1 -2.828428,0 L 19.914214,91.914214 a 2,2 90 0 1 0,-2.828428 L 89.085786,19.914214 a 2,2 180 0 1 2.828428,0 l 42.171576,42.171572 a 2,2 0 0 0 2.82842,0 z"
   id="path5"
   style="fill:#afc0c6;fill-opacity:1"
   inkscape:path-effect="#path-effect1922"
   inkscape:original-d="m 135.5,63.5 9,-9 -54,-54 -90,90 90,90 54,-54 -9,-9 -45,45 -72,-72 72,-72 z" />

	<path
   d="m 172.5,94.9 v -8.8 a 2,2 45 0 0 -2,-2 h -60 a 2,2 135 0 0 -2,2 v 8.8 a 2,2 45 0 0 2,2 l 60,0 a 2,2 135 0 0 2,-2 z"
   id="path7"
   style="fill:#afc0c6;fill-opacity:1"
   inkscape:path-effect="#path-effect1920"
   inkscape:original-d="M 172.5,96.9 V 84.1 h -64 v 12.8 z" />

	
	
	
	
	
	
	
	
</g>
    </g>
  </g>
</svg>
