M48
; DRILL file {KiCad (5.99.0-12548-gc9aebb8529)} date 2021年09月27日 09時00分06秒
; FORMAT={-:-/ absolute / metric / decimal}
; #@! TF.CreationDate,2021-09-27T09:00:06-04:00
; #@! TF.GenerationSoftware,Kicad,Pcbnew,(5.99.0-12548-gc9aebb8529)
; #@! TF.FileFunction,MixedPlating,1,4
FMAT,2
METRIC
; #@! TA.AperFunction,Plated,PTH,ViaDrill
T1C0.200
; #@! TA.AperFunction,Plated,PTH,ComponentDrill
T2C0.200
; #@! TA.AperFunction,Plated,PTH,ViaDrill
T3C0.300
; #@! TA.AperFunction,Plated,PTH,ComponentDrill
T4C0.650
; #@! TA.AperFunction,Plated,PTH,ComponentDrill
T5C0.800
; #@! TA.AperFunction,Plated,PTH,ComponentDrill
T6C1.100
; #@! TA.AperFunction,Plated,PTH,ComponentDrill
T7C3.100
; #@! TA.AperFunction,NonPlated,NPTH,ComponentDrill
T8C3.200
%
G90
G05
T1
X5.175Y52.45
X6.0Y41.05
X6.0Y31.55
X7.0Y41.05
X7.05Y31.55
X8.35Y53.75
X8.8Y43.85
X8.8Y43.15
X9.287Y57.737
X9.3Y55.0
X9.35Y47.0
X9.568Y11.4
X9.75Y62.207
X10.05Y45.5
X10.45Y62.207
X10.9Y55.0
X10.925Y57.75
X11.5Y17.35
X11.7Y23.05
X11.7Y22.4
X11.7Y21.75
X11.7Y21.1
X12.25Y53.75
X12.35Y23.05
X12.35Y22.4
X12.35Y21.75
X12.35Y21.1
X12.4Y17.65
X13.05Y23.05
X13.05Y22.4
X13.05Y21.75
X13.05Y21.1
X13.175Y57.75
X13.2Y55.0
X13.25Y47.0
X13.4Y17.65
X13.65Y62.0
X13.7Y23.05
X13.7Y22.4
X13.7Y21.75
X13.7Y21.1
X14.125Y42.525
X14.35Y62.0
X14.45Y17.35
X14.8Y55.0
X14.8Y23.05
X14.8Y22.4
X14.8Y21.75
X14.8Y21.1
X14.825Y57.75
X15.0Y41.0
X15.0Y31.5
X15.45Y23.05
X15.45Y22.4
X15.45Y21.75
X15.45Y21.1
X15.5Y17.65
X16.0Y41.0
X16.05Y31.5
X16.15Y53.75
X16.15Y23.05
X16.15Y22.4
X16.15Y21.75
X16.15Y21.1
X16.5Y17.65
X16.575Y43.85
X16.6Y43.15
X16.8Y23.05
X16.8Y22.4
X16.8Y21.75
X16.8Y21.1
X17.075Y57.75
X17.1Y55.0
X17.15Y47.0
X17.65Y15.4
X17.831Y45.531
X18.7Y55.0
X18.725Y57.75
X20.05Y53.75
X20.975Y57.75
X21.0Y55.0
X21.05Y47.0
X21.25Y12.85
X21.45Y62.385
X21.9Y42.5
X22.15Y62.385
X22.5Y41.0
X22.5Y31.5
X22.6Y55.0
X22.625Y57.75
X23.1Y6.9
X23.5Y41.0
X23.55Y31.5
X23.95Y53.75
X24.375Y43.85
X24.4Y43.15
X24.875Y57.75
X24.9Y55.0
X24.95Y47.0
X25.05Y6.9
X25.35Y62.0
X25.65Y45.5
X26.05Y62.0
X26.5Y55.0
X26.525Y57.75
X27.85Y53.75
X28.122Y14.891
X28.7Y11.9
X28.787Y57.737
X28.8Y55.0
X28.85Y47.0
X29.278Y15.9
X29.583Y13.807
X29.725Y42.525
X30.4Y55.0
X30.425Y57.75
X30.5Y31.5
X30.997Y15.221
X30.997Y13.807
X30.997Y12.393
X31.55Y31.5
X31.75Y53.75
X32.175Y43.85
X32.2Y43.15
X32.411Y13.807
X32.45Y16.3
X32.687Y57.737
X32.7Y55.0
X32.75Y47.0
X33.15Y62.0
X33.456Y45.5
X33.85Y62.0
X34.3Y55.0
X34.325Y57.75
X35.65Y53.75
X36.575Y57.75
X36.6Y55.0
X36.65Y47.0
X37.05Y62.337
X37.525Y42.525
X37.75Y62.337
X38.0Y40.95
X38.0Y31.45
X38.025Y46.925
X38.2Y55.0
X38.225Y57.75
X39.0Y40.95
X39.05Y31.45
X39.55Y53.75
X39.7Y21.25
X39.975Y43.85
X40.0Y43.15
X40.25Y21.8
X40.475Y57.75
X40.5Y55.0
X40.55Y47.0
X40.575Y34.625
X40.8Y22.4
X40.8Y21.25
X40.8Y20.15
X41.256Y45.506
X41.35Y24.05
X41.35Y22.95
X41.5Y28.025
X41.75Y32.0
X41.9Y24.65
X41.95Y23.5
X41.95Y21.25
X42.1Y55.0
X42.125Y57.75
X42.25Y32.5
X42.5Y29.0
X42.5Y24.1
X42.5Y21.85
X42.5Y20.7
X42.5Y19.55
X42.75Y46.9
X42.75Y32.0
X43.026Y24.65
X43.05Y25.75
X43.05Y21.25
X43.05Y20.1
X43.05Y19.0
X43.1Y23.5
X43.25Y32.5
X43.45Y53.75
X43.6Y21.8
X43.6Y20.7
X43.656Y24.138
X43.85Y67.0
X44.199Y23.499
X44.2Y22.35
X44.25Y40.95
X44.387Y57.737
X44.4Y55.0
X44.45Y47.0
X44.5Y11.5
X44.721Y17.321
X44.75Y22.8
X44.75Y21.8
X44.75Y19.55
X44.75Y18.4
X44.85Y62.0
X45.325Y42.475
X45.55Y62.0
X45.9Y20.7
X46.0Y55.0
X46.025Y57.75
X47.0Y21.85
X47.35Y53.75
X47.6Y21.25
X47.775Y43.85
X47.8Y43.15
X48.275Y57.75
X48.3Y55.0
X48.35Y47.0
X48.75Y62.287
X48.8Y18.892
X49.05Y45.5
X49.12Y17.634
X49.45Y62.287
X49.5Y18.892
X49.5Y17.2
X49.5Y11.5
X49.9Y55.0
X49.925Y57.75
X51.25Y53.75
X52.187Y57.737
X52.2Y55.0
X52.25Y47.0
X52.403Y14.0
X52.45Y4.3
X53.125Y42.525
X53.5Y41.0
X53.5Y31.5
X53.75Y18.75
X53.75Y8.4
X53.8Y55.0
X53.825Y57.75
X53.975Y15.325
X53.975Y14.075
X54.4Y11.4
X54.5Y41.0
X54.55Y31.5
X55.15Y53.75
X55.575Y43.85
X55.6Y43.15
X55.7Y17.9
X55.7Y9.65
X56.075Y57.75
X56.1Y55.0
X56.125Y15.325
X56.125Y14.075
X56.15Y47.0
X56.25Y8.4
X56.55Y62.424
X56.856Y45.5
X56.95Y19.475
X56.95Y17.9
X57.25Y62.424
X57.55Y8.4
X57.7Y55.0
X57.725Y57.75
X59.05Y53.75
X59.987Y57.737
X60.0Y55.0
X60.05Y47.0
X60.45Y62.0
X60.925Y42.525
X61.15Y62.0
X61.5Y41.0
X61.5Y31.5
X61.6Y55.0
X61.625Y57.75
X62.5Y41.0
X62.55Y31.5
X62.95Y53.75
X63.375Y43.85
X63.4Y43.15
X63.887Y57.737
X63.9Y55.0
X63.95Y47.0
X64.656Y45.5
X65.5Y55.0
X65.525Y57.75
X66.85Y53.75
X67.8Y57.75
X67.8Y55.0
X67.85Y47.0
X68.27Y62.0
X68.7Y42.5
X68.93Y62.0
X69.4Y55.0
X69.425Y57.75
X69.5Y31.5
X70.55Y31.5
X70.75Y53.75
X71.175Y43.85
X71.2Y43.15
X71.65Y57.762
X71.7Y55.05
X71.75Y47.0
X72.15Y62.0
X72.45Y45.5
X72.85Y62.0
X73.3Y55.05
X73.312Y57.75
X74.65Y53.75
X75.587Y57.737
X75.6Y55.0
X75.65Y47.0
X76.525Y42.525
X77.2Y55.0
X77.225Y57.75
X78.5Y41.0
X78.5Y31.5
X79.5Y41.0
X79.55Y31.5
T2
X17.85Y14.35
X17.85Y13.25
T3
X2.6Y55.0
X3.25Y52.95
X8.2Y60.0
X10.6Y43.5
X11.5Y6.5
X11.5Y5.55
X12.0Y43.5
X12.1Y60.0
X12.3Y15.15
X12.3Y10.6
X12.65Y15.75
X12.65Y10.0
X13.0Y15.15
X13.0Y10.6
X13.35Y15.75
X13.35Y10.0
X13.7Y15.15
X13.7Y10.6
X14.05Y10.0
X14.05Y15.75
X14.4Y15.15
X14.4Y10.6
X14.75Y15.75
X14.75Y10.0
X15.1Y15.15
X15.1Y10.6
X15.45Y15.75
X15.45Y10.0
X15.8Y15.15
X15.8Y10.6
X16.0Y60.0
X16.15Y15.75
X16.15Y10.0
X16.5Y15.15
X16.5Y10.6
X18.4Y43.5
X19.8Y43.5
X19.9Y60.0
X23.8Y60.0
X26.0Y15.4
X26.2Y43.5
X26.85Y18.75
X27.6Y43.5
X27.7Y60.0
X31.6Y60.0
X34.0Y43.5
X35.1Y14.1
X35.4Y43.5
X35.5Y60.0
X39.4Y60.0
X41.8Y43.5
X43.2Y43.5
X43.8Y59.225
X47.2Y60.0
X47.5Y13.75
X49.6Y43.5
X51.0Y43.5
X51.1Y60.0
X55.0Y60.0
X57.4Y43.5
X58.8Y43.5
X58.9Y60.0
X62.8Y60.0
X65.2Y43.5
X66.6Y43.5
X66.7Y60.0
X70.6Y60.0
X73.0Y43.5
X74.4Y43.5
X74.5Y60.0
T4
X50.84Y23.85
X52.11Y23.85
X53.38Y23.85
X54.65Y23.85
T5
X12.1Y2.85
X13.6Y1.0
X15.1Y2.85
T6
X16.58Y76.445
X16.58Y72.155
X18.74Y76.445
X18.74Y72.155
X20.9Y76.445
X20.9Y72.155
X23.06Y76.445
X23.06Y72.155
X25.22Y76.445
X25.22Y72.155
X27.38Y76.445
X27.38Y72.155
X29.54Y76.445
X29.54Y72.155
X31.7Y76.445
X31.7Y72.155
X33.86Y76.445
X33.86Y72.155
X36.02Y76.445
X36.02Y72.155
X38.18Y76.445
X38.18Y72.155
X40.34Y76.445
X40.34Y72.155
X42.5Y76.445
X42.5Y72.155
X44.66Y76.445
X44.66Y72.155
X46.82Y76.445
X46.82Y72.155
X48.98Y76.445
X48.98Y72.155
X51.14Y76.445
X51.14Y72.155
X53.3Y76.445
X53.3Y72.155
X55.46Y76.445
X55.46Y72.155
X57.62Y76.445
X57.62Y72.155
X59.78Y76.445
X59.78Y72.155
X61.94Y76.445
X61.94Y72.155
X64.1Y76.445
X64.1Y72.155
X66.26Y76.445
X66.26Y72.155
X68.42Y76.445
X68.42Y72.155
T7
X5.075Y74.3
X79.925Y74.3
T8
X3.5Y60.5
X3.5Y8.5
X81.5Y60.5
X81.5Y8.5
T5
X19.3Y5.65G85X19.3Y4.95
G05
X19.3Y1.95G85X19.3Y1.25
G05
X29.5Y5.65G85X29.5Y4.95
G05
X29.5Y1.95G85X29.5Y1.25
G05
T0
M30
