G04 #@! TF.GenerationSoftware,KiCad,Pcbnew,(5.99.0-12548-gc9aebb8529)*
G04 #@! TF.CreationDate,2021-09-27T09:00:01-04:00*
G04 #@! TF.ProjectId,squishy,73717569-7368-4792-9e6b-696361645f70,rev?*
G04 #@! TF.SameCoordinates,PX9634260PY768aae0*
G04 #@! TF.FileFunction,Soldermask,Top*
G04 #@! TF.FilePolarity,Negative*
%FSLAX46Y46*%
G04 Gerber Fmt 4.6, Leading zero omitted, Abs format (unit mm)*
G04 Created by KiCad (PCBNEW (5.99.0-12548-gc9aebb8529)) date 2021-09-27 09:00:01*
%MOMM*%
%LPD*%
G01*
G04 APERTURE LIST*
G04 Aperture macros list*
%AMRoundRect*
0 Rectangle with rounded corners*
0 $1 Rounding radius*
0 $2 $3 $4 $5 $6 $7 $8 $9 X,Y pos of 4 corners*
0 Add a 4 corners polygon primitive as box body*
4,1,4,$2,$3,$4,$5,$6,$7,$8,$9,$2,$3,0*
0 Add four circle primitives for the rounded corners*
1,1,$1+$1,$2,$3*
1,1,$1+$1,$4,$5*
1,1,$1+$1,$6,$7*
1,1,$1+$1,$8,$9*
0 Add four rect primitives between the rounded corners*
20,1,$1+$1,$2,$3,$4,$5,0*
20,1,$1+$1,$4,$5,$6,$7,0*
20,1,$1+$1,$6,$7,$8,$9,0*
20,1,$1+$1,$8,$9,$2,$3,0*%
G04 Aperture macros list end*
%ADD10C,0.100000*%
%ADD11C,0.010000*%
%ADD12RoundRect,0.250000X0.275000X-0.200000X0.275000X0.200000X-0.275000X0.200000X-0.275000X-0.200000X0*%
%ADD13RoundRect,0.287500X-0.237500X0.287500X-0.237500X-0.287500X0.237500X-0.287500X0.237500X0.287500X0*%
%ADD14RoundRect,0.150000X0.100000X-0.400000X0.100000X0.400000X-0.100000X0.400000X-0.100000X-0.400000X0*%
%ADD15RoundRect,0.307353X1.942647X-1.492647X1.942647X1.492647X-1.942647X1.492647X-1.942647X-1.492647X0*%
%ADD16C,4.750000*%
%ADD17C,1.700000*%
%ADD18RoundRect,0.050000X0.600000X0.700000X-0.600000X0.700000X-0.600000X-0.700000X0.600000X-0.700000X0*%
%ADD19RoundRect,0.050000X0.500000X0.700000X-0.500000X0.700000X-0.500000X-0.700000X0.500000X-0.700000X0*%
%ADD20C,1.100000*%
%ADD21C,1.300000*%
%ADD22RoundRect,0.275000X-0.225000X-0.250000X0.225000X-0.250000X0.225000X0.250000X-0.225000X0.250000X0*%
%ADD23RoundRect,0.268750X-0.256250X0.218750X-0.256250X-0.218750X0.256250X-0.218750X0.256250X0.218750X0*%
%ADD24RoundRect,0.250000X-0.275000X0.200000X-0.275000X-0.200000X0.275000X-0.200000X0.275000X0.200000X0*%
%ADD25RoundRect,0.101600X0.200000X-0.700000X0.200000X0.700000X-0.200000X0.700000X-0.200000X-0.700000X0*%
%ADD26RoundRect,0.101600X0.600000X-0.700000X0.600000X0.700000X-0.600000X0.700000X-0.600000X-0.700000X0*%
%ADD27RoundRect,0.300000X-0.600000X-0.900000X0.600000X-0.900000X0.600000X0.900000X-0.600000X0.900000X0*%
%ADD28RoundRect,0.250000X0.200000X0.275000X-0.200000X0.275000X-0.200000X-0.275000X0.200000X-0.275000X0*%
%ADD29RoundRect,0.268750X0.218750X0.256250X-0.218750X0.256250X-0.218750X-0.256250X0.218750X-0.256250X0*%
%ADD30RoundRect,0.143750X0.093750X0.106250X-0.093750X0.106250X-0.093750X-0.106250X0.093750X-0.106250X0*%
%ADD31RoundRect,0.050000X0.500000X0.800000X-0.500000X0.800000X-0.500000X-0.800000X0.500000X-0.800000X0*%
%ADD32RoundRect,0.112500X-0.203293X-0.291682X0.291682X0.203293X0.203293X0.291682X-0.291682X-0.203293X0*%
%ADD33RoundRect,0.112500X0.203293X-0.291682X0.291682X-0.203293X-0.203293X0.291682X-0.291682X0.203293X0*%
%ADD34RoundRect,0.050000X0.000000X-1.838478X1.838478X0.000000X0.000000X1.838478X-1.838478X0.000000X0*%
%ADD35RoundRect,0.275000X-0.250000X0.225000X-0.250000X-0.225000X0.250000X-0.225000X0.250000X0.225000X0*%
%ADD36RoundRect,0.275000X0.225000X0.250000X-0.225000X0.250000X-0.225000X-0.250000X0.225000X-0.250000X0*%
%ADD37RoundRect,0.050000X-0.175000X0.325000X-0.175000X-0.325000X0.175000X-0.325000X0.175000X0.325000X0*%
%ADD38RoundRect,0.050000X-0.800000X0.500000X-0.800000X-0.500000X0.800000X-0.500000X0.800000X0.500000X0*%
%ADD39C,0.500000*%
%ADD40RoundRect,0.250000X-0.200000X-0.275000X0.200000X-0.275000X0.200000X0.275000X-0.200000X0.275000X0*%
%ADD41RoundRect,0.050000X-0.370000X-1.395000X0.370000X-1.395000X0.370000X1.395000X-0.370000X1.395000X0*%
%ADD42RoundRect,0.050000X0.550000X-0.650000X0.550000X0.650000X-0.550000X0.650000X-0.550000X-0.650000X0*%
%ADD43RoundRect,0.287500X0.237500X-0.287500X0.237500X0.287500X-0.237500X0.287500X-0.237500X-0.287500X0*%
%ADD44C,1.500000*%
%ADD45RoundRect,0.125000X0.425000X-0.075000X0.425000X0.075000X-0.425000X0.075000X-0.425000X-0.075000X0*%
%ADD46RoundRect,0.125000X0.075000X0.425000X-0.075000X0.425000X-0.075000X-0.425000X0.075000X-0.425000X0*%
%ADD47RoundRect,0.125000X-0.425000X0.075000X-0.425000X-0.075000X0.425000X-0.075000X0.425000X0.075000X0*%
%ADD48RoundRect,0.125000X-0.075000X-0.425000X0.075000X-0.425000X0.075000X0.425000X-0.075000X0.425000X0*%
%ADD49RoundRect,0.250200X-0.849800X-0.349800X0.849800X-0.349800X0.849800X0.349800X-0.849800X0.349800X0*%
%ADD50RoundRect,0.299550X-1.100450X0.325450X-1.100450X-0.325450X1.100450X-0.325450X1.100450X0.325450X0*%
%ADD51RoundRect,0.300000X-1.100000X0.325000X-1.100000X-0.325000X1.100000X-0.325000X1.100000X0.325000X0*%
%ADD52RoundRect,0.125000X0.075000X-0.650000X0.075000X0.650000X-0.075000X0.650000X-0.075000X-0.650000X0*%
%ADD53RoundRect,0.299550X0.325450X1.100450X-0.325450X1.100450X-0.325450X-1.100450X0.325450X-1.100450X0*%
%ADD54RoundRect,0.300000X0.325000X1.100000X-0.325000X1.100000X-0.325000X-1.100000X0.325000X-1.100000X0*%
%ADD55RoundRect,0.112500X-0.337500X0.062500X-0.337500X-0.062500X0.337500X-0.062500X0.337500X0.062500X0*%
%ADD56RoundRect,0.137500X-0.312500X0.087500X-0.312500X-0.087500X0.312500X-0.087500X0.312500X0.087500X0*%
%ADD57RoundRect,0.050000X-0.550000X0.650000X-0.550000X-0.650000X0.550000X-0.650000X0.550000X0.650000X0*%
%ADD58C,3.300000*%
%ADD59RoundRect,0.050000X-0.225000X-0.350000X0.225000X-0.350000X0.225000X0.350000X-0.225000X0.350000X0*%
%ADD60RoundRect,0.299550X-0.325450X-1.100450X0.325450X-1.100450X0.325450X1.100450X-0.325450X1.100450X0*%
%ADD61RoundRect,0.300000X-0.325000X-1.100000X0.325000X-1.100000X0.325000X1.100000X-0.325000X1.100000X0*%
%ADD62RoundRect,0.050000X-0.500000X0.500000X-0.500000X-0.500000X0.500000X-0.500000X0.500000X0.500000X0*%
%ADD63O,1.100000X1.100000*%
G04 APERTURE END LIST*
D10*
X83000000Y1600000D02*
X74800000Y1600000D01*
X74800000Y1600000D02*
X74800000Y5400000D01*
X74800000Y5400000D02*
X83000000Y5400000D01*
X83000000Y5400000D02*
X83000000Y1600000D01*
G36*
X83000000Y1600000D02*
G01*
X74800000Y1600000D01*
X74800000Y5400000D01*
X83000000Y5400000D01*
X83000000Y1600000D01*
G37*
X83000000Y1600000D02*
X74800000Y1600000D01*
X74800000Y5400000D01*
X83000000Y5400000D01*
X83000000Y1600000D01*
G04 #@! TO.C,J1*
G36*
X22700000Y4950000D02*
G01*
X21400000Y4950000D01*
X21400000Y6450000D01*
X22700000Y6450000D01*
X22700000Y4950000D01*
G37*
G36*
X25950000Y4950000D02*
G01*
X25450000Y4950000D01*
X25450000Y6450000D01*
X25950000Y6450000D01*
X25950000Y4950000D01*
G37*
G36*
X27400000Y4950000D02*
G01*
X26100000Y4950000D01*
X26100000Y6450000D01*
X27400000Y6450000D01*
X27400000Y4950000D01*
G37*
G36*
X23350000Y4950000D02*
G01*
X22850000Y4950000D01*
X22850000Y6450000D01*
X23350000Y6450000D01*
X23350000Y4950000D01*
G37*
G36*
X25300000Y4950000D02*
G01*
X24800000Y4950000D01*
X24800000Y6450000D01*
X25300000Y6450000D01*
X25300000Y4950000D01*
G37*
G36*
X24000000Y4950000D02*
G01*
X23500000Y4950000D01*
X23500000Y6450000D01*
X24000000Y6450000D01*
X24000000Y4950000D01*
G37*
G36*
X24650000Y4950000D02*
G01*
X24150000Y4950000D01*
X24150000Y6450000D01*
X24650000Y6450000D01*
X24650000Y4950000D01*
G37*
D11*
G04 #@! TO.C,G2*
X62972477Y14740526D02*
X63269750Y14518330D01*
X63269750Y14518330D02*
X63604748Y14292486D01*
X63604748Y14292486D02*
X63944999Y14083868D01*
X63944999Y14083868D02*
X64258029Y13913348D01*
X64258029Y13913348D02*
X64263795Y13910467D01*
X64263795Y13910467D02*
X64758118Y13689294D01*
X64758118Y13689294D02*
X65235555Y13531728D01*
X65235555Y13531728D02*
X65721214Y13431966D01*
X65721214Y13431966D02*
X66240204Y13384203D01*
X66240204Y13384203D02*
X66567222Y13378043D01*
X66567222Y13378043D02*
X66911109Y13385337D01*
X66911109Y13385337D02*
X67212919Y13407281D01*
X67212919Y13407281D02*
X67499228Y13448171D01*
X67499228Y13448171D02*
X67796610Y13512301D01*
X67796610Y13512301D02*
X68131641Y13603965D01*
X68131641Y13603965D02*
X68322130Y13661635D01*
X68322130Y13661635D02*
X68569746Y13735654D01*
X68569746Y13735654D02*
X68762749Y13785320D01*
X68762749Y13785320D02*
X68926083Y13815250D01*
X68926083Y13815250D02*
X69084692Y13830059D01*
X69084692Y13830059D02*
X69255389Y13834334D01*
X69255389Y13834334D02*
X69470417Y13830043D01*
X69470417Y13830043D02*
X69634476Y13811439D01*
X69634476Y13811439D02*
X69780790Y13773167D01*
X69780790Y13773167D02*
X69889809Y13732066D01*
X69889809Y13732066D02*
X70022437Y13669192D01*
X70022437Y13669192D02*
X70118408Y13607672D01*
X70118408Y13607672D02*
X70154962Y13564665D01*
X70154962Y13564665D02*
X70143043Y13514282D01*
X70143043Y13514282D02*
X70104587Y13391581D01*
X70104587Y13391581D02*
X70042100Y13203776D01*
X70042100Y13203776D02*
X69958087Y12958078D01*
X69958087Y12958078D02*
X69855052Y12661701D01*
X69855052Y12661701D02*
X69735502Y12321857D01*
X69735502Y12321857D02*
X69601940Y11945759D01*
X69601940Y11945759D02*
X69456873Y11540619D01*
X69456873Y11540619D02*
X69324230Y11172834D01*
X69324230Y11172834D02*
X68481766Y8844500D01*
X68481766Y8844500D02*
X68254744Y8837916D01*
X68254744Y8837916D02*
X68111586Y8837815D01*
X68111586Y8837815D02*
X67995204Y8844793D01*
X67995204Y8844793D02*
X67953639Y8851603D01*
X67953639Y8851603D02*
X67890780Y8894351D01*
X67890780Y8894351D02*
X67879555Y8925954D01*
X67879555Y8925954D02*
X67892636Y8978108D01*
X67892636Y8978108D02*
X67929699Y9100299D01*
X67929699Y9100299D02*
X67987475Y9282403D01*
X67987475Y9282403D02*
X68062696Y9514294D01*
X68062696Y9514294D02*
X68152093Y9785850D01*
X68152093Y9785850D02*
X68252397Y10086945D01*
X68252397Y10086945D02*
X68303915Y10240348D01*
X68303915Y10240348D02*
X68426419Y10600966D01*
X68426419Y10600966D02*
X68524245Y10889498D01*
X68524245Y10889498D02*
X68596615Y11115081D01*
X68596615Y11115081D02*
X68642753Y11286852D01*
X68642753Y11286852D02*
X68661883Y11413949D01*
X68661883Y11413949D02*
X68653228Y11505508D01*
X68653228Y11505508D02*
X68616012Y11570666D01*
X68616012Y11570666D02*
X68549457Y11618560D01*
X68549457Y11618560D02*
X68452788Y11658328D01*
X68452788Y11658328D02*
X68325228Y11699106D01*
X68325228Y11699106D02*
X68175889Y11746714D01*
X68175889Y11746714D02*
X67984731Y11808548D01*
X67984731Y11808548D02*
X67844304Y11845461D01*
X67844304Y11845461D02*
X67725697Y11861266D01*
X67725697Y11861266D02*
X67600000Y11859778D01*
X67600000Y11859778D02*
X67438301Y11844813D01*
X67438301Y11844813D02*
X67435055Y11844462D01*
X67435055Y11844462D02*
X67264995Y11831102D01*
X67264995Y11831102D02*
X67037389Y11820268D01*
X67037389Y11820268D02*
X66779342Y11812916D01*
X66779342Y11812916D02*
X66517960Y11810006D01*
X66517960Y11810006D02*
X66461389Y11810061D01*
X66461389Y11810061D02*
X66091318Y11819572D01*
X66091318Y11819572D02*
X65778326Y11849017D01*
X65778326Y11849017D02*
X65496036Y11904049D01*
X65496036Y11904049D02*
X65218074Y11990322D01*
X65218074Y11990322D02*
X64918064Y12113490D01*
X64918064Y12113490D02*
X64806126Y12164882D01*
X64806126Y12164882D02*
X64428194Y12362122D01*
X64428194Y12362122D02*
X64104862Y12578980D01*
X64104862Y12578980D02*
X63806085Y12836941D01*
X63806085Y12836941D02*
X63659890Y12984493D01*
X63659890Y12984493D02*
X63437285Y13251201D01*
X63437285Y13251201D02*
X63236197Y13553616D01*
X63236197Y13553616D02*
X63067010Y13871428D01*
X63067010Y13871428D02*
X62940107Y14184330D01*
X62940107Y14184330D02*
X62865871Y14472015D01*
X62865871Y14472015D02*
X62854561Y14559500D01*
X62854561Y14559500D02*
X62827899Y14855834D01*
X62827899Y14855834D02*
X62972477Y14740526D01*
X62972477Y14740526D02*
X62972477Y14740526D01*
G36*
X62972477Y14740526D02*
G01*
X63269750Y14518330D01*
X63604748Y14292486D01*
X63944999Y14083868D01*
X64258029Y13913348D01*
X64263795Y13910467D01*
X64758118Y13689294D01*
X65235555Y13531728D01*
X65721214Y13431966D01*
X66240204Y13384203D01*
X66567222Y13378043D01*
X66911109Y13385337D01*
X67212919Y13407281D01*
X67499228Y13448171D01*
X67796610Y13512301D01*
X68131641Y13603965D01*
X68322130Y13661635D01*
X68569746Y13735654D01*
X68762749Y13785320D01*
X68926083Y13815250D01*
X69084692Y13830059D01*
X69255389Y13834334D01*
X69470417Y13830043D01*
X69634476Y13811439D01*
X69780790Y13773167D01*
X69889809Y13732066D01*
X70022437Y13669192D01*
X70118408Y13607672D01*
X70154962Y13564665D01*
X70143043Y13514282D01*
X70104587Y13391581D01*
X70042100Y13203776D01*
X69958087Y12958078D01*
X69855052Y12661701D01*
X69735502Y12321857D01*
X69601940Y11945759D01*
X69456873Y11540619D01*
X69324230Y11172834D01*
X68481766Y8844500D01*
X68254744Y8837916D01*
X68111586Y8837815D01*
X67995204Y8844793D01*
X67953639Y8851603D01*
X67890780Y8894351D01*
X67879555Y8925954D01*
X67892636Y8978108D01*
X67929699Y9100299D01*
X67987475Y9282403D01*
X68062696Y9514294D01*
X68152093Y9785850D01*
X68252397Y10086945D01*
X68303915Y10240348D01*
X68426419Y10600966D01*
X68524245Y10889498D01*
X68596615Y11115081D01*
X68642753Y11286852D01*
X68661883Y11413949D01*
X68653228Y11505508D01*
X68616012Y11570666D01*
X68549457Y11618560D01*
X68452788Y11658328D01*
X68325228Y11699106D01*
X68175889Y11746714D01*
X67984731Y11808548D01*
X67844304Y11845461D01*
X67725697Y11861266D01*
X67600000Y11859778D01*
X67438301Y11844813D01*
X67435055Y11844462D01*
X67264995Y11831102D01*
X67037389Y11820268D01*
X66779342Y11812916D01*
X66517960Y11810006D01*
X66461389Y11810061D01*
X66091318Y11819572D01*
X65778326Y11849017D01*
X65496036Y11904049D01*
X65218074Y11990322D01*
X64918064Y12113490D01*
X64806126Y12164882D01*
X64428194Y12362122D01*
X64104862Y12578980D01*
X63806085Y12836941D01*
X63659890Y12984493D01*
X63437285Y13251201D01*
X63236197Y13553616D01*
X63067010Y13871428D01*
X62940107Y14184330D01*
X62865871Y14472015D01*
X62854561Y14559500D01*
X62827899Y14855834D01*
X62972477Y14740526D01*
G37*
X62972477Y14740526D02*
X63269750Y14518330D01*
X63604748Y14292486D01*
X63944999Y14083868D01*
X64258029Y13913348D01*
X64263795Y13910467D01*
X64758118Y13689294D01*
X65235555Y13531728D01*
X65721214Y13431966D01*
X66240204Y13384203D01*
X66567222Y13378043D01*
X66911109Y13385337D01*
X67212919Y13407281D01*
X67499228Y13448171D01*
X67796610Y13512301D01*
X68131641Y13603965D01*
X68322130Y13661635D01*
X68569746Y13735654D01*
X68762749Y13785320D01*
X68926083Y13815250D01*
X69084692Y13830059D01*
X69255389Y13834334D01*
X69470417Y13830043D01*
X69634476Y13811439D01*
X69780790Y13773167D01*
X69889809Y13732066D01*
X70022437Y13669192D01*
X70118408Y13607672D01*
X70154962Y13564665D01*
X70143043Y13514282D01*
X70104587Y13391581D01*
X70042100Y13203776D01*
X69958087Y12958078D01*
X69855052Y12661701D01*
X69735502Y12321857D01*
X69601940Y11945759D01*
X69456873Y11540619D01*
X69324230Y11172834D01*
X68481766Y8844500D01*
X68254744Y8837916D01*
X68111586Y8837815D01*
X67995204Y8844793D01*
X67953639Y8851603D01*
X67890780Y8894351D01*
X67879555Y8925954D01*
X67892636Y8978108D01*
X67929699Y9100299D01*
X67987475Y9282403D01*
X68062696Y9514294D01*
X68152093Y9785850D01*
X68252397Y10086945D01*
X68303915Y10240348D01*
X68426419Y10600966D01*
X68524245Y10889498D01*
X68596615Y11115081D01*
X68642753Y11286852D01*
X68661883Y11413949D01*
X68653228Y11505508D01*
X68616012Y11570666D01*
X68549457Y11618560D01*
X68452788Y11658328D01*
X68325228Y11699106D01*
X68175889Y11746714D01*
X67984731Y11808548D01*
X67844304Y11845461D01*
X67725697Y11861266D01*
X67600000Y11859778D01*
X67438301Y11844813D01*
X67435055Y11844462D01*
X67264995Y11831102D01*
X67037389Y11820268D01*
X66779342Y11812916D01*
X66517960Y11810006D01*
X66461389Y11810061D01*
X66091318Y11819572D01*
X65778326Y11849017D01*
X65496036Y11904049D01*
X65218074Y11990322D01*
X64918064Y12113490D01*
X64806126Y12164882D01*
X64428194Y12362122D01*
X64104862Y12578980D01*
X63806085Y12836941D01*
X63659890Y12984493D01*
X63437285Y13251201D01*
X63236197Y13553616D01*
X63067010Y13871428D01*
X62940107Y14184330D01*
X62865871Y14472015D01*
X62854561Y14559500D01*
X62827899Y14855834D01*
X62972477Y14740526D01*
G04 #@! TD*
D12*
G04 #@! TO.C,R88*
X10250000Y24450000D03*
X10250000Y26100000D03*
G04 #@! TD*
D13*
G04 #@! TO.C,D7*
X4900000Y55625000D03*
X4900000Y53875000D03*
G04 #@! TD*
D14*
G04 #@! TO.C,U26*
X53145000Y10650000D03*
X54415000Y10650000D03*
X55685000Y10650000D03*
X56955000Y10650000D03*
X56955000Y18750000D03*
X55685000Y18750000D03*
X54415000Y18750000D03*
X53145000Y18750000D03*
D15*
X55050000Y14700000D03*
G04 #@! TD*
D16*
G04 #@! TO.C,J2*
X79925000Y74300000D03*
X5075000Y74300000D03*
D17*
X16580000Y76445000D03*
X18740000Y76445000D03*
X20900000Y76445000D03*
X23060000Y76445000D03*
X25220000Y76445000D03*
X27380000Y76445000D03*
X29540000Y76445000D03*
X31700000Y76445000D03*
X33860000Y76445000D03*
X36020000Y76445000D03*
X38180000Y76445000D03*
X40340000Y76445000D03*
X42500000Y76445000D03*
X44660000Y76445000D03*
X46820000Y76445000D03*
X48980000Y76445000D03*
X51140000Y76445000D03*
X53300000Y76445000D03*
X55460000Y76445000D03*
X57620000Y76445000D03*
X59780000Y76445000D03*
X61940000Y76445000D03*
X64100000Y76445000D03*
X66260000Y76445000D03*
X68420000Y76445000D03*
X16580000Y72155000D03*
X18740000Y72155000D03*
X20900000Y72155000D03*
X23060000Y72155000D03*
X25220000Y72155000D03*
X27380000Y72155000D03*
X29540000Y72155000D03*
X31700000Y72155000D03*
X33860000Y72155000D03*
X36020000Y72155000D03*
X38180000Y72155000D03*
X40340000Y72155000D03*
X42500000Y72155000D03*
X44660000Y72155000D03*
X46820000Y72155000D03*
X48980000Y72155000D03*
X51140000Y72155000D03*
X53300000Y72155000D03*
X55460000Y72155000D03*
X57620000Y72155000D03*
X59780000Y72155000D03*
X61940000Y72155000D03*
X64100000Y72155000D03*
X66260000Y72155000D03*
X68420000Y72155000D03*
G04 #@! TD*
D18*
G04 #@! TO.C,U35*
X10520000Y11400000D03*
D19*
X8800000Y11400000D03*
X8800000Y9200000D03*
X10700000Y9200000D03*
G04 #@! TD*
D20*
G04 #@! TO.C,TP17*
X78100000Y25100000D03*
G04 #@! TD*
D21*
G04 #@! TO.C,SW1*
X13600000Y1000000D03*
X12100000Y2850000D03*
X15100000Y2850000D03*
G04 #@! TD*
D22*
G04 #@! TO.C,C70*
X8775000Y6050000D03*
X10325000Y6050000D03*
G04 #@! TD*
D23*
G04 #@! TO.C,C1*
X8500000Y65537500D03*
X8500000Y63962500D03*
G04 #@! TD*
D24*
G04 #@! TO.C,R2*
X6500000Y65575000D03*
X6500000Y63925000D03*
G04 #@! TD*
D25*
G04 #@! TO.C,J1*
X23100000Y5700000D03*
X23750000Y5700000D03*
X24400000Y5700000D03*
X25050000Y5700000D03*
X25700000Y5700000D03*
D26*
X22050000Y5700000D03*
X26750000Y5700000D03*
D27*
X19300000Y1600000D03*
X29500000Y1600000D03*
X19300000Y5300000D03*
X29500000Y5300000D03*
G04 #@! TD*
D28*
G04 #@! TO.C,R10*
X33475000Y2250000D03*
X31825000Y2250000D03*
G04 #@! TD*
D29*
G04 #@! TO.C,C11*
X33437500Y4350000D03*
X31862500Y4350000D03*
G04 #@! TD*
D30*
G04 #@! TO.C,U7*
X18737500Y13150000D03*
X18737500Y13800000D03*
X18737500Y14450000D03*
X16962500Y14450000D03*
X16962500Y13800000D03*
X16962500Y13150000D03*
D31*
X17850000Y13800000D03*
G04 #@! TD*
D32*
G04 #@! TO.C,U14*
X28742893Y13320621D03*
X29096447Y12967068D03*
X29450000Y12613514D03*
X29803553Y12259961D03*
X30157107Y11906408D03*
X30510660Y11552854D03*
D33*
X31482932Y11552854D03*
X31836485Y11906408D03*
X32190039Y12259961D03*
X32543592Y12613514D03*
X32897145Y12967068D03*
X33250699Y13320621D03*
D32*
X33250699Y14292893D03*
X32897145Y14646446D03*
X32543592Y15000000D03*
X32190039Y15353553D03*
X31836485Y15707106D03*
X31482932Y16060660D03*
D33*
X30510660Y16060660D03*
X30157107Y15707106D03*
X29803553Y15353553D03*
X29450000Y15000000D03*
X29096447Y14646446D03*
X28742893Y14292893D03*
D34*
X30996796Y13806757D03*
G04 #@! TD*
D35*
G04 #@! TO.C,C3*
X10850000Y18125000D03*
X10850000Y16575000D03*
G04 #@! TD*
D36*
G04 #@! TO.C,C7*
X18325000Y11800000D03*
X16775000Y11800000D03*
G04 #@! TD*
D37*
G04 #@! TO.C,U5*
X16650000Y18700000D03*
X16000000Y18700000D03*
X15350000Y18700000D03*
X15350000Y16600000D03*
X16000000Y16600000D03*
X16650000Y16600000D03*
D38*
X16000000Y17650000D03*
G04 #@! TD*
D22*
G04 #@! TO.C,C4*
X11875000Y20100000D03*
X13425000Y20100000D03*
G04 #@! TD*
D39*
G04 #@! TO.C,U19*
X36843146Y21250000D03*
X37408831Y21815685D03*
X37974517Y22381371D03*
X38540202Y22947056D03*
X39105887Y23512742D03*
X39671573Y24078427D03*
X40237258Y24644113D03*
X40802944Y25209798D03*
X41368629Y25775483D03*
X41934315Y26341169D03*
X42500000Y26906854D03*
X37408831Y20684315D03*
X37974517Y21250000D03*
X38540202Y21815685D03*
X39105887Y22381371D03*
X39671573Y22947056D03*
X40237258Y23512742D03*
X40802944Y24078427D03*
X41368629Y24644113D03*
X41934315Y25209798D03*
X42500000Y25775483D03*
X43065685Y26341169D03*
X37974517Y20118629D03*
X38540202Y20684315D03*
X39105887Y21250000D03*
X39671573Y21815685D03*
X40237258Y22381371D03*
X40802944Y22947056D03*
X41368629Y23512742D03*
X41934315Y24078427D03*
X42500000Y24644113D03*
X43065685Y25209798D03*
X43631371Y25775483D03*
X38540202Y19552944D03*
X39105887Y20118629D03*
X39671573Y20684315D03*
X40237258Y21250000D03*
X40802944Y21815685D03*
X41368629Y22381371D03*
X41934315Y22947056D03*
X42500000Y23512742D03*
X43065685Y24078427D03*
X43631371Y24644113D03*
X44197056Y25209798D03*
X39105887Y18987258D03*
X39671573Y19552944D03*
X40237258Y20118629D03*
X40802944Y20684315D03*
X41368629Y21250000D03*
X41934315Y21815685D03*
X42500000Y22381371D03*
X43065685Y22947056D03*
X43631371Y23512742D03*
X44197056Y24078427D03*
X44762742Y24644113D03*
X39671573Y18421573D03*
X40237258Y18987258D03*
X40802944Y19552944D03*
X41368629Y20118629D03*
X41934315Y20684315D03*
X42500000Y21250000D03*
X43065685Y21815685D03*
X43631371Y22381371D03*
X44197056Y22947056D03*
X44762742Y23512742D03*
X45328427Y24078427D03*
X40237258Y17855887D03*
X40802944Y18421573D03*
X41368629Y18987258D03*
X41934315Y19552944D03*
X42500000Y20118629D03*
X43065685Y20684315D03*
X43631371Y21250000D03*
X44197056Y21815685D03*
X44762742Y22381371D03*
X45328427Y22947056D03*
X45894113Y23512742D03*
X40802944Y17290202D03*
X41368629Y17855887D03*
X41934315Y18421573D03*
X42500000Y18987258D03*
X43065685Y19552944D03*
X43631371Y20118629D03*
X44197056Y20684315D03*
X44762742Y21250000D03*
X45328427Y21815685D03*
X45894113Y22381371D03*
X46459798Y22947056D03*
X41368629Y16724517D03*
X41934315Y17290202D03*
X42500000Y17855887D03*
X43065685Y18421573D03*
X43631371Y18987258D03*
X44197056Y19552944D03*
X44762742Y20118629D03*
X45328427Y20684315D03*
X45894113Y21250000D03*
X46459798Y21815685D03*
X47025483Y22381371D03*
X41934315Y16158831D03*
X42500000Y16724517D03*
X43065685Y17290202D03*
X43631371Y17855887D03*
X44197056Y18421573D03*
X44762742Y18987258D03*
X45328427Y19552944D03*
X45894113Y20118629D03*
X46459798Y20684315D03*
X47025483Y21250000D03*
X47591169Y21815685D03*
X42500000Y15593146D03*
X43065685Y16158831D03*
X43631371Y16724517D03*
X44197056Y17290202D03*
X44762742Y17855887D03*
X45328427Y18421573D03*
X45894113Y18987258D03*
X46459798Y19552944D03*
X47025483Y20118629D03*
X47591169Y20684315D03*
X48156854Y21250000D03*
G04 #@! TD*
D35*
G04 #@! TO.C,C10*
X19950000Y14425000D03*
X19950000Y12875000D03*
G04 #@! TD*
D37*
G04 #@! TO.C,U3*
X13550000Y18700000D03*
X12900000Y18700000D03*
X12250000Y18700000D03*
X12250000Y16600000D03*
X12900000Y16600000D03*
X13550000Y16600000D03*
D38*
X12900000Y17650000D03*
G04 #@! TD*
D40*
G04 #@! TO.C,R6*
X22625000Y57000000D03*
X20975000Y57000000D03*
G04 #@! TD*
D35*
G04 #@! TO.C,C8*
X18050000Y18125000D03*
X18050000Y16575000D03*
G04 #@! TD*
D22*
G04 #@! TO.C,C6*
X14975000Y20100000D03*
X16525000Y20100000D03*
G04 #@! TD*
D28*
G04 #@! TO.C,R7*
X26275000Y11700000D03*
X24625000Y11700000D03*
G04 #@! TD*
D41*
G04 #@! TO.C,J4*
X57540000Y6635000D03*
X57540000Y2565000D03*
X56270000Y6635000D03*
X56270000Y2565000D03*
X55000000Y6635000D03*
X55000000Y2565000D03*
X53730000Y6635000D03*
X53730000Y2565000D03*
X52460000Y6635000D03*
X52460000Y2565000D03*
G04 #@! TD*
D42*
G04 #@! TO.C,X2*
X48325000Y13750000D03*
X48325000Y15850000D03*
X46675000Y15850000D03*
X46675000Y13750000D03*
G04 #@! TD*
D43*
G04 #@! TO.C,D5*
X46650000Y4925000D03*
X46650000Y6675000D03*
G04 #@! TD*
D24*
G04 #@! TO.C,R13*
X39450000Y9875000D03*
X39450000Y8225000D03*
G04 #@! TD*
G04 #@! TO.C,R14*
X41250000Y9875000D03*
X41250000Y8225000D03*
G04 #@! TD*
G04 #@! TO.C,R16*
X43050000Y9875000D03*
X43050000Y8225000D03*
G04 #@! TD*
G04 #@! TO.C,R17*
X44850000Y9875000D03*
X44850000Y8225000D03*
G04 #@! TD*
G04 #@! TO.C,R19*
X46650000Y9875000D03*
X46650000Y8225000D03*
G04 #@! TD*
D43*
G04 #@! TO.C,D2*
X41250000Y4925000D03*
X41250000Y6675000D03*
G04 #@! TD*
G04 #@! TO.C,D3*
X43050000Y4925000D03*
X43050000Y6675000D03*
G04 #@! TD*
G04 #@! TO.C,D1*
X39450000Y4925000D03*
X39450000Y6675000D03*
G04 #@! TD*
G04 #@! TO.C,D4*
X44850000Y4925000D03*
X44850000Y6675000D03*
G04 #@! TD*
G04 #@! TO.C,D6*
X50500000Y4925000D03*
X50500000Y6675000D03*
G04 #@! TD*
D24*
G04 #@! TO.C,R20*
X50500000Y9875000D03*
X50500000Y8225000D03*
G04 #@! TD*
D20*
G04 #@! TO.C,TP3*
X15800000Y24400000D03*
G04 #@! TD*
G04 #@! TO.C,TP4*
X19950000Y9550000D03*
G04 #@! TD*
G04 #@! TO.C,TP1*
X12700000Y24400000D03*
G04 #@! TD*
G04 #@! TO.C,TP5*
X22450000Y12850000D03*
G04 #@! TD*
D44*
G04 #@! TO.C,FID2*
X30950000Y81000000D03*
G04 #@! TD*
G04 #@! TO.C,FID3*
X81000000Y37750000D03*
G04 #@! TD*
G04 #@! TO.C,FID1*
X4000000Y4000000D03*
G04 #@! TD*
D45*
G04 #@! TO.C,U30*
X64150000Y43250000D03*
D46*
X64650000Y42250000D03*
X65150000Y42250000D03*
X65650000Y42250000D03*
X66150000Y42250000D03*
X66650000Y42250000D03*
X67150000Y42250000D03*
D47*
X67650000Y43250000D03*
X67650000Y43750000D03*
D48*
X67150000Y44750000D03*
X66650000Y44750000D03*
X66150000Y44750000D03*
X65650000Y44750000D03*
X65150000Y44750000D03*
X64650000Y44750000D03*
D45*
X64150000Y43750000D03*
D49*
X65900000Y43500000D03*
G04 #@! TD*
D40*
G04 #@! TO.C,R4*
X13175000Y57000000D03*
X14825000Y57000000D03*
G04 #@! TD*
G04 #@! TO.C,R5*
X17075000Y57000000D03*
X18725000Y57000000D03*
G04 #@! TD*
D50*
G04 #@! TO.C,C5*
X13550000Y5975000D03*
D51*
X13550000Y8925000D03*
G04 #@! TD*
D52*
G04 #@! TO.C,U24*
X51250000Y48300000D03*
X51750000Y48300000D03*
X52250000Y48300000D03*
X52750000Y48300000D03*
X53250000Y48300000D03*
X53250000Y52700000D03*
X52750000Y52700000D03*
X52250000Y52700000D03*
X51750000Y52700000D03*
X51250000Y52700000D03*
G04 #@! TD*
D40*
G04 #@! TO.C,R24*
X59975000Y57000000D03*
X61625000Y57000000D03*
G04 #@! TD*
D20*
G04 #@! TO.C,TP7*
X60362500Y6665000D03*
G04 #@! TD*
D53*
G04 #@! TO.C,C9*
X21225000Y22100000D03*
D54*
X18275000Y22100000D03*
G04 #@! TD*
D52*
G04 #@! TO.C,U21*
X43450000Y48300000D03*
X43950000Y48300000D03*
X44450000Y48300000D03*
X44950000Y48300000D03*
X45450000Y48300000D03*
X45450000Y52700000D03*
X44950000Y52700000D03*
X44450000Y52700000D03*
X43950000Y52700000D03*
X43450000Y52700000D03*
G04 #@! TD*
D55*
G04 #@! TO.C,U12*
X26500000Y10450000D03*
X26500000Y9950000D03*
D56*
X26500000Y9450000D03*
X27600000Y9450000D03*
D55*
X27600000Y9950000D03*
X27600000Y10450000D03*
G04 #@! TD*
D45*
G04 #@! TO.C,U8*
X17350000Y43250000D03*
D46*
X17850000Y42250000D03*
X18350000Y42250000D03*
X18850000Y42250000D03*
X19350000Y42250000D03*
X19850000Y42250000D03*
X20350000Y42250000D03*
D47*
X20850000Y43250000D03*
X20850000Y43750000D03*
D48*
X20350000Y44750000D03*
X19850000Y44750000D03*
X19350000Y44750000D03*
X18850000Y44750000D03*
X18350000Y44750000D03*
X17850000Y44750000D03*
D45*
X17350000Y43750000D03*
D49*
X19100000Y43500000D03*
G04 #@! TD*
D40*
G04 #@! TO.C,R3*
X9275000Y57000000D03*
X10925000Y57000000D03*
G04 #@! TD*
D20*
G04 #@! TO.C,TP2*
X9300000Y2000000D03*
G04 #@! TD*
D52*
G04 #@! TO.C,U15*
X31750000Y48300000D03*
X32250000Y48300000D03*
X32750000Y48300000D03*
X33250000Y48300000D03*
X33750000Y48300000D03*
X33750000Y52700000D03*
X33250000Y52700000D03*
X32750000Y52700000D03*
X32250000Y52700000D03*
X31750000Y52700000D03*
G04 #@! TD*
G04 #@! TO.C,U4*
X12250000Y48300000D03*
X12750000Y48300000D03*
X13250000Y48300000D03*
X13750000Y48300000D03*
X14250000Y48300000D03*
X14250000Y52700000D03*
X13750000Y52700000D03*
X13250000Y52700000D03*
X12750000Y52700000D03*
X12250000Y52700000D03*
G04 #@! TD*
D57*
G04 #@! TO.C,X1*
X26025000Y18750000D03*
X26025000Y16650000D03*
X27675000Y16650000D03*
X27675000Y18750000D03*
G04 #@! TD*
D20*
G04 #@! TO.C,TP6*
X33300000Y18550000D03*
G04 #@! TD*
D45*
G04 #@! TO.C,U11*
X25150000Y43250000D03*
D46*
X25650000Y42250000D03*
X26150000Y42250000D03*
X26650000Y42250000D03*
X27150000Y42250000D03*
X27650000Y42250000D03*
X28150000Y42250000D03*
D47*
X28650000Y43250000D03*
X28650000Y43750000D03*
D48*
X28150000Y44750000D03*
X27650000Y44750000D03*
X27150000Y44750000D03*
X26650000Y44750000D03*
X26150000Y44750000D03*
X25650000Y44750000D03*
D45*
X25150000Y43750000D03*
D49*
X26900000Y43500000D03*
G04 #@! TD*
D52*
G04 #@! TO.C,U31*
X66850000Y48300000D03*
X67350000Y48300000D03*
X67850000Y48300000D03*
X68350000Y48300000D03*
X68850000Y48300000D03*
X68850000Y52700000D03*
X68350000Y52700000D03*
X67850000Y52700000D03*
X67350000Y52700000D03*
X66850000Y52700000D03*
G04 #@! TD*
G04 #@! TO.C,U22*
X47350000Y48300000D03*
X47850000Y48300000D03*
X48350000Y48300000D03*
X48850000Y48300000D03*
X49350000Y48300000D03*
X49350000Y52700000D03*
X48850000Y52700000D03*
X48350000Y52700000D03*
X47850000Y52700000D03*
X47350000Y52700000D03*
G04 #@! TD*
D45*
G04 #@! TO.C,U27*
X56350000Y43250000D03*
D46*
X56850000Y42250000D03*
X57350000Y42250000D03*
X57850000Y42250000D03*
X58350000Y42250000D03*
X58850000Y42250000D03*
X59350000Y42250000D03*
D47*
X59850000Y43250000D03*
X59850000Y43750000D03*
D48*
X59350000Y44750000D03*
X58850000Y44750000D03*
X58350000Y44750000D03*
X57850000Y44750000D03*
X57350000Y44750000D03*
X56850000Y44750000D03*
D45*
X56350000Y43750000D03*
D49*
X58100000Y43500000D03*
G04 #@! TD*
D45*
G04 #@! TO.C,U33*
X71950000Y43250000D03*
D46*
X72450000Y42250000D03*
X72950000Y42250000D03*
X73450000Y42250000D03*
X73950000Y42250000D03*
X74450000Y42250000D03*
X74950000Y42250000D03*
D47*
X75450000Y43250000D03*
X75450000Y43750000D03*
D48*
X74950000Y44750000D03*
X74450000Y44750000D03*
X73950000Y44750000D03*
X73450000Y44750000D03*
X72950000Y44750000D03*
X72450000Y44750000D03*
D45*
X71950000Y43750000D03*
D49*
X73700000Y43500000D03*
G04 #@! TD*
D40*
G04 #@! TO.C,R27*
X71675000Y57000000D03*
X73325000Y57000000D03*
G04 #@! TD*
G04 #@! TO.C,R9*
X28775000Y57000000D03*
X30425000Y57000000D03*
G04 #@! TD*
G04 #@! TO.C,R22*
X52175000Y57000000D03*
X53825000Y57000000D03*
G04 #@! TD*
D58*
G04 #@! TO.C,H4*
X3500000Y60500000D03*
G04 #@! TD*
D40*
G04 #@! TO.C,R8*
X24875000Y57000000D03*
X26525000Y57000000D03*
G04 #@! TD*
G04 #@! TO.C,R21*
X48275000Y57000000D03*
X49925000Y57000000D03*
G04 #@! TD*
G04 #@! TO.C,R28*
X75575000Y57000000D03*
X77225000Y57000000D03*
G04 #@! TD*
D52*
G04 #@! TO.C,U18*
X39550000Y48300000D03*
X40050000Y48300000D03*
X40550000Y48300000D03*
X41050000Y48300000D03*
X41550000Y48300000D03*
X41550000Y52700000D03*
X41050000Y52700000D03*
X40550000Y52700000D03*
X40050000Y52700000D03*
X39550000Y52700000D03*
G04 #@! TD*
G04 #@! TO.C,U25*
X55150000Y48300000D03*
X55650000Y48300000D03*
X56150000Y48300000D03*
X56650000Y48300000D03*
X57150000Y48300000D03*
X57150000Y52700000D03*
X56650000Y52700000D03*
X56150000Y52700000D03*
X55650000Y52700000D03*
X55150000Y52700000D03*
G04 #@! TD*
D58*
G04 #@! TO.C,H2*
X81500000Y60500000D03*
G04 #@! TD*
D40*
G04 #@! TO.C,R26*
X67775000Y57000000D03*
X69425000Y57000000D03*
G04 #@! TD*
D24*
G04 #@! TO.C,R1*
X1950000Y52025000D03*
X1950000Y50375000D03*
G04 #@! TD*
D45*
G04 #@! TO.C,U2*
X9550000Y43250000D03*
D46*
X10050000Y42250000D03*
X10550000Y42250000D03*
X11050000Y42250000D03*
X11550000Y42250000D03*
X12050000Y42250000D03*
X12550000Y42250000D03*
D47*
X13050000Y43250000D03*
X13050000Y43750000D03*
D48*
X12550000Y44750000D03*
X12050000Y44750000D03*
X11550000Y44750000D03*
X11050000Y44750000D03*
X10550000Y44750000D03*
X10050000Y44750000D03*
D45*
X9550000Y43750000D03*
D49*
X11300000Y43500000D03*
G04 #@! TD*
D45*
G04 #@! TO.C,U16*
X32950000Y43250000D03*
D46*
X33450000Y42250000D03*
X33950000Y42250000D03*
X34450000Y42250000D03*
X34950000Y42250000D03*
X35450000Y42250000D03*
X35950000Y42250000D03*
D47*
X36450000Y43250000D03*
X36450000Y43750000D03*
D48*
X35950000Y44750000D03*
X35450000Y44750000D03*
X34950000Y44750000D03*
X34450000Y44750000D03*
X33950000Y44750000D03*
X33450000Y44750000D03*
D45*
X32950000Y43750000D03*
D49*
X34700000Y43500000D03*
G04 #@! TD*
D45*
G04 #@! TO.C,U20*
X40750000Y43250000D03*
D46*
X41250000Y42250000D03*
X41750000Y42250000D03*
X42250000Y42250000D03*
X42750000Y42250000D03*
X43250000Y42250000D03*
X43750000Y42250000D03*
D47*
X44250000Y43250000D03*
X44250000Y43750000D03*
D48*
X43750000Y44750000D03*
X43250000Y44750000D03*
X42750000Y44750000D03*
X42250000Y44750000D03*
X41750000Y44750000D03*
X41250000Y44750000D03*
D45*
X40750000Y43750000D03*
D49*
X42500000Y43500000D03*
G04 #@! TD*
D40*
G04 #@! TO.C,R23*
X56075000Y57000000D03*
X57725000Y57000000D03*
G04 #@! TD*
G04 #@! TO.C,R11*
X32675000Y57000000D03*
X34325000Y57000000D03*
G04 #@! TD*
D52*
G04 #@! TO.C,U13*
X27850000Y48300000D03*
X28350000Y48300000D03*
X28850000Y48300000D03*
X29350000Y48300000D03*
X29850000Y48300000D03*
X29850000Y52700000D03*
X29350000Y52700000D03*
X28850000Y52700000D03*
X28350000Y52700000D03*
X27850000Y52700000D03*
G04 #@! TD*
D59*
G04 #@! TO.C,Q1*
X2600000Y55800000D03*
X3250000Y53800000D03*
X1950000Y53800000D03*
G04 #@! TD*
D52*
G04 #@! TO.C,U10*
X23950000Y48300000D03*
X24450000Y48300000D03*
X24950000Y48300000D03*
X25450000Y48300000D03*
X25950000Y48300000D03*
X25950000Y52700000D03*
X25450000Y52700000D03*
X24950000Y52700000D03*
X24450000Y52700000D03*
X23950000Y52700000D03*
G04 #@! TD*
G04 #@! TO.C,U17*
X35650000Y48300000D03*
X36150000Y48300000D03*
X36650000Y48300000D03*
X37150000Y48300000D03*
X37650000Y48300000D03*
X37650000Y52700000D03*
X37150000Y52700000D03*
X36650000Y52700000D03*
X36150000Y52700000D03*
X35650000Y52700000D03*
G04 #@! TD*
D58*
G04 #@! TO.C,H1*
X3500000Y8500000D03*
G04 #@! TD*
D52*
G04 #@! TO.C,U34*
X74650000Y48300000D03*
X75150000Y48300000D03*
X75650000Y48300000D03*
X76150000Y48300000D03*
X76650000Y48300000D03*
X76650000Y52700000D03*
X76150000Y52700000D03*
X75650000Y52700000D03*
X75150000Y52700000D03*
X74650000Y52700000D03*
G04 #@! TD*
D40*
G04 #@! TO.C,R18*
X44375000Y57000000D03*
X46025000Y57000000D03*
G04 #@! TD*
D52*
G04 #@! TO.C,U1*
X8350000Y48300000D03*
X8850000Y48300000D03*
X9350000Y48300000D03*
X9850000Y48300000D03*
X10350000Y48300000D03*
X10350000Y52700000D03*
X9850000Y52700000D03*
X9350000Y52700000D03*
X8850000Y52700000D03*
X8350000Y52700000D03*
G04 #@! TD*
D40*
G04 #@! TO.C,R25*
X63875000Y57000000D03*
X65525000Y57000000D03*
G04 #@! TD*
D52*
G04 #@! TO.C,U9*
X20050000Y48300000D03*
X20550000Y48300000D03*
X21050000Y48300000D03*
X21550000Y48300000D03*
X22050000Y48300000D03*
X22050000Y52700000D03*
X21550000Y52700000D03*
X21050000Y52700000D03*
X20550000Y52700000D03*
X20050000Y52700000D03*
G04 #@! TD*
G04 #@! TO.C,U28*
X59050000Y48300000D03*
X59550000Y48300000D03*
X60050000Y48300000D03*
X60550000Y48300000D03*
X61050000Y48300000D03*
X61050000Y52700000D03*
X60550000Y52700000D03*
X60050000Y52700000D03*
X59550000Y52700000D03*
X59050000Y52700000D03*
G04 #@! TD*
D20*
G04 #@! TO.C,TP14*
X3800000Y26100000D03*
G04 #@! TD*
D52*
G04 #@! TO.C,U29*
X62950000Y48300000D03*
X63450000Y48300000D03*
X63950000Y48300000D03*
X64450000Y48300000D03*
X64950000Y48300000D03*
X64950000Y52700000D03*
X64450000Y52700000D03*
X63950000Y52700000D03*
X63450000Y52700000D03*
X62950000Y52700000D03*
G04 #@! TD*
D58*
G04 #@! TO.C,H3*
X81500000Y8500000D03*
G04 #@! TD*
D60*
G04 #@! TO.C,C2*
X7275000Y22100000D03*
D61*
X10225000Y22100000D03*
G04 #@! TD*
D62*
G04 #@! TO.C,J3*
X54650000Y23850000D03*
D63*
X53380000Y23850000D03*
X52110000Y23850000D03*
X50840000Y23850000D03*
G04 #@! TD*
D40*
G04 #@! TO.C,R12*
X36575000Y57000000D03*
X38225000Y57000000D03*
G04 #@! TD*
D52*
G04 #@! TO.C,U6*
X16150000Y48300000D03*
X16650000Y48300000D03*
X17150000Y48300000D03*
X17650000Y48300000D03*
X18150000Y48300000D03*
X18150000Y52700000D03*
X17650000Y52700000D03*
X17150000Y52700000D03*
X16650000Y52700000D03*
X16150000Y52700000D03*
G04 #@! TD*
D40*
G04 #@! TO.C,R15*
X40475000Y57000000D03*
X42125000Y57000000D03*
G04 #@! TD*
D52*
G04 #@! TO.C,U32*
X70750000Y48300000D03*
X71250000Y48300000D03*
X71750000Y48300000D03*
X72250000Y48300000D03*
X72750000Y48300000D03*
X72750000Y52700000D03*
X72250000Y52700000D03*
X71750000Y52700000D03*
X71250000Y52700000D03*
X70750000Y52700000D03*
G04 #@! TD*
D45*
G04 #@! TO.C,U23*
X48550000Y43250000D03*
D46*
X49050000Y42250000D03*
X49550000Y42250000D03*
X50050000Y42250000D03*
X50550000Y42250000D03*
X51050000Y42250000D03*
X51550000Y42250000D03*
D47*
X52050000Y43250000D03*
X52050000Y43750000D03*
D48*
X51550000Y44750000D03*
X51050000Y44750000D03*
X50550000Y44750000D03*
X50050000Y44750000D03*
X49550000Y44750000D03*
X49050000Y44750000D03*
D45*
X48550000Y43750000D03*
D49*
X50300000Y43500000D03*
G04 #@! TD*
M02*
