M48
; DRILL file {KiCad (6.0.6)} date 2022年06月27日 22時23分14秒
; FORMAT={-:-/ absolute / inch / decimal}
; #@! TF.CreationDate,2022-06-27T22:23:14-04:00
; #@! TF.GenerationSoftware,Kicad,Pcbnew,(6.0.6)
; #@! TF.FileFunction,MixedPlating,1,4
FMAT,2
INCH
; #@! TA.AperFunction,Plated,PTH,ViaDrill
T1C0.0079
; #@! TA.AperFunction,Plated,PTH,ComponentDrill
T2C0.0079
; #@! TA.AperFunction,Plated,PTH,ViaDrill
T3C0.0118
; #@! TA.AperFunction,Plated,PTH,ComponentDrill
T4C0.0256
; #@! TA.AperFunction,Plated,PTH,ComponentDrill
T5C0.0315
; #@! TA.AperFunction,Plated,PTH,ComponentDrill
T6C0.0433
; #@! TA.AperFunction,Plated,PTH,ComponentDrill
T7C0.1220
; #@! TA.AperFunction,NonPlated,NPTH,ComponentDrill
T8C0.1260
%
G90
G05
T1
X0.2037Y2.065
X0.2362Y1.6161
X0.2362Y1.2421
X0.2756Y1.6161
X0.2776Y1.2421
X0.3287Y2.1161
X0.3465Y1.7264
X0.3465Y1.6988
X0.3656Y2.2731
X0.3662Y2.1654
X0.3681Y1.8504
X0.3767Y0.4488
X0.3839Y2.4491
X0.3957Y1.7913
X0.4114Y2.4491
X0.4291Y2.1654
X0.4301Y2.2736
X0.4528Y0.6831
X0.4606Y0.9075
X0.4606Y0.8819
X0.4606Y0.8563
X0.4606Y0.8307
X0.4823Y2.1161
X0.4862Y0.9075
X0.4862Y0.8819
X0.4862Y0.8563
X0.4862Y0.8307
X0.4882Y0.6949
X0.5138Y0.9075
X0.5138Y0.8819
X0.5138Y0.8563
X0.5138Y0.8307
X0.5187Y2.2736
X0.5197Y2.1654
X0.5217Y1.8504
X0.5276Y0.6949
X0.5374Y2.4409
X0.5394Y0.9075
X0.5394Y0.8819
X0.5394Y0.8563
X0.5394Y0.8307
X0.5561Y1.6742
X0.565Y2.4409
X0.5689Y0.6831
X0.5827Y2.1654
X0.5827Y0.9075
X0.5827Y0.8819
X0.5827Y0.8563
X0.5827Y0.8307
X0.5837Y2.2736
X0.5906Y1.6142
X0.5906Y1.2402
X0.6083Y0.9075
X0.6083Y0.8819
X0.6083Y0.8563
X0.6083Y0.8307
X0.6102Y0.6949
X0.6299Y1.6142
X0.6319Y1.2402
X0.6358Y2.1161
X0.6358Y0.9075
X0.6358Y0.8819
X0.6358Y0.8563
X0.6358Y0.8307
X0.6496Y0.6949
X0.6526Y1.7264
X0.6535Y1.6988
X0.6614Y0.9075
X0.6614Y0.8819
X0.6614Y0.8563
X0.6614Y0.8307
X0.6722Y2.2736
X0.6732Y2.1654
X0.6752Y1.8504
X0.6949Y0.6063
X0.702Y1.7925
X0.7362Y2.1654
X0.7372Y2.2736
X0.7894Y2.1161
X0.8258Y2.2736
X0.8268Y2.1654
X0.8287Y1.8504
X0.8366Y0.5059
X0.8445Y2.4561
X0.8622Y1.6732
X0.872Y2.4561
X0.8858Y1.6142
X0.8858Y1.2402
X0.8898Y2.1654
X0.8907Y2.2736
X0.9094Y0.2717
X0.9252Y1.6142
X0.9272Y1.2402
X0.9429Y2.1161
X0.9596Y1.7264
X0.9606Y1.6988
X0.9793Y2.2736
X0.9803Y2.1654
X0.9823Y1.8504
X0.9862Y0.2717
X0.998Y2.4409
X1.0098Y1.7913
X1.0256Y2.4409
X1.0433Y2.1654
X1.0443Y2.2736
X1.0965Y2.1161
X1.1072Y0.5863
X1.1299Y0.4685
X1.1334Y2.2731
X1.1339Y2.1654
X1.1358Y1.8504
X1.1527Y0.626
X1.1647Y0.5436
X1.1703Y1.6742
X1.1968Y2.1654
X1.1978Y2.2736
X1.2008Y1.2402
X1.2203Y0.5993
X1.2203Y0.5436
X1.2203Y0.4879
X1.2421Y1.2402
X1.25Y2.1161
X1.2667Y1.7264
X1.2677Y1.6988
X1.276Y0.5436
X1.2776Y0.6417
X1.2869Y2.2731
X1.2874Y2.1654
X1.2894Y1.8504
X1.3051Y2.4409
X1.3172Y1.7913
X1.3327Y2.4409
X1.3504Y2.1654
X1.3514Y2.2736
X1.4035Y2.1161
X1.44Y2.2736
X1.441Y2.1654
X1.4429Y1.8504
X1.4587Y2.4542
X1.4774Y1.6742
X1.4862Y2.4542
X1.4961Y1.6122
X1.4961Y1.2382
X1.497Y1.8474
X1.5039Y2.1654
X1.5049Y2.2736
X1.5354Y1.6122
X1.5374Y1.2382
X1.5571Y2.1161
X1.563Y0.8366
X1.5738Y1.7264
X1.5748Y1.6988
X1.5846Y0.8583
X1.5935Y2.2736
X1.5945Y2.1654
X1.5965Y1.8504
X1.5974Y1.3632
X1.6063Y0.8819
X1.6063Y0.8366
X1.6063Y0.7933
X1.6242Y1.7916
X1.628Y0.9469
X1.628Y0.9035
X1.6339Y1.1033
X1.6437Y1.2598
X1.6496Y0.9705
X1.6516Y0.9252
X1.6516Y0.8366
X1.6575Y2.1654
X1.6585Y2.2736
X1.6634Y1.2795
X1.6732Y1.1417
X1.6732Y0.9488
X1.6732Y0.8602
X1.6732Y0.815
X1.6732Y0.7697
X1.6831Y1.8465
X1.6831Y1.2598
X1.694Y0.9705
X1.6949Y1.0138
X1.6949Y0.8366
X1.6949Y0.7913
X1.6949Y0.748
X1.6969Y0.9252
X1.7028Y1.2795
X1.7106Y2.1161
X1.7165Y0.8583
X1.7165Y0.815
X1.7188Y0.9503
X1.7264Y2.6378
X1.7401Y0.9252
X1.7402Y0.8799
X1.7421Y1.6122
X1.7475Y2.2731
X1.748Y2.1654
X1.75Y1.8504
X1.752Y0.4528
X1.7607Y0.6819
X1.7618Y0.8976
X1.7618Y0.8583
X1.7618Y0.7697
X1.7618Y0.7244
X1.7657Y2.4409
X1.7844Y1.6722
X1.7933Y2.4409
X1.8071Y0.815
X1.811Y2.1654
X1.812Y2.2736
X1.8504Y0.8602
X1.8642Y2.1161
X1.874Y0.8366
X1.8809Y1.7264
X1.8819Y1.6988
X1.9006Y2.2736
X1.9016Y2.1654
X1.9035Y1.8504
X1.9193Y2.4523
X1.9213Y0.7438
X1.9311Y1.7913
X1.9339Y0.6942
X1.9468Y2.4523
X1.9488Y0.7438
X1.9488Y0.6772
X1.9488Y0.4528
X1.9646Y2.1654
X1.9655Y2.2736
X2.0177Y2.1161
X2.0546Y2.2731
X2.0551Y2.1654
X2.0571Y1.8504
X2.0631Y0.5512
X2.065Y0.1693
X2.0915Y1.6742
X2.1063Y1.6142
X2.1063Y1.2402
X2.1161Y0.7382
X2.1161Y0.3307
X2.1181Y2.1654
X2.1191Y2.2736
X2.125Y0.6033
X2.125Y0.5541
X2.1417Y0.4193
X2.1457Y1.6142
X2.1476Y1.2402
X2.1713Y2.1161
X2.188Y1.7264
X2.189Y1.6988
X2.1929Y0.7441
X2.1929Y0.3799
X2.2077Y2.2736
X2.2087Y2.1654
X2.2096Y0.6033
X2.2096Y0.5541
X2.2106Y1.8504
X2.2146Y0.3307
X2.2264Y2.4576
X2.2384Y1.7913
X2.2421Y0.7667
X2.2539Y2.4576
X2.2657Y0.3307
X2.2716Y2.1654
X2.2726Y2.2736
X2.3248Y2.1161
X2.3617Y2.2731
X2.3622Y2.1654
X2.3642Y1.8504
X2.3799Y2.4409
X2.3986Y1.6742
X2.4075Y2.4409
X2.4213Y1.6142
X2.4213Y1.2402
X2.4252Y2.1654
X2.4262Y2.2736
X2.4606Y1.6142
X2.4626Y1.2402
X2.4783Y2.1161
X2.4951Y1.7264
X2.4961Y1.6988
X2.5153Y2.2731
X2.5158Y2.1654
X2.5177Y1.8504
X2.5455Y1.7913
X2.5787Y2.1654
X2.5797Y2.2736
X2.6319Y2.1161
X2.6693Y2.2736
X2.6693Y2.1654
X2.6713Y1.8504
X2.6878Y2.4409
X2.7047Y1.6732
X2.7138Y2.4409
X2.7323Y2.1654
X2.7333Y2.2736
X2.7362Y1.2402
X2.7776Y1.2402
X2.7854Y2.1161
X2.8022Y1.7264
X2.8031Y1.6988
X2.8209Y2.2741
X2.8228Y2.1673
X2.8248Y1.8504
X2.8406Y2.4409
X2.8524Y1.7913
X2.8681Y2.4409
X2.8858Y2.1673
X2.8863Y2.2736
X2.939Y2.1161
X2.9759Y2.2731
X2.9764Y2.1654
X2.9783Y1.8504
X3.0128Y1.6742
X3.0394Y2.1654
X3.0403Y2.2736
X3.0906Y1.6142
X3.0906Y1.2402
X3.1299Y1.6142
X3.1319Y1.2402
T2
X0.7028Y0.565
X0.7028Y0.5217
T3
X0.1024Y2.1654
X0.128Y2.0846
X0.3228Y2.3622
X0.4173Y1.7126
X0.4528Y0.2559
X0.4528Y0.2185
X0.4724Y1.7126
X0.4764Y2.3622
X0.4843Y0.5965
X0.4843Y0.4173
X0.498Y0.6201
X0.498Y0.3937
X0.5118Y0.5965
X0.5118Y0.4173
X0.5256Y0.6201
X0.5256Y0.3937
X0.5394Y0.5965
X0.5394Y0.4173
X0.5531Y0.3937
X0.5531Y0.6201
X0.5669Y0.5965
X0.5669Y0.4173
X0.5807Y0.6201
X0.5807Y0.3937
X0.5945Y0.5965
X0.5945Y0.4173
X0.6083Y0.6201
X0.6083Y0.3937
X0.622Y0.5965
X0.622Y0.4173
X0.6299Y2.3622
X0.6358Y0.6201
X0.6358Y0.3937
X0.6496Y0.5965
X0.6496Y0.4173
X0.7244Y1.7126
X0.7795Y1.7126
X0.7835Y2.3622
X0.937Y2.3622
X1.0236Y0.6063
X1.0315Y1.7126
X1.0571Y0.7382
X1.0866Y1.7126
X1.0906Y2.3622
X1.2441Y2.3622
X1.3386Y1.7126
X1.3819Y0.5551
X1.3937Y1.7126
X1.3976Y2.3622
X1.5512Y2.3622
X1.6457Y1.7126
X1.7008Y1.7126
X1.7244Y2.3317
X1.8583Y2.3622
X1.8701Y0.5413
X1.9528Y1.7126
X2.0079Y1.7126
X2.0118Y2.3622
X2.1654Y2.3622
X2.2598Y1.7126
X2.315Y1.7126
X2.3189Y2.3622
X2.4724Y2.3622
X2.5669Y1.7126
X2.622Y1.7126
X2.626Y2.3622
X2.7795Y2.3622
X2.874Y1.7126
X2.9291Y1.7126
X2.9331Y2.3622
T4
X2.0016Y0.939
X2.0516Y0.939
X2.1016Y0.939
X2.1516Y0.939
T5
X0.4764Y0.1122
X0.5354Y0.0394
X0.5945Y0.1122
T6
X0.6528Y3.0096
X0.6528Y2.8407
X0.7378Y3.0096
X0.7378Y2.8407
X0.8228Y3.0096
X0.8228Y2.8407
X0.9079Y3.0096
X0.9079Y2.8407
X0.9929Y3.0096
X0.9929Y2.8407
X1.078Y3.0096
X1.078Y2.8407
X1.163Y3.0096
X1.163Y2.8407
X1.248Y3.0096
X1.248Y2.8407
X1.3331Y3.0096
X1.3331Y2.8407
X1.4181Y3.0096
X1.4181Y2.8407
X1.5031Y3.0096
X1.5031Y2.8407
X1.5882Y3.0096
X1.5882Y2.8407
X1.6732Y3.0096
X1.6732Y2.8407
X1.7583Y3.0096
X1.7583Y2.8407
X1.8433Y3.0096
X1.8433Y2.8407
X1.9283Y3.0096
X1.9283Y2.8407
X2.0134Y3.0096
X2.0134Y2.8407
X2.0984Y3.0096
X2.0984Y2.8407
X2.1835Y3.0096
X2.1835Y2.8407
X2.2685Y3.0096
X2.2685Y2.8407
X2.3535Y3.0096
X2.3535Y2.8407
X2.4386Y3.0096
X2.4386Y2.8407
X2.5236Y3.0096
X2.5236Y2.8407
X2.6087Y3.0096
X2.6087Y2.8407
X2.6937Y3.0096
X2.6937Y2.8407
T7
X0.1998Y2.9252
X3.1467Y2.9252
T8
X0.1378Y2.3819
X0.1378Y0.3346
X3.2087Y2.3819
X3.2087Y0.3346
T5
G00X0.7598Y0.2224
M15
G01X0.7598Y0.1949
M16
G05
G00X0.7598Y0.0768
M15
G01X0.7598Y0.0492
M16
G05
G00X1.1614Y0.2224
M15
G01X1.1614Y0.1949
M16
G05
G00X1.1614Y0.0768
M15
G01X1.1614Y0.0492
M16
G05
T0
M30
