<?xml version="1.0" encoding="UTF-8" standalone="no"?>
<!DOCTYPE svg PUBLIC "-//W3C//DTD SVG 1.1//EN"
 "http://www.w3.org/Graphics/SVG/1.1/DTD/svg11.dtd">
<!-- Generated by graphviz version 2.43.0 (0)
 -->
<!-- Title: scsi_bus_sist Pages: 1 -->
<svg width="364pt" height="45pt"
 viewBox="0.00 0.00 364.00 45.00" xmlns="http://www.w3.org/2000/svg" xmlns:xlink="http://www.w3.org/1999/xlink">
<g id="graph0" class="graph" transform="scale(1 1) rotate(0) translate(4 41)">
<title>scsi_bus_sist</title>
<polygon fill="transparent" stroke="transparent" points="-4,4 -4,-41 360,-41 360,4 -4,4"/>
<!-- H0 -->
<g id="node1" class="node">
<title>H0</title>
<path fill="none" stroke="black" d="M12,-0.5C12,-0.5 126,-0.5 126,-0.5 132,-0.5 138,-6.5 138,-12.5 138,-12.5 138,-24.5 138,-24.5 138,-30.5 132,-36.5 126,-36.5 126,-36.5 12,-36.5 12,-36.5 6,-36.5 0,-30.5 0,-24.5 0,-24.5 0,-12.5 0,-12.5 0,-6.5 6,-0.5 12,-0.5"/>
<text text-anchor="middle" x="28" y="-14.8" font-family="Fira Code" font-size="14.00">HOST</text>
<polyline fill="none" stroke="black" points="56,-0.5 56,-36.5 "/>
<text text-anchor="middle" x="97" y="-14.8" font-family="Fira Code" font-size="14.00">ADAPTER</text>
</g>
<!-- T0 -->
<g id="node2" class="node">
<title>T0</title>
<path fill="none" stroke="black" d="M186,-0.5C186,-0.5 344,-0.5 344,-0.5 350,-0.5 356,-6.5 356,-12.5 356,-12.5 356,-24.5 356,-24.5 356,-30.5 350,-36.5 344,-36.5 344,-36.5 186,-36.5 186,-36.5 180,-36.5 174,-30.5 174,-24.5 174,-24.5 174,-12.5 174,-12.5 174,-6.5 180,-0.5 186,-0.5"/>
<text text-anchor="middle" x="229.5" y="-14.8" font-family="Fira Code" font-size="14.00">CONTROLLER</text>
<polyline fill="none" stroke="black" points="285,-0.5 285,-36.5 "/>
<text text-anchor="middle" x="320.5" y="-14.8" font-family="Fira Code" font-size="14.00">TARGET</text>
</g>
<!-- H0&#45;&#45;T0 -->
<g id="edge1" class="edge">
<title>H0:f1&#45;&#45;T0:f0</title>
<path fill="none" stroke="black" d="M138,-18.5C154,-18.5 158,-18.5 174,-18.5"/>
</g>
</g>
</svg>
