<?xml version="1.0" encoding="UTF-8" standalone="no"?>
<!DOCTYPE svg PUBLIC "-//W3C//DTD SVG 1.1//EN"
 "http://www.w3.org/Graphics/SVG/1.1/DTD/svg11.dtd">
<!-- Generated by graphviz version 2.43.0 (0)
 -->
<!-- Title: scsi_bus_mimt Pages: 1 -->
<svg width="364pt" height="210pt"
 viewBox="0.00 0.00 364.00 210.00" xmlns="http://www.w3.org/2000/svg" xmlns:xlink="http://www.w3.org/1999/xlink">
<g id="graph0" class="graph" transform="scale(1 1) rotate(0) translate(4 206)">
<title>scsi_bus_mimt</title>
<polygon fill="transparent" stroke="transparent" points="-4,4 -4,-206 360,-206 360,4 -4,4"/>
<!-- H0 -->
<g id="node1" class="node">
<title>H0</title>
<path fill="none" stroke="black" d="M12,-137.5C12,-137.5 126,-137.5 126,-137.5 132,-137.5 138,-143.5 138,-149.5 138,-149.5 138,-161.5 138,-161.5 138,-167.5 132,-173.5 126,-173.5 126,-173.5 12,-173.5 12,-173.5 6,-173.5 0,-167.5 0,-161.5 0,-161.5 0,-149.5 0,-149.5 0,-143.5 6,-137.5 12,-137.5"/>
<text text-anchor="middle" x="28" y="-151.8" font-family="Fira Code" font-size="14.00">HOST</text>
<polyline fill="none" stroke="black" points="56,-137.5 56,-173.5 "/>
<text text-anchor="middle" x="97" y="-151.8" font-family="Fira Code" font-size="14.00">ADAPTER</text>
</g>
<!-- T0 -->
<g id="node4" class="node">
<title>T0</title>
<path fill="none" stroke="black" d="M186,-55.5C186,-55.5 344,-55.5 344,-55.5 350,-55.5 356,-61.5 356,-67.5 356,-67.5 356,-79.5 356,-79.5 356,-85.5 350,-91.5 344,-91.5 344,-91.5 186,-91.5 186,-91.5 180,-91.5 174,-85.5 174,-79.5 174,-79.5 174,-67.5 174,-67.5 174,-61.5 180,-55.5 186,-55.5"/>
<text text-anchor="middle" x="229.5" y="-69.8" font-family="Fira Code" font-size="14.00">CONTROLLER</text>
<polyline fill="none" stroke="black" points="285,-55.5 285,-91.5 "/>
<text text-anchor="middle" x="320.5" y="-69.8" font-family="Fira Code" font-size="14.00">TARGET</text>
</g>
<!-- H0&#45;&#45;T0 -->
<g id="edge1" class="edge">
<title>H0:f1&#45;&#45;T0:f0</title>
<path fill="none" stroke="black" d="M138,-155.5C177.8,-155.5 134.2,-73.5 174,-73.5"/>
</g>
<!-- T1 -->
<g id="node5" class="node">
<title>T1</title>
<path fill="none" stroke="black" d="M186,-0.5C186,-0.5 344,-0.5 344,-0.5 350,-0.5 356,-6.5 356,-12.5 356,-12.5 356,-24.5 356,-24.5 356,-30.5 350,-36.5 344,-36.5 344,-36.5 186,-36.5 186,-36.5 180,-36.5 174,-30.5 174,-24.5 174,-24.5 174,-12.5 174,-12.5 174,-6.5 180,-0.5 186,-0.5"/>
<text text-anchor="middle" x="229.5" y="-14.8" font-family="Fira Code" font-size="14.00">CONTROLLER</text>
<polyline fill="none" stroke="black" points="285,-0.5 285,-36.5 "/>
<text text-anchor="middle" x="320.5" y="-14.8" font-family="Fira Code" font-size="14.00">TARGET</text>
</g>
<!-- H0&#45;&#45;T1 -->
<g id="edge2" class="edge">
<title>H0:f1&#45;&#45;T1:f0</title>
<path fill="none" stroke="black" d="M138,-155.5C200.96,-155.5 111.04,-18.5 174,-18.5"/>
</g>
<!-- T2 -->
<g id="node6" class="node">
<title>T2</title>
<path fill="none" stroke="black" d="M186,-165.5C186,-165.5 344,-165.5 344,-165.5 350,-165.5 356,-171.5 356,-177.5 356,-177.5 356,-189.5 356,-189.5 356,-195.5 350,-201.5 344,-201.5 344,-201.5 186,-201.5 186,-201.5 180,-201.5 174,-195.5 174,-189.5 174,-189.5 174,-177.5 174,-177.5 174,-171.5 180,-165.5 186,-165.5"/>
<text text-anchor="middle" x="229.5" y="-179.8" font-family="Fira Code" font-size="14.00">CONTROLLER</text>
<polyline fill="none" stroke="black" points="285,-165.5 285,-201.5 "/>
<text text-anchor="middle" x="320.5" y="-179.8" font-family="Fira Code" font-size="14.00">TARGET</text>
</g>
<!-- H0&#45;&#45;T2 -->
<g id="edge3" class="edge">
<title>H0:f1&#45;&#45;T2:f0</title>
<path fill="none" stroke="black" d="M138,-155.5C158.27,-155.5 153.73,-183.5 174,-183.5"/>
</g>
<!-- T3 -->
<g id="node7" class="node">
<title>T3</title>
<path fill="none" stroke="black" d="M186,-110.5C186,-110.5 344,-110.5 344,-110.5 350,-110.5 356,-116.5 356,-122.5 356,-122.5 356,-134.5 356,-134.5 356,-140.5 350,-146.5 344,-146.5 344,-146.5 186,-146.5 186,-146.5 180,-146.5 174,-140.5 174,-134.5 174,-134.5 174,-122.5 174,-122.5 174,-116.5 180,-110.5 186,-110.5"/>
<text text-anchor="middle" x="229.5" y="-124.8" font-family="Fira Code" font-size="14.00">CONTROLLER</text>
<polyline fill="none" stroke="black" points="285,-110.5 285,-146.5 "/>
<text text-anchor="middle" x="320.5" y="-124.8" font-family="Fira Code" font-size="14.00">TARGET</text>
</g>
<!-- H0&#45;&#45;T3 -->
<g id="edge4" class="edge">
<title>H0:f1&#45;&#45;T3:f0</title>
<path fill="none" stroke="black" d="M138,-155.5C158,-155.5 154,-128.5 174,-128.5"/>
</g>
<!-- H1 -->
<g id="node2" class="node">
<title>H1</title>
<path fill="none" stroke="black" d="M12,-82.5C12,-82.5 126,-82.5 126,-82.5 132,-82.5 138,-88.5 138,-94.5 138,-94.5 138,-106.5 138,-106.5 138,-112.5 132,-118.5 126,-118.5 126,-118.5 12,-118.5 12,-118.5 6,-118.5 0,-112.5 0,-106.5 0,-106.5 0,-94.5 0,-94.5 0,-88.5 6,-82.5 12,-82.5"/>
<text text-anchor="middle" x="28" y="-96.8" font-family="Fira Code" font-size="14.00">HOST</text>
<polyline fill="none" stroke="black" points="56,-82.5 56,-118.5 "/>
<text text-anchor="middle" x="97" y="-96.8" font-family="Fira Code" font-size="14.00">ADAPTER</text>
</g>
<!-- H1&#45;&#45;T0 -->
<g id="edge5" class="edge">
<title>H1:f1&#45;&#45;T0:f0</title>
<path fill="none" stroke="black" d="M138,-100.5C158,-100.5 154,-73.5 174,-73.5"/>
</g>
<!-- H1&#45;&#45;T1 -->
<g id="edge6" class="edge">
<title>H1:f1&#45;&#45;T1:f0</title>
<path fill="none" stroke="black" d="M138,-100.5C177.8,-100.5 134.2,-18.5 174,-18.5"/>
</g>
<!-- H1&#45;&#45;T2 -->
<g id="edge7" class="edge">
<title>H1:f1&#45;&#45;T2:f0</title>
<path fill="none" stroke="black" d="M138,-100.5C178.21,-100.5 133.79,-183.5 174,-183.5"/>
</g>
<!-- H1&#45;&#45;T3 -->
<g id="edge8" class="edge">
<title>H1:f1&#45;&#45;T3:f0</title>
<path fill="none" stroke="black" d="M138,-100.5C158.27,-100.5 153.73,-128.5 174,-128.5"/>
</g>
<!-- H2 -->
<g id="node3" class="node">
<title>H2</title>
<path fill="none" stroke="black" d="M12,-27.5C12,-27.5 126,-27.5 126,-27.5 132,-27.5 138,-33.5 138,-39.5 138,-39.5 138,-51.5 138,-51.5 138,-57.5 132,-63.5 126,-63.5 126,-63.5 12,-63.5 12,-63.5 6,-63.5 0,-57.5 0,-51.5 0,-51.5 0,-39.5 0,-39.5 0,-33.5 6,-27.5 12,-27.5"/>
<text text-anchor="middle" x="28" y="-41.8" font-family="Fira Code" font-size="14.00">HOST</text>
<polyline fill="none" stroke="black" points="56,-27.5 56,-63.5 "/>
<text text-anchor="middle" x="97" y="-41.8" font-family="Fira Code" font-size="14.00">ADAPTER</text>
</g>
<!-- H2&#45;&#45;T0 -->
<g id="edge9" class="edge">
<title>H2:f1&#45;&#45;T0:f0</title>
<path fill="none" stroke="black" d="M138,-45.5C158.27,-45.5 153.73,-73.5 174,-73.5"/>
</g>
<!-- H2&#45;&#45;T1 -->
<g id="edge10" class="edge">
<title>H2:f1&#45;&#45;T1:f0</title>
<path fill="none" stroke="black" d="M138,-45.5C158,-45.5 154,-18.5 174,-18.5"/>
</g>
<!-- H2&#45;&#45;T2 -->
<g id="edge11" class="edge">
<title>H2:f1&#45;&#45;T2:f0</title>
<path fill="none" stroke="black" d="M138,-45.5C201.39,-45.5 110.61,-183.5 174,-183.5"/>
</g>
<!-- H2&#45;&#45;T3 -->
<g id="edge12" class="edge">
<title>H2:f1&#45;&#45;T3:f0</title>
<path fill="none" stroke="black" d="M138,-45.5C178.21,-45.5 133.79,-128.5 174,-128.5"/>
</g>
</g>
</svg>
