<?xml version="1.0" encoding="UTF-8" standalone="no"?>
<!DOCTYPE svg PUBLIC "-//W3C//DTD SVG 1.1//EN"
 "http://www.w3.org/Graphics/SVG/1.1/DTD/svg11.dtd">
<!-- Generated by graphviz version 2.43.0 (0)
 -->
<!-- Title: scsi_bus_simt Pages: 1 -->
<svg width="376pt" height="120pt"
 viewBox="0.00 0.00 376.00 120.00" xmlns="http://www.w3.org/2000/svg" xmlns:xlink="http://www.w3.org/1999/xlink">
<g id="graph0" class="graph" transform="scale(1 1) rotate(0) translate(4 116)">
<title>scsi_bus_simt</title>
<polygon fill="transparent" stroke="transparent" points="-4,4 -4,-116 372,-116 372,4 -4,4"/>
<!-- H0 -->
<g id="node1" class="node">
<title>H0</title>
<path fill="none" stroke="black" d="M12,-37.5C12,-37.5 126,-37.5 126,-37.5 132,-37.5 138,-43.5 138,-49.5 138,-49.5 138,-61.5 138,-61.5 138,-67.5 132,-73.5 126,-73.5 126,-73.5 12,-73.5 12,-73.5 6,-73.5 0,-67.5 0,-61.5 0,-61.5 0,-49.5 0,-49.5 0,-43.5 6,-37.5 12,-37.5"/>
<text text-anchor="middle" x="28" y="-51.8" font-family="Fira Code" font-size="14.00">HOST</text>
<polyline fill="none" stroke="black" points="56,-37.5 56,-73.5 "/>
<text text-anchor="middle" x="97" y="-51.8" font-family="Fira Code" font-size="14.00">ADAPTER</text>
</g>
<!-- T0 -->
<g id="node2" class="node">
<title>T0</title>
<path fill="none" stroke="black" d="M186,-65.5C186,-65.5 356,-65.5 356,-65.5 362,-65.5 368,-71.5 368,-77.5 368,-77.5 368,-99.5 368,-99.5 368,-105.5 362,-111.5 356,-111.5 356,-111.5 186,-111.5 186,-111.5 180,-111.5 174,-105.5 174,-99.5 174,-99.5 174,-77.5 174,-77.5 174,-71.5 180,-65.5 186,-65.5"/>
<text text-anchor="middle" x="229.5" y="-84.8" font-family="Fira Code" font-size="14.00">CONTROLLER</text>
<polyline fill="none" stroke="black" points="285,-65.5 285,-111.5 "/>
<text text-anchor="middle" x="326.5" y="-96.3" font-family="Fira Code" font-size="14.00">TARGET</text>
<polyline fill="none" stroke="black" points="285,-88.5 368,-88.5 "/>
<text text-anchor="middle" x="311.5" y="-73.3" font-family="Fira Code" font-size="14.00">LUN0</text>
<polyline fill="none" stroke="black" points="338,-65.5 338,-88.5 "/>
<text text-anchor="middle" x="353" y="-73.3" font-family="Fira Code" font-size="14.00">...</text>
</g>
<!-- H0&#45;&#45;T0 -->
<g id="edge1" class="edge">
<title>H0:f1&#45;&#45;T0:f0</title>
<path fill="none" stroke="black" d="M138,-55.5C159.71,-55.5 152.29,-88.5 174,-88.5"/>
</g>
<!-- T1 -->
<g id="node3" class="node">
<title>T1</title>
<path fill="none" stroke="black" d="M186,-0.5C186,-0.5 356,-0.5 356,-0.5 362,-0.5 368,-6.5 368,-12.5 368,-12.5 368,-34.5 368,-34.5 368,-40.5 362,-46.5 356,-46.5 356,-46.5 186,-46.5 186,-46.5 180,-46.5 174,-40.5 174,-34.5 174,-34.5 174,-12.5 174,-12.5 174,-6.5 180,-0.5 186,-0.5"/>
<text text-anchor="middle" x="229.5" y="-19.8" font-family="Fira Code" font-size="14.00">CONTROLLER</text>
<polyline fill="none" stroke="black" points="285,-0.5 285,-46.5 "/>
<text text-anchor="middle" x="326.5" y="-31.3" font-family="Fira Code" font-size="14.00">TARGET</text>
<polyline fill="none" stroke="black" points="285,-23.5 368,-23.5 "/>
<text text-anchor="middle" x="311.5" y="-8.3" font-family="Fira Code" font-size="14.00">LUN0</text>
<polyline fill="none" stroke="black" points="338,-0.5 338,-23.5 "/>
<text text-anchor="middle" x="353" y="-8.3" font-family="Fira Code" font-size="14.00">...</text>
</g>
<!-- H0&#45;&#45;T1 -->
<g id="edge2" class="edge">
<title>H0:f1&#45;&#45;T1:f0</title>
<path fill="none" stroke="black" d="M138,-55.5C159.41,-55.5 152.59,-23.5 174,-23.5"/>
</g>
</g>
</svg>
