<?xml version="1.0" encoding="UTF-8" standalone="no"?>
<!DOCTYPE svg PUBLIC "-//W3C//DTD SVG 1.1//EN"
 "http://www.w3.org/Graphics/SVG/1.1/DTD/svg11.dtd">
<!-- Generated by graphviz version 2.43.0 (0)
 -->
<!-- Title: scsi_without_arbitration Pages: 1 -->
<svg width="917pt" height="340pt"
 viewBox="0.00 0.00 916.64 340.16" xmlns="http://www.w3.org/2000/svg" xmlns:xlink="http://www.w3.org/1999/xlink">
<g id="graph0" class="graph" transform="scale(1 1) rotate(0) translate(4 336.16)">
<title>scsi_without_arbitration</title>
<polygon fill="transparent" stroke="transparent" points="-4,4 -4,-336.16 912.64,-336.16 912.64,4 -4,4"/>
<!-- _ -->
<g id="node1" class="node">
<title>_</title>
<text text-anchor="middle" x="31" y="-188.46" font-family="Fira Code" font-size="14.00">RESET</text>
</g>
<!-- BF -->
<g id="node2" class="node">
<title>BF</title>
<ellipse fill="none" stroke="black" cx="157.9" cy="-192.16" rx="55.8" ry="55.8"/>
<ellipse fill="none" stroke="black" cx="157.9" cy="-192.16" rx="59.79" ry="59.79"/>
<text text-anchor="middle" x="157.9" y="-188.46" font-family="Fira Code" font-size="14.00">BUS FREE</text>
</g>
<!-- _&#45;&gt;BF -->
<g id="edge21" class="edge">
<title>_&#45;&gt;BF</title>
<path fill="none" stroke="black" d="M62.23,-192.16C70,-192.16 78.67,-192.16 87.54,-192.16"/>
<polygon fill="black" stroke="black" points="87.59,-195.66 97.59,-192.16 87.59,-188.66 87.59,-195.66"/>
</g>
<!-- S -->
<g id="node3" class="node">
<title>S</title>
<ellipse fill="none" stroke="black" cx="315.53" cy="-192.16" rx="61.99" ry="61.99"/>
<text text-anchor="middle" x="315.53" y="-188.46" font-family="Fira Code" font-size="14.00">SELECTION</text>
</g>
<!-- BF&#45;&gt;S -->
<g id="edge22" class="edge">
<title>BF&#45;&gt;S</title>
<path fill="none" stroke="black" d="M217.74,-185.59C226.27,-185.43 235.14,-185.37 243.88,-185.44"/>
<polygon fill="black" stroke="black" points="244.01,-188.94 254.06,-185.56 244.1,-181.94 244.01,-188.94"/>
</g>
<!-- S&#45;&gt;BF -->
<g id="edge23" class="edge">
<title>S&#45;&gt;BF</title>
<path fill="none" stroke="black" d="M254.06,-198.76C245.48,-198.91 236.61,-198.95 227.88,-198.87"/>
<polygon fill="black" stroke="black" points="227.78,-195.37 217.74,-198.73 227.69,-202.37 227.78,-195.37"/>
</g>
<!-- C -->
<g id="node4" class="node">
<title>C</title>
<ellipse fill="none" stroke="black" cx="848.85" cy="-121.16" rx="59.59" ry="59.59"/>
<text text-anchor="middle" x="848.85" y="-117.46" font-family="Fira Code" font-size="14.00">COMMAND</text>
</g>
<!-- S&#45;&gt;C -->
<g id="edge17" class="edge">
<title>S&#45;&gt;C</title>
<path fill="none" stroke="black" d="M374.37,-211.28C460.63,-236.4 626.41,-271.48 753.06,-218.16 773.76,-209.45 792.19,-193.76 807.18,-177.5"/>
<polygon fill="black" stroke="black" points="809.8,-179.82 813.81,-170.02 804.56,-175.18 809.8,-179.82"/>
</g>
<!-- D -->
<g id="node5" class="node">
<title>D</title>
<ellipse fill="none" stroke="black" cx="718.61" cy="-157.16" rx="34.39" ry="34.39"/>
<text text-anchor="middle" x="718.61" y="-153.46" font-family="Fira Code" font-size="14.00">DATA</text>
</g>
<!-- S&#45;&gt;D -->
<g id="edge18" class="edge">
<title>S&#45;&gt;D</title>
<path fill="none" stroke="black" d="M377.43,-192.94C418.46,-193.05 473.77,-192.41 522.47,-189.16 578.6,-185.41 592.81,-184.2 648.16,-174.16 657.04,-172.55 666.47,-170.49 675.42,-168.35"/>
<polygon fill="black" stroke="black" points="676.4,-171.72 685.28,-165.94 674.73,-164.92 676.4,-171.72"/>
</g>
<!-- ST -->
<g id="node6" class="node">
<title>ST</title>
<ellipse fill="none" stroke="black" cx="603.32" cy="-71.16" rx="44.69" ry="44.69"/>
<text text-anchor="middle" x="603.32" y="-67.46" font-family="Fira Code" font-size="14.00">STATUS</text>
</g>
<!-- S&#45;&gt;ST -->
<g id="edge19" class="edge">
<title>S&#45;&gt;ST</title>
<path fill="none" stroke="black" d="M377.66,-193.71C420.56,-192.31 477.98,-185.31 522.47,-161.16 541.87,-150.63 558.87,-133.45 572.13,-116.91"/>
<polygon fill="black" stroke="black" points="575,-118.93 578.34,-108.87 569.46,-114.65 575,-118.93"/>
</g>
<!-- M -->
<g id="node7" class="node">
<title>M</title>
<ellipse fill="none" stroke="black" cx="467.87" cy="-79.16" rx="54.69" ry="54.69"/>
<text text-anchor="middle" x="467.87" y="-75.46" font-family="Fira Code" font-size="14.00">MESSAGE</text>
</g>
<!-- S&#45;&gt;M -->
<g id="edge20" class="edge">
<title>S&#45;&gt;M</title>
<path fill="none" stroke="black" d="M365.35,-155.47C381.26,-143.51 398.98,-130.19 415.11,-118.07"/>
<polygon fill="black" stroke="black" points="417.49,-120.66 423.38,-111.85 413.28,-115.06 417.49,-120.66"/>
</g>
<!-- C&#45;&gt;BF -->
<g id="edge24" class="edge">
<title>C&#45;&gt;BF</title>
<path fill="none" stroke="black" d="M818.52,-172.78C778.73,-235.24 701.38,-332.16 604.32,-332.16 466.87,-332.16 466.87,-332.16 466.87,-332.16 369.5,-332.16 339.52,-327.34 253.79,-281.16 236.18,-271.67 219.4,-258.1 204.98,-244.4"/>
<polygon fill="black" stroke="black" points="207.26,-241.73 197.66,-237.25 202.36,-246.74 207.26,-241.73"/>
</g>
<!-- C&#45;&gt;C -->
<g id="edge1" class="edge">
<title>C&#45;&gt;C</title>
<path fill="none" stroke="black" d="M824.91,-176.05C826.78,-189.2 834.76,-198.96 848.85,-198.96 859.2,-198.96 866.25,-193.7 870.01,-185.69"/>
<polygon fill="black" stroke="black" points="873.38,-186.62 872.8,-176.05 866.66,-184.68 873.38,-186.62"/>
</g>
<!-- C&#45;&gt;D -->
<g id="edge2" class="edge">
<title>C&#45;&gt;D</title>
<path fill="none" stroke="black" d="M792.8,-143.3C782.74,-146.26 772.38,-149.08 762.72,-151.47"/>
<polygon fill="black" stroke="black" points="761.88,-148.08 752.97,-153.8 763.51,-154.89 761.88,-148.08"/>
</g>
<!-- C&#45;&gt;ST -->
<g id="edge3" class="edge">
<title>C&#45;&gt;ST</title>
<path fill="none" stroke="black" d="M789.23,-114.99C748.7,-107.92 695.27,-96.87 656.27,-87.47"/>
<polygon fill="black" stroke="black" points="656.73,-83.98 646.18,-85 655.06,-90.78 656.73,-83.98"/>
</g>
<!-- C&#45;&gt;M -->
<g id="edge4" class="edge">
<title>C&#45;&gt;M</title>
<path fill="none" stroke="black" d="M795.98,-92.73C757.23,-69.7 701.88,-39.31 648.16,-26.16 609.44,-16.68 596.52,-14.28 558.47,-26.16 545.95,-30.07 533.64,-36.41 522.35,-43.4"/>
<polygon fill="black" stroke="black" points="520.42,-40.47 513.92,-48.84 524.22,-46.35 520.42,-40.47"/>
</g>
<!-- D&#45;&gt;BF -->
<g id="edge25" class="edge">
<title>D&#45;&gt;BF</title>
<path fill="none" stroke="black" d="M688.61,-174.62C676.43,-181.41 661.92,-188.83 648.16,-194.16 532.31,-239.03 500.55,-247.71 377.28,-263.16 322.82,-269.99 305.87,-280.49 253.79,-263.16 238.27,-258 223.24,-249.19 209.89,-239.51"/>
<polygon fill="black" stroke="black" points="211.89,-236.63 201.8,-233.39 207.66,-242.21 211.89,-236.63"/>
</g>
<!-- D&#45;&gt;C -->
<g id="edge6" class="edge">
<title>D&#45;&gt;C</title>
<path fill="none" stroke="black" d="M750,-142.79C759.13,-139.68 769.54,-136.46 780.07,-133.45"/>
<polygon fill="black" stroke="black" points="781.06,-136.8 789.75,-130.75 779.18,-130.06 781.06,-136.8"/>
</g>
<!-- D&#45;&gt;D -->
<g id="edge5" class="edge">
<title>D&#45;&gt;D</title>
<path fill="none" stroke="black" d="M697.76,-184.68C695.18,-197.92 702.13,-209.61 718.61,-209.61 730.71,-209.61 737.67,-203.3 739.5,-194.71"/>
<polygon fill="black" stroke="black" points="743,-194.67 739.46,-184.68 736,-194.7 743,-194.67"/>
</g>
<!-- D&#45;&gt;ST -->
<g id="edge7" class="edge">
<title>D&#45;&gt;ST</title>
<path fill="none" stroke="black" d="M688.08,-140.76C674.72,-131.4 658.72,-119.41 644.3,-107.99"/>
<polygon fill="black" stroke="black" points="646.47,-105.25 636.48,-101.73 642.09,-110.71 646.47,-105.25"/>
</g>
<!-- D&#45;&gt;M -->
<g id="edge8" class="edge">
<title>D&#45;&gt;M</title>
<path fill="none" stroke="black" d="M685.12,-165.99C652.17,-169.18 600.22,-167.59 558.47,-152.16 542.28,-146.18 526.37,-136.46 512.55,-125.98"/>
<polygon fill="black" stroke="black" points="514.68,-123.21 504.67,-119.75 510.34,-128.7 514.68,-123.21"/>
</g>
<!-- ST&#45;&gt;BF -->
<g id="edge26" class="edge">
<title>ST&#45;&gt;BF</title>
<path fill="none" stroke="black" d="M569.44,-41.28C555.9,-30.9 539.42,-20.51 522.47,-15.16 476.19,-0.55 460.77,-5.2 413.28,-15.16 337.52,-31.05 316.37,-39.59 253.79,-85.16 234.3,-99.36 215.93,-118.18 200.65,-136.08"/>
<polygon fill="black" stroke="black" points="197.58,-134.3 193.85,-144.22 202.95,-138.79 197.58,-134.3"/>
</g>
<!-- ST&#45;&gt;C -->
<g id="edge10" class="edge">
<title>ST&#45;&gt;C</title>
<path fill="none" stroke="black" d="M648.14,-74.83C685.28,-80.86 739.12,-91.66 781.55,-101.46"/>
<polygon fill="black" stroke="black" points="780.98,-104.92 791.51,-103.8 782.58,-98.11 780.98,-104.92"/>
</g>
<!-- ST&#45;&gt;D -->
<g id="edge11" class="edge">
<title>ST&#45;&gt;D</title>
<path fill="none" stroke="black" d="M642.36,-93.62C656.41,-103.77 672.18,-115.83 685.64,-126.75"/>
<polygon fill="black" stroke="black" points="683.75,-129.72 693.69,-133.38 688.19,-124.32 683.75,-129.72"/>
</g>
<!-- ST&#45;&gt;ST -->
<g id="edge9" class="edge">
<title>ST&#45;&gt;ST</title>
<path fill="none" stroke="black" d="M581.94,-110.75C582.05,-123.7 589.18,-134.01 603.32,-134.01 613.59,-134.01 620.16,-128.56 623.03,-120.62"/>
<polygon fill="black" stroke="black" points="626.48,-121.19 624.69,-110.75 619.58,-120.02 626.48,-121.19"/>
</g>
<!-- ST&#45;&gt;M -->
<g id="edge12" class="edge">
<title>ST&#45;&gt;M</title>
<path fill="none" stroke="black" d="M559.05,-80.12C550.55,-80.92 541.48,-81.59 532.48,-82.09"/>
<polygon fill="black" stroke="black" points="532.2,-78.6 522.38,-82.58 532.54,-85.59 532.2,-78.6"/>
</g>
<!-- M&#45;&gt;BF -->
<g id="edge27" class="edge">
<title>M&#45;&gt;BF</title>
<path fill="none" stroke="black" d="M413.22,-83.07C368.89,-87.85 305.12,-98.33 253.79,-121.16 239,-127.74 224.34,-136.98 211.12,-146.62"/>
<polygon fill="black" stroke="black" points="208.98,-143.85 203.09,-152.66 213.19,-149.45 208.98,-143.85"/>
</g>
<!-- M&#45;&gt;C -->
<g id="edge14" class="edge">
<title>M&#45;&gt;C</title>
<path fill="none" stroke="black" d="M504.96,-38.39C520.33,-26.01 539.15,-14.19 558.47,-8.16 596.52,3.72 609.44,1.32 648.16,-8.16 701.11,-21.12 755.63,-50.82 794.29,-76.64"/>
<polygon fill="black" stroke="black" points="792.55,-79.68 802.79,-82.42 796.49,-73.9 792.55,-79.68"/>
</g>
<!-- M&#45;&gt;D -->
<g id="edge15" class="edge">
<title>M&#45;&gt;D</title>
<path fill="none" stroke="black" d="M513.6,-109.5C527.17,-118.94 542.69,-128.33 558.47,-134.16 595.79,-147.95 641.27,-150.68 674.03,-152"/>
<polygon fill="black" stroke="black" points="674.07,-155.51 684.2,-152.39 674.34,-148.51 674.07,-155.51"/>
</g>
<!-- M&#45;&gt;ST -->
<g id="edge16" class="edge">
<title>M&#45;&gt;ST</title>
<path fill="none" stroke="black" d="M521.61,-69.38C530.41,-68.68 539.55,-68.13 548.37,-67.76"/>
<polygon fill="black" stroke="black" points="548.68,-71.25 558.55,-67.4 548.44,-64.25 548.68,-71.25"/>
</g>
<!-- M&#45;&gt;M -->
<g id="edge13" class="edge">
<title>M&#45;&gt;M</title>
<path fill="none" stroke="black" d="M442.9,-128.02C444.11,-141.47 452.43,-151.76 467.87,-151.76 479.21,-151.76 486.72,-146.21 490.38,-137.93"/>
<polygon fill="black" stroke="black" points="493.83,-138.57 492.85,-128.02 487.03,-136.88 493.83,-138.57"/>
</g>
</g>
</svg>
