<?xml version="1.0" encoding="UTF-8" standalone="no"?>
<!DOCTYPE svg PUBLIC "-//W3C//DTD SVG 1.1//EN"
 "http://www.w3.org/Graphics/SVG/1.1/DTD/svg11.dtd">
<!-- Generated by graphviz version 2.43.0 (0)
 -->
<!-- Title: scsi_bus_sist Pages: 1 -->
<svg width="376pt" height="55pt"
 viewBox="0.00 0.00 376.00 55.00" xmlns="http://www.w3.org/2000/svg" xmlns:xlink="http://www.w3.org/1999/xlink">
<g id="graph0" class="graph" transform="scale(1 1) rotate(0) translate(4 51)">
<title>scsi_bus_sist</title>
<polygon fill="transparent" stroke="transparent" points="-4,4 -4,-51 372,-51 372,4 -4,4"/>
<!-- H0 -->
<g id="node1" class="node">
<title>H0</title>
<path fill="none" stroke="black" d="M12,-5.5C12,-5.5 126,-5.5 126,-5.5 132,-5.5 138,-11.5 138,-17.5 138,-17.5 138,-29.5 138,-29.5 138,-35.5 132,-41.5 126,-41.5 126,-41.5 12,-41.5 12,-41.5 6,-41.5 0,-35.5 0,-29.5 0,-29.5 0,-17.5 0,-17.5 0,-11.5 6,-5.5 12,-5.5"/>
<text text-anchor="middle" x="28" y="-19.8" font-family="Fira Code" font-size="14.00">HOST</text>
<polyline fill="none" stroke="black" points="56,-5.5 56,-41.5 "/>
<text text-anchor="middle" x="97" y="-19.8" font-family="Fira Code" font-size="14.00">ADAPTER</text>
</g>
<!-- T0 -->
<g id="node2" class="node">
<title>T0</title>
<path fill="none" stroke="black" d="M186,-0.5C186,-0.5 356,-0.5 356,-0.5 362,-0.5 368,-6.5 368,-12.5 368,-12.5 368,-34.5 368,-34.5 368,-40.5 362,-46.5 356,-46.5 356,-46.5 186,-46.5 186,-46.5 180,-46.5 174,-40.5 174,-34.5 174,-34.5 174,-12.5 174,-12.5 174,-6.5 180,-0.5 186,-0.5"/>
<text text-anchor="middle" x="229.5" y="-19.8" font-family="Fira Code" font-size="14.00">CONTROLLER</text>
<polyline fill="none" stroke="black" points="285,-0.5 285,-46.5 "/>
<text text-anchor="middle" x="326.5" y="-31.3" font-family="Fira Code" font-size="14.00">TARGET</text>
<polyline fill="none" stroke="black" points="285,-23.5 368,-23.5 "/>
<text text-anchor="middle" x="311.5" y="-8.3" font-family="Fira Code" font-size="14.00">LUN0</text>
<polyline fill="none" stroke="black" points="338,-0.5 338,-23.5 "/>
<text text-anchor="middle" x="353" y="-8.3" font-family="Fira Code" font-size="14.00">...</text>
</g>
<!-- H0&#45;&#45;T0 -->
<g id="edge1" class="edge">
<title>H0:f1&#45;&#45;T0:f0</title>
<path fill="none" stroke="black" d="M138,-23.5C154,-23.5 158,-23.5 174,-23.5"/>
</g>
</g>
</svg>
