<?xml version="1.0" encoding="UTF-8" standalone="no"?>
<!DOCTYPE svg PUBLIC "-//W3C//DTD SVG 1.1//EN"
 "http://www.w3.org/Graphics/SVG/1.1/DTD/svg11.dtd">
<!-- Generated by graphviz version 2.43.0 (0)
 -->
<!-- Title: scsi_bus_mimt Pages: 1 -->
<svg width="376pt" height="250pt"
 viewBox="0.00 0.00 376.00 250.00" xmlns="http://www.w3.org/2000/svg" xmlns:xlink="http://www.w3.org/1999/xlink">
<g id="graph0" class="graph" transform="scale(1 1) rotate(0) translate(4 246)">
<title>scsi_bus_mimt</title>
<polygon fill="transparent" stroke="transparent" points="-4,4 -4,-246 372,-246 372,4 -4,4"/>
<!-- H0 -->
<g id="node1" class="node">
<title>H0</title>
<path fill="none" stroke="black" d="M12,-157.5C12,-157.5 126,-157.5 126,-157.5 132,-157.5 138,-163.5 138,-169.5 138,-169.5 138,-181.5 138,-181.5 138,-187.5 132,-193.5 126,-193.5 126,-193.5 12,-193.5 12,-193.5 6,-193.5 0,-187.5 0,-181.5 0,-181.5 0,-169.5 0,-169.5 0,-163.5 6,-157.5 12,-157.5"/>
<text text-anchor="middle" x="28" y="-171.8" font-family="Fira Code" font-size="14.00">HOST</text>
<polyline fill="none" stroke="black" points="56,-157.5 56,-193.5 "/>
<text text-anchor="middle" x="97" y="-171.8" font-family="Fira Code" font-size="14.00">ADAPTER</text>
</g>
<!-- T0 -->
<g id="node4" class="node">
<title>T0</title>
<path fill="none" stroke="black" d="M186,-65.5C186,-65.5 356,-65.5 356,-65.5 362,-65.5 368,-71.5 368,-77.5 368,-77.5 368,-99.5 368,-99.5 368,-105.5 362,-111.5 356,-111.5 356,-111.5 186,-111.5 186,-111.5 180,-111.5 174,-105.5 174,-99.5 174,-99.5 174,-77.5 174,-77.5 174,-71.5 180,-65.5 186,-65.5"/>
<text text-anchor="middle" x="229.5" y="-84.8" font-family="Fira Code" font-size="14.00">CONTROLLER</text>
<polyline fill="none" stroke="black" points="285,-65.5 285,-111.5 "/>
<text text-anchor="middle" x="326.5" y="-96.3" font-family="Fira Code" font-size="14.00">TARGET</text>
<polyline fill="none" stroke="black" points="285,-88.5 368,-88.5 "/>
<text text-anchor="middle" x="311.5" y="-73.3" font-family="Fira Code" font-size="14.00">LUN0</text>
<polyline fill="none" stroke="black" points="338,-65.5 338,-88.5 "/>
<text text-anchor="middle" x="353" y="-73.3" font-family="Fira Code" font-size="14.00">...</text>
</g>
<!-- H0&#45;&#45;T0 -->
<g id="edge1" class="edge">
<title>H0:f1&#45;&#45;T0:f0</title>
<path fill="none" stroke="black" d="M138,-175.5C179.85,-175.5 132.15,-88.5 174,-88.5"/>
</g>
<!-- T1 -->
<g id="node5" class="node">
<title>T1</title>
<path fill="none" stroke="black" d="M186,-0.5C186,-0.5 356,-0.5 356,-0.5 362,-0.5 368,-6.5 368,-12.5 368,-12.5 368,-34.5 368,-34.5 368,-40.5 362,-46.5 356,-46.5 356,-46.5 186,-46.5 186,-46.5 180,-46.5 174,-40.5 174,-34.5 174,-34.5 174,-12.5 174,-12.5 174,-6.5 180,-0.5 186,-0.5"/>
<text text-anchor="middle" x="229.5" y="-19.8" font-family="Fira Code" font-size="14.00">CONTROLLER</text>
<polyline fill="none" stroke="black" points="285,-0.5 285,-46.5 "/>
<text text-anchor="middle" x="326.5" y="-31.3" font-family="Fira Code" font-size="14.00">TARGET</text>
<polyline fill="none" stroke="black" points="285,-23.5 368,-23.5 "/>
<text text-anchor="middle" x="311.5" y="-8.3" font-family="Fira Code" font-size="14.00">LUN0</text>
<polyline fill="none" stroke="black" points="338,-0.5 338,-23.5 "/>
<text text-anchor="middle" x="353" y="-8.3" font-family="Fira Code" font-size="14.00">...</text>
</g>
<!-- H0&#45;&#45;T1 -->
<g id="edge2" class="edge">
<title>H0:f1&#45;&#45;T1:f0</title>
<path fill="none" stroke="black" d="M138,-175.5C207.42,-175.5 104.58,-23.5 174,-23.5"/>
</g>
<!-- T2 -->
<g id="node6" class="node">
<title>T2</title>
<path fill="none" stroke="black" d="M186,-195.5C186,-195.5 356,-195.5 356,-195.5 362,-195.5 368,-201.5 368,-207.5 368,-207.5 368,-229.5 368,-229.5 368,-235.5 362,-241.5 356,-241.5 356,-241.5 186,-241.5 186,-241.5 180,-241.5 174,-235.5 174,-229.5 174,-229.5 174,-207.5 174,-207.5 174,-201.5 180,-195.5 186,-195.5"/>
<text text-anchor="middle" x="229.5" y="-214.8" font-family="Fira Code" font-size="14.00">CONTROLLER</text>
<polyline fill="none" stroke="black" points="285,-195.5 285,-241.5 "/>
<text text-anchor="middle" x="326.5" y="-226.3" font-family="Fira Code" font-size="14.00">TARGET</text>
<polyline fill="none" stroke="black" points="285,-218.5 368,-218.5 "/>
<text text-anchor="middle" x="311.5" y="-203.3" font-family="Fira Code" font-size="14.00">LUN0</text>
<polyline fill="none" stroke="black" points="338,-195.5 338,-218.5 "/>
<text text-anchor="middle" x="353" y="-203.3" font-family="Fira Code" font-size="14.00">...</text>
</g>
<!-- H0&#45;&#45;T2 -->
<g id="edge3" class="edge">
<title>H0:f1&#45;&#45;T2:f0</title>
<path fill="none" stroke="black" d="M138,-175.5C162.92,-175.5 149.08,-218.5 174,-218.5"/>
</g>
<!-- T3 -->
<g id="node7" class="node">
<title>T3</title>
<path fill="none" stroke="black" d="M186,-130.5C186,-130.5 356,-130.5 356,-130.5 362,-130.5 368,-136.5 368,-142.5 368,-142.5 368,-164.5 368,-164.5 368,-170.5 362,-176.5 356,-176.5 356,-176.5 186,-176.5 186,-176.5 180,-176.5 174,-170.5 174,-164.5 174,-164.5 174,-142.5 174,-142.5 174,-136.5 180,-130.5 186,-130.5"/>
<text text-anchor="middle" x="229.5" y="-149.8" font-family="Fira Code" font-size="14.00">CONTROLLER</text>
<polyline fill="none" stroke="black" points="285,-130.5 285,-176.5 "/>
<text text-anchor="middle" x="326.5" y="-161.3" font-family="Fira Code" font-size="14.00">TARGET</text>
<polyline fill="none" stroke="black" points="285,-153.5 368,-153.5 "/>
<text text-anchor="middle" x="311.5" y="-138.3" font-family="Fira Code" font-size="14.00">LUN0</text>
<polyline fill="none" stroke="black" points="338,-130.5 338,-153.5 "/>
<text text-anchor="middle" x="353" y="-138.3" font-family="Fira Code" font-size="14.00">...</text>
</g>
<!-- H0&#45;&#45;T3 -->
<g id="edge4" class="edge">
<title>H0:f1&#45;&#45;T3:f0</title>
<path fill="none" stroke="black" d="M138,-175.5C156.75,-175.5 155.25,-153.5 174,-153.5"/>
</g>
<!-- H1 -->
<g id="node2" class="node">
<title>H1</title>
<path fill="none" stroke="black" d="M12,-102.5C12,-102.5 126,-102.5 126,-102.5 132,-102.5 138,-108.5 138,-114.5 138,-114.5 138,-126.5 138,-126.5 138,-132.5 132,-138.5 126,-138.5 126,-138.5 12,-138.5 12,-138.5 6,-138.5 0,-132.5 0,-126.5 0,-126.5 0,-114.5 0,-114.5 0,-108.5 6,-102.5 12,-102.5"/>
<text text-anchor="middle" x="28" y="-116.8" font-family="Fira Code" font-size="14.00">HOST</text>
<polyline fill="none" stroke="black" points="56,-102.5 56,-138.5 "/>
<text text-anchor="middle" x="97" y="-116.8" font-family="Fira Code" font-size="14.00">ADAPTER</text>
</g>
<!-- H1&#45;&#45;T0 -->
<g id="edge5" class="edge">
<title>H1:f1&#45;&#45;T0:f0</title>
<path fill="none" stroke="black" d="M138,-120.5C159.41,-120.5 152.59,-88.5 174,-88.5"/>
</g>
<!-- H1&#45;&#45;T1 -->
<g id="edge6" class="edge">
<title>H1:f1&#45;&#45;T1:f0</title>
<path fill="none" stroke="black" d="M138,-120.5C183.98,-120.5 128.02,-23.5 174,-23.5"/>
</g>
<!-- H1&#45;&#45;T2 -->
<g id="edge7" class="edge">
<title>H1:f1&#45;&#45;T2:f0</title>
<path fill="none" stroke="black" d="M138,-120.5C184.4,-120.5 127.6,-218.5 174,-218.5"/>
</g>
<!-- H1&#45;&#45;T3 -->
<g id="edge8" class="edge">
<title>H1:f1&#45;&#45;T3:f0</title>
<path fill="none" stroke="black" d="M138,-120.5C159.71,-120.5 152.29,-153.5 174,-153.5"/>
</g>
<!-- H2 -->
<g id="node3" class="node">
<title>H2</title>
<path fill="none" stroke="black" d="M12,-47.5C12,-47.5 126,-47.5 126,-47.5 132,-47.5 138,-53.5 138,-59.5 138,-59.5 138,-71.5 138,-71.5 138,-77.5 132,-83.5 126,-83.5 126,-83.5 12,-83.5 12,-83.5 6,-83.5 0,-77.5 0,-71.5 0,-71.5 0,-59.5 0,-59.5 0,-53.5 6,-47.5 12,-47.5"/>
<text text-anchor="middle" x="28" y="-61.8" font-family="Fira Code" font-size="14.00">HOST</text>
<polyline fill="none" stroke="black" points="56,-47.5 56,-83.5 "/>
<text text-anchor="middle" x="97" y="-61.8" font-family="Fira Code" font-size="14.00">ADAPTER</text>
</g>
<!-- H2&#45;&#45;T0 -->
<g id="edge9" class="edge">
<title>H2:f1&#45;&#45;T0:f0</title>
<path fill="none" stroke="black" d="M138,-65.5C156.99,-65.5 155.01,-88.5 174,-88.5"/>
</g>
<!-- H2&#45;&#45;T1 -->
<g id="edge10" class="edge">
<title>H2:f1&#45;&#45;T1:f0</title>
<path fill="none" stroke="black" d="M138,-65.5C162.59,-65.5 149.41,-23.5 174,-23.5"/>
</g>
<!-- H2&#45;&#45;T2 -->
<g id="edge11" class="edge">
<title>H2:f1&#45;&#45;T2:f0</title>
<path fill="none" stroke="black" d="M138,-65.5C207.86,-65.5 104.14,-218.5 174,-218.5"/>
</g>
<!-- H2&#45;&#45;T3 -->
<g id="edge12" class="edge">
<title>H2:f1&#45;&#45;T3:f0</title>
<path fill="none" stroke="black" d="M138,-65.5C180.26,-65.5 131.74,-153.5 174,-153.5"/>
</g>
</g>
</svg>
