<?xml version="1.0" encoding="UTF-8" standalone="no"?>
<!DOCTYPE svg PUBLIC "-//W3C//DTD SVG 1.1//EN"
 "http://www.w3.org/Graphics/SVG/1.1/DTD/svg11.dtd">
<!-- Generated by graphviz version 2.43.0 (0)
 -->
<!-- Title: scsi_bus_simt Pages: 1 -->
<svg width="364pt" height="100pt"
 viewBox="0.00 0.00 364.00 100.00" xmlns="http://www.w3.org/2000/svg" xmlns:xlink="http://www.w3.org/1999/xlink">
<g id="graph0" class="graph" transform="scale(1 1) rotate(0) translate(4 96)">
<title>scsi_bus_simt</title>
<polygon fill="transparent" stroke="transparent" points="-4,4 -4,-96 360,-96 360,4 -4,4"/>
<!-- H0 -->
<g id="node1" class="node">
<title>H0</title>
<path fill="none" stroke="black" d="M12,-27.5C12,-27.5 126,-27.5 126,-27.5 132,-27.5 138,-33.5 138,-39.5 138,-39.5 138,-51.5 138,-51.5 138,-57.5 132,-63.5 126,-63.5 126,-63.5 12,-63.5 12,-63.5 6,-63.5 0,-57.5 0,-51.5 0,-51.5 0,-39.5 0,-39.5 0,-33.5 6,-27.5 12,-27.5"/>
<text text-anchor="middle" x="28" y="-41.8" font-family="Fira Code" font-size="14.00">HOST</text>
<polyline fill="none" stroke="black" points="56,-27.5 56,-63.5 "/>
<text text-anchor="middle" x="97" y="-41.8" font-family="Fira Code" font-size="14.00">ADAPTER</text>
</g>
<!-- T0 -->
<g id="node2" class="node">
<title>T0</title>
<path fill="none" stroke="black" d="M186,-55.5C186,-55.5 344,-55.5 344,-55.5 350,-55.5 356,-61.5 356,-67.5 356,-67.5 356,-79.5 356,-79.5 356,-85.5 350,-91.5 344,-91.5 344,-91.5 186,-91.5 186,-91.5 180,-91.5 174,-85.5 174,-79.5 174,-79.5 174,-67.5 174,-67.5 174,-61.5 180,-55.5 186,-55.5"/>
<text text-anchor="middle" x="229.5" y="-69.8" font-family="Fira Code" font-size="14.00">CONTROLLER</text>
<polyline fill="none" stroke="black" points="285,-55.5 285,-91.5 "/>
<text text-anchor="middle" x="320.5" y="-69.8" font-family="Fira Code" font-size="14.00">TARGET</text>
</g>
<!-- H0&#45;&#45;T0 -->
<g id="edge1" class="edge">
<title>H0:f1&#45;&#45;T0:f0</title>
<path fill="none" stroke="black" d="M138,-45.5C158.27,-45.5 153.73,-73.5 174,-73.5"/>
</g>
<!-- T1 -->
<g id="node3" class="node">
<title>T1</title>
<path fill="none" stroke="black" d="M186,-0.5C186,-0.5 344,-0.5 344,-0.5 350,-0.5 356,-6.5 356,-12.5 356,-12.5 356,-24.5 356,-24.5 356,-30.5 350,-36.5 344,-36.5 344,-36.5 186,-36.5 186,-36.5 180,-36.5 174,-30.5 174,-24.5 174,-24.5 174,-12.5 174,-12.5 174,-6.5 180,-0.5 186,-0.5"/>
<text text-anchor="middle" x="229.5" y="-14.8" font-family="Fira Code" font-size="14.00">CONTROLLER</text>
<polyline fill="none" stroke="black" points="285,-0.5 285,-36.5 "/>
<text text-anchor="middle" x="320.5" y="-14.8" font-family="Fira Code" font-size="14.00">TARGET</text>
</g>
<!-- H0&#45;&#45;T1 -->
<g id="edge2" class="edge">
<title>H0:f1&#45;&#45;T1:f0</title>
<path fill="none" stroke="black" d="M138,-45.5C158,-45.5 154,-18.5 174,-18.5"/>
</g>
</g>
</svg>
