%FSLAX45Y45*%
G04 Gerber Fmt 4.5, Leading zero omitted, Abs format (unit mm)*
G04 Created by KiCad (PCBNEW 5.1.6) date 2020-08-02 00:36:02*
%MOMM*%
%LPD*%
G01*
G04 APERTURE LIST*
%TA.AperFunction,Profile*%
%ADD10C,0.050000*%
%TD*%
%ADD11C,0.200000*%
%ADD12C,0.300000*%
G04 APERTURE END LIST*
D10*
X1920000Y0D02*
X400000Y0D01*
X0Y7280000D02*
G75*
G02*
X400000Y7680000I400000J0D01*
G01*
X7800000Y7680000D02*
G75*
G02*
X8200000Y7280000I0J-400000D01*
G01*
X8200000Y400000D02*
G75*
G02*
X7800000Y0I-400000J0D01*
G01*
X400000Y0D02*
G75*
G02*
X0Y400000I0J400000D01*
G01*
X0Y400000D02*
X0Y7280000D01*
X7800000Y0D02*
X2660000Y0D01*
X8200000Y7280000D02*
X8200000Y400000D01*
X400000Y7680000D02*
X7800000Y7680000D01*
D11*
X920000Y4030000D02*
X940000Y4010000D01*
X940000Y4030000D02*
X920000Y4010000D01*
X1010000Y4195000D02*
X1030000Y4175000D01*
X1030000Y4195000D02*
X1010000Y4175000D01*
X1010000Y4095000D02*
X1030000Y4075000D01*
X1030000Y4095000D02*
X1010000Y4075000D01*
X1065000Y4145000D02*
X1085000Y4125000D01*
X1085000Y4145000D02*
X1065000Y4125000D01*
X1112300Y4865507D02*
X1132300Y4845507D01*
X1132300Y4865507D02*
X1112300Y4845507D01*
X1131500Y5065000D02*
X1151500Y5045000D01*
X1151500Y5065000D02*
X1131500Y5045000D01*
X1135000Y4145000D02*
X1155000Y4125000D01*
X1155000Y4145000D02*
X1135000Y4125000D01*
X1145000Y5280000D02*
X1165000Y5260000D01*
X1165000Y5280000D02*
X1145000Y5260000D01*
X1190000Y4195000D02*
X1210000Y4175000D01*
X1210000Y4195000D02*
X1190000Y4175000D01*
X1190000Y4095000D02*
X1210000Y4075000D01*
X1210000Y4095000D02*
X1190000Y4075000D01*
X1215000Y5280000D02*
X1235000Y5260000D01*
X1235000Y5280000D02*
X1215000Y5260000D01*
X1228500Y5065000D02*
X1248500Y5045000D01*
X1248500Y5065000D02*
X1228500Y5045000D01*
X1230000Y3942901D02*
X1250000Y3922901D01*
X1250000Y3942901D02*
X1230000Y3922901D01*
X1230000Y3780000D02*
X1250000Y3760000D01*
X1250000Y3780000D02*
X1230000Y3760000D01*
X1230000Y3590000D02*
X1250000Y3570000D01*
X1250000Y3590000D02*
X1230000Y3570000D01*
X1230000Y3400000D02*
X1250000Y3380000D01*
X1250000Y3400000D02*
X1230000Y3380000D01*
X1250000Y4865000D02*
X1270000Y4845000D01*
X1270000Y4865000D02*
X1250000Y4845000D01*
X1270000Y4025000D02*
X1290000Y4005000D01*
X1290000Y4025000D02*
X1270000Y4005000D01*
X1295000Y6040000D02*
X1315000Y6020000D01*
X1315000Y6040000D02*
X1295000Y6020000D01*
X1300000Y6405000D02*
X1320000Y6385000D01*
X1320000Y6405000D02*
X1300000Y6385000D01*
X1340000Y5165000D02*
X1360000Y5145000D01*
X1360000Y5165000D02*
X1340000Y5145000D01*
X1345000Y5395000D02*
X1365000Y5375000D01*
X1365000Y5395000D02*
X1345000Y5375000D01*
X1355000Y4195000D02*
X1375000Y4175000D01*
X1375000Y4195000D02*
X1355000Y4175000D01*
X1355000Y4095000D02*
X1375000Y4075000D01*
X1375000Y4095000D02*
X1355000Y4075000D01*
X1355000Y3640000D02*
X1375000Y3620000D01*
X1375000Y3640000D02*
X1355000Y3620000D01*
X1355000Y3540000D02*
X1375000Y3520000D01*
X1375000Y3540000D02*
X1355000Y3520000D01*
X1410000Y4145000D02*
X1430000Y4125000D01*
X1430000Y4145000D02*
X1410000Y4125000D01*
X1410000Y3590000D02*
X1430000Y3570000D01*
X1430000Y3590000D02*
X1410000Y3570000D01*
X1456579Y4867451D02*
X1476579Y4847451D01*
X1476579Y4867451D02*
X1456579Y4847451D01*
X1476500Y5065000D02*
X1496500Y5045000D01*
X1496500Y5065000D02*
X1476500Y5045000D01*
X1480000Y4145000D02*
X1500000Y4125000D01*
X1500000Y4145000D02*
X1480000Y4125000D01*
X1480000Y3590000D02*
X1500000Y3570000D01*
X1500000Y3590000D02*
X1480000Y3570000D01*
X1490000Y5280000D02*
X1510000Y5260000D01*
X1510000Y5280000D02*
X1490000Y5260000D01*
X1535000Y4195000D02*
X1555000Y4175000D01*
X1555000Y4195000D02*
X1535000Y4175000D01*
X1535000Y4095000D02*
X1555000Y4075000D01*
X1555000Y4095000D02*
X1535000Y4075000D01*
X1535000Y3640000D02*
X1555000Y3620000D01*
X1555000Y3640000D02*
X1535000Y3620000D01*
X1535000Y3540000D02*
X1555000Y3520000D01*
X1555000Y3540000D02*
X1535000Y3520000D01*
X1560000Y5280000D02*
X1580000Y5260000D01*
X1580000Y5280000D02*
X1560000Y5260000D01*
X1565000Y3330000D02*
X1585000Y3310000D01*
X1585000Y3330000D02*
X1565000Y3310000D01*
X1573500Y5065000D02*
X1593500Y5045000D01*
X1593500Y5065000D02*
X1573500Y5045000D01*
X1575000Y3945000D02*
X1595000Y3925000D01*
X1595000Y3945000D02*
X1575000Y3925000D01*
X1595000Y4865000D02*
X1615000Y4845000D01*
X1615000Y4865000D02*
X1595000Y4845000D01*
X1615000Y4025000D02*
X1635000Y4005000D01*
X1635000Y4025000D02*
X1615000Y4005000D01*
X1640000Y5915000D02*
X1660000Y5895000D01*
X1660000Y5915000D02*
X1640000Y5895000D01*
X1660000Y3590000D02*
X1680000Y3570000D01*
X1680000Y3590000D02*
X1660000Y3570000D01*
X1670000Y6270000D02*
X1690000Y6250000D01*
X1690000Y6270000D02*
X1670000Y6250000D01*
X1675000Y5395000D02*
X1695000Y5375000D01*
X1695000Y5395000D02*
X1675000Y5375000D01*
X1690000Y5165000D02*
X1710000Y5145000D01*
X1710000Y5165000D02*
X1690000Y5145000D01*
X1690000Y3175000D02*
X1710000Y3155000D01*
X1710000Y3175000D02*
X1690000Y3155000D01*
X1700000Y4195000D02*
X1720000Y4175000D01*
X1720000Y4195000D02*
X1700000Y4175000D01*
X1700000Y4095000D02*
X1720000Y4075000D01*
X1720000Y4095000D02*
X1700000Y4075000D01*
X1755000Y4145000D02*
X1775000Y4125000D01*
X1775000Y4145000D02*
X1755000Y4125000D01*
X1760000Y3700000D02*
X1780000Y3680000D01*
X1780000Y3700000D02*
X1760000Y3680000D01*
X1802300Y4865000D02*
X1822300Y4845000D01*
X1822300Y4865000D02*
X1802300Y4845000D01*
X1823250Y5066750D02*
X1843250Y5046750D01*
X1843250Y5066750D02*
X1823250Y5046750D01*
X1825000Y4145000D02*
X1845000Y4125000D01*
X1845000Y4145000D02*
X1825000Y4125000D01*
X1825000Y1290000D02*
X1845000Y1270000D01*
X1845000Y1290000D02*
X1825000Y1270000D01*
X1825000Y1225000D02*
X1845000Y1205000D01*
X1845000Y1225000D02*
X1825000Y1205000D01*
X1880000Y4195000D02*
X1900000Y4175000D01*
X1900000Y4195000D02*
X1880000Y4175000D01*
X1880000Y4095000D02*
X1900000Y4075000D01*
X1900000Y4095000D02*
X1880000Y4075000D01*
X1890000Y3920000D02*
X1910000Y3900000D01*
X1910000Y3920000D02*
X1890000Y3900000D01*
X1905000Y1470000D02*
X1925000Y1450000D01*
X1925000Y1470000D02*
X1905000Y1450000D01*
X1905000Y1400000D02*
X1925000Y1380000D01*
X1925000Y1400000D02*
X1905000Y1380000D01*
X1918500Y5065000D02*
X1938500Y5045000D01*
X1938500Y5065000D02*
X1918500Y5045000D01*
X1935000Y4865000D02*
X1955000Y4845000D01*
X1955000Y4865000D02*
X1935000Y4845000D01*
X1943887Y1568479D02*
X1963887Y1548479D01*
X1963887Y1568479D02*
X1943887Y1548479D01*
X1945800Y1510800D02*
X1965800Y1490800D01*
X1965800Y1510800D02*
X1945800Y1490800D01*
X1950000Y2240000D02*
X1970000Y2220000D01*
X1970000Y2240000D02*
X1950000Y2220000D01*
X1960000Y4025000D02*
X1980000Y4005000D01*
X1980000Y4025000D02*
X1960000Y4005000D01*
X1985000Y1360000D02*
X2005000Y1340000D01*
X2005000Y1360000D02*
X1985000Y1340000D01*
X1996677Y1611299D02*
X2016677Y1591299D01*
X2016677Y1611299D02*
X1996677Y1591299D01*
X2000000Y6240000D02*
X2020000Y6220000D01*
X2020000Y6240000D02*
X2000000Y6220000D01*
X2030000Y5395000D02*
X2050000Y5375000D01*
X2050000Y5395000D02*
X2030000Y5375000D01*
X2040000Y5170000D02*
X2060000Y5150000D01*
X2060000Y5170000D02*
X2040000Y5150000D01*
X2050000Y4195000D02*
X2070000Y4175000D01*
X2070000Y4195000D02*
X2050000Y4175000D01*
X2050000Y4095000D02*
X2070000Y4075000D01*
X2070000Y4095000D02*
X2050000Y4075000D01*
X2105000Y4145000D02*
X2125000Y4125000D01*
X2125000Y4145000D02*
X2105000Y4125000D01*
X2152300Y4865507D02*
X2172300Y4845507D01*
X2172300Y4865507D02*
X2152300Y4845507D01*
X2156991Y1137994D02*
X2176991Y1117994D01*
X2176991Y1137994D02*
X2156991Y1117994D01*
X2171500Y5065000D02*
X2191500Y5045000D01*
X2191500Y5065000D02*
X2171500Y5045000D01*
X2175000Y4145000D02*
X2195000Y4125000D01*
X2195000Y4145000D02*
X2175000Y4125000D01*
X2180000Y1490000D02*
X2200000Y1470000D01*
X2200000Y1490000D02*
X2180000Y1470000D01*
X2185000Y5280000D02*
X2205000Y5260000D01*
X2205000Y5280000D02*
X2185000Y5260000D01*
X2205000Y1170000D02*
X2225000Y1150000D01*
X2225000Y1170000D02*
X2205000Y1150000D01*
X2230000Y4195000D02*
X2250000Y4175000D01*
X2250000Y4195000D02*
X2230000Y4175000D01*
X2230000Y4095000D02*
X2250000Y4075000D01*
X2250000Y4095000D02*
X2230000Y4075000D01*
X2230000Y1435000D02*
X2250000Y1415000D01*
X2250000Y1435000D02*
X2230000Y1415000D01*
X2255000Y5280000D02*
X2275000Y5260000D01*
X2275000Y5280000D02*
X2255000Y5260000D01*
X2255000Y1170000D02*
X2275000Y1150000D01*
X2275000Y1170000D02*
X2255000Y1150000D01*
X2260000Y3945000D02*
X2280000Y3925000D01*
X2280000Y3945000D02*
X2260000Y3925000D01*
X2268500Y5065000D02*
X2288500Y5045000D01*
X2288500Y5065000D02*
X2268500Y5045000D01*
X2270000Y3780000D02*
X2290000Y3760000D01*
X2290000Y3780000D02*
X2270000Y3760000D01*
X2270000Y3590000D02*
X2290000Y3570000D01*
X2290000Y3590000D02*
X2270000Y3570000D01*
X2270000Y3400000D02*
X2290000Y3380000D01*
X2290000Y3400000D02*
X2270000Y3380000D01*
X2280000Y6230000D02*
X2300000Y6210000D01*
X2300000Y6230000D02*
X2280000Y6210000D01*
X2280000Y1485000D02*
X2300000Y1465000D01*
X2300000Y1485000D02*
X2280000Y1465000D01*
X2290000Y4865000D02*
X2310000Y4845000D01*
X2310000Y4865000D02*
X2290000Y4845000D01*
X2305000Y1760000D02*
X2325000Y1740000D01*
X2325000Y1760000D02*
X2305000Y1740000D01*
X2310000Y4025000D02*
X2330000Y4005000D01*
X2330000Y4025000D02*
X2310000Y4005000D01*
X2330000Y1435000D02*
X2350000Y1415000D01*
X2350000Y1435000D02*
X2330000Y1415000D01*
X2350000Y3195000D02*
X2370000Y3175000D01*
X2370000Y3195000D02*
X2350000Y3175000D01*
X2350000Y830000D02*
X2370000Y810000D01*
X2370000Y830000D02*
X2350000Y810000D01*
X2380000Y5390000D02*
X2400000Y5370000D01*
X2400000Y5390000D02*
X2380000Y5370000D01*
X2380000Y1485000D02*
X2400000Y1465000D01*
X2400000Y1485000D02*
X2380000Y1465000D01*
X2383500Y5163500D02*
X2403500Y5143500D01*
X2403500Y5163500D02*
X2383500Y5143500D01*
X2395000Y4195000D02*
X2415000Y4175000D01*
X2415000Y4195000D02*
X2395000Y4175000D01*
X2395000Y4095000D02*
X2415000Y4075000D01*
X2415000Y4095000D02*
X2395000Y4075000D01*
X2395000Y3640000D02*
X2415000Y3620000D01*
X2415000Y3640000D02*
X2395000Y3620000D01*
X2395000Y3540000D02*
X2415000Y3520000D01*
X2415000Y3540000D02*
X2395000Y3520000D01*
X2450000Y4145000D02*
X2470000Y4125000D01*
X2470000Y4145000D02*
X2450000Y4125000D01*
X2450000Y3590000D02*
X2470000Y3570000D01*
X2470000Y3590000D02*
X2450000Y3570000D01*
X2455000Y830000D02*
X2475000Y810000D01*
X2475000Y830000D02*
X2455000Y810000D01*
X2475000Y1710000D02*
X2495000Y1690000D01*
X2495000Y1710000D02*
X2475000Y1690000D01*
X2490000Y865000D02*
X2510000Y845000D01*
X2510000Y865000D02*
X2490000Y845000D01*
X2496579Y4867451D02*
X2516579Y4847451D01*
X2516579Y4867451D02*
X2496579Y4847451D01*
X2516500Y5065000D02*
X2536500Y5045000D01*
X2536500Y5065000D02*
X2516500Y5045000D01*
X2520000Y4145000D02*
X2540000Y4125000D01*
X2540000Y4145000D02*
X2520000Y4125000D01*
X2520000Y3590000D02*
X2540000Y3570000D01*
X2540000Y3590000D02*
X2520000Y3570000D01*
X2560000Y2240000D02*
X2580000Y2220000D01*
X2580000Y2240000D02*
X2560000Y2220000D01*
X2575000Y4195000D02*
X2595000Y4175000D01*
X2595000Y4195000D02*
X2575000Y4175000D01*
X2575000Y4095000D02*
X2595000Y4075000D01*
X2595000Y4095000D02*
X2575000Y4075000D01*
X2575000Y3640000D02*
X2595000Y3620000D01*
X2595000Y3640000D02*
X2575000Y3620000D01*
X2575000Y3540000D02*
X2595000Y3520000D01*
X2595000Y3540000D02*
X2575000Y3520000D01*
X2575000Y1660000D02*
X2595000Y1640000D01*
X2595000Y1660000D02*
X2575000Y1640000D01*
X2585000Y1305000D02*
X2605000Y1285000D01*
X2605000Y1305000D02*
X2585000Y1285000D01*
X2585000Y1230000D02*
X2605000Y1210000D01*
X2605000Y1230000D02*
X2585000Y1210000D01*
X2605000Y3325000D02*
X2625000Y3305000D01*
X2625000Y3325000D02*
X2605000Y3305000D01*
X2610000Y3940000D02*
X2630000Y3920000D01*
X2630000Y3940000D02*
X2610000Y3920000D01*
X2613500Y5065000D02*
X2633500Y5045000D01*
X2633500Y5065000D02*
X2613500Y5045000D01*
X2635000Y4865000D02*
X2655000Y4845000D01*
X2655000Y4865000D02*
X2635000Y4845000D01*
X2655000Y4035000D02*
X2675000Y4015000D01*
X2675000Y4035000D02*
X2655000Y4015000D01*
X2685000Y3185000D02*
X2705000Y3165000D01*
X2705000Y3185000D02*
X2685000Y3165000D01*
X2700000Y3590000D02*
X2720000Y3570000D01*
X2720000Y3590000D02*
X2700000Y3570000D01*
X2720000Y5390000D02*
X2740000Y5370000D01*
X2740000Y5390000D02*
X2720000Y5370000D01*
X2740000Y5165000D02*
X2760000Y5145000D01*
X2760000Y5165000D02*
X2740000Y5145000D01*
X2740000Y4195000D02*
X2760000Y4175000D01*
X2760000Y4195000D02*
X2740000Y4175000D01*
X2740000Y4095000D02*
X2760000Y4075000D01*
X2760000Y4095000D02*
X2740000Y4075000D01*
X2795000Y4145000D02*
X2815000Y4125000D01*
X2815000Y4145000D02*
X2795000Y4125000D01*
X2795000Y3700000D02*
X2815000Y3680000D01*
X2815000Y3700000D02*
X2795000Y3680000D01*
X2842300Y4865000D02*
X2862300Y4845000D01*
X2862300Y4865000D02*
X2842300Y4845000D01*
X2861500Y5065000D02*
X2881500Y5045000D01*
X2881500Y5065000D02*
X2861500Y5045000D01*
X2865000Y4145000D02*
X2885000Y4125000D01*
X2885000Y4145000D02*
X2865000Y4125000D01*
X2875000Y5280000D02*
X2895000Y5260000D01*
X2895000Y5280000D02*
X2875000Y5260000D01*
X2920000Y4195000D02*
X2940000Y4175000D01*
X2940000Y4195000D02*
X2920000Y4175000D01*
X2920000Y4095000D02*
X2940000Y4075000D01*
X2940000Y4095000D02*
X2920000Y4075000D01*
X2925000Y3920000D02*
X2945000Y3900000D01*
X2945000Y3920000D02*
X2925000Y3900000D01*
X2925000Y1305000D02*
X2945000Y1285000D01*
X2945000Y1305000D02*
X2925000Y1285000D01*
X2945000Y5280000D02*
X2965000Y5260000D01*
X2965000Y5280000D02*
X2945000Y5260000D01*
X2955000Y1420000D02*
X2975000Y1400000D01*
X2975000Y1420000D02*
X2955000Y1400000D01*
X2958500Y5065000D02*
X2978500Y5045000D01*
X2978500Y5065000D02*
X2958500Y5045000D01*
X2975000Y4865000D02*
X2995000Y4845000D01*
X2995000Y4865000D02*
X2975000Y4845000D01*
X3005000Y4020000D02*
X3025000Y4000000D01*
X3025000Y4020000D02*
X3005000Y4000000D01*
X3012678Y1393652D02*
X3032678Y1373652D01*
X3032678Y1393652D02*
X3012678Y1373652D01*
X3068509Y1365711D02*
X3088509Y1345711D01*
X3088509Y1365711D02*
X3068509Y1345711D01*
X3075000Y5700000D02*
X3095000Y5680000D01*
X3095000Y5700000D02*
X3075000Y5680000D01*
X3075000Y2220000D02*
X3095000Y2200000D01*
X3095000Y2220000D02*
X3075000Y2200000D01*
X3090000Y5165000D02*
X3110000Y5145000D01*
X3110000Y5165000D02*
X3090000Y5145000D01*
X3090000Y4195000D02*
X3110000Y4175000D01*
X3110000Y4195000D02*
X3090000Y4175000D01*
X3090000Y4095000D02*
X3110000Y4075000D01*
X3110000Y4095000D02*
X3090000Y4075000D01*
X3105000Y5390000D02*
X3125000Y5370000D01*
X3125000Y5390000D02*
X3105000Y5370000D01*
X3145000Y4145000D02*
X3165000Y4125000D01*
X3165000Y4145000D02*
X3145000Y4125000D01*
X3192300Y4860507D02*
X3212300Y4840507D01*
X3212300Y4860507D02*
X3192300Y4840507D01*
X3213250Y5058250D02*
X3233250Y5038250D01*
X3233250Y5058250D02*
X3213250Y5038250D01*
X3215000Y4145000D02*
X3235000Y4125000D01*
X3235000Y4145000D02*
X3215000Y4125000D01*
X3270000Y4195000D02*
X3290000Y4175000D01*
X3290000Y4195000D02*
X3270000Y4175000D01*
X3270000Y4095000D02*
X3290000Y4075000D01*
X3290000Y4095000D02*
X3270000Y4075000D01*
X3300000Y3940000D02*
X3320000Y3920000D01*
X3320000Y3940000D02*
X3300000Y3920000D01*
X3305000Y3775000D02*
X3325000Y3755000D01*
X3325000Y3775000D02*
X3305000Y3755000D01*
X3305000Y3585000D02*
X3325000Y3565000D01*
X3325000Y3585000D02*
X3305000Y3565000D01*
X3305000Y3395000D02*
X3325000Y3375000D01*
X3325000Y3395000D02*
X3305000Y3375000D01*
X3312000Y5060000D02*
X3332000Y5040000D01*
X3332000Y5060000D02*
X3312000Y5040000D01*
X3330000Y4860000D02*
X3350000Y4840000D01*
X3350000Y4860000D02*
X3330000Y4840000D01*
X3345000Y6275000D02*
X3365000Y6255000D01*
X3365000Y6275000D02*
X3345000Y6255000D01*
X3350000Y4020000D02*
X3370000Y4000000D01*
X3370000Y4020000D02*
X3350000Y4000000D01*
X3400000Y3175000D02*
X3420000Y3155000D01*
X3420000Y3175000D02*
X3400000Y3155000D01*
X3400000Y755000D02*
X3420000Y735000D01*
X3420000Y755000D02*
X3400000Y735000D01*
X3420000Y2240000D02*
X3440000Y2220000D01*
X3440000Y2240000D02*
X3420000Y2220000D01*
X3430000Y3635000D02*
X3450000Y3615000D01*
X3450000Y3635000D02*
X3430000Y3615000D01*
X3430000Y3535000D02*
X3450000Y3515000D01*
X3450000Y3535000D02*
X3430000Y3515000D01*
X3435000Y4195000D02*
X3455000Y4175000D01*
X3455000Y4195000D02*
X3435000Y4175000D01*
X3435000Y4095000D02*
X3455000Y4075000D01*
X3455000Y4095000D02*
X3435000Y4075000D01*
X3440000Y5160000D02*
X3460000Y5140000D01*
X3460000Y5160000D02*
X3440000Y5140000D01*
X3455000Y1770000D02*
X3475000Y1750000D01*
X3475000Y1770000D02*
X3455000Y1750000D01*
X3460000Y5700000D02*
X3480000Y5680000D01*
X3480000Y5700000D02*
X3460000Y5680000D01*
X3460000Y5390000D02*
X3480000Y5370000D01*
X3480000Y5390000D02*
X3460000Y5370000D01*
X3485000Y3585000D02*
X3505000Y3565000D01*
X3505000Y3585000D02*
X3485000Y3565000D01*
X3490000Y4145000D02*
X3510000Y4125000D01*
X3510000Y4145000D02*
X3490000Y4125000D01*
X3517849Y1832121D02*
X3537849Y1812121D01*
X3537849Y1832121D02*
X3517849Y1812121D01*
X3536579Y4862451D02*
X3556579Y4842451D01*
X3556579Y4862451D02*
X3536579Y4842451D01*
X3555000Y3585000D02*
X3575000Y3565000D01*
X3575000Y3585000D02*
X3555000Y3565000D01*
X3556500Y5065000D02*
X3576500Y5045000D01*
X3576500Y5065000D02*
X3556500Y5045000D01*
X3560000Y4145000D02*
X3580000Y4125000D01*
X3580000Y4145000D02*
X3560000Y4125000D01*
X3570000Y5280000D02*
X3590000Y5260000D01*
X3590000Y5280000D02*
X3570000Y5260000D01*
X3580000Y1997584D02*
X3600000Y1977584D01*
X3600000Y1997584D02*
X3580000Y1977584D01*
X3585000Y1281888D02*
X3605000Y1261888D01*
X3605000Y1281888D02*
X3585000Y1261888D01*
X3610000Y3635000D02*
X3630000Y3615000D01*
X3630000Y3635000D02*
X3610000Y3615000D01*
X3610000Y3535000D02*
X3630000Y3515000D01*
X3630000Y3535000D02*
X3610000Y3515000D01*
X3615000Y4195000D02*
X3635000Y4175000D01*
X3635000Y4195000D02*
X3615000Y4175000D01*
X3615000Y4095000D02*
X3635000Y4075000D01*
X3635000Y4095000D02*
X3615000Y4075000D01*
X3615000Y2192584D02*
X3635000Y2172584D01*
X3635000Y2192584D02*
X3615000Y2172584D01*
X3635000Y2245000D02*
X3655000Y2225000D01*
X3655000Y2245000D02*
X3635000Y2225000D01*
X3640000Y5280000D02*
X3660000Y5260000D01*
X3660000Y5280000D02*
X3640000Y5260000D01*
X3645000Y3325000D02*
X3665000Y3305000D01*
X3665000Y3325000D02*
X3645000Y3305000D01*
X3650000Y3935000D02*
X3670000Y3915000D01*
X3670000Y3935000D02*
X3650000Y3915000D01*
X3653500Y5065000D02*
X3673500Y5045000D01*
X3673500Y5065000D02*
X3653500Y5045000D01*
X3675000Y4860000D02*
X3695000Y4840000D01*
X3695000Y4860000D02*
X3675000Y4840000D01*
X3695000Y4030000D02*
X3715000Y4010000D01*
X3715000Y4030000D02*
X3695000Y4010000D01*
X3695000Y1715000D02*
X3715000Y1695000D01*
X3715000Y1715000D02*
X3695000Y1695000D01*
X3725000Y2275000D02*
X3745000Y2255000D01*
X3745000Y2275000D02*
X3725000Y2255000D01*
X3735000Y3585000D02*
X3755000Y3565000D01*
X3755000Y3585000D02*
X3735000Y3565000D01*
X3750000Y1770000D02*
X3770000Y1750000D01*
X3770000Y1770000D02*
X3750000Y1750000D01*
X3770000Y3195000D02*
X3790000Y3175000D01*
X3790000Y3195000D02*
X3770000Y3175000D01*
X3770724Y2381897D02*
X3790724Y2361897D01*
X3790724Y2381897D02*
X3770724Y2361897D01*
X3775000Y5165000D02*
X3795000Y5145000D01*
X3795000Y5165000D02*
X3775000Y5145000D01*
X3780000Y4195000D02*
X3800000Y4175000D01*
X3800000Y4195000D02*
X3780000Y4175000D01*
X3780000Y4095000D02*
X3800000Y4075000D01*
X3800000Y4095000D02*
X3780000Y4075000D01*
X3810000Y5390000D02*
X3830000Y5370000D01*
X3830000Y5390000D02*
X3810000Y5370000D01*
X3810000Y1715000D02*
X3830000Y1695000D01*
X3830000Y1715000D02*
X3810000Y1695000D01*
X3830000Y3695000D02*
X3850000Y3675000D01*
X3850000Y3695000D02*
X3830000Y3675000D01*
X3835000Y4145000D02*
X3855000Y4125000D01*
X3855000Y4145000D02*
X3835000Y4125000D01*
X3865000Y1770000D02*
X3885000Y1750000D01*
X3885000Y1770000D02*
X3865000Y1750000D01*
X3870000Y2274411D02*
X3890000Y2254411D01*
X3890000Y2274411D02*
X3870000Y2254411D01*
X3882300Y4860000D02*
X3902300Y4840000D01*
X3902300Y4860000D02*
X3882300Y4840000D01*
X3901500Y5060000D02*
X3921500Y5040000D01*
X3921500Y5060000D02*
X3901500Y5040000D01*
X3905000Y4145000D02*
X3925000Y4125000D01*
X3925000Y4145000D02*
X3905000Y4125000D01*
X3905000Y2505000D02*
X3925000Y2485000D01*
X3925000Y2505000D02*
X3905000Y2485000D01*
X3916383Y1830257D02*
X3936383Y1810257D01*
X3936383Y1830257D02*
X3916383Y1810257D01*
X3920000Y1715000D02*
X3940000Y1695000D01*
X3940000Y1715000D02*
X3920000Y1695000D01*
X3920000Y1600000D02*
X3940000Y1580000D01*
X3940000Y1600000D02*
X3920000Y1580000D01*
X3920000Y1490000D02*
X3940000Y1470000D01*
X3940000Y1490000D02*
X3920000Y1470000D01*
X3921364Y1941364D02*
X3941364Y1921364D01*
X3941364Y1941364D02*
X3921364Y1921364D01*
X3960000Y4195000D02*
X3980000Y4175000D01*
X3980000Y4195000D02*
X3960000Y4175000D01*
X3960000Y4095000D02*
X3980000Y4075000D01*
X3980000Y4095000D02*
X3960000Y4075000D01*
X3965000Y3915000D02*
X3985000Y3895000D01*
X3985000Y3915000D02*
X3965000Y3895000D01*
X3975000Y2000000D02*
X3995000Y1980000D01*
X3995000Y2000000D02*
X3975000Y1980000D01*
X3975000Y1885000D02*
X3995000Y1865000D01*
X3995000Y1885000D02*
X3975000Y1865000D01*
X3998500Y5060000D02*
X4018500Y5040000D01*
X4018500Y5060000D02*
X3998500Y5040000D01*
X4015000Y4860000D02*
X4035000Y4840000D01*
X4035000Y4860000D02*
X4015000Y4840000D01*
X4035000Y2055000D02*
X4055000Y2035000D01*
X4055000Y2055000D02*
X4035000Y2035000D01*
X4035000Y1715000D02*
X4055000Y1695000D01*
X4055000Y1715000D02*
X4035000Y1695000D01*
X4040000Y4025000D02*
X4060000Y4005000D01*
X4060000Y4025000D02*
X4040000Y4005000D01*
X4090000Y1995000D02*
X4110000Y1975000D01*
X4110000Y1995000D02*
X4090000Y1975000D01*
X4090000Y1770000D02*
X4110000Y1750000D01*
X4110000Y1770000D02*
X4090000Y1750000D01*
X4090000Y1655000D02*
X4110000Y1635000D01*
X4110000Y1655000D02*
X4090000Y1635000D01*
X4090000Y1549163D02*
X4110000Y1529163D01*
X4110000Y1549163D02*
X4090000Y1529163D01*
X4120000Y5165000D02*
X4140000Y5145000D01*
X4140000Y5165000D02*
X4120000Y5145000D01*
X4130000Y4200000D02*
X4150000Y4180000D01*
X4150000Y4200000D02*
X4130000Y4180000D01*
X4130000Y4100000D02*
X4150000Y4080000D01*
X4150000Y4100000D02*
X4130000Y4080000D01*
X4140000Y5390000D02*
X4160000Y5370000D01*
X4160000Y5390000D02*
X4140000Y5370000D01*
X4145000Y2170000D02*
X4165000Y2150000D01*
X4165000Y2170000D02*
X4145000Y2150000D01*
X4145000Y2055000D02*
X4165000Y2035000D01*
X4165000Y2055000D02*
X4145000Y2035000D01*
X4145000Y1940000D02*
X4165000Y1920000D01*
X4165000Y1940000D02*
X4145000Y1920000D01*
X4145000Y1715000D02*
X4165000Y1695000D01*
X4165000Y1715000D02*
X4145000Y1695000D01*
X4145000Y1605000D02*
X4165000Y1585000D01*
X4165000Y1605000D02*
X4145000Y1585000D01*
X4145000Y1490000D02*
X4165000Y1470000D01*
X4165000Y1490000D02*
X4145000Y1470000D01*
X4160000Y3220000D02*
X4180000Y3200000D01*
X4180000Y3220000D02*
X4160000Y3200000D01*
X4165000Y2535000D02*
X4185000Y2515000D01*
X4185000Y2535000D02*
X4165000Y2515000D01*
X4185000Y4150000D02*
X4205000Y4130000D01*
X4205000Y4150000D02*
X4185000Y4130000D01*
X4200000Y1775000D02*
X4220000Y1755000D01*
X4220000Y1775000D02*
X4200000Y1755000D01*
X4200000Y1660000D02*
X4220000Y1640000D01*
X4220000Y1660000D02*
X4200000Y1640000D01*
X4201364Y1993636D02*
X4221364Y1973636D01*
X4221364Y1993636D02*
X4201364Y1973636D01*
X4232300Y4860507D02*
X4252300Y4840507D01*
X4252300Y4860507D02*
X4232300Y4840507D01*
X4255000Y4150000D02*
X4275000Y4130000D01*
X4275000Y4150000D02*
X4255000Y4130000D01*
X4255750Y5055750D02*
X4275750Y5035750D01*
X4275750Y5055750D02*
X4255750Y5035750D01*
X4260000Y1940000D02*
X4280000Y1920000D01*
X4280000Y1940000D02*
X4260000Y1920000D01*
X4265000Y5280000D02*
X4285000Y5260000D01*
X4285000Y5280000D02*
X4265000Y5260000D01*
X4310000Y4200000D02*
X4330000Y4180000D01*
X4330000Y4200000D02*
X4310000Y4180000D01*
X4310000Y4100000D02*
X4330000Y4080000D01*
X4330000Y4100000D02*
X4310000Y4080000D01*
X4320000Y1885000D02*
X4340000Y1865000D01*
X4340000Y1885000D02*
X4320000Y1865000D01*
X4320296Y1775591D02*
X4340296Y1755591D01*
X4340296Y1775591D02*
X4320296Y1755591D01*
X4335000Y5280000D02*
X4355000Y5260000D01*
X4355000Y5280000D02*
X4335000Y5260000D01*
X4345090Y2364910D02*
X4365090Y2344910D01*
X4365090Y2364910D02*
X4345090Y2344910D01*
X4346750Y5058250D02*
X4366750Y5038250D01*
X4366750Y5058250D02*
X4346750Y5038250D01*
X4350000Y3937901D02*
X4370000Y3917901D01*
X4370000Y3937901D02*
X4350000Y3917901D01*
X4350000Y3775000D02*
X4370000Y3755000D01*
X4370000Y3775000D02*
X4350000Y3755000D01*
X4350000Y3585000D02*
X4370000Y3565000D01*
X4370000Y3585000D02*
X4350000Y3565000D01*
X4350000Y3400000D02*
X4370000Y3380000D01*
X4370000Y3400000D02*
X4350000Y3380000D01*
X4350954Y2257637D02*
X4370954Y2237637D01*
X4370954Y2257637D02*
X4350954Y2237637D01*
X4370000Y4860000D02*
X4390000Y4840000D01*
X4390000Y4860000D02*
X4370000Y4840000D01*
X4390000Y4020000D02*
X4410000Y4000000D01*
X4410000Y4020000D02*
X4390000Y4000000D01*
X4395000Y2131239D02*
X4415000Y2111239D01*
X4415000Y2131239D02*
X4395000Y2111239D01*
X4410523Y2259477D02*
X4430523Y2239477D01*
X4430523Y2259477D02*
X4410523Y2239477D01*
X4415000Y5680000D02*
X4435000Y5660000D01*
X4435000Y5680000D02*
X4415000Y5660000D01*
X4470000Y5160000D02*
X4490000Y5140000D01*
X4490000Y5160000D02*
X4470000Y5140000D01*
X4475000Y4200000D02*
X4495000Y4180000D01*
X4495000Y4200000D02*
X4475000Y4180000D01*
X4475000Y4100000D02*
X4495000Y4080000D01*
X4495000Y4100000D02*
X4475000Y4080000D01*
X4475000Y3635000D02*
X4495000Y3615000D01*
X4495000Y3635000D02*
X4475000Y3615000D01*
X4475000Y3535000D02*
X4495000Y3515000D01*
X4495000Y3535000D02*
X4475000Y3515000D01*
X4485000Y1715000D02*
X4505000Y1695000D01*
X4505000Y1715000D02*
X4485000Y1695000D01*
X4490000Y5390000D02*
X4510000Y5370000D01*
X4510000Y5390000D02*
X4490000Y5370000D01*
X4530000Y4150000D02*
X4550000Y4130000D01*
X4550000Y4150000D02*
X4530000Y4130000D01*
X4530000Y3585000D02*
X4550000Y3565000D01*
X4550000Y3585000D02*
X4530000Y3565000D01*
X4576192Y1507730D02*
X4596192Y1487730D01*
X4596192Y1507730D02*
X4576192Y1487730D01*
X4576579Y4862451D02*
X4596579Y4842451D01*
X4596579Y4862451D02*
X4576579Y4842451D01*
X4595095Y1719022D02*
X4615095Y1699022D01*
X4615095Y1719022D02*
X4595095Y1699022D01*
X4596500Y5060000D02*
X4616500Y5040000D01*
X4616500Y5060000D02*
X4596500Y5040000D01*
X4600000Y4150000D02*
X4620000Y4130000D01*
X4620000Y4150000D02*
X4600000Y4130000D01*
X4600000Y3585000D02*
X4620000Y3565000D01*
X4620000Y3585000D02*
X4600000Y3565000D01*
X4625000Y6205000D02*
X4645000Y6185000D01*
X4645000Y6205000D02*
X4625000Y6185000D01*
X4630000Y1015000D02*
X4650000Y995000D01*
X4650000Y1015000D02*
X4630000Y995000D01*
X4655000Y4200000D02*
X4675000Y4180000D01*
X4675000Y4200000D02*
X4655000Y4180000D01*
X4655000Y4100000D02*
X4675000Y4080000D01*
X4675000Y4100000D02*
X4655000Y4080000D01*
X4655000Y3635000D02*
X4675000Y3615000D01*
X4675000Y3635000D02*
X4655000Y3615000D01*
X4655000Y3535000D02*
X4675000Y3515000D01*
X4675000Y3535000D02*
X4655000Y3515000D01*
X4660000Y1485000D02*
X4680000Y1465000D01*
X4680000Y1485000D02*
X4660000Y1465000D01*
X4665000Y3165000D02*
X4685000Y3145000D01*
X4685000Y3165000D02*
X4665000Y3145000D01*
X4665000Y2290000D02*
X4685000Y2270000D01*
X4685000Y2290000D02*
X4665000Y2270000D01*
X4693500Y5060000D02*
X4713500Y5040000D01*
X4713500Y5060000D02*
X4693500Y5040000D01*
X4695000Y3940000D02*
X4715000Y3920000D01*
X4715000Y3940000D02*
X4695000Y3920000D01*
X4715000Y4860000D02*
X4735000Y4840000D01*
X4735000Y4860000D02*
X4715000Y4840000D01*
X4730000Y3335000D02*
X4750000Y3315000D01*
X4750000Y3335000D02*
X4730000Y3315000D01*
X4735000Y4020000D02*
X4755000Y4000000D01*
X4755000Y4020000D02*
X4735000Y4000000D01*
X4745000Y1220000D02*
X4765000Y1200000D01*
X4765000Y1220000D02*
X4745000Y1200000D01*
X4780000Y3585000D02*
X4800000Y3565000D01*
X4800000Y3585000D02*
X4780000Y3565000D01*
X4795000Y1140000D02*
X4815000Y1120000D01*
X4815000Y1140000D02*
X4795000Y1120000D01*
X4815000Y5160000D02*
X4835000Y5140000D01*
X4835000Y5160000D02*
X4815000Y5140000D01*
X4820000Y4200000D02*
X4840000Y4180000D01*
X4840000Y4200000D02*
X4820000Y4180000D01*
X4820000Y4100000D02*
X4840000Y4080000D01*
X4840000Y4100000D02*
X4820000Y4080000D01*
X4830000Y5390000D02*
X4850000Y5370000D01*
X4850000Y5390000D02*
X4830000Y5370000D01*
X4835000Y5695000D02*
X4855000Y5675000D01*
X4855000Y5695000D02*
X4835000Y5675000D01*
X4870000Y3695000D02*
X4890000Y3675000D01*
X4890000Y3695000D02*
X4870000Y3675000D01*
X4875000Y4150000D02*
X4895000Y4130000D01*
X4895000Y4150000D02*
X4875000Y4130000D01*
X4922300Y4860000D02*
X4942300Y4840000D01*
X4942300Y4860000D02*
X4922300Y4840000D01*
X4925000Y1380000D02*
X4945000Y1360000D01*
X4945000Y1380000D02*
X4925000Y1360000D01*
X4941500Y5060000D02*
X4961500Y5040000D01*
X4961500Y5060000D02*
X4941500Y5040000D01*
X4945000Y4150000D02*
X4965000Y4130000D01*
X4965000Y4150000D02*
X4945000Y4130000D01*
X4955000Y5280000D02*
X4975000Y5260000D01*
X4975000Y5280000D02*
X4955000Y5260000D01*
X5000000Y4200000D02*
X5020000Y4180000D01*
X5020000Y4200000D02*
X5000000Y4180000D01*
X5000000Y4100000D02*
X5020000Y4080000D01*
X5020000Y4100000D02*
X5000000Y4080000D01*
X5010000Y3915000D02*
X5030000Y3895000D01*
X5030000Y3915000D02*
X5010000Y3895000D01*
X5010000Y1125000D02*
X5030000Y1105000D01*
X5030000Y1125000D02*
X5010000Y1105000D01*
X5010000Y885000D02*
X5030000Y865000D01*
X5030000Y885000D02*
X5010000Y865000D01*
X5025000Y5280000D02*
X5045000Y5260000D01*
X5045000Y5280000D02*
X5025000Y5260000D01*
X5038500Y5060000D02*
X5058500Y5040000D01*
X5058500Y5060000D02*
X5038500Y5040000D01*
X5055000Y4860000D02*
X5075000Y4840000D01*
X5075000Y4860000D02*
X5055000Y4840000D01*
X5080000Y4020000D02*
X5100000Y4000000D01*
X5100000Y4020000D02*
X5080000Y4000000D01*
X5115000Y6205000D02*
X5135000Y6185000D01*
X5135000Y6205000D02*
X5115000Y6185000D01*
X5165000Y5160000D02*
X5185000Y5140000D01*
X5185000Y5160000D02*
X5165000Y5140000D01*
X5165000Y2290000D02*
X5185000Y2270000D01*
X5185000Y2290000D02*
X5165000Y2270000D01*
X5170000Y4200000D02*
X5190000Y4180000D01*
X5190000Y4200000D02*
X5170000Y4180000D01*
X5170000Y4100000D02*
X5190000Y4080000D01*
X5190000Y4100000D02*
X5170000Y4080000D01*
X5190000Y5390000D02*
X5210000Y5370000D01*
X5210000Y5390000D02*
X5190000Y5370000D01*
X5225000Y4150000D02*
X5245000Y4130000D01*
X5245000Y4150000D02*
X5225000Y4130000D01*
X5272300Y4860507D02*
X5292300Y4840507D01*
X5292300Y4860507D02*
X5272300Y4840507D01*
X5291500Y5060000D02*
X5311500Y5040000D01*
X5311500Y5060000D02*
X5291500Y5040000D01*
X5295000Y4150000D02*
X5315000Y4130000D01*
X5315000Y4150000D02*
X5295000Y4130000D01*
X5340000Y1470000D02*
X5360000Y1450000D01*
X5360000Y1470000D02*
X5340000Y1450000D01*
X5350000Y4200000D02*
X5370000Y4180000D01*
X5370000Y4200000D02*
X5350000Y4180000D01*
X5350000Y4100000D02*
X5370000Y4080000D01*
X5370000Y4100000D02*
X5350000Y4080000D01*
X5370000Y3265000D02*
X5390000Y3245000D01*
X5390000Y3265000D02*
X5370000Y3245000D01*
X5380000Y3940000D02*
X5400000Y3920000D01*
X5400000Y3940000D02*
X5380000Y3920000D01*
X5385000Y3770000D02*
X5405000Y3750000D01*
X5405000Y3770000D02*
X5385000Y3750000D01*
X5385000Y3590000D02*
X5405000Y3570000D01*
X5405000Y3590000D02*
X5385000Y3570000D01*
X5385000Y3395000D02*
X5405000Y3375000D01*
X5405000Y3395000D02*
X5385000Y3375000D01*
X5388500Y5060000D02*
X5408500Y5040000D01*
X5408500Y5060000D02*
X5388500Y5040000D01*
X5390000Y5695000D02*
X5410000Y5675000D01*
X5410000Y5695000D02*
X5390000Y5675000D01*
X5390000Y1125000D02*
X5410000Y1105000D01*
X5410000Y1125000D02*
X5390000Y1105000D01*
X5390000Y885000D02*
X5410000Y865000D01*
X5410000Y885000D02*
X5390000Y865000D01*
X5410000Y4860000D02*
X5430000Y4840000D01*
X5430000Y4860000D02*
X5410000Y4840000D01*
X5410000Y2000000D02*
X5430000Y1980000D01*
X5430000Y2000000D02*
X5410000Y1980000D01*
X5430000Y4020000D02*
X5450000Y4000000D01*
X5450000Y4020000D02*
X5430000Y4000000D01*
X5470000Y535000D02*
X5490000Y515000D01*
X5490000Y535000D02*
X5470000Y515000D01*
X5480000Y2095000D02*
X5500000Y2075000D01*
X5500000Y2095000D02*
X5480000Y2075000D01*
X5510000Y5160000D02*
X5530000Y5140000D01*
X5530000Y5160000D02*
X5510000Y5140000D01*
X5510000Y4200000D02*
X5530000Y4180000D01*
X5530000Y4200000D02*
X5510000Y4180000D01*
X5510000Y4100000D02*
X5530000Y4080000D01*
X5530000Y4100000D02*
X5510000Y4080000D01*
X5510000Y3635000D02*
X5530000Y3615000D01*
X5530000Y3635000D02*
X5510000Y3615000D01*
X5510000Y3535000D02*
X5530000Y3515000D01*
X5530000Y3535000D02*
X5510000Y3515000D01*
X5535000Y5390000D02*
X5555000Y5370000D01*
X5555000Y5390000D02*
X5535000Y5370000D01*
X5565000Y4150000D02*
X5585000Y4130000D01*
X5585000Y4150000D02*
X5565000Y4130000D01*
X5565000Y3585000D02*
X5585000Y3565000D01*
X5585000Y3585000D02*
X5565000Y3565000D01*
X5616579Y4862451D02*
X5636579Y4842451D01*
X5636579Y4862451D02*
X5616579Y4842451D01*
X5635000Y4150000D02*
X5655000Y4130000D01*
X5655000Y4150000D02*
X5635000Y4130000D01*
X5635000Y3585000D02*
X5655000Y3565000D01*
X5655000Y3585000D02*
X5635000Y3565000D01*
X5636500Y5060000D02*
X5656500Y5040000D01*
X5656500Y5060000D02*
X5636500Y5040000D01*
X5650000Y5280000D02*
X5670000Y5260000D01*
X5670000Y5280000D02*
X5650000Y5260000D01*
X5655000Y520000D02*
X5675000Y500000D01*
X5675000Y520000D02*
X5655000Y500000D01*
X5690000Y4200000D02*
X5710000Y4180000D01*
X5710000Y4200000D02*
X5690000Y4180000D01*
X5690000Y4100000D02*
X5710000Y4080000D01*
X5710000Y4100000D02*
X5690000Y4080000D01*
X5690000Y3635000D02*
X5710000Y3615000D01*
X5710000Y3635000D02*
X5690000Y3615000D01*
X5690000Y3535000D02*
X5710000Y3515000D01*
X5710000Y3535000D02*
X5690000Y3515000D01*
X5710000Y3160000D02*
X5730000Y3140000D01*
X5730000Y3160000D02*
X5710000Y3140000D01*
X5720000Y5280000D02*
X5740000Y5260000D01*
X5740000Y5280000D02*
X5720000Y5260000D01*
X5730000Y3935000D02*
X5750000Y3915000D01*
X5750000Y3935000D02*
X5730000Y3915000D01*
X5733500Y5060000D02*
X5753500Y5040000D01*
X5753500Y5060000D02*
X5733500Y5040000D01*
X5755000Y4860000D02*
X5775000Y4840000D01*
X5775000Y4860000D02*
X5755000Y4840000D01*
X5765000Y3325000D02*
X5785000Y3305000D01*
X5785000Y3325000D02*
X5765000Y3305000D01*
X5775000Y4030000D02*
X5795000Y4010000D01*
X5795000Y4030000D02*
X5775000Y4010000D01*
X5815000Y3585000D02*
X5835000Y3565000D01*
X5835000Y3585000D02*
X5815000Y3565000D01*
X5860000Y5160000D02*
X5880000Y5140000D01*
X5880000Y5160000D02*
X5860000Y5140000D01*
X5860000Y4200000D02*
X5880000Y4180000D01*
X5880000Y4200000D02*
X5860000Y4180000D01*
X5860000Y4100000D02*
X5880000Y4080000D01*
X5880000Y4100000D02*
X5860000Y4080000D01*
X5880000Y5390000D02*
X5900000Y5370000D01*
X5900000Y5390000D02*
X5880000Y5370000D01*
X5915000Y4150000D02*
X5935000Y4130000D01*
X5935000Y4150000D02*
X5915000Y4130000D01*
X5915000Y3695000D02*
X5935000Y3675000D01*
X5935000Y3695000D02*
X5915000Y3675000D01*
X5920000Y590000D02*
X5940000Y570000D01*
X5940000Y590000D02*
X5920000Y570000D01*
X5962300Y4860000D02*
X5982300Y4840000D01*
X5982300Y4860000D02*
X5962300Y4840000D01*
X5981500Y5060000D02*
X6001500Y5040000D01*
X6001500Y5060000D02*
X5981500Y5040000D01*
X5985000Y4150000D02*
X6005000Y4130000D01*
X6005000Y4150000D02*
X5985000Y4130000D01*
X6040000Y4200000D02*
X6060000Y4180000D01*
X6060000Y4200000D02*
X6040000Y4180000D01*
X6040000Y4100000D02*
X6060000Y4080000D01*
X6060000Y4100000D02*
X6040000Y4080000D01*
X6045000Y3915000D02*
X6065000Y3895000D01*
X6065000Y3915000D02*
X6045000Y3895000D01*
X6078500Y5060000D02*
X6098500Y5040000D01*
X6098500Y5060000D02*
X6078500Y5040000D01*
X6080000Y2275000D02*
X6100000Y2255000D01*
X6100000Y2275000D02*
X6080000Y2255000D01*
X6095000Y4860000D02*
X6115000Y4840000D01*
X6115000Y4860000D02*
X6095000Y4840000D01*
X6125000Y4015000D02*
X6145000Y3995000D01*
X6145000Y4015000D02*
X6125000Y3995000D01*
X6210000Y5160000D02*
X6230000Y5140000D01*
X6230000Y5160000D02*
X6210000Y5140000D01*
X6210000Y4200000D02*
X6230000Y4180000D01*
X6230000Y4200000D02*
X6210000Y4180000D01*
X6210000Y4100000D02*
X6230000Y4080000D01*
X6230000Y4100000D02*
X6210000Y4080000D01*
X6235000Y5390000D02*
X6255000Y5370000D01*
X6255000Y5390000D02*
X6235000Y5370000D01*
X6265000Y4150000D02*
X6285000Y4130000D01*
X6285000Y4150000D02*
X6265000Y4130000D01*
X6312300Y4855507D02*
X6332300Y4835507D01*
X6332300Y4855507D02*
X6312300Y4835507D01*
X6330000Y3210000D02*
X6350000Y3190000D01*
X6350000Y3210000D02*
X6330000Y3190000D01*
X6333250Y5056750D02*
X6353250Y5036750D01*
X6353250Y5056750D02*
X6333250Y5036750D01*
X6335000Y4150000D02*
X6355000Y4130000D01*
X6355000Y4150000D02*
X6335000Y4130000D01*
X6345000Y5280000D02*
X6365000Y5260000D01*
X6365000Y5280000D02*
X6345000Y5260000D01*
X6390000Y4200000D02*
X6410000Y4180000D01*
X6410000Y4200000D02*
X6390000Y4180000D01*
X6390000Y4100000D02*
X6410000Y4080000D01*
X6410000Y4100000D02*
X6390000Y4080000D01*
X6415000Y5280000D02*
X6435000Y5260000D01*
X6435000Y5280000D02*
X6415000Y5260000D01*
X6420000Y3935000D02*
X6440000Y3915000D01*
X6440000Y3935000D02*
X6420000Y3915000D01*
X6426750Y5056750D02*
X6446750Y5036750D01*
X6446750Y5056750D02*
X6426750Y5036750D01*
X6430000Y3770000D02*
X6450000Y3750000D01*
X6450000Y3770000D02*
X6430000Y3750000D01*
X6430000Y3580000D02*
X6450000Y3560000D01*
X6450000Y3580000D02*
X6430000Y3560000D01*
X6430000Y3390000D02*
X6450000Y3370000D01*
X6450000Y3390000D02*
X6430000Y3370000D01*
X6450000Y4855000D02*
X6470000Y4835000D01*
X6470000Y4855000D02*
X6450000Y4835000D01*
X6470000Y4015000D02*
X6490000Y3995000D01*
X6490000Y4015000D02*
X6470000Y3995000D01*
X6530000Y5160000D02*
X6550000Y5140000D01*
X6550000Y5160000D02*
X6530000Y5140000D01*
X6555000Y4200000D02*
X6575000Y4180000D01*
X6575000Y4200000D02*
X6555000Y4180000D01*
X6555000Y4100000D02*
X6575000Y4080000D01*
X6575000Y4100000D02*
X6555000Y4080000D01*
X6555000Y3630000D02*
X6575000Y3610000D01*
X6575000Y3630000D02*
X6555000Y3610000D01*
X6555000Y3530000D02*
X6575000Y3510000D01*
X6575000Y3530000D02*
X6555000Y3510000D01*
X6570000Y5920000D02*
X6590000Y5900000D01*
X6590000Y5920000D02*
X6570000Y5900000D01*
X6570000Y5390000D02*
X6590000Y5370000D01*
X6590000Y5390000D02*
X6570000Y5370000D01*
X6610000Y4150000D02*
X6630000Y4130000D01*
X6630000Y4150000D02*
X6610000Y4130000D01*
X6610000Y3580000D02*
X6630000Y3560000D01*
X6630000Y3580000D02*
X6610000Y3560000D01*
X6656579Y4857451D02*
X6676579Y4837451D01*
X6676579Y4857451D02*
X6656579Y4837451D01*
X6676500Y5055000D02*
X6696500Y5035000D01*
X6696500Y5055000D02*
X6676500Y5035000D01*
X6680000Y4150000D02*
X6700000Y4130000D01*
X6700000Y4150000D02*
X6680000Y4130000D01*
X6680000Y3580000D02*
X6700000Y3560000D01*
X6700000Y3580000D02*
X6680000Y3560000D01*
X6735000Y4200000D02*
X6755000Y4180000D01*
X6755000Y4200000D02*
X6735000Y4180000D01*
X6735000Y4100000D02*
X6755000Y4080000D01*
X6755000Y4100000D02*
X6735000Y4080000D01*
X6735000Y3630000D02*
X6755000Y3610000D01*
X6755000Y3630000D02*
X6735000Y3610000D01*
X6735000Y3530000D02*
X6755000Y3510000D01*
X6755000Y3530000D02*
X6735000Y3510000D01*
X6770000Y3930000D02*
X6790000Y3910000D01*
X6790000Y3930000D02*
X6770000Y3910000D01*
X6773500Y5055000D02*
X6793500Y5035000D01*
X6793500Y5055000D02*
X6773500Y5035000D01*
X6795000Y4855000D02*
X6815000Y4835000D01*
X6815000Y4855000D02*
X6795000Y4835000D01*
X6805000Y5695000D02*
X6825000Y5675000D01*
X6825000Y5695000D02*
X6805000Y5675000D01*
X6805000Y3295000D02*
X6825000Y3275000D01*
X6825000Y3295000D02*
X6805000Y3275000D01*
X6815000Y4025000D02*
X6835000Y4005000D01*
X6835000Y4025000D02*
X6815000Y4005000D01*
X6860000Y3580000D02*
X6880000Y3560000D01*
X6880000Y3580000D02*
X6860000Y3560000D01*
X6875000Y5155000D02*
X6895000Y5135000D01*
X6895000Y5155000D02*
X6875000Y5135000D01*
X6900000Y4200000D02*
X6920000Y4180000D01*
X6920000Y4200000D02*
X6900000Y4180000D01*
X6900000Y4100000D02*
X6920000Y4080000D01*
X6920000Y4100000D02*
X6900000Y4080000D01*
X6915000Y5390000D02*
X6935000Y5370000D01*
X6935000Y5390000D02*
X6915000Y5370000D01*
X6955000Y4150000D02*
X6975000Y4130000D01*
X6975000Y4150000D02*
X6955000Y4130000D01*
X6955000Y3690000D02*
X6975000Y3670000D01*
X6975000Y3690000D02*
X6955000Y3670000D01*
X7002300Y4855000D02*
X7022300Y4835000D01*
X7022300Y4855000D02*
X7002300Y4835000D01*
X7023250Y5053250D02*
X7043250Y5033250D01*
X7043250Y5053250D02*
X7023250Y5033250D01*
X7025000Y4150000D02*
X7045000Y4130000D01*
X7045000Y4150000D02*
X7025000Y4130000D01*
X7080000Y4200000D02*
X7100000Y4180000D01*
X7100000Y4200000D02*
X7080000Y4180000D01*
X7080000Y4100000D02*
X7100000Y4080000D01*
X7100000Y4100000D02*
X7080000Y4080000D01*
X7085000Y3910000D02*
X7105000Y3890000D01*
X7105000Y3910000D02*
X7085000Y3890000D01*
X7118500Y5055000D02*
X7138500Y5035000D01*
X7138500Y5055000D02*
X7118500Y5035000D01*
X7135000Y4855000D02*
X7155000Y4835000D01*
X7155000Y4855000D02*
X7135000Y4835000D01*
X7190000Y5390000D02*
X7210000Y5370000D01*
X7210000Y5390000D02*
X7190000Y5370000D01*
X7220000Y5160000D02*
X7240000Y5140000D01*
X7240000Y5160000D02*
X7220000Y5140000D01*
X890000Y5195000D02*
G75*
G03*
X890000Y5195000I-15000J0D01*
G01*
X890000Y5120000D02*
G75*
G03*
X890000Y5120000I-15000J0D01*
G01*
X965000Y5195000D02*
G75*
G03*
X965000Y5195000I-15000J0D01*
G01*
X965000Y5120000D02*
G75*
G03*
X965000Y5120000I-15000J0D01*
G01*
X1040000Y5195000D02*
G75*
G03*
X1040000Y5195000I-15000J0D01*
G01*
X1040000Y5120000D02*
G75*
G03*
X1040000Y5120000I-15000J0D01*
G01*
X1170000Y935000D02*
G75*
G03*
X1170000Y935000I-15000J0D01*
G01*
X1215000Y1310000D02*
G75*
G03*
X1215000Y1310000I-15000J0D01*
G01*
X1225000Y2125000D02*
G75*
G03*
X1225000Y2125000I-15000J0D01*
G01*
X1225000Y2060000D02*
G75*
G03*
X1225000Y2060000I-15000J0D01*
G01*
X1250000Y1370000D02*
G75*
G03*
X1250000Y1370000I-15000J0D01*
G01*
X1275000Y935000D02*
G75*
G03*
X1275000Y935000I-15000J0D01*
G01*
X1285000Y1310000D02*
G75*
G03*
X1285000Y1310000I-15000J0D01*
G01*
X1290000Y2125000D02*
G75*
G03*
X1290000Y2125000I-15000J0D01*
G01*
X1290000Y2060000D02*
G75*
G03*
X1290000Y2060000I-15000J0D01*
G01*
X1325000Y1370000D02*
G75*
G03*
X1325000Y1370000I-15000J0D01*
G01*
X1355000Y2125000D02*
G75*
G03*
X1355000Y2125000I-15000J0D01*
G01*
X1355000Y2060000D02*
G75*
G03*
X1355000Y2060000I-15000J0D01*
G01*
X1360000Y1310000D02*
G75*
G03*
X1360000Y1310000I-15000J0D01*
G01*
X1380000Y935000D02*
G75*
G03*
X1380000Y935000I-15000J0D01*
G01*
X1395000Y1370000D02*
G75*
G03*
X1395000Y1370000I-15000J0D01*
G01*
X1485000Y830000D02*
G75*
G03*
X1485000Y830000I-15000J0D01*
G01*
X1550000Y830000D02*
G75*
G03*
X1550000Y830000I-15000J0D01*
G01*
X1580000Y1310000D02*
G75*
G03*
X1580000Y1310000I-15000J0D01*
G01*
X1615000Y1370000D02*
G75*
G03*
X1615000Y1370000I-15000J0D01*
G01*
X1615000Y830000D02*
G75*
G03*
X1615000Y830000I-15000J0D01*
G01*
X1655000Y1310000D02*
G75*
G03*
X1655000Y1310000I-15000J0D01*
G01*
X1670000Y3755000D02*
G75*
G03*
X1670000Y3755000I-15000J0D01*
G01*
X1670000Y3415000D02*
G75*
G03*
X1670000Y3415000I-15000J0D01*
G01*
X1680000Y830000D02*
G75*
G03*
X1680000Y830000I-15000J0D01*
G01*
X1770000Y1920000D02*
G75*
G03*
X1770000Y1920000I-15000J0D01*
G01*
X1770000Y1820000D02*
G75*
G03*
X1770000Y1820000I-15000J0D01*
G01*
X1845000Y1920000D02*
G75*
G03*
X1845000Y1920000I-15000J0D01*
G01*
X1845000Y1820000D02*
G75*
G03*
X1845000Y1820000I-15000J0D01*
G01*
X1875000Y5890000D02*
G75*
G03*
X1875000Y5890000I-15000J0D01*
G01*
X1920000Y1920000D02*
G75*
G03*
X1920000Y1920000I-15000J0D01*
G01*
X1920000Y1820000D02*
G75*
G03*
X1920000Y1820000I-15000J0D01*
G01*
X2170000Y910000D02*
G75*
G03*
X2170000Y910000I-15000J0D01*
G01*
X2710000Y3755000D02*
G75*
G03*
X2710000Y3755000I-15000J0D01*
G01*
X2710000Y3415000D02*
G75*
G03*
X2710000Y3415000I-15000J0D01*
G01*
X3160000Y1010000D02*
G75*
G03*
X3160000Y1010000I-15000J0D01*
G01*
X3750000Y3750000D02*
G75*
G03*
X3750000Y3750000I-15000J0D01*
G01*
X3750000Y3410000D02*
G75*
G03*
X3750000Y3410000I-15000J0D01*
G01*
X4675000Y1090000D02*
G75*
G03*
X4675000Y1090000I-15000J0D01*
G01*
X4745000Y880000D02*
G75*
G03*
X4745000Y880000I-15000J0D01*
G01*
X4790000Y3750000D02*
G75*
G03*
X4790000Y3750000I-15000J0D01*
G01*
X4790000Y3410000D02*
G75*
G03*
X4790000Y3410000I-15000J0D01*
G01*
X5830000Y3750000D02*
G75*
G03*
X5830000Y3750000I-15000J0D01*
G01*
X5830000Y3410000D02*
G75*
G03*
X5830000Y3410000I-15000J0D01*
G01*
X6310000Y1385000D02*
G75*
G03*
X6310000Y1385000I-15000J0D01*
G01*
X6870000Y3745000D02*
G75*
G03*
X6870000Y3745000I-15000J0D01*
G01*
X6870000Y3405000D02*
G75*
G03*
X6870000Y3405000I-15000J0D01*
G01*
X800000Y5550000D02*
X800000Y5510000D01*
X780000Y5530000D02*
X820000Y5530000D01*
X800000Y5465000D02*
X800000Y5425000D01*
X780000Y5445000D02*
X820000Y5445000D01*
X800000Y5380000D02*
X800000Y5340000D01*
X780000Y5360000D02*
X820000Y5360000D01*
X7510000Y5550000D02*
X7510000Y5510000D01*
X7490000Y5530000D02*
X7530000Y5530000D01*
X7510000Y5465000D02*
X7510000Y5425000D01*
X7490000Y5445000D02*
X7530000Y5445000D01*
X7510000Y5380000D02*
X7510000Y5340000D01*
X7490000Y5360000D02*
X7530000Y5360000D01*
X1808284Y501715D02*
X1808284Y558285D01*
X1751715Y558285D01*
X1751715Y501715D01*
X1808284Y501715D01*
X1750000Y565000D02*
X1750000Y495000D01*
X1810000Y565000D02*
X1810000Y495000D01*
X1750000Y495000D02*
G75*
G03*
X1810000Y495000I30000J0D01*
G01*
X1810000Y565000D02*
G75*
G03*
X1750000Y565000I-30000J0D01*
G01*
X1808284Y131716D02*
X1808284Y188284D01*
X1751715Y188284D01*
X1751715Y131716D01*
X1808284Y131716D01*
X1750000Y195000D02*
X1750000Y125000D01*
X1810000Y195000D02*
X1810000Y125000D01*
X1750000Y125000D02*
G75*
G03*
X1810000Y125000I30000J0D01*
G01*
X1810000Y195000D02*
G75*
G03*
X1750000Y195000I-30000J0D01*
G01*
X2828284Y501715D02*
X2828284Y558285D01*
X2771716Y558285D01*
X2771716Y501715D01*
X2828284Y501715D01*
X2770000Y565000D02*
X2770000Y495000D01*
X2830000Y565000D02*
X2830000Y495000D01*
X2770000Y495000D02*
G75*
G03*
X2830000Y495000I30000J0D01*
G01*
X2830000Y565000D02*
G75*
G03*
X2770000Y565000I-30000J0D01*
G01*
X2828284Y131716D02*
X2828284Y188284D01*
X2771716Y188284D01*
X2771716Y131716D01*
X2828284Y131716D01*
X2770000Y195000D02*
X2770000Y125000D01*
X2830000Y195000D02*
X2830000Y125000D01*
X2770000Y125000D02*
G75*
G03*
X2830000Y125000I30000J0D01*
G01*
X2830000Y195000D02*
G75*
G03*
X2770000Y195000I-30000J0D01*
G01*
X305000Y4819000D02*
X355000Y4869000D01*
X305000Y4919000D01*
X255000Y4869000D01*
X305000Y4819000D01*
X305000Y4565000D02*
X355000Y4615000D01*
X305000Y4665000D01*
X255000Y4615000D01*
X305000Y4565000D01*
X1453000Y6879500D02*
X1563000Y6769500D01*
X1563000Y6879500D02*
X1453000Y6769500D01*
X1563000Y6824500D02*
G75*
G03*
X1563000Y6824500I-55000J0D01*
G01*
X1453000Y6450500D02*
X1563000Y6340500D01*
X1563000Y6450500D02*
X1453000Y6340500D01*
X1563000Y6395500D02*
G75*
G03*
X1563000Y6395500I-55000J0D01*
G01*
X1669000Y6879500D02*
X1779000Y6769500D01*
X1779000Y6879500D02*
X1669000Y6769500D01*
X1779000Y6824500D02*
G75*
G03*
X1779000Y6824500I-55000J0D01*
G01*
X1669000Y6450500D02*
X1779000Y6340500D01*
X1779000Y6450500D02*
X1669000Y6340500D01*
X1779000Y6395500D02*
G75*
G03*
X1779000Y6395500I-55000J0D01*
G01*
X1885000Y6879500D02*
X1995000Y6769500D01*
X1995000Y6879500D02*
X1885000Y6769500D01*
X1995000Y6824500D02*
G75*
G03*
X1995000Y6824500I-55000J0D01*
G01*
X1885000Y6450500D02*
X1995000Y6340500D01*
X1995000Y6450500D02*
X1885000Y6340500D01*
X1995000Y6395500D02*
G75*
G03*
X1995000Y6395500I-55000J0D01*
G01*
X2101000Y6879500D02*
X2211000Y6769500D01*
X2211000Y6879500D02*
X2101000Y6769500D01*
X2211000Y6824500D02*
G75*
G03*
X2211000Y6824500I-55000J0D01*
G01*
X2101000Y6450500D02*
X2211000Y6340500D01*
X2211000Y6450500D02*
X2101000Y6340500D01*
X2211000Y6395500D02*
G75*
G03*
X2211000Y6395500I-55000J0D01*
G01*
X2317000Y6879500D02*
X2427000Y6769500D01*
X2427000Y6879500D02*
X2317000Y6769500D01*
X2427000Y6824500D02*
G75*
G03*
X2427000Y6824500I-55000J0D01*
G01*
X2317000Y6450500D02*
X2427000Y6340500D01*
X2427000Y6450500D02*
X2317000Y6340500D01*
X2427000Y6395500D02*
G75*
G03*
X2427000Y6395500I-55000J0D01*
G01*
X2533000Y6879500D02*
X2643000Y6769500D01*
X2643000Y6879500D02*
X2533000Y6769500D01*
X2643000Y6824500D02*
G75*
G03*
X2643000Y6824500I-55000J0D01*
G01*
X2533000Y6450500D02*
X2643000Y6340500D01*
X2643000Y6450500D02*
X2533000Y6340500D01*
X2643000Y6395500D02*
G75*
G03*
X2643000Y6395500I-55000J0D01*
G01*
X2749000Y6879500D02*
X2859000Y6769500D01*
X2859000Y6879500D02*
X2749000Y6769500D01*
X2859000Y6824500D02*
G75*
G03*
X2859000Y6824500I-55000J0D01*
G01*
X2749000Y6450500D02*
X2859000Y6340500D01*
X2859000Y6450500D02*
X2749000Y6340500D01*
X2859000Y6395500D02*
G75*
G03*
X2859000Y6395500I-55000J0D01*
G01*
X2965000Y6879500D02*
X3075000Y6769500D01*
X3075000Y6879500D02*
X2965000Y6769500D01*
X3075000Y6824500D02*
G75*
G03*
X3075000Y6824500I-55000J0D01*
G01*
X2965000Y6450500D02*
X3075000Y6340500D01*
X3075000Y6450500D02*
X2965000Y6340500D01*
X3075000Y6395500D02*
G75*
G03*
X3075000Y6395500I-55000J0D01*
G01*
X3181000Y6879500D02*
X3291000Y6769500D01*
X3291000Y6879500D02*
X3181000Y6769500D01*
X3291000Y6824500D02*
G75*
G03*
X3291000Y6824500I-55000J0D01*
G01*
X3181000Y6450500D02*
X3291000Y6340500D01*
X3291000Y6450500D02*
X3181000Y6340500D01*
X3291000Y6395500D02*
G75*
G03*
X3291000Y6395500I-55000J0D01*
G01*
X3397000Y6879500D02*
X3507000Y6769500D01*
X3507000Y6879500D02*
X3397000Y6769500D01*
X3507000Y6824500D02*
G75*
G03*
X3507000Y6824500I-55000J0D01*
G01*
X3397000Y6450500D02*
X3507000Y6340500D01*
X3507000Y6450500D02*
X3397000Y6340500D01*
X3507000Y6395500D02*
G75*
G03*
X3507000Y6395500I-55000J0D01*
G01*
X3613000Y6879500D02*
X3723000Y6769500D01*
X3723000Y6879500D02*
X3613000Y6769500D01*
X3723000Y6824500D02*
G75*
G03*
X3723000Y6824500I-55000J0D01*
G01*
X3613000Y6450500D02*
X3723000Y6340500D01*
X3723000Y6450500D02*
X3613000Y6340500D01*
X3723000Y6395500D02*
G75*
G03*
X3723000Y6395500I-55000J0D01*
G01*
X3829000Y6879500D02*
X3939000Y6769500D01*
X3939000Y6879500D02*
X3829000Y6769500D01*
X3939000Y6824500D02*
G75*
G03*
X3939000Y6824500I-55000J0D01*
G01*
X3829000Y6450500D02*
X3939000Y6340500D01*
X3939000Y6450500D02*
X3829000Y6340500D01*
X3939000Y6395500D02*
G75*
G03*
X3939000Y6395500I-55000J0D01*
G01*
X4045000Y6879500D02*
X4155000Y6769500D01*
X4155000Y6879500D02*
X4045000Y6769500D01*
X4155000Y6824500D02*
G75*
G03*
X4155000Y6824500I-55000J0D01*
G01*
X4045000Y6450500D02*
X4155000Y6340500D01*
X4155000Y6450500D02*
X4045000Y6340500D01*
X4155000Y6395500D02*
G75*
G03*
X4155000Y6395500I-55000J0D01*
G01*
X4261000Y6879500D02*
X4371000Y6769500D01*
X4371000Y6879500D02*
X4261000Y6769500D01*
X4371000Y6824500D02*
G75*
G03*
X4371000Y6824500I-55000J0D01*
G01*
X4261000Y6450500D02*
X4371000Y6340500D01*
X4371000Y6450500D02*
X4261000Y6340500D01*
X4371000Y6395500D02*
G75*
G03*
X4371000Y6395500I-55000J0D01*
G01*
X4477000Y6879500D02*
X4587000Y6769500D01*
X4587000Y6879500D02*
X4477000Y6769500D01*
X4587000Y6824500D02*
G75*
G03*
X4587000Y6824500I-55000J0D01*
G01*
X4477000Y6450500D02*
X4587000Y6340500D01*
X4587000Y6450500D02*
X4477000Y6340500D01*
X4587000Y6395500D02*
G75*
G03*
X4587000Y6395500I-55000J0D01*
G01*
X4693000Y6879500D02*
X4803000Y6769500D01*
X4803000Y6879500D02*
X4693000Y6769500D01*
X4803000Y6824500D02*
G75*
G03*
X4803000Y6824500I-55000J0D01*
G01*
X4693000Y6450500D02*
X4803000Y6340500D01*
X4803000Y6450500D02*
X4693000Y6340500D01*
X4803000Y6395500D02*
G75*
G03*
X4803000Y6395500I-55000J0D01*
G01*
X4909000Y6879500D02*
X5019000Y6769500D01*
X5019000Y6879500D02*
X4909000Y6769500D01*
X5019000Y6824500D02*
G75*
G03*
X5019000Y6824500I-55000J0D01*
G01*
X4909000Y6450500D02*
X5019000Y6340500D01*
X5019000Y6450500D02*
X4909000Y6340500D01*
X5019000Y6395500D02*
G75*
G03*
X5019000Y6395500I-55000J0D01*
G01*
X5125000Y6879500D02*
X5235000Y6769500D01*
X5235000Y6879500D02*
X5125000Y6769500D01*
X5235000Y6824500D02*
G75*
G03*
X5235000Y6824500I-55000J0D01*
G01*
X5125000Y6450500D02*
X5235000Y6340500D01*
X5235000Y6450500D02*
X5125000Y6340500D01*
X5235000Y6395500D02*
G75*
G03*
X5235000Y6395500I-55000J0D01*
G01*
X5341000Y6879500D02*
X5451000Y6769500D01*
X5451000Y6879500D02*
X5341000Y6769500D01*
X5451000Y6824500D02*
G75*
G03*
X5451000Y6824500I-55000J0D01*
G01*
X5341000Y6450500D02*
X5451000Y6340500D01*
X5451000Y6450500D02*
X5341000Y6340500D01*
X5451000Y6395500D02*
G75*
G03*
X5451000Y6395500I-55000J0D01*
G01*
X5557000Y6879500D02*
X5667000Y6769500D01*
X5667000Y6879500D02*
X5557000Y6769500D01*
X5667000Y6824500D02*
G75*
G03*
X5667000Y6824500I-55000J0D01*
G01*
X5557000Y6450500D02*
X5667000Y6340500D01*
X5667000Y6450500D02*
X5557000Y6340500D01*
X5667000Y6395500D02*
G75*
G03*
X5667000Y6395500I-55000J0D01*
G01*
X5773000Y6879500D02*
X5883000Y6769500D01*
X5883000Y6879500D02*
X5773000Y6769500D01*
X5883000Y6824500D02*
G75*
G03*
X5883000Y6824500I-55000J0D01*
G01*
X5773000Y6450500D02*
X5883000Y6340500D01*
X5883000Y6450500D02*
X5773000Y6340500D01*
X5883000Y6395500D02*
G75*
G03*
X5883000Y6395500I-55000J0D01*
G01*
X5989000Y6879500D02*
X6099000Y6769500D01*
X6099000Y6879500D02*
X5989000Y6769500D01*
X6099000Y6824500D02*
G75*
G03*
X6099000Y6824500I-55000J0D01*
G01*
X5989000Y6450500D02*
X6099000Y6340500D01*
X6099000Y6450500D02*
X5989000Y6340500D01*
X6099000Y6395500D02*
G75*
G03*
X6099000Y6395500I-55000J0D01*
G01*
X6205000Y6879500D02*
X6315000Y6769500D01*
X6315000Y6879500D02*
X6205000Y6769500D01*
X6315000Y6824500D02*
G75*
G03*
X6315000Y6824500I-55000J0D01*
G01*
X6205000Y6450500D02*
X6315000Y6340500D01*
X6315000Y6450500D02*
X6205000Y6340500D01*
X6315000Y6395500D02*
G75*
G03*
X6315000Y6395500I-55000J0D01*
G01*
X6421000Y6879500D02*
X6531000Y6769500D01*
X6531000Y6879500D02*
X6421000Y6769500D01*
X6531000Y6824500D02*
G75*
G03*
X6531000Y6824500I-55000J0D01*
G01*
X6421000Y6450500D02*
X6531000Y6340500D01*
X6531000Y6450500D02*
X6421000Y6340500D01*
X6531000Y6395500D02*
G75*
G03*
X6531000Y6395500I-55000J0D01*
G01*
X6637000Y6879500D02*
X6747000Y6769500D01*
X6747000Y6879500D02*
X6637000Y6769500D01*
X6747000Y6824500D02*
G75*
G03*
X6747000Y6824500I-55000J0D01*
G01*
X6637000Y6450500D02*
X6747000Y6340500D01*
X6747000Y6450500D02*
X6637000Y6340500D01*
X6747000Y6395500D02*
G75*
G03*
X6747000Y6395500I-55000J0D01*
G01*
X202500Y6765000D02*
X512500Y6455000D01*
X512500Y6765000D02*
X202500Y6455000D01*
X357500Y6765000D02*
X357500Y6455000D01*
X202500Y6610000D02*
X512500Y6610000D01*
X7687500Y6765000D02*
X7997500Y6455000D01*
X7997500Y6765000D02*
X7687500Y6455000D01*
X7842500Y6765000D02*
X7842500Y6455000D01*
X7687500Y6610000D02*
X7997500Y6610000D01*
D12*
X283928Y-468214D02*
X283928Y-168214D01*
X355357Y-168214D01*
X398214Y-182500D01*
X426786Y-211071D01*
X441071Y-239643D01*
X455357Y-296786D01*
X455357Y-339643D01*
X441071Y-396786D01*
X426786Y-425357D01*
X398214Y-453929D01*
X355357Y-468214D01*
X283928Y-468214D01*
X583928Y-468214D02*
X583928Y-268214D01*
X583928Y-325357D02*
X598214Y-296786D01*
X612500Y-282500D01*
X641071Y-268214D01*
X669643Y-268214D01*
X769643Y-468214D02*
X769643Y-268214D01*
X769643Y-168214D02*
X755357Y-182500D01*
X769643Y-196786D01*
X783928Y-182500D01*
X769643Y-168214D01*
X769643Y-196786D01*
X955357Y-468214D02*
X926786Y-453929D01*
X912500Y-425357D01*
X912500Y-168214D01*
X1112500Y-468214D02*
X1083928Y-453929D01*
X1069643Y-425357D01*
X1069643Y-168214D01*
X1455357Y-468214D02*
X1455357Y-168214D01*
X1555357Y-382500D01*
X1655357Y-168214D01*
X1655357Y-468214D01*
X1926786Y-468214D02*
X1926786Y-311072D01*
X1912500Y-282500D01*
X1883928Y-268214D01*
X1826786Y-268214D01*
X1798214Y-282500D01*
X1926786Y-453929D02*
X1898214Y-468214D01*
X1826786Y-468214D01*
X1798214Y-453929D01*
X1783928Y-425357D01*
X1783928Y-396786D01*
X1798214Y-368214D01*
X1826786Y-353929D01*
X1898214Y-353929D01*
X1926786Y-339643D01*
X2069643Y-268214D02*
X2069643Y-568214D01*
X2069643Y-282500D02*
X2098214Y-268214D01*
X2155357Y-268214D01*
X2183928Y-282500D01*
X2198214Y-296786D01*
X2212500Y-325357D01*
X2212500Y-411071D01*
X2198214Y-439643D01*
X2183928Y-453929D01*
X2155357Y-468214D01*
X2098214Y-468214D01*
X2069643Y-453929D01*
X2341071Y-439643D02*
X2355357Y-453929D01*
X2341071Y-468214D01*
X2326786Y-453929D01*
X2341071Y-439643D01*
X2341071Y-468214D01*
X2341071Y-282500D02*
X2355357Y-296786D01*
X2341071Y-311072D01*
X2326786Y-296786D01*
X2341071Y-282500D01*
X2341071Y-311072D01*
X-22500Y-952500D02*
X-2500Y-972500D01*
X-2500Y-952500D02*
X-22500Y-972500D01*
X341071Y-798214D02*
X369643Y-798214D01*
X398214Y-812500D01*
X412500Y-826786D01*
X426786Y-855357D01*
X441071Y-912500D01*
X441071Y-983929D01*
X426786Y-1041071D01*
X412500Y-1069643D01*
X398214Y-1083929D01*
X369643Y-1098214D01*
X341071Y-1098214D01*
X312500Y-1083929D01*
X298214Y-1069643D01*
X283928Y-1041071D01*
X269643Y-983929D01*
X269643Y-912500D01*
X283928Y-855357D01*
X298214Y-826786D01*
X312500Y-812500D01*
X341071Y-798214D01*
X569643Y-1069643D02*
X583928Y-1083929D01*
X569643Y-1098214D01*
X555357Y-1083929D01*
X569643Y-1069643D01*
X569643Y-1098214D01*
X698214Y-826786D02*
X712500Y-812500D01*
X741071Y-798214D01*
X812500Y-798214D01*
X841071Y-812500D01*
X855357Y-826786D01*
X869643Y-855357D01*
X869643Y-883929D01*
X855357Y-926786D01*
X683928Y-1098214D01*
X869643Y-1098214D01*
X1055357Y-798214D02*
X1083928Y-798214D01*
X1112500Y-812500D01*
X1126786Y-826786D01*
X1141071Y-855357D01*
X1155357Y-912500D01*
X1155357Y-983929D01*
X1141071Y-1041071D01*
X1126786Y-1069643D01*
X1112500Y-1083929D01*
X1083928Y-1098214D01*
X1055357Y-1098214D01*
X1026786Y-1083929D01*
X1012500Y-1069643D01*
X998214Y-1041071D01*
X983928Y-983929D01*
X983928Y-912500D01*
X998214Y-855357D01*
X1012500Y-826786D01*
X1026786Y-812500D01*
X1055357Y-798214D01*
X1283928Y-1098214D02*
X1283928Y-898214D01*
X1283928Y-926786D02*
X1298214Y-912500D01*
X1326786Y-898214D01*
X1369643Y-898214D01*
X1398214Y-912500D01*
X1412500Y-941071D01*
X1412500Y-1098214D01*
X1412500Y-941071D02*
X1426786Y-912500D01*
X1455357Y-898214D01*
X1498214Y-898214D01*
X1526786Y-912500D01*
X1541071Y-941071D01*
X1541071Y-1098214D01*
X1683928Y-1098214D02*
X1683928Y-898214D01*
X1683928Y-926786D02*
X1698214Y-912500D01*
X1726786Y-898214D01*
X1769643Y-898214D01*
X1798214Y-912500D01*
X1812500Y-941071D01*
X1812500Y-1098214D01*
X1812500Y-941071D02*
X1826786Y-912500D01*
X1855357Y-898214D01*
X1898214Y-898214D01*
X1926786Y-912500D01*
X1941071Y-941071D01*
X1941071Y-1098214D01*
X2526786Y-783929D02*
X2269643Y-1169643D01*
X2912500Y-798214D02*
X2941071Y-798214D01*
X2969643Y-812500D01*
X2983928Y-826786D01*
X2998214Y-855357D01*
X3012500Y-912500D01*
X3012500Y-983929D01*
X2998214Y-1041071D01*
X2983928Y-1069643D01*
X2969643Y-1083929D01*
X2941071Y-1098214D01*
X2912500Y-1098214D01*
X2883928Y-1083929D01*
X2869643Y-1069643D01*
X2855357Y-1041071D01*
X2841071Y-983929D01*
X2841071Y-912500D01*
X2855357Y-855357D01*
X2869643Y-826786D01*
X2883928Y-812500D01*
X2912500Y-798214D01*
X3141071Y-1069643D02*
X3155357Y-1083929D01*
X3141071Y-1098214D01*
X3126786Y-1083929D01*
X3141071Y-1069643D01*
X3141071Y-1098214D01*
X3341071Y-798214D02*
X3369643Y-798214D01*
X3398214Y-812500D01*
X3412500Y-826786D01*
X3426786Y-855357D01*
X3441071Y-912500D01*
X3441071Y-983929D01*
X3426786Y-1041071D01*
X3412500Y-1069643D01*
X3398214Y-1083929D01*
X3369643Y-1098214D01*
X3341071Y-1098214D01*
X3312500Y-1083929D01*
X3298214Y-1069643D01*
X3283928Y-1041071D01*
X3269643Y-983929D01*
X3269643Y-912500D01*
X3283928Y-855357D01*
X3298214Y-826786D01*
X3312500Y-812500D01*
X3341071Y-798214D01*
X3626786Y-798214D02*
X3655357Y-798214D01*
X3683928Y-812500D01*
X3698214Y-826786D01*
X3712500Y-855357D01*
X3726786Y-912500D01*
X3726786Y-983929D01*
X3712500Y-1041071D01*
X3698214Y-1069643D01*
X3683928Y-1083929D01*
X3655357Y-1098214D01*
X3626786Y-1098214D01*
X3598214Y-1083929D01*
X3583928Y-1069643D01*
X3569643Y-1041071D01*
X3555357Y-983929D01*
X3555357Y-912500D01*
X3569643Y-855357D01*
X3583928Y-826786D01*
X3598214Y-812500D01*
X3626786Y-798214D01*
X3898214Y-926786D02*
X3869643Y-912500D01*
X3855357Y-898214D01*
X3841071Y-869643D01*
X3841071Y-855357D01*
X3855357Y-826786D01*
X3869643Y-812500D01*
X3898214Y-798214D01*
X3955357Y-798214D01*
X3983928Y-812500D01*
X3998214Y-826786D01*
X4012500Y-855357D01*
X4012500Y-869643D01*
X3998214Y-898214D01*
X3983928Y-912500D01*
X3955357Y-926786D01*
X3898214Y-926786D01*
X3869643Y-941071D01*
X3855357Y-955357D01*
X3841071Y-983929D01*
X3841071Y-1041071D01*
X3855357Y-1069643D01*
X3869643Y-1083929D01*
X3898214Y-1098214D01*
X3955357Y-1098214D01*
X3983928Y-1083929D01*
X3998214Y-1069643D01*
X4012500Y-1041071D01*
X4012500Y-983929D01*
X3998214Y-955357D01*
X3983928Y-941071D01*
X3955357Y-926786D01*
X4126786Y-798214D02*
X4126786Y-855357D01*
X4241071Y-798214D02*
X4241071Y-855357D01*
X4683928Y-1212500D02*
X4669643Y-1198214D01*
X4641071Y-1155357D01*
X4626786Y-1126786D01*
X4612500Y-1083929D01*
X4598214Y-1012500D01*
X4598214Y-955357D01*
X4612500Y-883929D01*
X4626786Y-841071D01*
X4641071Y-812500D01*
X4669643Y-769643D01*
X4683928Y-755357D01*
X4926786Y-898214D02*
X4926786Y-1098214D01*
X4855357Y-783929D02*
X4783928Y-998214D01*
X4969643Y-998214D01*
X5212500Y-798214D02*
X5155357Y-798214D01*
X5126786Y-812500D01*
X5112500Y-826786D01*
X5083928Y-869643D01*
X5069643Y-926786D01*
X5069643Y-1041071D01*
X5083928Y-1069643D01*
X5098214Y-1083929D01*
X5126786Y-1098214D01*
X5183928Y-1098214D01*
X5212500Y-1083929D01*
X5226786Y-1069643D01*
X5241071Y-1041071D01*
X5241071Y-969643D01*
X5226786Y-941071D01*
X5212500Y-926786D01*
X5183928Y-912500D01*
X5126786Y-912500D01*
X5098214Y-926786D01*
X5083928Y-941071D01*
X5069643Y-969643D01*
X5498214Y-798214D02*
X5441071Y-798214D01*
X5412500Y-812500D01*
X5398214Y-826786D01*
X5369643Y-869643D01*
X5355357Y-926786D01*
X5355357Y-1041071D01*
X5369643Y-1069643D01*
X5383928Y-1083929D01*
X5412500Y-1098214D01*
X5469643Y-1098214D01*
X5498214Y-1083929D01*
X5512500Y-1069643D01*
X5526786Y-1041071D01*
X5526786Y-969643D01*
X5512500Y-941071D01*
X5498214Y-926786D01*
X5469643Y-912500D01*
X5412500Y-912500D01*
X5383928Y-926786D01*
X5369643Y-941071D01*
X5355357Y-969643D01*
X5883928Y-1098214D02*
X5883928Y-798214D01*
X6012500Y-1098214D02*
X6012500Y-941071D01*
X5998214Y-912500D01*
X5969643Y-898214D01*
X5926786Y-898214D01*
X5898214Y-912500D01*
X5883928Y-926786D01*
X6198214Y-1098214D02*
X6169643Y-1083929D01*
X6155357Y-1069643D01*
X6141071Y-1041071D01*
X6141071Y-955357D01*
X6155357Y-926786D01*
X6169643Y-912500D01*
X6198214Y-898214D01*
X6241071Y-898214D01*
X6269643Y-912500D01*
X6283928Y-926786D01*
X6298214Y-955357D01*
X6298214Y-1041071D01*
X6283928Y-1069643D01*
X6269643Y-1083929D01*
X6241071Y-1098214D01*
X6198214Y-1098214D01*
X6469643Y-1098214D02*
X6441071Y-1083929D01*
X6426786Y-1055357D01*
X6426786Y-798214D01*
X6698214Y-1083929D02*
X6669643Y-1098214D01*
X6612500Y-1098214D01*
X6583928Y-1083929D01*
X6569643Y-1055357D01*
X6569643Y-941071D01*
X6583928Y-912500D01*
X6612500Y-898214D01*
X6669643Y-898214D01*
X6698214Y-912500D01*
X6712500Y-941071D01*
X6712500Y-969643D01*
X6569643Y-998214D01*
X6826786Y-1083929D02*
X6855357Y-1098214D01*
X6912500Y-1098214D01*
X6941071Y-1083929D01*
X6955357Y-1055357D01*
X6955357Y-1041071D01*
X6941071Y-1012500D01*
X6912500Y-998214D01*
X6869643Y-998214D01*
X6841071Y-983929D01*
X6826786Y-955357D01*
X6826786Y-941071D01*
X6841071Y-912500D01*
X6869643Y-898214D01*
X6912500Y-898214D01*
X6941071Y-912500D01*
X7055357Y-1212500D02*
X7069643Y-1198214D01*
X7098214Y-1155357D01*
X7112500Y-1126786D01*
X7126786Y-1083929D01*
X7141071Y-1012500D01*
X7141071Y-955357D01*
X7126786Y-883929D01*
X7112500Y-841071D01*
X7098214Y-812500D01*
X7069643Y-769643D01*
X7055357Y-755357D01*
X-2500Y-1358500D02*
G75*
G03*
X-2500Y-1358500I-15000J0D01*
G01*
X341071Y-1194214D02*
X369643Y-1194214D01*
X398214Y-1208500D01*
X412500Y-1222786D01*
X426786Y-1251357D01*
X441071Y-1308500D01*
X441071Y-1379929D01*
X426786Y-1437071D01*
X412500Y-1465643D01*
X398214Y-1479929D01*
X369643Y-1494214D01*
X341071Y-1494214D01*
X312500Y-1479929D01*
X298214Y-1465643D01*
X283928Y-1437071D01*
X269643Y-1379929D01*
X269643Y-1308500D01*
X283928Y-1251357D01*
X298214Y-1222786D01*
X312500Y-1208500D01*
X341071Y-1194214D01*
X569643Y-1465643D02*
X583928Y-1479929D01*
X569643Y-1494214D01*
X555357Y-1479929D01*
X569643Y-1465643D01*
X569643Y-1494214D01*
X683928Y-1194214D02*
X869643Y-1194214D01*
X769643Y-1308500D01*
X812500Y-1308500D01*
X841071Y-1322786D01*
X855357Y-1337072D01*
X869643Y-1365643D01*
X869643Y-1437071D01*
X855357Y-1465643D01*
X841071Y-1479929D01*
X812500Y-1494214D01*
X726786Y-1494214D01*
X698214Y-1479929D01*
X683928Y-1465643D01*
X1055357Y-1194214D02*
X1083928Y-1194214D01*
X1112500Y-1208500D01*
X1126786Y-1222786D01*
X1141071Y-1251357D01*
X1155357Y-1308500D01*
X1155357Y-1379929D01*
X1141071Y-1437071D01*
X1126786Y-1465643D01*
X1112500Y-1479929D01*
X1083928Y-1494214D01*
X1055357Y-1494214D01*
X1026786Y-1479929D01*
X1012500Y-1465643D01*
X998214Y-1437071D01*
X983928Y-1379929D01*
X983928Y-1308500D01*
X998214Y-1251357D01*
X1012500Y-1222786D01*
X1026786Y-1208500D01*
X1055357Y-1194214D01*
X1283928Y-1494214D02*
X1283928Y-1294214D01*
X1283928Y-1322786D02*
X1298214Y-1308500D01*
X1326786Y-1294214D01*
X1369643Y-1294214D01*
X1398214Y-1308500D01*
X1412500Y-1337072D01*
X1412500Y-1494214D01*
X1412500Y-1337072D02*
X1426786Y-1308500D01*
X1455357Y-1294214D01*
X1498214Y-1294214D01*
X1526786Y-1308500D01*
X1541071Y-1337072D01*
X1541071Y-1494214D01*
X1683928Y-1494214D02*
X1683928Y-1294214D01*
X1683928Y-1322786D02*
X1698214Y-1308500D01*
X1726786Y-1294214D01*
X1769643Y-1294214D01*
X1798214Y-1308500D01*
X1812500Y-1337072D01*
X1812500Y-1494214D01*
X1812500Y-1337072D02*
X1826786Y-1308500D01*
X1855357Y-1294214D01*
X1898214Y-1294214D01*
X1926786Y-1308500D01*
X1941071Y-1337072D01*
X1941071Y-1494214D01*
X2526786Y-1179929D02*
X2269643Y-1565643D01*
X2912500Y-1194214D02*
X2941071Y-1194214D01*
X2969643Y-1208500D01*
X2983928Y-1222786D01*
X2998214Y-1251357D01*
X3012500Y-1308500D01*
X3012500Y-1379929D01*
X2998214Y-1437071D01*
X2983928Y-1465643D01*
X2969643Y-1479929D01*
X2941071Y-1494214D01*
X2912500Y-1494214D01*
X2883928Y-1479929D01*
X2869643Y-1465643D01*
X2855357Y-1437071D01*
X2841071Y-1379929D01*
X2841071Y-1308500D01*
X2855357Y-1251357D01*
X2869643Y-1222786D01*
X2883928Y-1208500D01*
X2912500Y-1194214D01*
X3141071Y-1465643D02*
X3155357Y-1479929D01*
X3141071Y-1494214D01*
X3126786Y-1479929D01*
X3141071Y-1465643D01*
X3141071Y-1494214D01*
X3341071Y-1194214D02*
X3369643Y-1194214D01*
X3398214Y-1208500D01*
X3412500Y-1222786D01*
X3426786Y-1251357D01*
X3441071Y-1308500D01*
X3441071Y-1379929D01*
X3426786Y-1437071D01*
X3412500Y-1465643D01*
X3398214Y-1479929D01*
X3369643Y-1494214D01*
X3341071Y-1494214D01*
X3312500Y-1479929D01*
X3298214Y-1465643D01*
X3283928Y-1437071D01*
X3269643Y-1379929D01*
X3269643Y-1308500D01*
X3283928Y-1251357D01*
X3298214Y-1222786D01*
X3312500Y-1208500D01*
X3341071Y-1194214D01*
X3726786Y-1494214D02*
X3555357Y-1494214D01*
X3641071Y-1494214D02*
X3641071Y-1194214D01*
X3612500Y-1237072D01*
X3583928Y-1265643D01*
X3555357Y-1279929D01*
X3841071Y-1222786D02*
X3855357Y-1208500D01*
X3883928Y-1194214D01*
X3955357Y-1194214D01*
X3983928Y-1208500D01*
X3998214Y-1222786D01*
X4012500Y-1251357D01*
X4012500Y-1279929D01*
X3998214Y-1322786D01*
X3826786Y-1494214D01*
X4012500Y-1494214D01*
X4126786Y-1194214D02*
X4126786Y-1251357D01*
X4241071Y-1194214D02*
X4241071Y-1251357D01*
X4683928Y-1608500D02*
X4669643Y-1594214D01*
X4641071Y-1551357D01*
X4626786Y-1522786D01*
X4612500Y-1479929D01*
X4598214Y-1408500D01*
X4598214Y-1351357D01*
X4612500Y-1279929D01*
X4626786Y-1237072D01*
X4641071Y-1208500D01*
X4669643Y-1165643D01*
X4683928Y-1151357D01*
X4941071Y-1194214D02*
X4798214Y-1194214D01*
X4783928Y-1337072D01*
X4798214Y-1322786D01*
X4826786Y-1308500D01*
X4898214Y-1308500D01*
X4926786Y-1322786D01*
X4941071Y-1337072D01*
X4955357Y-1365643D01*
X4955357Y-1437071D01*
X4941071Y-1465643D01*
X4926786Y-1479929D01*
X4898214Y-1494214D01*
X4826786Y-1494214D01*
X4798214Y-1479929D01*
X4783928Y-1465643D01*
X5069643Y-1222786D02*
X5083928Y-1208500D01*
X5112500Y-1194214D01*
X5183928Y-1194214D01*
X5212500Y-1208500D01*
X5226786Y-1222786D01*
X5241071Y-1251357D01*
X5241071Y-1279929D01*
X5226786Y-1322786D01*
X5055357Y-1494214D01*
X5241071Y-1494214D01*
X5598214Y-1494214D02*
X5598214Y-1194214D01*
X5726786Y-1494214D02*
X5726786Y-1337072D01*
X5712500Y-1308500D01*
X5683928Y-1294214D01*
X5641071Y-1294214D01*
X5612500Y-1308500D01*
X5598214Y-1322786D01*
X5912500Y-1494214D02*
X5883928Y-1479929D01*
X5869643Y-1465643D01*
X5855357Y-1437071D01*
X5855357Y-1351357D01*
X5869643Y-1322786D01*
X5883928Y-1308500D01*
X5912500Y-1294214D01*
X5955357Y-1294214D01*
X5983928Y-1308500D01*
X5998214Y-1322786D01*
X6012500Y-1351357D01*
X6012500Y-1437071D01*
X5998214Y-1465643D01*
X5983928Y-1479929D01*
X5955357Y-1494214D01*
X5912500Y-1494214D01*
X6183928Y-1494214D02*
X6155357Y-1479929D01*
X6141071Y-1451357D01*
X6141071Y-1194214D01*
X6412500Y-1479929D02*
X6383928Y-1494214D01*
X6326786Y-1494214D01*
X6298214Y-1479929D01*
X6283928Y-1451357D01*
X6283928Y-1337072D01*
X6298214Y-1308500D01*
X6326786Y-1294214D01*
X6383928Y-1294214D01*
X6412500Y-1308500D01*
X6426786Y-1337072D01*
X6426786Y-1365643D01*
X6283928Y-1394214D01*
X6541071Y-1479929D02*
X6569643Y-1494214D01*
X6626786Y-1494214D01*
X6655357Y-1479929D01*
X6669643Y-1451357D01*
X6669643Y-1437071D01*
X6655357Y-1408500D01*
X6626786Y-1394214D01*
X6583928Y-1394214D01*
X6555357Y-1379929D01*
X6541071Y-1351357D01*
X6541071Y-1337072D01*
X6555357Y-1308500D01*
X6583928Y-1294214D01*
X6626786Y-1294214D01*
X6655357Y-1308500D01*
X6769643Y-1608500D02*
X6783928Y-1594214D01*
X6812500Y-1551357D01*
X6826786Y-1522786D01*
X6841071Y-1479929D01*
X6855357Y-1408500D01*
X6855357Y-1351357D01*
X6841071Y-1279929D01*
X6826786Y-1237072D01*
X6812500Y-1208500D01*
X6783928Y-1165643D01*
X6769643Y-1151357D01*
X-22500Y-1734500D02*
X-22500Y-1774500D01*
X-42500Y-1754500D02*
X-2500Y-1754500D01*
X341071Y-1590214D02*
X369643Y-1590214D01*
X398214Y-1604500D01*
X412500Y-1618786D01*
X426786Y-1647357D01*
X441071Y-1704500D01*
X441071Y-1775929D01*
X426786Y-1833071D01*
X412500Y-1861643D01*
X398214Y-1875929D01*
X369643Y-1890214D01*
X341071Y-1890214D01*
X312500Y-1875929D01*
X298214Y-1861643D01*
X283928Y-1833071D01*
X269643Y-1775929D01*
X269643Y-1704500D01*
X283928Y-1647357D01*
X298214Y-1618786D01*
X312500Y-1604500D01*
X341071Y-1590214D01*
X569643Y-1861643D02*
X583928Y-1875929D01*
X569643Y-1890214D01*
X555357Y-1875929D01*
X569643Y-1861643D01*
X569643Y-1890214D01*
X841071Y-1690214D02*
X841071Y-1890214D01*
X769643Y-1575929D02*
X698214Y-1790214D01*
X883928Y-1790214D01*
X1055357Y-1590214D02*
X1083928Y-1590214D01*
X1112500Y-1604500D01*
X1126786Y-1618786D01*
X1141071Y-1647357D01*
X1155357Y-1704500D01*
X1155357Y-1775929D01*
X1141071Y-1833071D01*
X1126786Y-1861643D01*
X1112500Y-1875929D01*
X1083928Y-1890214D01*
X1055357Y-1890214D01*
X1026786Y-1875929D01*
X1012500Y-1861643D01*
X998214Y-1833071D01*
X983928Y-1775929D01*
X983928Y-1704500D01*
X998214Y-1647357D01*
X1012500Y-1618786D01*
X1026786Y-1604500D01*
X1055357Y-1590214D01*
X1283928Y-1890214D02*
X1283928Y-1690214D01*
X1283928Y-1718786D02*
X1298214Y-1704500D01*
X1326786Y-1690214D01*
X1369643Y-1690214D01*
X1398214Y-1704500D01*
X1412500Y-1733071D01*
X1412500Y-1890214D01*
X1412500Y-1733071D02*
X1426786Y-1704500D01*
X1455357Y-1690214D01*
X1498214Y-1690214D01*
X1526786Y-1704500D01*
X1541071Y-1733071D01*
X1541071Y-1890214D01*
X1683928Y-1890214D02*
X1683928Y-1690214D01*
X1683928Y-1718786D02*
X1698214Y-1704500D01*
X1726786Y-1690214D01*
X1769643Y-1690214D01*
X1798214Y-1704500D01*
X1812500Y-1733071D01*
X1812500Y-1890214D01*
X1812500Y-1733071D02*
X1826786Y-1704500D01*
X1855357Y-1690214D01*
X1898214Y-1690214D01*
X1926786Y-1704500D01*
X1941071Y-1733071D01*
X1941071Y-1890214D01*
X2526786Y-1575929D02*
X2269643Y-1961643D01*
X2912500Y-1590214D02*
X2941071Y-1590214D01*
X2969643Y-1604500D01*
X2983928Y-1618786D01*
X2998214Y-1647357D01*
X3012500Y-1704500D01*
X3012500Y-1775929D01*
X2998214Y-1833071D01*
X2983928Y-1861643D01*
X2969643Y-1875929D01*
X2941071Y-1890214D01*
X2912500Y-1890214D01*
X2883928Y-1875929D01*
X2869643Y-1861643D01*
X2855357Y-1833071D01*
X2841071Y-1775929D01*
X2841071Y-1704500D01*
X2855357Y-1647357D01*
X2869643Y-1618786D01*
X2883928Y-1604500D01*
X2912500Y-1590214D01*
X3141071Y-1861643D02*
X3155357Y-1875929D01*
X3141071Y-1890214D01*
X3126786Y-1875929D01*
X3141071Y-1861643D01*
X3141071Y-1890214D01*
X3341071Y-1590214D02*
X3369643Y-1590214D01*
X3398214Y-1604500D01*
X3412500Y-1618786D01*
X3426786Y-1647357D01*
X3441071Y-1704500D01*
X3441071Y-1775929D01*
X3426786Y-1833071D01*
X3412500Y-1861643D01*
X3398214Y-1875929D01*
X3369643Y-1890214D01*
X3341071Y-1890214D01*
X3312500Y-1875929D01*
X3298214Y-1861643D01*
X3283928Y-1833071D01*
X3269643Y-1775929D01*
X3269643Y-1704500D01*
X3283928Y-1647357D01*
X3298214Y-1618786D01*
X3312500Y-1604500D01*
X3341071Y-1590214D01*
X3726786Y-1890214D02*
X3555357Y-1890214D01*
X3641071Y-1890214D02*
X3641071Y-1590214D01*
X3612500Y-1633071D01*
X3583928Y-1661643D01*
X3555357Y-1675929D01*
X3983928Y-1590214D02*
X3926786Y-1590214D01*
X3898214Y-1604500D01*
X3883928Y-1618786D01*
X3855357Y-1661643D01*
X3841071Y-1718786D01*
X3841071Y-1833071D01*
X3855357Y-1861643D01*
X3869643Y-1875929D01*
X3898214Y-1890214D01*
X3955357Y-1890214D01*
X3983928Y-1875929D01*
X3998214Y-1861643D01*
X4012500Y-1833071D01*
X4012500Y-1761643D01*
X3998214Y-1733071D01*
X3983928Y-1718786D01*
X3955357Y-1704500D01*
X3898214Y-1704500D01*
X3869643Y-1718786D01*
X3855357Y-1733071D01*
X3841071Y-1761643D01*
X4126786Y-1590214D02*
X4126786Y-1647357D01*
X4241071Y-1590214D02*
X4241071Y-1647357D01*
X4683928Y-2004500D02*
X4669643Y-1990214D01*
X4641071Y-1947357D01*
X4626786Y-1918786D01*
X4612500Y-1875929D01*
X4598214Y-1804500D01*
X4598214Y-1747357D01*
X4612500Y-1675929D01*
X4626786Y-1633071D01*
X4641071Y-1604500D01*
X4669643Y-1561643D01*
X4683928Y-1547357D01*
X4926786Y-1590214D02*
X4869643Y-1590214D01*
X4841071Y-1604500D01*
X4826786Y-1618786D01*
X4798214Y-1661643D01*
X4783928Y-1718786D01*
X4783928Y-1833071D01*
X4798214Y-1861643D01*
X4812500Y-1875929D01*
X4841071Y-1890214D01*
X4898214Y-1890214D01*
X4926786Y-1875929D01*
X4941071Y-1861643D01*
X4955357Y-1833071D01*
X4955357Y-1761643D01*
X4941071Y-1733071D01*
X4926786Y-1718786D01*
X4898214Y-1704500D01*
X4841071Y-1704500D01*
X4812500Y-1718786D01*
X4798214Y-1733071D01*
X4783928Y-1761643D01*
X5312500Y-1890214D02*
X5312500Y-1590214D01*
X5441071Y-1890214D02*
X5441071Y-1733071D01*
X5426786Y-1704500D01*
X5398214Y-1690214D01*
X5355357Y-1690214D01*
X5326786Y-1704500D01*
X5312500Y-1718786D01*
X5626786Y-1890214D02*
X5598214Y-1875929D01*
X5583928Y-1861643D01*
X5569643Y-1833071D01*
X5569643Y-1747357D01*
X5583928Y-1718786D01*
X5598214Y-1704500D01*
X5626786Y-1690214D01*
X5669643Y-1690214D01*
X5698214Y-1704500D01*
X5712500Y-1718786D01*
X5726786Y-1747357D01*
X5726786Y-1833071D01*
X5712500Y-1861643D01*
X5698214Y-1875929D01*
X5669643Y-1890214D01*
X5626786Y-1890214D01*
X5898214Y-1890214D02*
X5869643Y-1875929D01*
X5855357Y-1847357D01*
X5855357Y-1590214D01*
X6126786Y-1875929D02*
X6098214Y-1890214D01*
X6041071Y-1890214D01*
X6012500Y-1875929D01*
X5998214Y-1847357D01*
X5998214Y-1733071D01*
X6012500Y-1704500D01*
X6041071Y-1690214D01*
X6098214Y-1690214D01*
X6126786Y-1704500D01*
X6141071Y-1733071D01*
X6141071Y-1761643D01*
X5998214Y-1790214D01*
X6255357Y-1875929D02*
X6283928Y-1890214D01*
X6341071Y-1890214D01*
X6369643Y-1875929D01*
X6383928Y-1847357D01*
X6383928Y-1833071D01*
X6369643Y-1804500D01*
X6341071Y-1790214D01*
X6298214Y-1790214D01*
X6269643Y-1775929D01*
X6255357Y-1747357D01*
X6255357Y-1733071D01*
X6269643Y-1704500D01*
X6298214Y-1690214D01*
X6341071Y-1690214D01*
X6369643Y-1704500D01*
X6483928Y-2004500D02*
X6498214Y-1990214D01*
X6526786Y-1947357D01*
X6541071Y-1918786D01*
X6555357Y-1875929D01*
X6569643Y-1804500D01*
X6569643Y-1747357D01*
X6555357Y-1675929D01*
X6541071Y-1633071D01*
X6526786Y-1604500D01*
X6498214Y-1561643D01*
X6483928Y-1547357D01*
X-14216Y-2178785D02*
X-14216Y-2122216D01*
X-70785Y-2122216D01*
X-70785Y-2178785D01*
X-14216Y-2178785D01*
X341071Y-1986214D02*
X369643Y-1986214D01*
X398214Y-2000500D01*
X412500Y-2014786D01*
X426786Y-2043357D01*
X441071Y-2100500D01*
X441071Y-2171929D01*
X426786Y-2229072D01*
X412500Y-2257643D01*
X398214Y-2271929D01*
X369643Y-2286214D01*
X341071Y-2286214D01*
X312500Y-2271929D01*
X298214Y-2257643D01*
X283928Y-2229072D01*
X269643Y-2171929D01*
X269643Y-2100500D01*
X283928Y-2043357D01*
X298214Y-2014786D01*
X312500Y-2000500D01*
X341071Y-1986214D01*
X569643Y-2257643D02*
X583928Y-2271929D01*
X569643Y-2286214D01*
X555357Y-2271929D01*
X569643Y-2257643D01*
X569643Y-2286214D01*
X755357Y-2114786D02*
X726786Y-2100500D01*
X712500Y-2086214D01*
X698214Y-2057643D01*
X698214Y-2043357D01*
X712500Y-2014786D01*
X726786Y-2000500D01*
X755357Y-1986214D01*
X812500Y-1986214D01*
X841071Y-2000500D01*
X855357Y-2014786D01*
X869643Y-2043357D01*
X869643Y-2057643D01*
X855357Y-2086214D01*
X841071Y-2100500D01*
X812500Y-2114786D01*
X755357Y-2114786D01*
X726786Y-2129072D01*
X712500Y-2143357D01*
X698214Y-2171929D01*
X698214Y-2229072D01*
X712500Y-2257643D01*
X726786Y-2271929D01*
X755357Y-2286214D01*
X812500Y-2286214D01*
X841071Y-2271929D01*
X855357Y-2257643D01*
X869643Y-2229072D01*
X869643Y-2171929D01*
X855357Y-2143357D01*
X841071Y-2129072D01*
X812500Y-2114786D01*
X1055357Y-1986214D02*
X1083928Y-1986214D01*
X1112500Y-2000500D01*
X1126786Y-2014786D01*
X1141071Y-2043357D01*
X1155357Y-2100500D01*
X1155357Y-2171929D01*
X1141071Y-2229072D01*
X1126786Y-2257643D01*
X1112500Y-2271929D01*
X1083928Y-2286214D01*
X1055357Y-2286214D01*
X1026786Y-2271929D01*
X1012500Y-2257643D01*
X998214Y-2229072D01*
X983928Y-2171929D01*
X983928Y-2100500D01*
X998214Y-2043357D01*
X1012500Y-2014786D01*
X1026786Y-2000500D01*
X1055357Y-1986214D01*
X1283928Y-2286214D02*
X1283928Y-2086214D01*
X1283928Y-2114786D02*
X1298214Y-2100500D01*
X1326786Y-2086214D01*
X1369643Y-2086214D01*
X1398214Y-2100500D01*
X1412500Y-2129072D01*
X1412500Y-2286214D01*
X1412500Y-2129072D02*
X1426786Y-2100500D01*
X1455357Y-2086214D01*
X1498214Y-2086214D01*
X1526786Y-2100500D01*
X1541071Y-2129072D01*
X1541071Y-2286214D01*
X1683928Y-2286214D02*
X1683928Y-2086214D01*
X1683928Y-2114786D02*
X1698214Y-2100500D01*
X1726786Y-2086214D01*
X1769643Y-2086214D01*
X1798214Y-2100500D01*
X1812500Y-2129072D01*
X1812500Y-2286214D01*
X1812500Y-2129072D02*
X1826786Y-2100500D01*
X1855357Y-2086214D01*
X1898214Y-2086214D01*
X1926786Y-2100500D01*
X1941071Y-2129072D01*
X1941071Y-2286214D01*
X2526786Y-1971929D02*
X2269643Y-2357643D01*
X2912500Y-1986214D02*
X2941071Y-1986214D01*
X2969643Y-2000500D01*
X2983928Y-2014786D01*
X2998214Y-2043357D01*
X3012500Y-2100500D01*
X3012500Y-2171929D01*
X2998214Y-2229072D01*
X2983928Y-2257643D01*
X2969643Y-2271929D01*
X2941071Y-2286214D01*
X2912500Y-2286214D01*
X2883928Y-2271929D01*
X2869643Y-2257643D01*
X2855357Y-2229072D01*
X2841071Y-2171929D01*
X2841071Y-2100500D01*
X2855357Y-2043357D01*
X2869643Y-2014786D01*
X2883928Y-2000500D01*
X2912500Y-1986214D01*
X3141071Y-2257643D02*
X3155357Y-2271929D01*
X3141071Y-2286214D01*
X3126786Y-2271929D01*
X3141071Y-2257643D01*
X3141071Y-2286214D01*
X3341071Y-1986214D02*
X3369643Y-1986214D01*
X3398214Y-2000500D01*
X3412500Y-2014786D01*
X3426786Y-2043357D01*
X3441071Y-2100500D01*
X3441071Y-2171929D01*
X3426786Y-2229072D01*
X3412500Y-2257643D01*
X3398214Y-2271929D01*
X3369643Y-2286214D01*
X3341071Y-2286214D01*
X3312500Y-2271929D01*
X3298214Y-2257643D01*
X3283928Y-2229072D01*
X3269643Y-2171929D01*
X3269643Y-2100500D01*
X3283928Y-2043357D01*
X3298214Y-2014786D01*
X3312500Y-2000500D01*
X3341071Y-1986214D01*
X3541071Y-1986214D02*
X3726786Y-1986214D01*
X3626786Y-2100500D01*
X3669643Y-2100500D01*
X3698214Y-2114786D01*
X3712500Y-2129072D01*
X3726786Y-2157643D01*
X3726786Y-2229072D01*
X3712500Y-2257643D01*
X3698214Y-2271929D01*
X3669643Y-2286214D01*
X3583928Y-2286214D01*
X3555357Y-2271929D01*
X3541071Y-2257643D01*
X4012500Y-2286214D02*
X3841071Y-2286214D01*
X3926786Y-2286214D02*
X3926786Y-1986214D01*
X3898214Y-2029071D01*
X3869643Y-2057643D01*
X3841071Y-2071929D01*
X4126786Y-1986214D02*
X4126786Y-2043357D01*
X4241071Y-1986214D02*
X4241071Y-2043357D01*
X4683928Y-2400500D02*
X4669643Y-2386214D01*
X4641071Y-2343357D01*
X4626786Y-2314786D01*
X4612500Y-2271929D01*
X4598214Y-2200500D01*
X4598214Y-2143357D01*
X4612500Y-2071929D01*
X4626786Y-2029071D01*
X4641071Y-2000500D01*
X4669643Y-1957643D01*
X4683928Y-1943357D01*
X4855357Y-1986214D02*
X4883928Y-1986214D01*
X4912500Y-2000500D01*
X4926786Y-2014786D01*
X4941071Y-2043357D01*
X4955357Y-2100500D01*
X4955357Y-2171929D01*
X4941071Y-2229072D01*
X4926786Y-2257643D01*
X4912500Y-2271929D01*
X4883928Y-2286214D01*
X4855357Y-2286214D01*
X4826786Y-2271929D01*
X4812500Y-2257643D01*
X4798214Y-2229072D01*
X4783928Y-2171929D01*
X4783928Y-2100500D01*
X4798214Y-2043357D01*
X4812500Y-2014786D01*
X4826786Y-2000500D01*
X4855357Y-1986214D01*
X5312500Y-2286214D02*
X5312500Y-1986214D01*
X5441071Y-2286214D02*
X5441071Y-2129072D01*
X5426786Y-2100500D01*
X5398214Y-2086214D01*
X5355357Y-2086214D01*
X5326786Y-2100500D01*
X5312500Y-2114786D01*
X5626786Y-2286214D02*
X5598214Y-2271929D01*
X5583928Y-2257643D01*
X5569643Y-2229072D01*
X5569643Y-2143357D01*
X5583928Y-2114786D01*
X5598214Y-2100500D01*
X5626786Y-2086214D01*
X5669643Y-2086214D01*
X5698214Y-2100500D01*
X5712500Y-2114786D01*
X5726786Y-2143357D01*
X5726786Y-2229072D01*
X5712500Y-2257643D01*
X5698214Y-2271929D01*
X5669643Y-2286214D01*
X5626786Y-2286214D01*
X5898214Y-2286214D02*
X5869643Y-2271929D01*
X5855357Y-2243357D01*
X5855357Y-1986214D01*
X6126786Y-2271929D02*
X6098214Y-2286214D01*
X6041071Y-2286214D01*
X6012500Y-2271929D01*
X5998214Y-2243357D01*
X5998214Y-2129072D01*
X6012500Y-2100500D01*
X6041071Y-2086214D01*
X6098214Y-2086214D01*
X6126786Y-2100500D01*
X6141071Y-2129072D01*
X6141071Y-2157643D01*
X5998214Y-2186214D01*
X6255357Y-2271929D02*
X6283928Y-2286214D01*
X6341071Y-2286214D01*
X6369643Y-2271929D01*
X6383928Y-2243357D01*
X6383928Y-2229072D01*
X6369643Y-2200500D01*
X6341071Y-2186214D01*
X6298214Y-2186214D01*
X6269643Y-2171929D01*
X6255357Y-2143357D01*
X6255357Y-2129072D01*
X6269643Y-2100500D01*
X6298214Y-2086214D01*
X6341071Y-2086214D01*
X6369643Y-2100500D01*
X6741071Y-2171929D02*
X6969643Y-2171929D01*
X6855357Y-2286214D02*
X6855357Y-2057643D01*
X7469643Y-2086214D02*
X7469643Y-2286214D01*
X7398214Y-1971929D02*
X7326786Y-2186214D01*
X7512500Y-2186214D01*
X7841071Y-2271929D02*
X7869643Y-2286214D01*
X7926786Y-2286214D01*
X7955357Y-2271929D01*
X7969643Y-2243357D01*
X7969643Y-2229072D01*
X7955357Y-2200500D01*
X7926786Y-2186214D01*
X7883928Y-2186214D01*
X7855357Y-2171929D01*
X7841071Y-2143357D01*
X7841071Y-2129072D01*
X7855357Y-2100500D01*
X7883928Y-2086214D01*
X7926786Y-2086214D01*
X7955357Y-2100500D01*
X8141071Y-2286214D02*
X8112500Y-2271929D01*
X8098214Y-2243357D01*
X8098214Y-1986214D01*
X8298214Y-2286214D02*
X8269643Y-2271929D01*
X8255357Y-2257643D01*
X8241071Y-2229072D01*
X8241071Y-2143357D01*
X8255357Y-2114786D01*
X8269643Y-2100500D01*
X8298214Y-2086214D01*
X8341071Y-2086214D01*
X8369643Y-2100500D01*
X8383928Y-2114786D01*
X8398214Y-2143357D01*
X8398214Y-2229072D01*
X8383928Y-2257643D01*
X8369643Y-2271929D01*
X8341071Y-2286214D01*
X8298214Y-2286214D01*
X8483928Y-2086214D02*
X8598214Y-2086214D01*
X8526786Y-1986214D02*
X8526786Y-2243357D01*
X8541071Y-2271929D01*
X8569643Y-2286214D01*
X8598214Y-2286214D01*
X8683928Y-2271929D02*
X8712500Y-2286214D01*
X8769643Y-2286214D01*
X8798214Y-2271929D01*
X8812500Y-2243357D01*
X8812500Y-2229072D01*
X8798214Y-2200500D01*
X8769643Y-2186214D01*
X8726786Y-2186214D01*
X8698214Y-2171929D01*
X8683928Y-2143357D01*
X8683928Y-2129072D01*
X8698214Y-2100500D01*
X8726786Y-2086214D01*
X8769643Y-2086214D01*
X8798214Y-2100500D01*
X8912500Y-2400500D02*
X8926786Y-2386214D01*
X8955357Y-2343357D01*
X8969643Y-2314786D01*
X8983928Y-2271929D01*
X8998214Y-2200500D01*
X8998214Y-2143357D01*
X8983928Y-2071929D01*
X8969643Y-2029071D01*
X8955357Y-2000500D01*
X8926786Y-1957643D01*
X8912500Y-1943357D01*
X-52500Y-2596500D02*
X-2500Y-2546500D01*
X-52500Y-2496500D01*
X-102500Y-2546500D01*
X-52500Y-2596500D01*
X441071Y-2682214D02*
X269643Y-2682214D01*
X355357Y-2682214D02*
X355357Y-2382214D01*
X326786Y-2425072D01*
X298214Y-2453643D01*
X269643Y-2467929D01*
X569643Y-2653643D02*
X583928Y-2667929D01*
X569643Y-2682214D01*
X555357Y-2667929D01*
X569643Y-2653643D01*
X569643Y-2682214D01*
X769643Y-2382214D02*
X798214Y-2382214D01*
X826786Y-2396500D01*
X841071Y-2410786D01*
X855357Y-2439357D01*
X869643Y-2496500D01*
X869643Y-2567929D01*
X855357Y-2625072D01*
X841071Y-2653643D01*
X826786Y-2667929D01*
X798214Y-2682214D01*
X769643Y-2682214D01*
X741071Y-2667929D01*
X726786Y-2653643D01*
X712500Y-2625072D01*
X698214Y-2567929D01*
X698214Y-2496500D01*
X712500Y-2439357D01*
X726786Y-2410786D01*
X741071Y-2396500D01*
X769643Y-2382214D01*
X1055357Y-2382214D02*
X1083928Y-2382214D01*
X1112500Y-2396500D01*
X1126786Y-2410786D01*
X1141071Y-2439357D01*
X1155357Y-2496500D01*
X1155357Y-2567929D01*
X1141071Y-2625072D01*
X1126786Y-2653643D01*
X1112500Y-2667929D01*
X1083928Y-2682214D01*
X1055357Y-2682214D01*
X1026786Y-2667929D01*
X1012500Y-2653643D01*
X998214Y-2625072D01*
X983928Y-2567929D01*
X983928Y-2496500D01*
X998214Y-2439357D01*
X1012500Y-2410786D01*
X1026786Y-2396500D01*
X1055357Y-2382214D01*
X1283928Y-2682214D02*
X1283928Y-2482214D01*
X1283928Y-2510786D02*
X1298214Y-2496500D01*
X1326786Y-2482214D01*
X1369643Y-2482214D01*
X1398214Y-2496500D01*
X1412500Y-2525072D01*
X1412500Y-2682214D01*
X1412500Y-2525072D02*
X1426786Y-2496500D01*
X1455357Y-2482214D01*
X1498214Y-2482214D01*
X1526786Y-2496500D01*
X1541071Y-2525072D01*
X1541071Y-2682214D01*
X1683928Y-2682214D02*
X1683928Y-2482214D01*
X1683928Y-2510786D02*
X1698214Y-2496500D01*
X1726786Y-2482214D01*
X1769643Y-2482214D01*
X1798214Y-2496500D01*
X1812500Y-2525072D01*
X1812500Y-2682214D01*
X1812500Y-2525072D02*
X1826786Y-2496500D01*
X1855357Y-2482214D01*
X1898214Y-2482214D01*
X1926786Y-2496500D01*
X1941071Y-2525072D01*
X1941071Y-2682214D01*
X2526786Y-2367929D02*
X2269643Y-2753643D01*
X2912500Y-2382214D02*
X2941071Y-2382214D01*
X2969643Y-2396500D01*
X2983928Y-2410786D01*
X2998214Y-2439357D01*
X3012500Y-2496500D01*
X3012500Y-2567929D01*
X2998214Y-2625072D01*
X2983928Y-2653643D01*
X2969643Y-2667929D01*
X2941071Y-2682214D01*
X2912500Y-2682214D01*
X2883928Y-2667929D01*
X2869643Y-2653643D01*
X2855357Y-2625072D01*
X2841071Y-2567929D01*
X2841071Y-2496500D01*
X2855357Y-2439357D01*
X2869643Y-2410786D01*
X2883928Y-2396500D01*
X2912500Y-2382214D01*
X3141071Y-2653643D02*
X3155357Y-2667929D01*
X3141071Y-2682214D01*
X3126786Y-2667929D01*
X3141071Y-2653643D01*
X3141071Y-2682214D01*
X3341071Y-2382214D02*
X3369643Y-2382214D01*
X3398214Y-2396500D01*
X3412500Y-2410786D01*
X3426786Y-2439357D01*
X3441071Y-2496500D01*
X3441071Y-2567929D01*
X3426786Y-2625072D01*
X3412500Y-2653643D01*
X3398214Y-2667929D01*
X3369643Y-2682214D01*
X3341071Y-2682214D01*
X3312500Y-2667929D01*
X3298214Y-2653643D01*
X3283928Y-2625072D01*
X3269643Y-2567929D01*
X3269643Y-2496500D01*
X3283928Y-2439357D01*
X3298214Y-2410786D01*
X3312500Y-2396500D01*
X3341071Y-2382214D01*
X3541071Y-2382214D02*
X3726786Y-2382214D01*
X3626786Y-2496500D01*
X3669643Y-2496500D01*
X3698214Y-2510786D01*
X3712500Y-2525072D01*
X3726786Y-2553643D01*
X3726786Y-2625072D01*
X3712500Y-2653643D01*
X3698214Y-2667929D01*
X3669643Y-2682214D01*
X3583928Y-2682214D01*
X3555357Y-2667929D01*
X3541071Y-2653643D01*
X3869643Y-2682214D02*
X3926786Y-2682214D01*
X3955357Y-2667929D01*
X3969643Y-2653643D01*
X3998214Y-2610786D01*
X4012500Y-2553643D01*
X4012500Y-2439357D01*
X3998214Y-2410786D01*
X3983928Y-2396500D01*
X3955357Y-2382214D01*
X3898214Y-2382214D01*
X3869643Y-2396500D01*
X3855357Y-2410786D01*
X3841071Y-2439357D01*
X3841071Y-2510786D01*
X3855357Y-2539357D01*
X3869643Y-2553643D01*
X3898214Y-2567929D01*
X3955357Y-2567929D01*
X3983928Y-2553643D01*
X3998214Y-2539357D01*
X4012500Y-2510786D01*
X4126786Y-2382214D02*
X4126786Y-2439357D01*
X4241071Y-2382214D02*
X4241071Y-2439357D01*
X4683928Y-2796500D02*
X4669643Y-2782214D01*
X4641071Y-2739357D01*
X4626786Y-2710786D01*
X4612500Y-2667929D01*
X4598214Y-2596500D01*
X4598214Y-2539357D01*
X4612500Y-2467929D01*
X4626786Y-2425072D01*
X4641071Y-2396500D01*
X4669643Y-2353643D01*
X4683928Y-2339357D01*
X4783928Y-2410786D02*
X4798214Y-2396500D01*
X4826786Y-2382214D01*
X4898214Y-2382214D01*
X4926786Y-2396500D01*
X4941071Y-2410786D01*
X4955357Y-2439357D01*
X4955357Y-2467929D01*
X4941071Y-2510786D01*
X4769643Y-2682214D01*
X4955357Y-2682214D01*
X5312500Y-2682214D02*
X5312500Y-2382214D01*
X5441071Y-2682214D02*
X5441071Y-2525072D01*
X5426786Y-2496500D01*
X5398214Y-2482214D01*
X5355357Y-2482214D01*
X5326786Y-2496500D01*
X5312500Y-2510786D01*
X5626786Y-2682214D02*
X5598214Y-2667929D01*
X5583928Y-2653643D01*
X5569643Y-2625072D01*
X5569643Y-2539357D01*
X5583928Y-2510786D01*
X5598214Y-2496500D01*
X5626786Y-2482214D01*
X5669643Y-2482214D01*
X5698214Y-2496500D01*
X5712500Y-2510786D01*
X5726786Y-2539357D01*
X5726786Y-2625072D01*
X5712500Y-2653643D01*
X5698214Y-2667929D01*
X5669643Y-2682214D01*
X5626786Y-2682214D01*
X5898214Y-2682214D02*
X5869643Y-2667929D01*
X5855357Y-2639357D01*
X5855357Y-2382214D01*
X6126786Y-2667929D02*
X6098214Y-2682214D01*
X6041071Y-2682214D01*
X6012500Y-2667929D01*
X5998214Y-2639357D01*
X5998214Y-2525072D01*
X6012500Y-2496500D01*
X6041071Y-2482214D01*
X6098214Y-2482214D01*
X6126786Y-2496500D01*
X6141071Y-2525072D01*
X6141071Y-2553643D01*
X5998214Y-2582214D01*
X6255357Y-2667929D02*
X6283928Y-2682214D01*
X6341071Y-2682214D01*
X6369643Y-2667929D01*
X6383928Y-2639357D01*
X6383928Y-2625072D01*
X6369643Y-2596500D01*
X6341071Y-2582214D01*
X6298214Y-2582214D01*
X6269643Y-2567929D01*
X6255357Y-2539357D01*
X6255357Y-2525072D01*
X6269643Y-2496500D01*
X6298214Y-2482214D01*
X6341071Y-2482214D01*
X6369643Y-2496500D01*
X6483928Y-2796500D02*
X6498214Y-2782214D01*
X6526786Y-2739357D01*
X6541071Y-2710786D01*
X6555357Y-2667929D01*
X6569643Y-2596500D01*
X6569643Y-2539357D01*
X6555357Y-2467929D01*
X6541071Y-2425072D01*
X6526786Y-2396500D01*
X6498214Y-2353643D01*
X6483928Y-2339357D01*
X-112500Y-2887500D02*
X-2500Y-2997500D01*
X-2500Y-2887500D02*
X-112500Y-2997500D01*
X-2500Y-2942500D02*
G75*
G03*
X-2500Y-2942500I-55000J0D01*
G01*
X441071Y-3078214D02*
X269643Y-3078214D01*
X355357Y-3078214D02*
X355357Y-2778214D01*
X326786Y-2821071D01*
X298214Y-2849643D01*
X269643Y-2863929D01*
X569643Y-3049643D02*
X583928Y-3063929D01*
X569643Y-3078214D01*
X555357Y-3063929D01*
X569643Y-3049643D01*
X569643Y-3078214D01*
X869643Y-3078214D02*
X698214Y-3078214D01*
X783928Y-3078214D02*
X783928Y-2778214D01*
X755357Y-2821071D01*
X726786Y-2849643D01*
X698214Y-2863929D01*
X1055357Y-2778214D02*
X1083928Y-2778214D01*
X1112500Y-2792500D01*
X1126786Y-2806786D01*
X1141071Y-2835357D01*
X1155357Y-2892500D01*
X1155357Y-2963929D01*
X1141071Y-3021071D01*
X1126786Y-3049643D01*
X1112500Y-3063929D01*
X1083928Y-3078214D01*
X1055357Y-3078214D01*
X1026786Y-3063929D01*
X1012500Y-3049643D01*
X998214Y-3021071D01*
X983928Y-2963929D01*
X983928Y-2892500D01*
X998214Y-2835357D01*
X1012500Y-2806786D01*
X1026786Y-2792500D01*
X1055357Y-2778214D01*
X1283928Y-3078214D02*
X1283928Y-2878214D01*
X1283928Y-2906786D02*
X1298214Y-2892500D01*
X1326786Y-2878214D01*
X1369643Y-2878214D01*
X1398214Y-2892500D01*
X1412500Y-2921071D01*
X1412500Y-3078214D01*
X1412500Y-2921071D02*
X1426786Y-2892500D01*
X1455357Y-2878214D01*
X1498214Y-2878214D01*
X1526786Y-2892500D01*
X1541071Y-2921071D01*
X1541071Y-3078214D01*
X1683928Y-3078214D02*
X1683928Y-2878214D01*
X1683928Y-2906786D02*
X1698214Y-2892500D01*
X1726786Y-2878214D01*
X1769643Y-2878214D01*
X1798214Y-2892500D01*
X1812500Y-2921071D01*
X1812500Y-3078214D01*
X1812500Y-2921071D02*
X1826786Y-2892500D01*
X1855357Y-2878214D01*
X1898214Y-2878214D01*
X1926786Y-2892500D01*
X1941071Y-2921071D01*
X1941071Y-3078214D01*
X2526786Y-2763929D02*
X2269643Y-3149643D01*
X2912500Y-2778214D02*
X2941071Y-2778214D01*
X2969643Y-2792500D01*
X2983928Y-2806786D01*
X2998214Y-2835357D01*
X3012500Y-2892500D01*
X3012500Y-2963929D01*
X2998214Y-3021071D01*
X2983928Y-3049643D01*
X2969643Y-3063929D01*
X2941071Y-3078214D01*
X2912500Y-3078214D01*
X2883928Y-3063929D01*
X2869643Y-3049643D01*
X2855357Y-3021071D01*
X2841071Y-2963929D01*
X2841071Y-2892500D01*
X2855357Y-2835357D01*
X2869643Y-2806786D01*
X2883928Y-2792500D01*
X2912500Y-2778214D01*
X3141071Y-3049643D02*
X3155357Y-3063929D01*
X3141071Y-3078214D01*
X3126786Y-3063929D01*
X3141071Y-3049643D01*
X3141071Y-3078214D01*
X3341071Y-2778214D02*
X3369643Y-2778214D01*
X3398214Y-2792500D01*
X3412500Y-2806786D01*
X3426786Y-2835357D01*
X3441071Y-2892500D01*
X3441071Y-2963929D01*
X3426786Y-3021071D01*
X3412500Y-3049643D01*
X3398214Y-3063929D01*
X3369643Y-3078214D01*
X3341071Y-3078214D01*
X3312500Y-3063929D01*
X3298214Y-3049643D01*
X3283928Y-3021071D01*
X3269643Y-2963929D01*
X3269643Y-2892500D01*
X3283928Y-2835357D01*
X3298214Y-2806786D01*
X3312500Y-2792500D01*
X3341071Y-2778214D01*
X3698214Y-2878214D02*
X3698214Y-3078214D01*
X3626786Y-2763929D02*
X3555357Y-2978214D01*
X3741071Y-2978214D01*
X3826786Y-2778214D02*
X4012500Y-2778214D01*
X3912500Y-2892500D01*
X3955357Y-2892500D01*
X3983928Y-2906786D01*
X3998214Y-2921071D01*
X4012500Y-2949643D01*
X4012500Y-3021071D01*
X3998214Y-3049643D01*
X3983928Y-3063929D01*
X3955357Y-3078214D01*
X3869643Y-3078214D01*
X3841071Y-3063929D01*
X3826786Y-3049643D01*
X4126786Y-2778214D02*
X4126786Y-2835357D01*
X4241071Y-2778214D02*
X4241071Y-2835357D01*
X4683928Y-3192500D02*
X4669643Y-3178214D01*
X4641071Y-3135357D01*
X4626786Y-3106786D01*
X4612500Y-3063929D01*
X4598214Y-2992500D01*
X4598214Y-2935357D01*
X4612500Y-2863929D01*
X4626786Y-2821071D01*
X4641071Y-2792500D01*
X4669643Y-2749643D01*
X4683928Y-2735357D01*
X4941071Y-2778214D02*
X4798214Y-2778214D01*
X4783928Y-2921071D01*
X4798214Y-2906786D01*
X4826786Y-2892500D01*
X4898214Y-2892500D01*
X4926786Y-2906786D01*
X4941071Y-2921071D01*
X4955357Y-2949643D01*
X4955357Y-3021071D01*
X4941071Y-3049643D01*
X4926786Y-3063929D01*
X4898214Y-3078214D01*
X4826786Y-3078214D01*
X4798214Y-3063929D01*
X4783928Y-3049643D01*
X5141071Y-2778214D02*
X5169643Y-2778214D01*
X5198214Y-2792500D01*
X5212500Y-2806786D01*
X5226786Y-2835357D01*
X5241071Y-2892500D01*
X5241071Y-2963929D01*
X5226786Y-3021071D01*
X5212500Y-3049643D01*
X5198214Y-3063929D01*
X5169643Y-3078214D01*
X5141071Y-3078214D01*
X5112500Y-3063929D01*
X5098214Y-3049643D01*
X5083928Y-3021071D01*
X5069643Y-2963929D01*
X5069643Y-2892500D01*
X5083928Y-2835357D01*
X5098214Y-2806786D01*
X5112500Y-2792500D01*
X5141071Y-2778214D01*
X5598214Y-3078214D02*
X5598214Y-2778214D01*
X5726786Y-3078214D02*
X5726786Y-2921071D01*
X5712500Y-2892500D01*
X5683928Y-2878214D01*
X5641071Y-2878214D01*
X5612500Y-2892500D01*
X5598214Y-2906786D01*
X5912500Y-3078214D02*
X5883928Y-3063929D01*
X5869643Y-3049643D01*
X5855357Y-3021071D01*
X5855357Y-2935357D01*
X5869643Y-2906786D01*
X5883928Y-2892500D01*
X5912500Y-2878214D01*
X5955357Y-2878214D01*
X5983928Y-2892500D01*
X5998214Y-2906786D01*
X6012500Y-2935357D01*
X6012500Y-3021071D01*
X5998214Y-3049643D01*
X5983928Y-3063929D01*
X5955357Y-3078214D01*
X5912500Y-3078214D01*
X6183928Y-3078214D02*
X6155357Y-3063929D01*
X6141071Y-3035357D01*
X6141071Y-2778214D01*
X6412500Y-3063929D02*
X6383928Y-3078214D01*
X6326786Y-3078214D01*
X6298214Y-3063929D01*
X6283928Y-3035357D01*
X6283928Y-2921071D01*
X6298214Y-2892500D01*
X6326786Y-2878214D01*
X6383928Y-2878214D01*
X6412500Y-2892500D01*
X6426786Y-2921071D01*
X6426786Y-2949643D01*
X6283928Y-2978214D01*
X6541071Y-3063929D02*
X6569643Y-3078214D01*
X6626786Y-3078214D01*
X6655357Y-3063929D01*
X6669643Y-3035357D01*
X6669643Y-3021071D01*
X6655357Y-2992500D01*
X6626786Y-2978214D01*
X6583928Y-2978214D01*
X6555357Y-2963929D01*
X6541071Y-2935357D01*
X6541071Y-2921071D01*
X6555357Y-2892500D01*
X6583928Y-2878214D01*
X6626786Y-2878214D01*
X6655357Y-2892500D01*
X6769643Y-3192500D02*
X6783928Y-3178214D01*
X6812500Y-3135357D01*
X6826786Y-3106786D01*
X6841071Y-3063929D01*
X6855357Y-2992500D01*
X6855357Y-2935357D01*
X6841071Y-2863929D01*
X6826786Y-2821071D01*
X6812500Y-2792500D01*
X6783928Y-2749643D01*
X6769643Y-2735357D01*
X-312500Y-3183500D02*
X-2500Y-3493500D01*
X-2500Y-3183500D02*
X-312500Y-3493500D01*
X-157500Y-3183500D02*
X-157500Y-3493500D01*
X-312500Y-3338500D02*
X-2500Y-3338500D01*
X255357Y-3174214D02*
X441071Y-3174214D01*
X341071Y-3288500D01*
X383928Y-3288500D01*
X412500Y-3302786D01*
X426786Y-3317071D01*
X441071Y-3345643D01*
X441071Y-3417071D01*
X426786Y-3445643D01*
X412500Y-3459929D01*
X383928Y-3474214D01*
X298214Y-3474214D01*
X269643Y-3459929D01*
X255357Y-3445643D01*
X569643Y-3445643D02*
X583928Y-3459929D01*
X569643Y-3474214D01*
X555357Y-3459929D01*
X569643Y-3445643D01*
X569643Y-3474214D01*
X869643Y-3474214D02*
X698214Y-3474214D01*
X783928Y-3474214D02*
X783928Y-3174214D01*
X755357Y-3217071D01*
X726786Y-3245643D01*
X698214Y-3259929D01*
X1055357Y-3174214D02*
X1083928Y-3174214D01*
X1112500Y-3188500D01*
X1126786Y-3202786D01*
X1141071Y-3231357D01*
X1155357Y-3288500D01*
X1155357Y-3359929D01*
X1141071Y-3417071D01*
X1126786Y-3445643D01*
X1112500Y-3459929D01*
X1083928Y-3474214D01*
X1055357Y-3474214D01*
X1026786Y-3459929D01*
X1012500Y-3445643D01*
X998214Y-3417071D01*
X983928Y-3359929D01*
X983928Y-3288500D01*
X998214Y-3231357D01*
X1012500Y-3202786D01*
X1026786Y-3188500D01*
X1055357Y-3174214D01*
X1283928Y-3474214D02*
X1283928Y-3274214D01*
X1283928Y-3302786D02*
X1298214Y-3288500D01*
X1326786Y-3274214D01*
X1369643Y-3274214D01*
X1398214Y-3288500D01*
X1412500Y-3317071D01*
X1412500Y-3474214D01*
X1412500Y-3317071D02*
X1426786Y-3288500D01*
X1455357Y-3274214D01*
X1498214Y-3274214D01*
X1526786Y-3288500D01*
X1541071Y-3317071D01*
X1541071Y-3474214D01*
X1683928Y-3474214D02*
X1683928Y-3274214D01*
X1683928Y-3302786D02*
X1698214Y-3288500D01*
X1726786Y-3274214D01*
X1769643Y-3274214D01*
X1798214Y-3288500D01*
X1812500Y-3317071D01*
X1812500Y-3474214D01*
X1812500Y-3317071D02*
X1826786Y-3288500D01*
X1855357Y-3274214D01*
X1898214Y-3274214D01*
X1926786Y-3288500D01*
X1941071Y-3317071D01*
X1941071Y-3474214D01*
X2526786Y-3159929D02*
X2269643Y-3545643D01*
X2912500Y-3174214D02*
X2941071Y-3174214D01*
X2969643Y-3188500D01*
X2983928Y-3202786D01*
X2998214Y-3231357D01*
X3012500Y-3288500D01*
X3012500Y-3359929D01*
X2998214Y-3417071D01*
X2983928Y-3445643D01*
X2969643Y-3459929D01*
X2941071Y-3474214D01*
X2912500Y-3474214D01*
X2883928Y-3459929D01*
X2869643Y-3445643D01*
X2855357Y-3417071D01*
X2841071Y-3359929D01*
X2841071Y-3288500D01*
X2855357Y-3231357D01*
X2869643Y-3202786D01*
X2883928Y-3188500D01*
X2912500Y-3174214D01*
X3141071Y-3445643D02*
X3155357Y-3459929D01*
X3141071Y-3474214D01*
X3126786Y-3459929D01*
X3141071Y-3445643D01*
X3141071Y-3474214D01*
X3441071Y-3474214D02*
X3269643Y-3474214D01*
X3355357Y-3474214D02*
X3355357Y-3174214D01*
X3326786Y-3217071D01*
X3298214Y-3245643D01*
X3269643Y-3259929D01*
X3555357Y-3202786D02*
X3569643Y-3188500D01*
X3598214Y-3174214D01*
X3669643Y-3174214D01*
X3698214Y-3188500D01*
X3712500Y-3202786D01*
X3726786Y-3231357D01*
X3726786Y-3259929D01*
X3712500Y-3302786D01*
X3541071Y-3474214D01*
X3726786Y-3474214D01*
X3841071Y-3202786D02*
X3855357Y-3188500D01*
X3883928Y-3174214D01*
X3955357Y-3174214D01*
X3983928Y-3188500D01*
X3998214Y-3202786D01*
X4012500Y-3231357D01*
X4012500Y-3259929D01*
X3998214Y-3302786D01*
X3826786Y-3474214D01*
X4012500Y-3474214D01*
X4126786Y-3174214D02*
X4126786Y-3231357D01*
X4241071Y-3174214D02*
X4241071Y-3231357D01*
X4683928Y-3588500D02*
X4669643Y-3574214D01*
X4641071Y-3531357D01*
X4626786Y-3502786D01*
X4612500Y-3459929D01*
X4598214Y-3388500D01*
X4598214Y-3331357D01*
X4612500Y-3259929D01*
X4626786Y-3217071D01*
X4641071Y-3188500D01*
X4669643Y-3145643D01*
X4683928Y-3131357D01*
X4783928Y-3202786D02*
X4798214Y-3188500D01*
X4826786Y-3174214D01*
X4898214Y-3174214D01*
X4926786Y-3188500D01*
X4941071Y-3202786D01*
X4955357Y-3231357D01*
X4955357Y-3259929D01*
X4941071Y-3302786D01*
X4769643Y-3474214D01*
X4955357Y-3474214D01*
X5312500Y-3474214D02*
X5312500Y-3174214D01*
X5441071Y-3474214D02*
X5441071Y-3317071D01*
X5426786Y-3288500D01*
X5398214Y-3274214D01*
X5355357Y-3274214D01*
X5326786Y-3288500D01*
X5312500Y-3302786D01*
X5626786Y-3474214D02*
X5598214Y-3459929D01*
X5583928Y-3445643D01*
X5569643Y-3417071D01*
X5569643Y-3331357D01*
X5583928Y-3302786D01*
X5598214Y-3288500D01*
X5626786Y-3274214D01*
X5669643Y-3274214D01*
X5698214Y-3288500D01*
X5712500Y-3302786D01*
X5726786Y-3331357D01*
X5726786Y-3417071D01*
X5712500Y-3445643D01*
X5698214Y-3459929D01*
X5669643Y-3474214D01*
X5626786Y-3474214D01*
X5898214Y-3474214D02*
X5869643Y-3459929D01*
X5855357Y-3431357D01*
X5855357Y-3174214D01*
X6126786Y-3459929D02*
X6098214Y-3474214D01*
X6041071Y-3474214D01*
X6012500Y-3459929D01*
X5998214Y-3431357D01*
X5998214Y-3317071D01*
X6012500Y-3288500D01*
X6041071Y-3274214D01*
X6098214Y-3274214D01*
X6126786Y-3288500D01*
X6141071Y-3317071D01*
X6141071Y-3345643D01*
X5998214Y-3374214D01*
X6255357Y-3459929D02*
X6283928Y-3474214D01*
X6341071Y-3474214D01*
X6369643Y-3459929D01*
X6383928Y-3431357D01*
X6383928Y-3417071D01*
X6369643Y-3388500D01*
X6341071Y-3374214D01*
X6298214Y-3374214D01*
X6269643Y-3359929D01*
X6255357Y-3331357D01*
X6255357Y-3317071D01*
X6269643Y-3288500D01*
X6298214Y-3274214D01*
X6341071Y-3274214D01*
X6369643Y-3288500D01*
X6483928Y-3588500D02*
X6498214Y-3574214D01*
X6526786Y-3531357D01*
X6541071Y-3502786D01*
X6555357Y-3459929D01*
X6569643Y-3388500D01*
X6569643Y-3331357D01*
X6555357Y-3259929D01*
X6541071Y-3217071D01*
X6526786Y-3188500D01*
X6498214Y-3145643D01*
X6483928Y-3131357D01*
M02*
