M48
; DRILL file {KiCad 5.1.6} date Sun Aug  2 00:36:00 2020
; FORMAT={-:-/ absolute / inch / decimal}
; #@! TF.CreationDate,2020-08-02T00:36:00-04:00
; #@! TF.GenerationSoftware,Kicad,Pcbnew,5.1.6
FMAT,2
INCH
T1C0.0079
T2C0.0118
T3C0.0157
T4C0.0315
T5C0.0394
T6C0.0433
T7C0.1220
%
G90
G05
T1
X0.3661Y1.5827
X0.4016Y1.6476
X0.4016Y1.6083
X0.4232Y1.628
X0.4419Y1.9116
X0.4494Y1.9902
X0.4508Y1.628
X0.4547Y2.0748
X0.4724Y1.6476
X0.4724Y1.6083
X0.4823Y2.0748
X0.4876Y1.9902
X0.4882Y1.5484
X0.4882Y1.4843
X0.4882Y1.4094
X0.4882Y1.3346
X0.4961Y1.9114
X0.5039Y1.5807
X0.5138Y2.374
X0.5157Y2.5177
X0.5315Y2.0295
X0.5335Y2.1201
X0.5374Y1.6476
X0.5374Y1.6083
X0.5374Y1.4291
X0.5374Y1.3898
X0.5591Y1.628
X0.5591Y1.4094
X0.5774Y1.9124
X0.5852Y1.9902
X0.5866Y1.628
X0.5866Y1.4094
X0.5906Y2.0748
X0.6083Y1.6476
X0.6083Y1.6083
X0.6083Y1.4291
X0.6083Y1.3898
X0.6181Y2.0748
X0.6201Y1.3071
X0.6234Y1.9902
X0.624Y1.5492
X0.6319Y1.9114
X0.6398Y1.5807
X0.6496Y2.3248
X0.6575Y1.4094
X0.6614Y2.4646
X0.6634Y2.1201
X0.6693Y2.0295
X0.6693Y1.2461
X0.6732Y1.6476
X0.6732Y1.6083
X0.6949Y1.628
X0.6969Y1.4528
X0.7135Y1.9114
X0.7218Y1.9908
X0.7224Y1.628
X0.7224Y0.5039
X0.7224Y0.4783
X0.7441Y1.6476
X0.7441Y1.6083
X0.748Y1.5394
X0.7539Y0.5748
X0.7539Y0.5472
X0.7593Y1.9902
X0.7657Y1.9114
X0.7692Y0.6136
X0.77Y0.5909
X0.7717Y0.878
X0.7756Y1.5807
X0.7854Y0.5315
X0.79Y0.6304
X0.7913Y2.4528
X0.8031Y2.1201
X0.8071Y2.0315
X0.811Y1.6476
X0.811Y1.6083
X0.8327Y1.628
X0.8513Y1.9116
X0.8531Y0.4441
X0.8589Y1.9902
X0.8602Y1.628
X0.8622Y0.5827
X0.8642Y2.0748
X0.872Y0.4567
X0.8819Y1.6476
X0.8819Y1.6083
X0.8819Y0.561
X0.8917Y2.0748
X0.8917Y0.4567
X0.8937Y1.5492
X0.897Y1.9902
X0.8976Y1.4843
X0.8976Y1.4094
X0.8976Y1.3346
X0.9016Y2.4488
X0.9016Y0.5807
X0.9055Y1.9114
X0.9114Y0.689
X0.9134Y1.5807
X0.9213Y0.561
X0.9291Y1.2539
X0.9291Y0.3228
X0.9409Y2.1181
X0.9409Y0.5807
X0.9423Y2.0289
X0.9469Y1.6476
X0.9469Y1.6083
X0.9469Y1.4291
X0.9469Y1.3898
X0.9685Y1.628
X0.9685Y1.4094
X0.9705Y0.3228
X0.9783Y0.6693
X0.9843Y0.3366
X0.9868Y1.9124
X0.9947Y1.9902
X0.9961Y1.628
X0.9961Y1.4094
X1.0118Y0.878
X1.0177Y1.6476
X1.0177Y1.6083
X1.0177Y1.4291
X1.0177Y1.3898
X1.0177Y0.6496
X1.0217Y0.5098
X1.0217Y0.4803
X1.0295Y1.3051
X1.0315Y1.5472
X1.0329Y1.9902
X1.0413Y1.9114
X1.0492Y1.5846
X1.061Y1.25
X1.0669Y1.4094
X1.0748Y2.1181
X1.0827Y2.0295
X1.0827Y1.6476
X1.0827Y1.6083
X1.1043Y1.628
X1.1043Y1.4528
X1.123Y1.9114
X1.1305Y1.9902
X1.1319Y1.628
X1.1358Y2.0748
X1.1535Y1.6476
X1.1535Y1.6083
X1.1555Y1.5394
X1.1555Y0.5098
X1.1634Y2.0748
X1.1673Y0.5551
X1.1687Y1.9902
X1.1752Y1.9114
X1.187Y1.5787
X1.19Y0.5447
X1.212Y0.5337
X1.2146Y2.2402
X1.2146Y0.8701
X1.2205Y2.0295
X1.2205Y1.6476
X1.2205Y1.6083
X1.2264Y2.1181
X1.2421Y1.628
X1.2607Y1.9096
X1.269Y1.9875
X1.2697Y1.628
X1.2913Y1.6476
X1.2913Y1.6083
X1.3031Y1.5472
X1.3051Y1.4823
X1.3051Y1.4075
X1.3051Y1.3327
X1.3079Y1.9882
X1.315Y1.9094
X1.3209Y2.4665
X1.3228Y1.5787
X1.3425Y1.2461
X1.3425Y0.2933
X1.3504Y0.878
X1.3543Y1.4272
X1.3543Y1.3878
X1.3563Y1.6476
X1.3563Y1.6083
X1.3583Y2.0276
X1.3642Y0.6929
X1.3661Y2.2402
X1.3661Y2.1181
X1.376Y1.4075
X1.378Y1.628
X1.3889Y0.7174
X1.3963Y1.9104
X1.4035Y1.4075
X1.4041Y1.9902
X1.4055Y1.628
X1.4094Y2.0748
X1.4134Y0.7825
X1.4154Y0.5007
X1.4252Y1.4272
X1.4252Y1.3878
X1.4272Y1.6476
X1.4272Y1.6083
X1.4272Y0.8593
X1.435Y0.8799
X1.437Y2.0748
X1.439Y1.3051
X1.4409Y1.5453
X1.4423Y1.9902
X1.4508Y1.9094
X1.4587Y1.5827
X1.4587Y0.6713
X1.4705Y0.8917
X1.4744Y1.4075
X1.4803Y0.6929
X1.4882Y1.2539
X1.4885Y0.9338
X1.4902Y2.0295
X1.4921Y1.6476
X1.4921Y1.6083
X1.5039Y2.1181
X1.5039Y0.6713
X1.5118Y1.4508
X1.5138Y1.628
X1.5256Y0.6929
X1.5276Y0.8915
X1.5324Y1.9094
X1.54Y1.9882
X1.5413Y1.628
X1.5413Y0.9823
X1.5458Y0.7166
X1.5472Y0.6713
X1.5472Y0.626
X1.5472Y0.5827
X1.5478Y0.7604
X1.563Y1.6476
X1.563Y1.6083
X1.565Y1.5374
X1.5689Y0.7835
X1.5689Y0.7382
X1.5781Y1.9882
X1.5846Y1.9094
X1.5925Y0.8051
X1.5925Y0.6713
X1.5945Y1.5807
X1.6142Y0.7815
X1.6142Y0.6929
X1.6142Y0.6476
X1.6142Y0.606
X1.626Y2.0295
X1.6299Y1.6496
X1.6299Y1.6102
X1.6339Y2.1181
X1.6358Y0.8504
X1.6358Y0.8051
X1.6358Y0.7598
X1.6358Y0.6713
X1.6358Y0.628
X1.6358Y0.5827
X1.6417Y1.2638
X1.6437Y0.9941
X1.6516Y1.6299
X1.6575Y0.6949
X1.6575Y0.6496
X1.658Y0.781
X1.6702Y1.9096
X1.6791Y1.6299
X1.6794Y1.9865
X1.6811Y0.7598
X1.6831Y2.0748
X1.7008Y1.6496
X1.7008Y1.6102
X1.7047Y0.7382
X1.7048Y0.6951
X1.7106Y2.0748
X1.7146Y0.9271
X1.7153Y1.9875
X1.7165Y1.5464
X1.7165Y1.4823
X1.7165Y1.4075
X1.7165Y1.3346
X1.7169Y0.8849
X1.7244Y1.9094
X1.7323Y1.5787
X1.7343Y0.8351
X1.7404Y0.8856
X1.7421Y2.2323
X1.7638Y2.0276
X1.7657Y1.6496
X1.7657Y1.6102
X1.7657Y1.4272
X1.7657Y1.3878
X1.7697Y0.6713
X1.7717Y2.1181
X1.7874Y1.6299
X1.7874Y1.4075
X1.8056Y0.5897
X1.8057Y1.9104
X1.813Y0.6728
X1.8136Y1.9882
X1.815Y1.6299
X1.815Y1.4075
X1.8248Y2.439
X1.8268Y0.3957
X1.8366Y1.6496
X1.8366Y1.6102
X1.8366Y1.4272
X1.8366Y1.3878
X1.8386Y0.5807
X1.8406Y1.2421
X1.8406Y0.8976
X1.8518Y1.9882
X1.8524Y1.5472
X1.8602Y1.9094
X1.8661Y1.3091
X1.8681Y1.5787
X1.872Y0.4764
X1.8858Y1.4075
X1.8917Y0.4449
X1.8996Y2.0276
X1.9016Y1.6496
X1.9016Y1.6102
X1.9055Y2.1181
X1.9075Y2.2382
X1.9213Y1.4508
X1.9232Y1.6299
X1.9419Y1.9094
X1.9429Y0.5394
X1.9494Y1.9882
X1.9508Y1.6299
X1.9547Y2.0748
X1.9724Y1.6496
X1.9724Y1.6102
X1.9764Y1.5374
X1.9764Y0.439
X1.9764Y0.3445
X1.9823Y2.0748
X1.9876Y1.9882
X1.9941Y1.9094
X2.0039Y1.5787
X2.0177Y2.439
X2.0374Y2.0276
X2.0374Y0.8976
X2.0394Y1.6496
X2.0394Y1.6102
X2.0472Y2.1181
X2.061Y1.6299
X2.0796Y1.9096
X2.0872Y1.9882
X2.0886Y1.6299
X2.1063Y0.5748
X2.1102Y1.6496
X2.1102Y1.6102
X2.1181Y1.2815
X2.122Y1.5472
X2.124Y1.4803
X2.124Y1.4094
X2.124Y1.3327
X2.1254Y1.9882
X2.126Y2.2382
X2.126Y0.439
X2.126Y0.3445
X2.1339Y1.9094
X2.1339Y0.7835
X2.1417Y1.5787
X2.1575Y0.2067
X2.1614Y0.8209
X2.1732Y2.0276
X2.1732Y1.6496
X2.1732Y1.6102
X2.1732Y1.4272
X2.1732Y1.3878
X2.1831Y2.1181
X2.1949Y1.6299
X2.1949Y1.4075
X2.2152Y1.9104
X2.2224Y1.6299
X2.2224Y1.4075
X2.223Y1.9882
X2.2283Y2.0748
X2.2303Y0.2008
X2.2441Y1.6496
X2.2441Y1.6102
X2.2441Y1.4272
X2.2441Y1.3878
X2.252Y1.2402
X2.2559Y2.0748
X2.2598Y1.5453
X2.2612Y1.9882
X2.2697Y1.9094
X2.2736Y1.3051
X2.2776Y1.5827
X2.2933Y1.4075
X2.311Y2.0276
X2.311Y1.6496
X2.311Y1.6102
X2.3189Y2.1181
X2.3327Y1.6299
X2.3327Y1.4508
X2.3346Y0.2283
X2.3513Y1.9094
X2.3589Y1.9882
X2.3602Y1.6299
X2.3819Y1.6496
X2.3819Y1.6102
X2.3839Y1.5374
X2.397Y1.9882
X2.3976Y0.8917
X2.4035Y1.9094
X2.4154Y1.5768
X2.4488Y2.0276
X2.4488Y1.6496
X2.4488Y1.6102
X2.4587Y2.1181
X2.4705Y1.6299
X2.4891Y1.9077
X2.4961Y1.2598
X2.4973Y1.9869
X2.498Y1.6299
X2.502Y2.0748
X2.5197Y1.6496
X2.5197Y1.6102
X2.5295Y2.0748
X2.5315Y1.5453
X2.5342Y1.9869
X2.5354Y1.4803
X2.5354Y1.4055
X2.5354Y1.3307
X2.5433Y1.9075
X2.5512Y1.5768
X2.5748Y2.0276
X2.5846Y1.6496
X2.5846Y1.6102
X2.5846Y1.4252
X2.5846Y1.3858
X2.5906Y2.3268
X2.5906Y2.1181
X2.6063Y1.6299
X2.6063Y1.4055
X2.6246Y1.9084
X2.6325Y1.9862
X2.6339Y1.6299
X2.6339Y1.4055
X2.6555Y1.6496
X2.6555Y1.6102
X2.6555Y1.4252
X2.6555Y1.3858
X2.6693Y1.5433
X2.6707Y1.9862
X2.6791Y1.9075
X2.6831Y2.2382
X2.6831Y1.2933
X2.687Y1.5807
X2.7047Y1.4055
X2.7106Y2.0256
X2.7205Y1.6496
X2.7205Y1.6102
X2.7264Y2.1181
X2.7421Y1.6299
X2.7421Y1.4488
X2.7607Y1.9075
X2.769Y1.9855
X2.7697Y1.6299
X2.7913Y1.6496
X2.7913Y1.6102
X2.7933Y1.5354
X2.8065Y1.9862
X2.813Y1.9075
X2.8346Y2.1181
X2.8465Y2.0276
T2
X0.3445Y2.0453
X0.3445Y2.0157
X0.374Y2.0453
X0.374Y2.0157
X0.4035Y2.0453
X0.4035Y2.0157
X0.4547Y0.3681
X0.4724Y0.5157
X0.4764Y0.8366
X0.4764Y0.811
X0.4862Y0.5394
X0.4961Y0.3681
X0.5Y0.5157
X0.502Y0.8366
X0.502Y0.811
X0.5157Y0.5394
X0.5276Y0.8366
X0.5276Y0.811
X0.5295Y0.5157
X0.5374Y0.3681
X0.5433Y0.5394
X0.5787Y0.3268
X0.6043Y0.3268
X0.6161Y0.5157
X0.6299Y0.5394
X0.6299Y0.3268
X0.6457Y0.5157
X0.6516Y1.4783
X0.6516Y1.3445
X0.6555Y0.3268
X0.6909Y0.7559
X0.6909Y0.7165
X0.7205Y0.7559
X0.7205Y0.7165
X0.7323Y2.3189
X0.75Y0.7559
X0.75Y0.7165
X0.8484Y0.3583
X1.061Y1.4783
X1.061Y1.3445
X1.2382Y0.3976
X1.4705Y1.4764
X1.4705Y1.3425
X1.8346Y0.4291
X1.8622Y0.3465
X1.8799Y1.4764
X1.8799Y1.3425
X2.2894Y1.4764
X2.2894Y1.3425
X2.4783Y0.5453
X2.6988Y1.4744
X2.6988Y1.3406
T3
X0.315Y2.1772
X0.315Y2.1437
X0.315Y2.1102
X2.9567Y2.1772
X2.9567Y2.1437
X2.9567Y2.1102
T5
X0.1201Y1.9169
X0.1201Y1.8169
T6
X0.5937Y2.6868
X0.5937Y2.5179
X0.6787Y2.6868
X0.6787Y2.5179
X0.7638Y2.6868
X0.7638Y2.5179
X0.8488Y2.6868
X0.8488Y2.5179
X0.9339Y2.6868
X0.9339Y2.5179
X1.0189Y2.6868
X1.0189Y2.5179
X1.1039Y2.6868
X1.1039Y2.5179
X1.189Y2.6868
X1.189Y2.5179
X1.274Y2.6868
X1.274Y2.5179
X1.3591Y2.6868
X1.3591Y2.5179
X1.4441Y2.6868
X1.4441Y2.5179
X1.5291Y2.6868
X1.5291Y2.5179
X1.6142Y2.6868
X1.6142Y2.5179
X1.6992Y2.6868
X1.6992Y2.5179
X1.7843Y2.6868
X1.7843Y2.5179
X1.8693Y2.6868
X1.8693Y2.5179
X1.9543Y2.6868
X1.9543Y2.5179
X2.0394Y2.6868
X2.0394Y2.5179
X2.1244Y2.6868
X2.1244Y2.5179
X2.2094Y2.6868
X2.2094Y2.5179
X2.2945Y2.6868
X2.2945Y2.5179
X2.3795Y2.6868
X2.3795Y2.5179
X2.4646Y2.6868
X2.4646Y2.5179
X2.5496Y2.6868
X2.5496Y2.5179
X2.6346Y2.6868
X2.6346Y2.5179
T7
X0.1407Y2.6024
X3.0876Y2.6024
T4
G00X0.7008Y0.2224
M15
G01X0.7008Y0.1949
M16
G05
G00X0.7008Y0.0768
M15
G01X0.7008Y0.0492
M16
G05
G00X1.1024Y0.2224
M15
G01X1.1024Y0.1949
M16
G05
G00X1.1024Y0.0768
M15
G01X1.1024Y0.0492
M16
G05
T0
M30
