%TF.GenerationSoftware,KiCad,Pcbnew,5.1.6*%
%TF.CreationDate,2020-08-02T00:36:08-04:00*%
%TF.ProjectId,squishy,73717569-7368-4792-9e6b-696361645f70,rev?*%
%TF.SameCoordinates,PX67f3540PY72ba1e0*%
%TF.FileFunction,Paste,Top*%
%TF.FilePolarity,Positive*%
%FSLAX46Y46*%
G04 Gerber Fmt 4.6, Leading zero omitted, Abs format (unit mm)*
G04 Created by KiCad (PCBNEW 5.1.6) date 2020-08-02 00:36:08*
%MOMM*%
%LPD*%
G01*
G04 APERTURE LIST*
%ADD10C,0.100000*%
%ADD11R,0.630000X0.820000*%
%ADD12R,0.350000X0.650000*%
%ADD13R,0.900000X0.800000*%
%ADD14C,0.350000*%
%ADD15R,0.740000X2.790000*%
%ADD16R,1.200000X1.400000*%
%ADD17R,0.400000X1.400000*%
G04 APERTURE END LIST*
D10*
%TO.C,U26*%
G36*
X66700000Y35550000D02*
G01*
X67750000Y35550000D01*
X67750000Y34750000D01*
X66700000Y34750000D01*
X66700000Y35550000D01*
G37*
X66700000Y35550000D02*
X67750000Y35550000D01*
X67750000Y34750000D01*
X66700000Y34750000D01*
X66700000Y35550000D01*
G36*
X65350000Y35550000D02*
G01*
X66400000Y35550000D01*
X66400000Y34750000D01*
X65350000Y34750000D01*
X65350000Y35550000D01*
G37*
X65350000Y35550000D02*
X66400000Y35550000D01*
X66400000Y34750000D01*
X65350000Y34750000D01*
X65350000Y35550000D01*
G36*
X65350000Y36650000D02*
G01*
X66400000Y36650000D01*
X66400000Y35850000D01*
X65350000Y35850000D01*
X65350000Y36650000D01*
G37*
X65350000Y36650000D02*
X66400000Y36650000D01*
X66400000Y35850000D01*
X65350000Y35850000D01*
X65350000Y36650000D01*
G36*
X66700000Y36650000D02*
G01*
X67750000Y36650000D01*
X67750000Y35850000D01*
X66700000Y35850000D01*
X66700000Y36650000D01*
G37*
X66700000Y36650000D02*
X67750000Y36650000D01*
X67750000Y35850000D01*
X66700000Y35850000D01*
X66700000Y36650000D01*
%TO.C,U25*%
G36*
X56250000Y35600000D02*
G01*
X57300000Y35600000D01*
X57300000Y34800000D01*
X56250000Y34800000D01*
X56250000Y35600000D01*
G37*
X56250000Y35600000D02*
X57300000Y35600000D01*
X57300000Y34800000D01*
X56250000Y34800000D01*
X56250000Y35600000D01*
G36*
X54900000Y35600000D02*
G01*
X55950000Y35600000D01*
X55950000Y34800000D01*
X54900000Y34800000D01*
X54900000Y35600000D01*
G37*
X54900000Y35600000D02*
X55950000Y35600000D01*
X55950000Y34800000D01*
X54900000Y34800000D01*
X54900000Y35600000D01*
G36*
X54900000Y36700000D02*
G01*
X55950000Y36700000D01*
X55950000Y35900000D01*
X54900000Y35900000D01*
X54900000Y36700000D01*
G37*
X54900000Y36700000D02*
X55950000Y36700000D01*
X55950000Y35900000D01*
X54900000Y35900000D01*
X54900000Y36700000D01*
G36*
X56250000Y36700000D02*
G01*
X57300000Y36700000D01*
X57300000Y35900000D01*
X56250000Y35900000D01*
X56250000Y36700000D01*
G37*
X56250000Y36700000D02*
X57300000Y36700000D01*
X57300000Y35900000D01*
X56250000Y35900000D01*
X56250000Y36700000D01*
%TO.C,U24*%
G36*
X45900000Y35600000D02*
G01*
X46950000Y35600000D01*
X46950000Y34800000D01*
X45900000Y34800000D01*
X45900000Y35600000D01*
G37*
X45900000Y35600000D02*
X46950000Y35600000D01*
X46950000Y34800000D01*
X45900000Y34800000D01*
X45900000Y35600000D01*
G36*
X44550000Y35600000D02*
G01*
X45600000Y35600000D01*
X45600000Y34800000D01*
X44550000Y34800000D01*
X44550000Y35600000D01*
G37*
X44550000Y35600000D02*
X45600000Y35600000D01*
X45600000Y34800000D01*
X44550000Y34800000D01*
X44550000Y35600000D01*
G36*
X44550000Y36700000D02*
G01*
X45600000Y36700000D01*
X45600000Y35900000D01*
X44550000Y35900000D01*
X44550000Y36700000D01*
G37*
X44550000Y36700000D02*
X45600000Y36700000D01*
X45600000Y35900000D01*
X44550000Y35900000D01*
X44550000Y36700000D01*
G36*
X45900000Y36700000D02*
G01*
X46950000Y36700000D01*
X46950000Y35900000D01*
X45900000Y35900000D01*
X45900000Y36700000D01*
G37*
X45900000Y36700000D02*
X46950000Y36700000D01*
X46950000Y35900000D01*
X45900000Y35900000D01*
X45900000Y36700000D01*
%TO.C,U23*%
G36*
X35450000Y35600000D02*
G01*
X36500000Y35600000D01*
X36500000Y34800000D01*
X35450000Y34800000D01*
X35450000Y35600000D01*
G37*
X35450000Y35600000D02*
X36500000Y35600000D01*
X36500000Y34800000D01*
X35450000Y34800000D01*
X35450000Y35600000D01*
G36*
X34100000Y35600000D02*
G01*
X35150000Y35600000D01*
X35150000Y34800000D01*
X34100000Y34800000D01*
X34100000Y35600000D01*
G37*
X34100000Y35600000D02*
X35150000Y35600000D01*
X35150000Y34800000D01*
X34100000Y34800000D01*
X34100000Y35600000D01*
G36*
X34100000Y36700000D02*
G01*
X35150000Y36700000D01*
X35150000Y35900000D01*
X34100000Y35900000D01*
X34100000Y36700000D01*
G37*
X34100000Y36700000D02*
X35150000Y36700000D01*
X35150000Y35900000D01*
X34100000Y35900000D01*
X34100000Y36700000D01*
G36*
X35450000Y36700000D02*
G01*
X36500000Y36700000D01*
X36500000Y35900000D01*
X35450000Y35900000D01*
X35450000Y36700000D01*
G37*
X35450000Y36700000D02*
X36500000Y36700000D01*
X36500000Y35900000D01*
X35450000Y35900000D01*
X35450000Y36700000D01*
%TO.C,U22*%
G36*
X25100000Y35650000D02*
G01*
X26150000Y35650000D01*
X26150000Y34850000D01*
X25100000Y34850000D01*
X25100000Y35650000D01*
G37*
X25100000Y35650000D02*
X26150000Y35650000D01*
X26150000Y34850000D01*
X25100000Y34850000D01*
X25100000Y35650000D01*
G36*
X23750000Y35650000D02*
G01*
X24800000Y35650000D01*
X24800000Y34850000D01*
X23750000Y34850000D01*
X23750000Y35650000D01*
G37*
X23750000Y35650000D02*
X24800000Y35650000D01*
X24800000Y34850000D01*
X23750000Y34850000D01*
X23750000Y35650000D01*
G36*
X23750000Y36750000D02*
G01*
X24800000Y36750000D01*
X24800000Y35950000D01*
X23750000Y35950000D01*
X23750000Y36750000D01*
G37*
X23750000Y36750000D02*
X24800000Y36750000D01*
X24800000Y35950000D01*
X23750000Y35950000D01*
X23750000Y36750000D01*
G36*
X25100000Y36750000D02*
G01*
X26150000Y36750000D01*
X26150000Y35950000D01*
X25100000Y35950000D01*
X25100000Y36750000D01*
G37*
X25100000Y36750000D02*
X26150000Y36750000D01*
X26150000Y35950000D01*
X25100000Y35950000D01*
X25100000Y36750000D01*
%TO.C,U21*%
G36*
X14700000Y35650000D02*
G01*
X15750000Y35650000D01*
X15750000Y34850000D01*
X14700000Y34850000D01*
X14700000Y35650000D01*
G37*
X14700000Y35650000D02*
X15750000Y35650000D01*
X15750000Y34850000D01*
X14700000Y34850000D01*
X14700000Y35650000D01*
G36*
X13350000Y35650000D02*
G01*
X14400000Y35650000D01*
X14400000Y34850000D01*
X13350000Y34850000D01*
X13350000Y35650000D01*
G37*
X13350000Y35650000D02*
X14400000Y35650000D01*
X14400000Y34850000D01*
X13350000Y34850000D01*
X13350000Y35650000D01*
G36*
X13350000Y36750000D02*
G01*
X14400000Y36750000D01*
X14400000Y35950000D01*
X13350000Y35950000D01*
X13350000Y36750000D01*
G37*
X13350000Y36750000D02*
X14400000Y36750000D01*
X14400000Y35950000D01*
X13350000Y35950000D01*
X13350000Y36750000D01*
G36*
X14700000Y36750000D02*
G01*
X15750000Y36750000D01*
X15750000Y35950000D01*
X14700000Y35950000D01*
X14700000Y36750000D01*
G37*
X14700000Y36750000D02*
X15750000Y36750000D01*
X15750000Y35950000D01*
X14700000Y35950000D01*
X14700000Y36750000D01*
%TO.C,U20*%
G36*
X50350000Y42150000D02*
G01*
X50350000Y40650000D01*
X49450000Y40650000D01*
X49450000Y42150000D01*
X50350000Y42150000D01*
G37*
X50350000Y42150000D02*
X50350000Y40650000D01*
X49450000Y40650000D01*
X49450000Y42150000D01*
X50350000Y42150000D01*
G36*
X48950000Y42150000D02*
G01*
X48950000Y40650000D01*
X48050000Y40650000D01*
X48050000Y42150000D01*
X48950000Y42150000D01*
G37*
X48950000Y42150000D02*
X48950000Y40650000D01*
X48050000Y40650000D01*
X48050000Y42150000D01*
X48950000Y42150000D01*
%TO.C,U19*%
G36*
X33050000Y42100000D02*
G01*
X33050000Y40600000D01*
X32150000Y40600000D01*
X32150000Y42100000D01*
X33050000Y42100000D01*
G37*
X33050000Y42100000D02*
X33050000Y40600000D01*
X32150000Y40600000D01*
X32150000Y42100000D01*
X33050000Y42100000D01*
G36*
X31650000Y42100000D02*
G01*
X31650000Y40600000D01*
X30750000Y40600000D01*
X30750000Y42100000D01*
X31650000Y42100000D01*
G37*
X31650000Y42100000D02*
X31650000Y40600000D01*
X30750000Y40600000D01*
X30750000Y42100000D01*
X31650000Y42100000D01*
%TO.C,U18*%
G36*
X29550000Y42100000D02*
G01*
X29550000Y40600000D01*
X28650000Y40600000D01*
X28650000Y42100000D01*
X29550000Y42100000D01*
G37*
X29550000Y42100000D02*
X29550000Y40600000D01*
X28650000Y40600000D01*
X28650000Y42100000D01*
X29550000Y42100000D01*
G36*
X28150000Y42100000D02*
G01*
X28150000Y40600000D01*
X27250000Y40600000D01*
X27250000Y42100000D01*
X28150000Y42100000D01*
G37*
X28150000Y42100000D02*
X28150000Y40600000D01*
X27250000Y40600000D01*
X27250000Y42100000D01*
X28150000Y42100000D01*
%TO.C,U17*%
G36*
X12250000Y42100000D02*
G01*
X12250000Y40600000D01*
X11350000Y40600000D01*
X11350000Y42100000D01*
X12250000Y42100000D01*
G37*
X12250000Y42100000D02*
X12250000Y40600000D01*
X11350000Y40600000D01*
X11350000Y42100000D01*
X12250000Y42100000D01*
G36*
X10850000Y42100000D02*
G01*
X10850000Y40600000D01*
X9950000Y40600000D01*
X9950000Y42100000D01*
X10850000Y42100000D01*
G37*
X10850000Y42100000D02*
X10850000Y40600000D01*
X9950000Y40600000D01*
X9950000Y42100000D01*
X10850000Y42100000D01*
%TO.C,U16*%
G36*
X57250000Y42150000D02*
G01*
X57250000Y40650000D01*
X56350000Y40650000D01*
X56350000Y42150000D01*
X57250000Y42150000D01*
G37*
X57250000Y42150000D02*
X57250000Y40650000D01*
X56350000Y40650000D01*
X56350000Y42150000D01*
X57250000Y42150000D01*
G36*
X55850000Y42150000D02*
G01*
X55850000Y40650000D01*
X54950000Y40650000D01*
X54950000Y42150000D01*
X55850000Y42150000D01*
G37*
X55850000Y42150000D02*
X55850000Y40650000D01*
X54950000Y40650000D01*
X54950000Y42150000D01*
X55850000Y42150000D01*
%TO.C,U15*%
G36*
X36500000Y42100000D02*
G01*
X36500000Y40600000D01*
X35600000Y40600000D01*
X35600000Y42100000D01*
X36500000Y42100000D01*
G37*
X36500000Y42100000D02*
X36500000Y40600000D01*
X35600000Y40600000D01*
X35600000Y42100000D01*
X36500000Y42100000D01*
G36*
X35100000Y42100000D02*
G01*
X35100000Y40600000D01*
X34200000Y40600000D01*
X34200000Y42100000D01*
X35100000Y42100000D01*
G37*
X35100000Y42100000D02*
X35100000Y40600000D01*
X34200000Y40600000D01*
X34200000Y42100000D01*
X35100000Y42100000D01*
%TO.C,U14*%
G36*
X53850000Y42150000D02*
G01*
X53850000Y40650000D01*
X52950000Y40650000D01*
X52950000Y42150000D01*
X53850000Y42150000D01*
G37*
X53850000Y42150000D02*
X53850000Y40650000D01*
X52950000Y40650000D01*
X52950000Y42150000D01*
X53850000Y42150000D01*
G36*
X52450000Y42150000D02*
G01*
X52450000Y40650000D01*
X51550000Y40650000D01*
X51550000Y42150000D01*
X52450000Y42150000D01*
G37*
X52450000Y42150000D02*
X52450000Y40650000D01*
X51550000Y40650000D01*
X51550000Y42150000D01*
X52450000Y42150000D01*
%TO.C,U13*%
G36*
X71150000Y42150000D02*
G01*
X71150000Y40650000D01*
X70250000Y40650000D01*
X70250000Y42150000D01*
X71150000Y42150000D01*
G37*
X71150000Y42150000D02*
X71150000Y40650000D01*
X70250000Y40650000D01*
X70250000Y42150000D01*
X71150000Y42150000D01*
G36*
X69750000Y42150000D02*
G01*
X69750000Y40650000D01*
X68850000Y40650000D01*
X68850000Y42150000D01*
X69750000Y42150000D01*
G37*
X69750000Y42150000D02*
X69750000Y40650000D01*
X68850000Y40650000D01*
X68850000Y42150000D01*
X69750000Y42150000D01*
%TO.C,U12*%
G36*
X26100000Y42100000D02*
G01*
X26100000Y40600000D01*
X25200000Y40600000D01*
X25200000Y42100000D01*
X26100000Y42100000D01*
G37*
X26100000Y42100000D02*
X26100000Y40600000D01*
X25200000Y40600000D01*
X25200000Y42100000D01*
X26100000Y42100000D01*
G36*
X24700000Y42100000D02*
G01*
X24700000Y40600000D01*
X23800000Y40600000D01*
X23800000Y42100000D01*
X24700000Y42100000D01*
G37*
X24700000Y42100000D02*
X24700000Y40600000D01*
X23800000Y40600000D01*
X23800000Y42100000D01*
X24700000Y42100000D01*
%TO.C,U11*%
G36*
X46900000Y42150000D02*
G01*
X46900000Y40650000D01*
X46000000Y40650000D01*
X46000000Y42150000D01*
X46900000Y42150000D01*
G37*
X46900000Y42150000D02*
X46900000Y40650000D01*
X46000000Y40650000D01*
X46000000Y42150000D01*
X46900000Y42150000D01*
G36*
X45500000Y42150000D02*
G01*
X45500000Y40650000D01*
X44600000Y40650000D01*
X44600000Y42150000D01*
X45500000Y42150000D01*
G37*
X45500000Y42150000D02*
X45500000Y40650000D01*
X44600000Y40650000D01*
X44600000Y42150000D01*
X45500000Y42150000D01*
%TO.C,U10*%
G36*
X15700000Y42100000D02*
G01*
X15700000Y40600000D01*
X14800000Y40600000D01*
X14800000Y42100000D01*
X15700000Y42100000D01*
G37*
X15700000Y42100000D02*
X15700000Y40600000D01*
X14800000Y40600000D01*
X14800000Y42100000D01*
X15700000Y42100000D01*
G36*
X14300000Y42100000D02*
G01*
X14300000Y40600000D01*
X13400000Y40600000D01*
X13400000Y42100000D01*
X14300000Y42100000D01*
G37*
X14300000Y42100000D02*
X14300000Y40600000D01*
X13400000Y40600000D01*
X13400000Y42100000D01*
X14300000Y42100000D01*
%TO.C,U9*%
G36*
X60750000Y42150000D02*
G01*
X60750000Y40650000D01*
X59850000Y40650000D01*
X59850000Y42150000D01*
X60750000Y42150000D01*
G37*
X60750000Y42150000D02*
X60750000Y40650000D01*
X59850000Y40650000D01*
X59850000Y42150000D01*
X60750000Y42150000D01*
G36*
X59350000Y42150000D02*
G01*
X59350000Y40650000D01*
X58450000Y40650000D01*
X58450000Y42150000D01*
X59350000Y42150000D01*
G37*
X59350000Y42150000D02*
X59350000Y40650000D01*
X58450000Y40650000D01*
X58450000Y42150000D01*
X59350000Y42150000D01*
%TO.C,U8*%
G36*
X64250000Y42150000D02*
G01*
X64250000Y40650000D01*
X63350000Y40650000D01*
X63350000Y42150000D01*
X64250000Y42150000D01*
G37*
X64250000Y42150000D02*
X64250000Y40650000D01*
X63350000Y40650000D01*
X63350000Y42150000D01*
X64250000Y42150000D01*
G36*
X62850000Y42150000D02*
G01*
X62850000Y40650000D01*
X61950000Y40650000D01*
X61950000Y42150000D01*
X62850000Y42150000D01*
G37*
X62850000Y42150000D02*
X62850000Y40650000D01*
X61950000Y40650000D01*
X61950000Y42150000D01*
X62850000Y42150000D01*
%TO.C,U7*%
G36*
X67700000Y42150000D02*
G01*
X67700000Y40650000D01*
X66800000Y40650000D01*
X66800000Y42150000D01*
X67700000Y42150000D01*
G37*
X67700000Y42150000D02*
X67700000Y40650000D01*
X66800000Y40650000D01*
X66800000Y42150000D01*
X67700000Y42150000D01*
G36*
X66300000Y42150000D02*
G01*
X66300000Y40650000D01*
X65400000Y40650000D01*
X65400000Y42150000D01*
X66300000Y42150000D01*
G37*
X66300000Y42150000D02*
X66300000Y40650000D01*
X65400000Y40650000D01*
X65400000Y42150000D01*
X66300000Y42150000D01*
%TO.C,U6*%
G36*
X43450000Y42150000D02*
G01*
X43450000Y40650000D01*
X42550000Y40650000D01*
X42550000Y42150000D01*
X43450000Y42150000D01*
G37*
X43450000Y42150000D02*
X43450000Y40650000D01*
X42550000Y40650000D01*
X42550000Y42150000D01*
X43450000Y42150000D01*
G36*
X42050000Y42150000D02*
G01*
X42050000Y40650000D01*
X41150000Y40650000D01*
X41150000Y42150000D01*
X42050000Y42150000D01*
G37*
X42050000Y42150000D02*
X42050000Y40650000D01*
X41150000Y40650000D01*
X41150000Y42150000D01*
X42050000Y42150000D01*
%TO.C,U5*%
G36*
X22650000Y42100000D02*
G01*
X22650000Y40600000D01*
X21750000Y40600000D01*
X21750000Y42100000D01*
X22650000Y42100000D01*
G37*
X22650000Y42100000D02*
X22650000Y40600000D01*
X21750000Y40600000D01*
X21750000Y42100000D01*
X22650000Y42100000D01*
G36*
X21250000Y42100000D02*
G01*
X21250000Y40600000D01*
X20350000Y40600000D01*
X20350000Y42100000D01*
X21250000Y42100000D01*
G37*
X21250000Y42100000D02*
X21250000Y40600000D01*
X20350000Y40600000D01*
X20350000Y42100000D01*
X21250000Y42100000D01*
%TO.C,U4*%
G36*
X19150000Y42100000D02*
G01*
X19150000Y40600000D01*
X18250000Y40600000D01*
X18250000Y42100000D01*
X19150000Y42100000D01*
G37*
X19150000Y42100000D02*
X19150000Y40600000D01*
X18250000Y40600000D01*
X18250000Y42100000D01*
X19150000Y42100000D01*
G36*
X17750000Y42100000D02*
G01*
X17750000Y40600000D01*
X16850000Y40600000D01*
X16850000Y42100000D01*
X17750000Y42100000D01*
G37*
X17750000Y42100000D02*
X17750000Y40600000D01*
X16850000Y40600000D01*
X16850000Y42100000D01*
X17750000Y42100000D01*
%TO.C,U3*%
G36*
X39950000Y42100000D02*
G01*
X39950000Y40600000D01*
X39050000Y40600000D01*
X39050000Y42100000D01*
X39950000Y42100000D01*
G37*
X39950000Y42100000D02*
X39950000Y40600000D01*
X39050000Y40600000D01*
X39050000Y42100000D01*
X39950000Y42100000D01*
G36*
X38550000Y42100000D02*
G01*
X38550000Y40600000D01*
X37650000Y40600000D01*
X37650000Y42100000D01*
X38550000Y42100000D01*
G37*
X38550000Y42100000D02*
X38550000Y40600000D01*
X37650000Y40600000D01*
X37650000Y42100000D01*
X38550000Y42100000D01*
%TD*%
%TO.C,R68*%
G36*
G01*
X46443750Y12550000D02*
X46956250Y12550000D01*
G75*
G02*
X47175000Y12331250I0J-218750D01*
G01*
X47175000Y11893750D01*
G75*
G02*
X46956250Y11675000I-218750J0D01*
G01*
X46443750Y11675000D01*
G75*
G02*
X46225000Y11893750I0J218750D01*
G01*
X46225000Y12331250D01*
G75*
G02*
X46443750Y12550000I218750J0D01*
G01*
G37*
G36*
G01*
X46443750Y14125000D02*
X46956250Y14125000D01*
G75*
G02*
X47175000Y13906250I0J-218750D01*
G01*
X47175000Y13468750D01*
G75*
G02*
X46956250Y13250000I-218750J0D01*
G01*
X46443750Y13250000D01*
G75*
G02*
X46225000Y13468750I0J218750D01*
G01*
X46225000Y13906250D01*
G75*
G02*
X46443750Y14125000I218750J0D01*
G01*
G37*
%TD*%
%TO.C,F1*%
G36*
G01*
X5625000Y49475000D02*
X7675000Y49475000D01*
G75*
G02*
X7925000Y49225000I0J-250000D01*
G01*
X7925000Y48125000D01*
G75*
G02*
X7675000Y47875000I-250000J0D01*
G01*
X5625000Y47875000D01*
G75*
G02*
X5375000Y48125000I0J250000D01*
G01*
X5375000Y49225000D01*
G75*
G02*
X5625000Y49475000I250000J0D01*
G01*
G37*
G36*
G01*
X5625000Y52325000D02*
X7675000Y52325000D01*
G75*
G02*
X7925000Y52075000I0J-250000D01*
G01*
X7925000Y50975000D01*
G75*
G02*
X7675000Y50725000I-250000J0D01*
G01*
X5625000Y50725000D01*
G75*
G02*
X5375000Y50975000I0J250000D01*
G01*
X5375000Y52075000D01*
G75*
G02*
X5625000Y52325000I250000J0D01*
G01*
G37*
%TD*%
D11*
%TO.C,U30*%
X11650000Y17200000D03*
X12450000Y17200000D03*
D12*
X12700000Y16150000D03*
X12050000Y16150000D03*
X11400000Y16150000D03*
X11400000Y18250000D03*
X12050000Y18250000D03*
X12700000Y18250000D03*
%TD*%
D11*
%TO.C,U29*%
X15350000Y17200000D03*
X16150000Y17200000D03*
D12*
X16400000Y16150000D03*
X15750000Y16150000D03*
X15100000Y16150000D03*
X15100000Y18250000D03*
X15750000Y18250000D03*
X16400000Y18250000D03*
%TD*%
D13*
%TO.C,U28*%
X13000000Y11250000D03*
X15000000Y12200000D03*
X15000000Y10300000D03*
%TD*%
%TO.C,C57*%
G36*
G01*
X12250000Y19393750D02*
X12250000Y19906250D01*
G75*
G02*
X12468750Y20125000I218750J0D01*
G01*
X12906250Y20125000D01*
G75*
G02*
X13125000Y19906250I0J-218750D01*
G01*
X13125000Y19393750D01*
G75*
G02*
X12906250Y19175000I-218750J0D01*
G01*
X12468750Y19175000D01*
G75*
G02*
X12250000Y19393750I0J218750D01*
G01*
G37*
G36*
G01*
X10675000Y19393750D02*
X10675000Y19906250D01*
G75*
G02*
X10893750Y20125000I218750J0D01*
G01*
X11331250Y20125000D01*
G75*
G02*
X11550000Y19906250I0J-218750D01*
G01*
X11550000Y19393750D01*
G75*
G02*
X11331250Y19175000I-218750J0D01*
G01*
X10893750Y19175000D01*
G75*
G02*
X10675000Y19393750I0J218750D01*
G01*
G37*
%TD*%
%TO.C,C56*%
G36*
G01*
X15900000Y19393750D02*
X15900000Y19906250D01*
G75*
G02*
X16118750Y20125000I218750J0D01*
G01*
X16556250Y20125000D01*
G75*
G02*
X16775000Y19906250I0J-218750D01*
G01*
X16775000Y19393750D01*
G75*
G02*
X16556250Y19175000I-218750J0D01*
G01*
X16118750Y19175000D01*
G75*
G02*
X15900000Y19393750I0J218750D01*
G01*
G37*
G36*
G01*
X14325000Y19393750D02*
X14325000Y19906250D01*
G75*
G02*
X14543750Y20125000I218750J0D01*
G01*
X14981250Y20125000D01*
G75*
G02*
X15200000Y19906250I0J-218750D01*
G01*
X15200000Y19393750D01*
G75*
G02*
X14981250Y19175000I-218750J0D01*
G01*
X14543750Y19175000D01*
G75*
G02*
X14325000Y19393750I0J218750D01*
G01*
G37*
%TD*%
%TO.C,C55*%
G36*
G01*
X12850000Y15006250D02*
X12850000Y14493750D01*
G75*
G02*
X12631250Y14275000I-218750J0D01*
G01*
X12193750Y14275000D01*
G75*
G02*
X11975000Y14493750I0J218750D01*
G01*
X11975000Y15006250D01*
G75*
G02*
X12193750Y15225000I218750J0D01*
G01*
X12631250Y15225000D01*
G75*
G02*
X12850000Y15006250I0J-218750D01*
G01*
G37*
G36*
G01*
X14425000Y15006250D02*
X14425000Y14493750D01*
G75*
G02*
X14206250Y14275000I-218750J0D01*
G01*
X13768750Y14275000D01*
G75*
G02*
X13550000Y14493750I0J218750D01*
G01*
X13550000Y15006250D01*
G75*
G02*
X13768750Y15225000I218750J0D01*
G01*
X14206250Y15225000D01*
G75*
G02*
X14425000Y15006250I0J-218750D01*
G01*
G37*
%TD*%
%TO.C,C54*%
G36*
G01*
X16550000Y15006250D02*
X16550000Y14493750D01*
G75*
G02*
X16331250Y14275000I-218750J0D01*
G01*
X15893750Y14275000D01*
G75*
G02*
X15675000Y14493750I0J218750D01*
G01*
X15675000Y15006250D01*
G75*
G02*
X15893750Y15225000I218750J0D01*
G01*
X16331250Y15225000D01*
G75*
G02*
X16550000Y15006250I0J-218750D01*
G01*
G37*
G36*
G01*
X18125000Y15006250D02*
X18125000Y14493750D01*
G75*
G02*
X17906250Y14275000I-218750J0D01*
G01*
X17468750Y14275000D01*
G75*
G02*
X17250000Y14493750I0J218750D01*
G01*
X17250000Y15006250D01*
G75*
G02*
X17468750Y15225000I218750J0D01*
G01*
X17906250Y15225000D01*
G75*
G02*
X18125000Y15006250I0J-218750D01*
G01*
G37*
%TD*%
%TO.C,R69*%
G36*
G01*
X45643750Y5400000D02*
X46156250Y5400000D01*
G75*
G02*
X46375000Y5181250I0J-218750D01*
G01*
X46375000Y4743750D01*
G75*
G02*
X46156250Y4525000I-218750J0D01*
G01*
X45643750Y4525000D01*
G75*
G02*
X45425000Y4743750I0J218750D01*
G01*
X45425000Y5181250D01*
G75*
G02*
X45643750Y5400000I218750J0D01*
G01*
G37*
G36*
G01*
X45643750Y6975000D02*
X46156250Y6975000D01*
G75*
G02*
X46375000Y6756250I0J-218750D01*
G01*
X46375000Y6318750D01*
G75*
G02*
X46156250Y6100000I-218750J0D01*
G01*
X45643750Y6100000D01*
G75*
G02*
X45425000Y6318750I0J218750D01*
G01*
X45425000Y6756250D01*
G75*
G02*
X45643750Y6975000I218750J0D01*
G01*
G37*
%TD*%
%TO.C,D10*%
G36*
G01*
X46137500Y2850000D02*
X45662500Y2850000D01*
G75*
G02*
X45425000Y3087500I0J237500D01*
G01*
X45425000Y3662500D01*
G75*
G02*
X45662500Y3900000I237500J0D01*
G01*
X46137500Y3900000D01*
G75*
G02*
X46375000Y3662500I0J-237500D01*
G01*
X46375000Y3087500D01*
G75*
G02*
X46137500Y2850000I-237500J0D01*
G01*
G37*
G36*
G01*
X46137500Y1100000D02*
X45662500Y1100000D01*
G75*
G02*
X45425000Y1337500I0J237500D01*
G01*
X45425000Y1912500D01*
G75*
G02*
X45662500Y2150000I237500J0D01*
G01*
X46137500Y2150000D01*
G75*
G02*
X46375000Y1912500I0J-237500D01*
G01*
X46375000Y1337500D01*
G75*
G02*
X46137500Y1100000I-237500J0D01*
G01*
G37*
%TD*%
%TO.C,R67*%
G36*
G01*
X42343750Y5400000D02*
X42856250Y5400000D01*
G75*
G02*
X43075000Y5181250I0J-218750D01*
G01*
X43075000Y4743750D01*
G75*
G02*
X42856250Y4525000I-218750J0D01*
G01*
X42343750Y4525000D01*
G75*
G02*
X42125000Y4743750I0J218750D01*
G01*
X42125000Y5181250D01*
G75*
G02*
X42343750Y5400000I218750J0D01*
G01*
G37*
G36*
G01*
X42343750Y6975000D02*
X42856250Y6975000D01*
G75*
G02*
X43075000Y6756250I0J-218750D01*
G01*
X43075000Y6318750D01*
G75*
G02*
X42856250Y6100000I-218750J0D01*
G01*
X42343750Y6100000D01*
G75*
G02*
X42125000Y6318750I0J218750D01*
G01*
X42125000Y6756250D01*
G75*
G02*
X42343750Y6975000I218750J0D01*
G01*
G37*
%TD*%
%TO.C,R66*%
G36*
G01*
X40543750Y5400000D02*
X41056250Y5400000D01*
G75*
G02*
X41275000Y5181250I0J-218750D01*
G01*
X41275000Y4743750D01*
G75*
G02*
X41056250Y4525000I-218750J0D01*
G01*
X40543750Y4525000D01*
G75*
G02*
X40325000Y4743750I0J218750D01*
G01*
X40325000Y5181250D01*
G75*
G02*
X40543750Y5400000I218750J0D01*
G01*
G37*
G36*
G01*
X40543750Y6975000D02*
X41056250Y6975000D01*
G75*
G02*
X41275000Y6756250I0J-218750D01*
G01*
X41275000Y6318750D01*
G75*
G02*
X41056250Y6100000I-218750J0D01*
G01*
X40543750Y6100000D01*
G75*
G02*
X40325000Y6318750I0J218750D01*
G01*
X40325000Y6756250D01*
G75*
G02*
X40543750Y6975000I218750J0D01*
G01*
G37*
%TD*%
%TO.C,R65*%
G36*
G01*
X38743750Y5400000D02*
X39256250Y5400000D01*
G75*
G02*
X39475000Y5181250I0J-218750D01*
G01*
X39475000Y4743750D01*
G75*
G02*
X39256250Y4525000I-218750J0D01*
G01*
X38743750Y4525000D01*
G75*
G02*
X38525000Y4743750I0J218750D01*
G01*
X38525000Y5181250D01*
G75*
G02*
X38743750Y5400000I218750J0D01*
G01*
G37*
G36*
G01*
X38743750Y6975000D02*
X39256250Y6975000D01*
G75*
G02*
X39475000Y6756250I0J-218750D01*
G01*
X39475000Y6318750D01*
G75*
G02*
X39256250Y6100000I-218750J0D01*
G01*
X38743750Y6100000D01*
G75*
G02*
X38525000Y6318750I0J218750D01*
G01*
X38525000Y6756250D01*
G75*
G02*
X38743750Y6975000I218750J0D01*
G01*
G37*
%TD*%
%TO.C,R64*%
G36*
G01*
X36943750Y5400000D02*
X37456250Y5400000D01*
G75*
G02*
X37675000Y5181250I0J-218750D01*
G01*
X37675000Y4743750D01*
G75*
G02*
X37456250Y4525000I-218750J0D01*
G01*
X36943750Y4525000D01*
G75*
G02*
X36725000Y4743750I0J218750D01*
G01*
X36725000Y5181250D01*
G75*
G02*
X36943750Y5400000I218750J0D01*
G01*
G37*
G36*
G01*
X36943750Y6975000D02*
X37456250Y6975000D01*
G75*
G02*
X37675000Y6756250I0J-218750D01*
G01*
X37675000Y6318750D01*
G75*
G02*
X37456250Y6100000I-218750J0D01*
G01*
X36943750Y6100000D01*
G75*
G02*
X36725000Y6318750I0J218750D01*
G01*
X36725000Y6756250D01*
G75*
G02*
X36943750Y6975000I218750J0D01*
G01*
G37*
%TD*%
%TO.C,R63*%
G36*
G01*
X35143750Y5400000D02*
X35656250Y5400000D01*
G75*
G02*
X35875000Y5181250I0J-218750D01*
G01*
X35875000Y4743750D01*
G75*
G02*
X35656250Y4525000I-218750J0D01*
G01*
X35143750Y4525000D01*
G75*
G02*
X34925000Y4743750I0J218750D01*
G01*
X34925000Y5181250D01*
G75*
G02*
X35143750Y5400000I218750J0D01*
G01*
G37*
G36*
G01*
X35143750Y6975000D02*
X35656250Y6975000D01*
G75*
G02*
X35875000Y6756250I0J-218750D01*
G01*
X35875000Y6318750D01*
G75*
G02*
X35656250Y6100000I-218750J0D01*
G01*
X35143750Y6100000D01*
G75*
G02*
X34925000Y6318750I0J218750D01*
G01*
X34925000Y6756250D01*
G75*
G02*
X35143750Y6975000I218750J0D01*
G01*
G37*
%TD*%
%TO.C,D9*%
G36*
G01*
X42837500Y2850000D02*
X42362500Y2850000D01*
G75*
G02*
X42125000Y3087500I0J237500D01*
G01*
X42125000Y3662500D01*
G75*
G02*
X42362500Y3900000I237500J0D01*
G01*
X42837500Y3900000D01*
G75*
G02*
X43075000Y3662500I0J-237500D01*
G01*
X43075000Y3087500D01*
G75*
G02*
X42837500Y2850000I-237500J0D01*
G01*
G37*
G36*
G01*
X42837500Y1100000D02*
X42362500Y1100000D01*
G75*
G02*
X42125000Y1337500I0J237500D01*
G01*
X42125000Y1912500D01*
G75*
G02*
X42362500Y2150000I237500J0D01*
G01*
X42837500Y2150000D01*
G75*
G02*
X43075000Y1912500I0J-237500D01*
G01*
X43075000Y1337500D01*
G75*
G02*
X42837500Y1100000I-237500J0D01*
G01*
G37*
%TD*%
%TO.C,D6*%
G36*
G01*
X41037500Y2850000D02*
X40562500Y2850000D01*
G75*
G02*
X40325000Y3087500I0J237500D01*
G01*
X40325000Y3662500D01*
G75*
G02*
X40562500Y3900000I237500J0D01*
G01*
X41037500Y3900000D01*
G75*
G02*
X41275000Y3662500I0J-237500D01*
G01*
X41275000Y3087500D01*
G75*
G02*
X41037500Y2850000I-237500J0D01*
G01*
G37*
G36*
G01*
X41037500Y1100000D02*
X40562500Y1100000D01*
G75*
G02*
X40325000Y1337500I0J237500D01*
G01*
X40325000Y1912500D01*
G75*
G02*
X40562500Y2150000I237500J0D01*
G01*
X41037500Y2150000D01*
G75*
G02*
X41275000Y1912500I0J-237500D01*
G01*
X41275000Y1337500D01*
G75*
G02*
X41037500Y1100000I-237500J0D01*
G01*
G37*
%TD*%
%TO.C,D5*%
G36*
G01*
X39237500Y2850000D02*
X38762500Y2850000D01*
G75*
G02*
X38525000Y3087500I0J237500D01*
G01*
X38525000Y3662500D01*
G75*
G02*
X38762500Y3900000I237500J0D01*
G01*
X39237500Y3900000D01*
G75*
G02*
X39475000Y3662500I0J-237500D01*
G01*
X39475000Y3087500D01*
G75*
G02*
X39237500Y2850000I-237500J0D01*
G01*
G37*
G36*
G01*
X39237500Y1100000D02*
X38762500Y1100000D01*
G75*
G02*
X38525000Y1337500I0J237500D01*
G01*
X38525000Y1912500D01*
G75*
G02*
X38762500Y2150000I237500J0D01*
G01*
X39237500Y2150000D01*
G75*
G02*
X39475000Y1912500I0J-237500D01*
G01*
X39475000Y1337500D01*
G75*
G02*
X39237500Y1100000I-237500J0D01*
G01*
G37*
%TD*%
%TO.C,D2*%
G36*
G01*
X37437500Y2850000D02*
X36962500Y2850000D01*
G75*
G02*
X36725000Y3087500I0J237500D01*
G01*
X36725000Y3662500D01*
G75*
G02*
X36962500Y3900000I237500J0D01*
G01*
X37437500Y3900000D01*
G75*
G02*
X37675000Y3662500I0J-237500D01*
G01*
X37675000Y3087500D01*
G75*
G02*
X37437500Y2850000I-237500J0D01*
G01*
G37*
G36*
G01*
X37437500Y1100000D02*
X36962500Y1100000D01*
G75*
G02*
X36725000Y1337500I0J237500D01*
G01*
X36725000Y1912500D01*
G75*
G02*
X36962500Y2150000I237500J0D01*
G01*
X37437500Y2150000D01*
G75*
G02*
X37675000Y1912500I0J-237500D01*
G01*
X37675000Y1337500D01*
G75*
G02*
X37437500Y1100000I-237500J0D01*
G01*
G37*
%TD*%
%TO.C,D1*%
G36*
G01*
X35637500Y2850000D02*
X35162500Y2850000D01*
G75*
G02*
X34925000Y3087500I0J237500D01*
G01*
X34925000Y3662500D01*
G75*
G02*
X35162500Y3900000I237500J0D01*
G01*
X35637500Y3900000D01*
G75*
G02*
X35875000Y3662500I0J-237500D01*
G01*
X35875000Y3087500D01*
G75*
G02*
X35637500Y2850000I-237500J0D01*
G01*
G37*
G36*
G01*
X35637500Y1100000D02*
X35162500Y1100000D01*
G75*
G02*
X34925000Y1337500I0J237500D01*
G01*
X34925000Y1912500D01*
G75*
G02*
X35162500Y2150000I237500J0D01*
G01*
X35637500Y2150000D01*
G75*
G02*
X35875000Y1912500I0J-237500D01*
G01*
X35875000Y1337500D01*
G75*
G02*
X35637500Y1100000I-237500J0D01*
G01*
G37*
%TD*%
D10*
%TO.C,X1*%
G36*
X32053464Y8592373D02*
G01*
X31275647Y9370190D01*
X32194886Y10289429D01*
X32972703Y9511612D01*
X32053464Y8592373D01*
G37*
G36*
X33538388Y10077297D02*
G01*
X32760571Y10855114D01*
X33679810Y11774353D01*
X34457627Y10996536D01*
X33538388Y10077297D01*
G37*
G36*
X34705114Y8910571D02*
G01*
X33927297Y9688388D01*
X34846536Y10607627D01*
X35624353Y9829810D01*
X34705114Y8910571D01*
G37*
G36*
X33220190Y7425647D02*
G01*
X32442373Y8203464D01*
X33361612Y9122703D01*
X34139429Y8344886D01*
X33220190Y7425647D01*
G37*
%TD*%
D14*
%TO.C,U2*%
X46656854Y17050000D03*
X46091169Y17615685D03*
X45525483Y18181371D03*
X44959798Y18747056D03*
X44394113Y19312742D03*
X43828427Y19878427D03*
X43262742Y20444113D03*
X42697056Y21009798D03*
X42131371Y21575483D03*
X41565685Y22141169D03*
X41000000Y22706854D03*
X46091169Y16484315D03*
X45525483Y17050000D03*
X44959798Y17615685D03*
X44394113Y18181371D03*
X43828427Y18747056D03*
X43262742Y19312742D03*
X42697056Y19878427D03*
X42131371Y20444113D03*
X41565685Y21009798D03*
X41000000Y21575483D03*
X40434315Y22141169D03*
X45525483Y15918629D03*
X44959798Y16484315D03*
X44394113Y17050000D03*
X43828427Y17615685D03*
X43262742Y18181371D03*
X42697056Y18747056D03*
X42131371Y19312742D03*
X41565685Y19878427D03*
X41000000Y20444113D03*
X40434315Y21009798D03*
X39868629Y21575483D03*
X44959798Y15352944D03*
X44394113Y15918629D03*
X43828427Y16484315D03*
X43262742Y17050000D03*
X42697056Y17615685D03*
X42131371Y18181371D03*
X41565685Y18747056D03*
X41000000Y19312742D03*
X40434315Y19878427D03*
X39868629Y20444113D03*
X39302944Y21009798D03*
X44394113Y14787258D03*
X43828427Y15352944D03*
X43262742Y15918629D03*
X42697056Y16484315D03*
X42131371Y17050000D03*
X41565685Y17615685D03*
X41000000Y18181371D03*
X40434315Y18747056D03*
X39868629Y19312742D03*
X39302944Y19878427D03*
X38737258Y20444113D03*
X43828427Y14221573D03*
X43262742Y14787258D03*
X42697056Y15352944D03*
X42131371Y15918629D03*
X41565685Y16484315D03*
X41000000Y17050000D03*
X40434315Y17615685D03*
X39868629Y18181371D03*
X39302944Y18747056D03*
X38737258Y19312742D03*
X38171573Y19878427D03*
X43262742Y13655887D03*
X42697056Y14221573D03*
X42131371Y14787258D03*
X41565685Y15352944D03*
X41000000Y15918629D03*
X40434315Y16484315D03*
X39868629Y17050000D03*
X39302944Y17615685D03*
X38737258Y18181371D03*
X38171573Y18747056D03*
X37605887Y19312742D03*
X42697056Y13090202D03*
X42131371Y13655887D03*
X41565685Y14221573D03*
X41000000Y14787258D03*
X40434315Y15352944D03*
X39868629Y15918629D03*
X39302944Y16484315D03*
X38737258Y17050000D03*
X38171573Y17615685D03*
X37605887Y18181371D03*
X37040202Y18747056D03*
X42131371Y12524517D03*
X41565685Y13090202D03*
X41000000Y13655887D03*
X40434315Y14221573D03*
X39868629Y14787258D03*
X39302944Y15352944D03*
X38737258Y15918629D03*
X38171573Y16484315D03*
X37605887Y17050000D03*
X37040202Y17615685D03*
X36474517Y18181371D03*
X41565685Y11958831D03*
X41000000Y12524517D03*
X40434315Y13090202D03*
X39868629Y13655887D03*
X39302944Y14221573D03*
X38737258Y14787258D03*
X38171573Y15352944D03*
X37605887Y15918629D03*
X37040202Y16484315D03*
X36474517Y17050000D03*
X35908831Y17615685D03*
X41000000Y11393146D03*
X40434315Y11958831D03*
X39868629Y12524517D03*
X39302944Y13090202D03*
X38737258Y13655887D03*
X38171573Y14221573D03*
X37605887Y14787258D03*
X37040202Y15352944D03*
X36474517Y15918629D03*
X35908831Y16484315D03*
X35343146Y17050000D03*
%TD*%
%TO.C,U27*%
G36*
G01*
X21974999Y14625000D02*
X22525001Y14625000D01*
G75*
G02*
X22775000Y14375001I0J-249999D01*
G01*
X22775000Y13824999D01*
G75*
G02*
X22525001Y13575000I-249999J0D01*
G01*
X21974999Y13575000D01*
G75*
G02*
X21725000Y13824999I0J249999D01*
G01*
X21725000Y14375001D01*
G75*
G02*
X21974999Y14625000I249999J0D01*
G01*
G37*
G36*
G01*
X23274999Y14625000D02*
X23825001Y14625000D01*
G75*
G02*
X24075000Y14375001I0J-249999D01*
G01*
X24075000Y13824999D01*
G75*
G02*
X23825001Y13575000I-249999J0D01*
G01*
X23274999Y13575000D01*
G75*
G02*
X23025000Y13824999I0J249999D01*
G01*
X23025000Y14375001D01*
G75*
G02*
X23274999Y14625000I249999J0D01*
G01*
G37*
G36*
G01*
X21974999Y15925000D02*
X22525001Y15925000D01*
G75*
G02*
X22775000Y15675001I0J-249999D01*
G01*
X22775000Y15124999D01*
G75*
G02*
X22525001Y14875000I-249999J0D01*
G01*
X21974999Y14875000D01*
G75*
G02*
X21725000Y15124999I0J249999D01*
G01*
X21725000Y15675001D01*
G75*
G02*
X21974999Y15925000I249999J0D01*
G01*
G37*
G36*
G01*
X23274999Y15925000D02*
X23825001Y15925000D01*
G75*
G02*
X24075000Y15675001I0J-249999D01*
G01*
X24075000Y15124999D01*
G75*
G02*
X23825001Y14875000I-249999J0D01*
G01*
X23274999Y14875000D01*
G75*
G02*
X23025000Y15124999I0J249999D01*
G01*
X23025000Y15675001D01*
G75*
G02*
X23274999Y15925000I249999J0D01*
G01*
G37*
G36*
G01*
X24487500Y16125000D02*
X25187500Y16125000D01*
G75*
G02*
X25250000Y16062500I0J-62500D01*
G01*
X25250000Y15937500D01*
G75*
G02*
X25187500Y15875000I-62500J0D01*
G01*
X24487500Y15875000D01*
G75*
G02*
X24425000Y15937500I0J62500D01*
G01*
X24425000Y16062500D01*
G75*
G02*
X24487500Y16125000I62500J0D01*
G01*
G37*
G36*
G01*
X24487500Y15625000D02*
X25187500Y15625000D01*
G75*
G02*
X25250000Y15562500I0J-62500D01*
G01*
X25250000Y15437500D01*
G75*
G02*
X25187500Y15375000I-62500J0D01*
G01*
X24487500Y15375000D01*
G75*
G02*
X24425000Y15437500I0J62500D01*
G01*
X24425000Y15562500D01*
G75*
G02*
X24487500Y15625000I62500J0D01*
G01*
G37*
G36*
G01*
X24487500Y15125000D02*
X25187500Y15125000D01*
G75*
G02*
X25250000Y15062500I0J-62500D01*
G01*
X25250000Y14937500D01*
G75*
G02*
X25187500Y14875000I-62500J0D01*
G01*
X24487500Y14875000D01*
G75*
G02*
X24425000Y14937500I0J62500D01*
G01*
X24425000Y15062500D01*
G75*
G02*
X24487500Y15125000I62500J0D01*
G01*
G37*
G36*
G01*
X24487500Y14625000D02*
X25187500Y14625000D01*
G75*
G02*
X25250000Y14562500I0J-62500D01*
G01*
X25250000Y14437500D01*
G75*
G02*
X25187500Y14375000I-62500J0D01*
G01*
X24487500Y14375000D01*
G75*
G02*
X24425000Y14437500I0J62500D01*
G01*
X24425000Y14562500D01*
G75*
G02*
X24487500Y14625000I62500J0D01*
G01*
G37*
G36*
G01*
X24487500Y14125000D02*
X25187500Y14125000D01*
G75*
G02*
X25250000Y14062500I0J-62500D01*
G01*
X25250000Y13937500D01*
G75*
G02*
X25187500Y13875000I-62500J0D01*
G01*
X24487500Y13875000D01*
G75*
G02*
X24425000Y13937500I0J62500D01*
G01*
X24425000Y14062500D01*
G75*
G02*
X24487500Y14125000I62500J0D01*
G01*
G37*
G36*
G01*
X24487500Y13625000D02*
X25187500Y13625000D01*
G75*
G02*
X25250000Y13562500I0J-62500D01*
G01*
X25250000Y13437500D01*
G75*
G02*
X25187500Y13375000I-62500J0D01*
G01*
X24487500Y13375000D01*
G75*
G02*
X24425000Y13437500I0J62500D01*
G01*
X24425000Y13562500D01*
G75*
G02*
X24487500Y13625000I62500J0D01*
G01*
G37*
G36*
G01*
X24087500Y13225000D02*
X24212500Y13225000D01*
G75*
G02*
X24275000Y13162500I0J-62500D01*
G01*
X24275000Y12462500D01*
G75*
G02*
X24212500Y12400000I-62500J0D01*
G01*
X24087500Y12400000D01*
G75*
G02*
X24025000Y12462500I0J62500D01*
G01*
X24025000Y13162500D01*
G75*
G02*
X24087500Y13225000I62500J0D01*
G01*
G37*
G36*
G01*
X23587500Y13225000D02*
X23712500Y13225000D01*
G75*
G02*
X23775000Y13162500I0J-62500D01*
G01*
X23775000Y12462500D01*
G75*
G02*
X23712500Y12400000I-62500J0D01*
G01*
X23587500Y12400000D01*
G75*
G02*
X23525000Y12462500I0J62500D01*
G01*
X23525000Y13162500D01*
G75*
G02*
X23587500Y13225000I62500J0D01*
G01*
G37*
G36*
G01*
X23087500Y13225000D02*
X23212500Y13225000D01*
G75*
G02*
X23275000Y13162500I0J-62500D01*
G01*
X23275000Y12462500D01*
G75*
G02*
X23212500Y12400000I-62500J0D01*
G01*
X23087500Y12400000D01*
G75*
G02*
X23025000Y12462500I0J62500D01*
G01*
X23025000Y13162500D01*
G75*
G02*
X23087500Y13225000I62500J0D01*
G01*
G37*
G36*
G01*
X22587500Y13225000D02*
X22712500Y13225000D01*
G75*
G02*
X22775000Y13162500I0J-62500D01*
G01*
X22775000Y12462500D01*
G75*
G02*
X22712500Y12400000I-62500J0D01*
G01*
X22587500Y12400000D01*
G75*
G02*
X22525000Y12462500I0J62500D01*
G01*
X22525000Y13162500D01*
G75*
G02*
X22587500Y13225000I62500J0D01*
G01*
G37*
G36*
G01*
X22087500Y13225000D02*
X22212500Y13225000D01*
G75*
G02*
X22275000Y13162500I0J-62500D01*
G01*
X22275000Y12462500D01*
G75*
G02*
X22212500Y12400000I-62500J0D01*
G01*
X22087500Y12400000D01*
G75*
G02*
X22025000Y12462500I0J62500D01*
G01*
X22025000Y13162500D01*
G75*
G02*
X22087500Y13225000I62500J0D01*
G01*
G37*
G36*
G01*
X21587500Y13225000D02*
X21712500Y13225000D01*
G75*
G02*
X21775000Y13162500I0J-62500D01*
G01*
X21775000Y12462500D01*
G75*
G02*
X21712500Y12400000I-62500J0D01*
G01*
X21587500Y12400000D01*
G75*
G02*
X21525000Y12462500I0J62500D01*
G01*
X21525000Y13162500D01*
G75*
G02*
X21587500Y13225000I62500J0D01*
G01*
G37*
G36*
G01*
X20612500Y13625000D02*
X21312500Y13625000D01*
G75*
G02*
X21375000Y13562500I0J-62500D01*
G01*
X21375000Y13437500D01*
G75*
G02*
X21312500Y13375000I-62500J0D01*
G01*
X20612500Y13375000D01*
G75*
G02*
X20550000Y13437500I0J62500D01*
G01*
X20550000Y13562500D01*
G75*
G02*
X20612500Y13625000I62500J0D01*
G01*
G37*
G36*
G01*
X20612500Y14125000D02*
X21312500Y14125000D01*
G75*
G02*
X21375000Y14062500I0J-62500D01*
G01*
X21375000Y13937500D01*
G75*
G02*
X21312500Y13875000I-62500J0D01*
G01*
X20612500Y13875000D01*
G75*
G02*
X20550000Y13937500I0J62500D01*
G01*
X20550000Y14062500D01*
G75*
G02*
X20612500Y14125000I62500J0D01*
G01*
G37*
G36*
G01*
X20612500Y14625000D02*
X21312500Y14625000D01*
G75*
G02*
X21375000Y14562500I0J-62500D01*
G01*
X21375000Y14437500D01*
G75*
G02*
X21312500Y14375000I-62500J0D01*
G01*
X20612500Y14375000D01*
G75*
G02*
X20550000Y14437500I0J62500D01*
G01*
X20550000Y14562500D01*
G75*
G02*
X20612500Y14625000I62500J0D01*
G01*
G37*
G36*
G01*
X20612500Y15125000D02*
X21312500Y15125000D01*
G75*
G02*
X21375000Y15062500I0J-62500D01*
G01*
X21375000Y14937500D01*
G75*
G02*
X21312500Y14875000I-62500J0D01*
G01*
X20612500Y14875000D01*
G75*
G02*
X20550000Y14937500I0J62500D01*
G01*
X20550000Y15062500D01*
G75*
G02*
X20612500Y15125000I62500J0D01*
G01*
G37*
G36*
G01*
X20612500Y15625000D02*
X21312500Y15625000D01*
G75*
G02*
X21375000Y15562500I0J-62500D01*
G01*
X21375000Y15437500D01*
G75*
G02*
X21312500Y15375000I-62500J0D01*
G01*
X20612500Y15375000D01*
G75*
G02*
X20550000Y15437500I0J62500D01*
G01*
X20550000Y15562500D01*
G75*
G02*
X20612500Y15625000I62500J0D01*
G01*
G37*
G36*
G01*
X20612500Y16125000D02*
X21312500Y16125000D01*
G75*
G02*
X21375000Y16062500I0J-62500D01*
G01*
X21375000Y15937500D01*
G75*
G02*
X21312500Y15875000I-62500J0D01*
G01*
X20612500Y15875000D01*
G75*
G02*
X20550000Y15937500I0J62500D01*
G01*
X20550000Y16062500D01*
G75*
G02*
X20612500Y16125000I62500J0D01*
G01*
G37*
G36*
G01*
X21587500Y17100000D02*
X21712500Y17100000D01*
G75*
G02*
X21775000Y17037500I0J-62500D01*
G01*
X21775000Y16337500D01*
G75*
G02*
X21712500Y16275000I-62500J0D01*
G01*
X21587500Y16275000D01*
G75*
G02*
X21525000Y16337500I0J62500D01*
G01*
X21525000Y17037500D01*
G75*
G02*
X21587500Y17100000I62500J0D01*
G01*
G37*
G36*
G01*
X22087500Y17100000D02*
X22212500Y17100000D01*
G75*
G02*
X22275000Y17037500I0J-62500D01*
G01*
X22275000Y16337500D01*
G75*
G02*
X22212500Y16275000I-62500J0D01*
G01*
X22087500Y16275000D01*
G75*
G02*
X22025000Y16337500I0J62500D01*
G01*
X22025000Y17037500D01*
G75*
G02*
X22087500Y17100000I62500J0D01*
G01*
G37*
G36*
G01*
X22587500Y17100000D02*
X22712500Y17100000D01*
G75*
G02*
X22775000Y17037500I0J-62500D01*
G01*
X22775000Y16337500D01*
G75*
G02*
X22712500Y16275000I-62500J0D01*
G01*
X22587500Y16275000D01*
G75*
G02*
X22525000Y16337500I0J62500D01*
G01*
X22525000Y17037500D01*
G75*
G02*
X22587500Y17100000I62500J0D01*
G01*
G37*
G36*
G01*
X23087500Y17100000D02*
X23212500Y17100000D01*
G75*
G02*
X23275000Y17037500I0J-62500D01*
G01*
X23275000Y16337500D01*
G75*
G02*
X23212500Y16275000I-62500J0D01*
G01*
X23087500Y16275000D01*
G75*
G02*
X23025000Y16337500I0J62500D01*
G01*
X23025000Y17037500D01*
G75*
G02*
X23087500Y17100000I62500J0D01*
G01*
G37*
G36*
G01*
X23587500Y17100000D02*
X23712500Y17100000D01*
G75*
G02*
X23775000Y17037500I0J-62500D01*
G01*
X23775000Y16337500D01*
G75*
G02*
X23712500Y16275000I-62500J0D01*
G01*
X23587500Y16275000D01*
G75*
G02*
X23525000Y16337500I0J62500D01*
G01*
X23525000Y17037500D01*
G75*
G02*
X23587500Y17100000I62500J0D01*
G01*
G37*
G36*
G01*
X24087500Y17100000D02*
X24212500Y17100000D01*
G75*
G02*
X24275000Y17037500I0J-62500D01*
G01*
X24275000Y16337500D01*
G75*
G02*
X24212500Y16275000I-62500J0D01*
G01*
X24087500Y16275000D01*
G75*
G02*
X24025000Y16337500I0J62500D01*
G01*
X24025000Y17037500D01*
G75*
G02*
X24087500Y17100000I62500J0D01*
G01*
G37*
%TD*%
D15*
%TO.C,J3*%
X57860000Y7815000D03*
X57860000Y11885000D03*
X59130000Y7815000D03*
X59130000Y11885000D03*
X60400000Y7815000D03*
X60400000Y11885000D03*
X61670000Y7815000D03*
X61670000Y11885000D03*
X62940000Y7815000D03*
X62940000Y11885000D03*
%TD*%
%TO.C,C41*%
G36*
G01*
X11525000Y6025001D02*
X13675000Y6025001D01*
G75*
G02*
X13925000Y5775001I0J-250000D01*
G01*
X13925000Y5025001D01*
G75*
G02*
X13675000Y4775001I-250000J0D01*
G01*
X11525000Y4775001D01*
G75*
G02*
X11275000Y5025001I0J250000D01*
G01*
X11275000Y5775001D01*
G75*
G02*
X11525000Y6025001I250000J0D01*
G01*
G37*
G36*
G01*
X11525000Y8825001D02*
X13675000Y8825001D01*
G75*
G02*
X13925000Y8575001I0J-250000D01*
G01*
X13925000Y7825001D01*
G75*
G02*
X13675000Y7575001I-250000J0D01*
G01*
X11525000Y7575001D01*
G75*
G02*
X11275000Y7825001I0J250000D01*
G01*
X11275000Y8575001D01*
G75*
G02*
X11525000Y8825001I250000J0D01*
G01*
G37*
%TD*%
%TO.C,C36*%
G36*
G01*
X16860000Y11422500D02*
X16860000Y11077500D01*
G75*
G02*
X16712500Y10930000I-147500J0D01*
G01*
X16417500Y10930000D01*
G75*
G02*
X16270000Y11077500I0J147500D01*
G01*
X16270000Y11422500D01*
G75*
G02*
X16417500Y11570000I147500J0D01*
G01*
X16712500Y11570000D01*
G75*
G02*
X16860000Y11422500I0J-147500D01*
G01*
G37*
G36*
G01*
X17830000Y11422500D02*
X17830000Y11077500D01*
G75*
G02*
X17682500Y10930000I-147500J0D01*
G01*
X17387500Y10930000D01*
G75*
G02*
X17240000Y11077500I0J147500D01*
G01*
X17240000Y11422500D01*
G75*
G02*
X17387500Y11570000I147500J0D01*
G01*
X17682500Y11570000D01*
G75*
G02*
X17830000Y11422500I0J-147500D01*
G01*
G37*
%TD*%
%TO.C,C35*%
G36*
G01*
X19140000Y11077500D02*
X19140000Y11422500D01*
G75*
G02*
X19287500Y11570000I147500J0D01*
G01*
X19582500Y11570000D01*
G75*
G02*
X19730000Y11422500I0J-147500D01*
G01*
X19730000Y11077500D01*
G75*
G02*
X19582500Y10930000I-147500J0D01*
G01*
X19287500Y10930000D01*
G75*
G02*
X19140000Y11077500I0J147500D01*
G01*
G37*
G36*
G01*
X18170000Y11077500D02*
X18170000Y11422500D01*
G75*
G02*
X18317500Y11570000I147500J0D01*
G01*
X18612500Y11570000D01*
G75*
G02*
X18760000Y11422500I0J-147500D01*
G01*
X18760000Y11077500D01*
G75*
G02*
X18612500Y10930000I-147500J0D01*
G01*
X18317500Y10930000D01*
G75*
G02*
X18170000Y11077500I0J147500D01*
G01*
G37*
%TD*%
D10*
%TO.C,U1*%
G36*
X49900961Y11509755D02*
G01*
X49903806Y11519134D01*
X49908427Y11527779D01*
X49914645Y11535355D01*
X49922221Y11541573D01*
X49930866Y11546194D01*
X49940245Y11549039D01*
X49950000Y11550000D01*
X54250000Y11550000D01*
X54259755Y11549039D01*
X54269134Y11546194D01*
X54277779Y11541573D01*
X54285355Y11535355D01*
X54291573Y11527779D01*
X54296194Y11519134D01*
X54299039Y11509755D01*
X54300000Y11500000D01*
X54300000Y8100000D01*
X54299039Y8090245D01*
X54296194Y8080866D01*
X54291573Y8072221D01*
X54285355Y8064645D01*
X54277779Y8058427D01*
X54269134Y8053806D01*
X54259755Y8050961D01*
X54250000Y8050000D01*
X50450000Y8050000D01*
X50440245Y8050961D01*
X50430866Y8053806D01*
X50422221Y8058427D01*
X50414645Y8064645D01*
X49914645Y8564645D01*
X49908427Y8572221D01*
X49903806Y8580866D01*
X49900961Y8590245D01*
X49900000Y8600000D01*
X49900000Y11500000D01*
X49900961Y11509755D01*
G37*
G36*
G01*
X51495000Y13300000D02*
X51245000Y13300000D01*
G75*
G02*
X51120000Y13425000I0J125000D01*
G01*
X51120000Y13975000D01*
G75*
G02*
X51245000Y14100000I125000J0D01*
G01*
X51495000Y14100000D01*
G75*
G02*
X51620000Y13975000I0J-125000D01*
G01*
X51620000Y13425000D01*
G75*
G02*
X51495000Y13300000I-125000J0D01*
G01*
G37*
G36*
G01*
X54035000Y13300000D02*
X53785000Y13300000D01*
G75*
G02*
X53660000Y13425000I0J125000D01*
G01*
X53660000Y13975000D01*
G75*
G02*
X53785000Y14100000I125000J0D01*
G01*
X54035000Y14100000D01*
G75*
G02*
X54160000Y13975000I0J-125000D01*
G01*
X54160000Y13425000D01*
G75*
G02*
X54035000Y13300000I-125000J0D01*
G01*
G37*
G36*
G01*
X52765000Y13300000D02*
X52515000Y13300000D01*
G75*
G02*
X52390000Y13425000I0J125000D01*
G01*
X52390000Y13975000D01*
G75*
G02*
X52515000Y14100000I125000J0D01*
G01*
X52765000Y14100000D01*
G75*
G02*
X52890000Y13975000I0J-125000D01*
G01*
X52890000Y13425000D01*
G75*
G02*
X52765000Y13300000I-125000J0D01*
G01*
G37*
G36*
G01*
X50225000Y13300000D02*
X49975000Y13300000D01*
G75*
G02*
X49850000Y13425000I0J125000D01*
G01*
X49850000Y13975000D01*
G75*
G02*
X49975000Y14100000I125000J0D01*
G01*
X50225000Y14100000D01*
G75*
G02*
X50350000Y13975000I0J-125000D01*
G01*
X50350000Y13425000D01*
G75*
G02*
X50225000Y13300000I-125000J0D01*
G01*
G37*
G36*
G01*
X54035000Y5200000D02*
X53785000Y5200000D01*
G75*
G02*
X53660000Y5325000I0J125000D01*
G01*
X53660000Y5875000D01*
G75*
G02*
X53785000Y6000000I125000J0D01*
G01*
X54035000Y6000000D01*
G75*
G02*
X54160000Y5875000I0J-125000D01*
G01*
X54160000Y5325000D01*
G75*
G02*
X54035000Y5200000I-125000J0D01*
G01*
G37*
G36*
G01*
X52765000Y5200000D02*
X52515000Y5200000D01*
G75*
G02*
X52390000Y5325000I0J125000D01*
G01*
X52390000Y5875000D01*
G75*
G02*
X52515000Y6000000I125000J0D01*
G01*
X52765000Y6000000D01*
G75*
G02*
X52890000Y5875000I0J-125000D01*
G01*
X52890000Y5325000D01*
G75*
G02*
X52765000Y5200000I-125000J0D01*
G01*
G37*
G36*
G01*
X51495000Y5200000D02*
X51245000Y5200000D01*
G75*
G02*
X51120000Y5325000I0J125000D01*
G01*
X51120000Y5875000D01*
G75*
G02*
X51245000Y6000000I125000J0D01*
G01*
X51495000Y6000000D01*
G75*
G02*
X51620000Y5875000I0J-125000D01*
G01*
X51620000Y5325000D01*
G75*
G02*
X51495000Y5200000I-125000J0D01*
G01*
G37*
G36*
G01*
X50225000Y5200000D02*
X49975000Y5200000D01*
G75*
G02*
X49850000Y5325000I0J125000D01*
G01*
X49850000Y5875000D01*
G75*
G02*
X49975000Y6000000I125000J0D01*
G01*
X50225000Y6000000D01*
G75*
G02*
X50350000Y5875000I0J-125000D01*
G01*
X50350000Y5325000D01*
G75*
G02*
X50225000Y5200000I-125000J0D01*
G01*
G37*
%TD*%
%TO.C,J1*%
G36*
G01*
X27200000Y700000D02*
X27200000Y2500000D01*
G75*
G02*
X27400000Y2700000I200000J0D01*
G01*
X28600000Y2700000D01*
G75*
G02*
X28800000Y2500000I0J-200000D01*
G01*
X28800000Y700000D01*
G75*
G02*
X28600000Y500000I-200000J0D01*
G01*
X27400000Y500000D01*
G75*
G02*
X27200000Y700000I0J200000D01*
G01*
G37*
G36*
G01*
X27200000Y4400000D02*
X27200000Y6200000D01*
G75*
G02*
X27400000Y6400000I200000J0D01*
G01*
X28600000Y6400000D01*
G75*
G02*
X28800000Y6200000I0J-200000D01*
G01*
X28800000Y4400000D01*
G75*
G02*
X28600000Y4200000I-200000J0D01*
G01*
X27400000Y4200000D01*
G75*
G02*
X27200000Y4400000I0J200000D01*
G01*
G37*
G36*
G01*
X17000000Y4400000D02*
X17000000Y6200000D01*
G75*
G02*
X17200000Y6400000I200000J0D01*
G01*
X18400000Y6400000D01*
G75*
G02*
X18600000Y6200000I0J-200000D01*
G01*
X18600000Y4400000D01*
G75*
G02*
X18400000Y4200000I-200000J0D01*
G01*
X17200000Y4200000D01*
G75*
G02*
X17000000Y4400000I0J200000D01*
G01*
G37*
G36*
G01*
X17000000Y700000D02*
X17000000Y2500000D01*
G75*
G02*
X17200000Y2700000I200000J0D01*
G01*
X18400000Y2700000D01*
G75*
G02*
X18600000Y2500000I0J-200000D01*
G01*
X18600000Y700000D01*
G75*
G02*
X18400000Y500000I-200000J0D01*
G01*
X17200000Y500000D01*
G75*
G02*
X17000000Y700000I0J200000D01*
G01*
G37*
D16*
X25250000Y5700000D03*
X20550000Y5700000D03*
D17*
X21600000Y5700000D03*
X24200000Y5700000D03*
X23550000Y5700000D03*
X22900000Y5700000D03*
X22250000Y5700000D03*
%TD*%
%TO.C,R61*%
G36*
G01*
X64090000Y50327500D02*
X64090000Y50672500D01*
G75*
G02*
X64237500Y50820000I147500J0D01*
G01*
X64532500Y50820000D01*
G75*
G02*
X64680000Y50672500I0J-147500D01*
G01*
X64680000Y50327500D01*
G75*
G02*
X64532500Y50180000I-147500J0D01*
G01*
X64237500Y50180000D01*
G75*
G02*
X64090000Y50327500I0J147500D01*
G01*
G37*
G36*
G01*
X63120000Y50327500D02*
X63120000Y50672500D01*
G75*
G02*
X63267500Y50820000I147500J0D01*
G01*
X63562500Y50820000D01*
G75*
G02*
X63710000Y50672500I0J-147500D01*
G01*
X63710000Y50327500D01*
G75*
G02*
X63562500Y50180000I-147500J0D01*
G01*
X63267500Y50180000D01*
G75*
G02*
X63120000Y50327500I0J147500D01*
G01*
G37*
%TD*%
%TO.C,R58*%
G36*
G01*
X67540000Y50277500D02*
X67540000Y50622500D01*
G75*
G02*
X67687500Y50770000I147500J0D01*
G01*
X67982500Y50770000D01*
G75*
G02*
X68130000Y50622500I0J-147500D01*
G01*
X68130000Y50277500D01*
G75*
G02*
X67982500Y50130000I-147500J0D01*
G01*
X67687500Y50130000D01*
G75*
G02*
X67540000Y50277500I0J147500D01*
G01*
G37*
G36*
G01*
X66570000Y50277500D02*
X66570000Y50622500D01*
G75*
G02*
X66717500Y50770000I147500J0D01*
G01*
X67012500Y50770000D01*
G75*
G02*
X67160000Y50622500I0J-147500D01*
G01*
X67160000Y50277500D01*
G75*
G02*
X67012500Y50130000I-147500J0D01*
G01*
X66717500Y50130000D01*
G75*
G02*
X66570000Y50277500I0J147500D01*
G01*
G37*
%TD*%
%TO.C,R55*%
G36*
G01*
X70990000Y50277500D02*
X70990000Y50622500D01*
G75*
G02*
X71137500Y50770000I147500J0D01*
G01*
X71432500Y50770000D01*
G75*
G02*
X71580000Y50622500I0J-147500D01*
G01*
X71580000Y50277500D01*
G75*
G02*
X71432500Y50130000I-147500J0D01*
G01*
X71137500Y50130000D01*
G75*
G02*
X70990000Y50277500I0J147500D01*
G01*
G37*
G36*
G01*
X70020000Y50277500D02*
X70020000Y50622500D01*
G75*
G02*
X70167500Y50770000I147500J0D01*
G01*
X70462500Y50770000D01*
G75*
G02*
X70610000Y50622500I0J-147500D01*
G01*
X70610000Y50277500D01*
G75*
G02*
X70462500Y50130000I-147500J0D01*
G01*
X70167500Y50130000D01*
G75*
G02*
X70020000Y50277500I0J147500D01*
G01*
G37*
%TD*%
%TO.C,R52*%
G36*
G01*
X53690000Y50327500D02*
X53690000Y50672500D01*
G75*
G02*
X53837500Y50820000I147500J0D01*
G01*
X54132500Y50820000D01*
G75*
G02*
X54280000Y50672500I0J-147500D01*
G01*
X54280000Y50327500D01*
G75*
G02*
X54132500Y50180000I-147500J0D01*
G01*
X53837500Y50180000D01*
G75*
G02*
X53690000Y50327500I0J147500D01*
G01*
G37*
G36*
G01*
X52720000Y50327500D02*
X52720000Y50672500D01*
G75*
G02*
X52867500Y50820000I147500J0D01*
G01*
X53162500Y50820000D01*
G75*
G02*
X53310000Y50672500I0J-147500D01*
G01*
X53310000Y50327500D01*
G75*
G02*
X53162500Y50180000I-147500J0D01*
G01*
X52867500Y50180000D01*
G75*
G02*
X52720000Y50327500I0J147500D01*
G01*
G37*
%TD*%
%TO.C,R49*%
G36*
G01*
X57140000Y50327500D02*
X57140000Y50672500D01*
G75*
G02*
X57287500Y50820000I147500J0D01*
G01*
X57582500Y50820000D01*
G75*
G02*
X57730000Y50672500I0J-147500D01*
G01*
X57730000Y50327500D01*
G75*
G02*
X57582500Y50180000I-147500J0D01*
G01*
X57287500Y50180000D01*
G75*
G02*
X57140000Y50327500I0J147500D01*
G01*
G37*
G36*
G01*
X56170000Y50327500D02*
X56170000Y50672500D01*
G75*
G02*
X56317500Y50820000I147500J0D01*
G01*
X56612500Y50820000D01*
G75*
G02*
X56760000Y50672500I0J-147500D01*
G01*
X56760000Y50327500D01*
G75*
G02*
X56612500Y50180000I-147500J0D01*
G01*
X56317500Y50180000D01*
G75*
G02*
X56170000Y50327500I0J147500D01*
G01*
G37*
%TD*%
%TO.C,R46*%
G36*
G01*
X60590000Y50327500D02*
X60590000Y50672500D01*
G75*
G02*
X60737500Y50820000I147500J0D01*
G01*
X61032500Y50820000D01*
G75*
G02*
X61180000Y50672500I0J-147500D01*
G01*
X61180000Y50327500D01*
G75*
G02*
X61032500Y50180000I-147500J0D01*
G01*
X60737500Y50180000D01*
G75*
G02*
X60590000Y50327500I0J147500D01*
G01*
G37*
G36*
G01*
X59620000Y50327500D02*
X59620000Y50672500D01*
G75*
G02*
X59767500Y50820000I147500J0D01*
G01*
X60062500Y50820000D01*
G75*
G02*
X60210000Y50672500I0J-147500D01*
G01*
X60210000Y50327500D01*
G75*
G02*
X60062500Y50180000I-147500J0D01*
G01*
X59767500Y50180000D01*
G75*
G02*
X59620000Y50327500I0J147500D01*
G01*
G37*
%TD*%
%TO.C,R43*%
G36*
G01*
X43290000Y50327500D02*
X43290000Y50672500D01*
G75*
G02*
X43437500Y50820000I147500J0D01*
G01*
X43732500Y50820000D01*
G75*
G02*
X43880000Y50672500I0J-147500D01*
G01*
X43880000Y50327500D01*
G75*
G02*
X43732500Y50180000I-147500J0D01*
G01*
X43437500Y50180000D01*
G75*
G02*
X43290000Y50327500I0J147500D01*
G01*
G37*
G36*
G01*
X42320000Y50327500D02*
X42320000Y50672500D01*
G75*
G02*
X42467500Y50820000I147500J0D01*
G01*
X42762500Y50820000D01*
G75*
G02*
X42910000Y50672500I0J-147500D01*
G01*
X42910000Y50327500D01*
G75*
G02*
X42762500Y50180000I-147500J0D01*
G01*
X42467500Y50180000D01*
G75*
G02*
X42320000Y50327500I0J147500D01*
G01*
G37*
%TD*%
%TO.C,R40*%
G36*
G01*
X46740000Y50327500D02*
X46740000Y50672500D01*
G75*
G02*
X46887500Y50820000I147500J0D01*
G01*
X47182500Y50820000D01*
G75*
G02*
X47330000Y50672500I0J-147500D01*
G01*
X47330000Y50327500D01*
G75*
G02*
X47182500Y50180000I-147500J0D01*
G01*
X46887500Y50180000D01*
G75*
G02*
X46740000Y50327500I0J147500D01*
G01*
G37*
G36*
G01*
X45770000Y50327500D02*
X45770000Y50672500D01*
G75*
G02*
X45917500Y50820000I147500J0D01*
G01*
X46212500Y50820000D01*
G75*
G02*
X46360000Y50672500I0J-147500D01*
G01*
X46360000Y50327500D01*
G75*
G02*
X46212500Y50180000I-147500J0D01*
G01*
X45917500Y50180000D01*
G75*
G02*
X45770000Y50327500I0J147500D01*
G01*
G37*
%TD*%
%TO.C,R37*%
G36*
G01*
X50190000Y50327500D02*
X50190000Y50672500D01*
G75*
G02*
X50337500Y50820000I147500J0D01*
G01*
X50632500Y50820000D01*
G75*
G02*
X50780000Y50672500I0J-147500D01*
G01*
X50780000Y50327500D01*
G75*
G02*
X50632500Y50180000I-147500J0D01*
G01*
X50337500Y50180000D01*
G75*
G02*
X50190000Y50327500I0J147500D01*
G01*
G37*
G36*
G01*
X49220000Y50327500D02*
X49220000Y50672500D01*
G75*
G02*
X49367500Y50820000I147500J0D01*
G01*
X49662500Y50820000D01*
G75*
G02*
X49810000Y50672500I0J-147500D01*
G01*
X49810000Y50327500D01*
G75*
G02*
X49662500Y50180000I-147500J0D01*
G01*
X49367500Y50180000D01*
G75*
G02*
X49220000Y50327500I0J147500D01*
G01*
G37*
%TD*%
%TO.C,R34*%
G36*
G01*
X32925000Y50327500D02*
X32925000Y50672500D01*
G75*
G02*
X33072500Y50820000I147500J0D01*
G01*
X33367500Y50820000D01*
G75*
G02*
X33515000Y50672500I0J-147500D01*
G01*
X33515000Y50327500D01*
G75*
G02*
X33367500Y50180000I-147500J0D01*
G01*
X33072500Y50180000D01*
G75*
G02*
X32925000Y50327500I0J147500D01*
G01*
G37*
G36*
G01*
X31955000Y50327500D02*
X31955000Y50672500D01*
G75*
G02*
X32102500Y50820000I147500J0D01*
G01*
X32397500Y50820000D01*
G75*
G02*
X32545000Y50672500I0J-147500D01*
G01*
X32545000Y50327500D01*
G75*
G02*
X32397500Y50180000I-147500J0D01*
G01*
X32102500Y50180000D01*
G75*
G02*
X31955000Y50327500I0J147500D01*
G01*
G37*
%TD*%
%TO.C,R31*%
G36*
G01*
X36340000Y50377500D02*
X36340000Y50722500D01*
G75*
G02*
X36487500Y50870000I147500J0D01*
G01*
X36782500Y50870000D01*
G75*
G02*
X36930000Y50722500I0J-147500D01*
G01*
X36930000Y50377500D01*
G75*
G02*
X36782500Y50230000I-147500J0D01*
G01*
X36487500Y50230000D01*
G75*
G02*
X36340000Y50377500I0J147500D01*
G01*
G37*
G36*
G01*
X35370000Y50377500D02*
X35370000Y50722500D01*
G75*
G02*
X35517500Y50870000I147500J0D01*
G01*
X35812500Y50870000D01*
G75*
G02*
X35960000Y50722500I0J-147500D01*
G01*
X35960000Y50377500D01*
G75*
G02*
X35812500Y50230000I-147500J0D01*
G01*
X35517500Y50230000D01*
G75*
G02*
X35370000Y50377500I0J147500D01*
G01*
G37*
%TD*%
%TO.C,R28*%
G36*
G01*
X39790000Y50377500D02*
X39790000Y50722500D01*
G75*
G02*
X39937500Y50870000I147500J0D01*
G01*
X40232500Y50870000D01*
G75*
G02*
X40380000Y50722500I0J-147500D01*
G01*
X40380000Y50377500D01*
G75*
G02*
X40232500Y50230000I-147500J0D01*
G01*
X39937500Y50230000D01*
G75*
G02*
X39790000Y50377500I0J147500D01*
G01*
G37*
G36*
G01*
X38820000Y50377500D02*
X38820000Y50722500D01*
G75*
G02*
X38967500Y50870000I147500J0D01*
G01*
X39262500Y50870000D01*
G75*
G02*
X39410000Y50722500I0J-147500D01*
G01*
X39410000Y50377500D01*
G75*
G02*
X39262500Y50230000I-147500J0D01*
G01*
X38967500Y50230000D01*
G75*
G02*
X38820000Y50377500I0J147500D01*
G01*
G37*
%TD*%
%TO.C,R25*%
G36*
G01*
X22490000Y50377500D02*
X22490000Y50722500D01*
G75*
G02*
X22637500Y50870000I147500J0D01*
G01*
X22932500Y50870000D01*
G75*
G02*
X23080000Y50722500I0J-147500D01*
G01*
X23080000Y50377500D01*
G75*
G02*
X22932500Y50230000I-147500J0D01*
G01*
X22637500Y50230000D01*
G75*
G02*
X22490000Y50377500I0J147500D01*
G01*
G37*
G36*
G01*
X21520000Y50377500D02*
X21520000Y50722500D01*
G75*
G02*
X21667500Y50870000I147500J0D01*
G01*
X21962500Y50870000D01*
G75*
G02*
X22110000Y50722500I0J-147500D01*
G01*
X22110000Y50377500D01*
G75*
G02*
X21962500Y50230000I-147500J0D01*
G01*
X21667500Y50230000D01*
G75*
G02*
X21520000Y50377500I0J147500D01*
G01*
G37*
%TD*%
%TO.C,R22*%
G36*
G01*
X25940000Y50377500D02*
X25940000Y50722500D01*
G75*
G02*
X26087500Y50870000I147500J0D01*
G01*
X26382500Y50870000D01*
G75*
G02*
X26530000Y50722500I0J-147500D01*
G01*
X26530000Y50377500D01*
G75*
G02*
X26382500Y50230000I-147500J0D01*
G01*
X26087500Y50230000D01*
G75*
G02*
X25940000Y50377500I0J147500D01*
G01*
G37*
G36*
G01*
X24970000Y50377500D02*
X24970000Y50722500D01*
G75*
G02*
X25117500Y50870000I147500J0D01*
G01*
X25412500Y50870000D01*
G75*
G02*
X25560000Y50722500I0J-147500D01*
G01*
X25560000Y50377500D01*
G75*
G02*
X25412500Y50230000I-147500J0D01*
G01*
X25117500Y50230000D01*
G75*
G02*
X24970000Y50377500I0J147500D01*
G01*
G37*
%TD*%
%TO.C,R19*%
G36*
G01*
X29390000Y50377500D02*
X29390000Y50722500D01*
G75*
G02*
X29537500Y50870000I147500J0D01*
G01*
X29832500Y50870000D01*
G75*
G02*
X29980000Y50722500I0J-147500D01*
G01*
X29980000Y50377500D01*
G75*
G02*
X29832500Y50230000I-147500J0D01*
G01*
X29537500Y50230000D01*
G75*
G02*
X29390000Y50377500I0J147500D01*
G01*
G37*
G36*
G01*
X28420000Y50377500D02*
X28420000Y50722500D01*
G75*
G02*
X28567500Y50870000I147500J0D01*
G01*
X28862500Y50870000D01*
G75*
G02*
X29010000Y50722500I0J-147500D01*
G01*
X29010000Y50377500D01*
G75*
G02*
X28862500Y50230000I-147500J0D01*
G01*
X28567500Y50230000D01*
G75*
G02*
X28420000Y50377500I0J147500D01*
G01*
G37*
%TD*%
%TO.C,R16*%
G36*
G01*
X12090000Y50377500D02*
X12090000Y50722500D01*
G75*
G02*
X12237500Y50870000I147500J0D01*
G01*
X12532500Y50870000D01*
G75*
G02*
X12680000Y50722500I0J-147500D01*
G01*
X12680000Y50377500D01*
G75*
G02*
X12532500Y50230000I-147500J0D01*
G01*
X12237500Y50230000D01*
G75*
G02*
X12090000Y50377500I0J147500D01*
G01*
G37*
G36*
G01*
X11120000Y50377500D02*
X11120000Y50722500D01*
G75*
G02*
X11267500Y50870000I147500J0D01*
G01*
X11562500Y50870000D01*
G75*
G02*
X11710000Y50722500I0J-147500D01*
G01*
X11710000Y50377500D01*
G75*
G02*
X11562500Y50230000I-147500J0D01*
G01*
X11267500Y50230000D01*
G75*
G02*
X11120000Y50377500I0J147500D01*
G01*
G37*
%TD*%
%TO.C,R13*%
G36*
G01*
X15540000Y50377500D02*
X15540000Y50722500D01*
G75*
G02*
X15687500Y50870000I147500J0D01*
G01*
X15982500Y50870000D01*
G75*
G02*
X16130000Y50722500I0J-147500D01*
G01*
X16130000Y50377500D01*
G75*
G02*
X15982500Y50230000I-147500J0D01*
G01*
X15687500Y50230000D01*
G75*
G02*
X15540000Y50377500I0J147500D01*
G01*
G37*
G36*
G01*
X14570000Y50377500D02*
X14570000Y50722500D01*
G75*
G02*
X14717500Y50870000I147500J0D01*
G01*
X15012500Y50870000D01*
G75*
G02*
X15160000Y50722500I0J-147500D01*
G01*
X15160000Y50377500D01*
G75*
G02*
X15012500Y50230000I-147500J0D01*
G01*
X14717500Y50230000D01*
G75*
G02*
X14570000Y50377500I0J147500D01*
G01*
G37*
%TD*%
%TO.C,R10*%
G36*
G01*
X18990000Y50377500D02*
X18990000Y50722500D01*
G75*
G02*
X19137500Y50870000I147500J0D01*
G01*
X19432500Y50870000D01*
G75*
G02*
X19580000Y50722500I0J-147500D01*
G01*
X19580000Y50377500D01*
G75*
G02*
X19432500Y50230000I-147500J0D01*
G01*
X19137500Y50230000D01*
G75*
G02*
X18990000Y50377500I0J147500D01*
G01*
G37*
G36*
G01*
X18020000Y50377500D02*
X18020000Y50722500D01*
G75*
G02*
X18167500Y50870000I147500J0D01*
G01*
X18462500Y50870000D01*
G75*
G02*
X18610000Y50722500I0J-147500D01*
G01*
X18610000Y50377500D01*
G75*
G02*
X18462500Y50230000I-147500J0D01*
G01*
X18167500Y50230000D01*
G75*
G02*
X18020000Y50377500I0J147500D01*
G01*
G37*
%TD*%
%TO.C,U26*%
G36*
G01*
X66660000Y37095000D02*
X66660000Y37805000D01*
G75*
G02*
X66730000Y37875000I70000J0D01*
G01*
X66870000Y37875000D01*
G75*
G02*
X66940000Y37805000I0J-70000D01*
G01*
X66940000Y37095000D01*
G75*
G02*
X66870000Y37025000I-70000J0D01*
G01*
X66730000Y37025000D01*
G75*
G02*
X66660000Y37095000I0J70000D01*
G01*
G37*
G36*
G01*
X67660000Y37095000D02*
X67660000Y37805000D01*
G75*
G02*
X67730000Y37875000I70000J0D01*
G01*
X67870000Y37875000D01*
G75*
G02*
X67940000Y37805000I0J-70000D01*
G01*
X67940000Y37095000D01*
G75*
G02*
X67870000Y37025000I-70000J0D01*
G01*
X67730000Y37025000D01*
G75*
G02*
X67660000Y37095000I0J70000D01*
G01*
G37*
G36*
G01*
X65160000Y37095000D02*
X65160000Y37805000D01*
G75*
G02*
X65230000Y37875000I70000J0D01*
G01*
X65370000Y37875000D01*
G75*
G02*
X65440000Y37805000I0J-70000D01*
G01*
X65440000Y37095000D01*
G75*
G02*
X65370000Y37025000I-70000J0D01*
G01*
X65230000Y37025000D01*
G75*
G02*
X65160000Y37095000I0J70000D01*
G01*
G37*
G36*
G01*
X67160000Y37095000D02*
X67160000Y37805000D01*
G75*
G02*
X67230000Y37875000I70000J0D01*
G01*
X67370000Y37875000D01*
G75*
G02*
X67440000Y37805000I0J-70000D01*
G01*
X67440000Y37095000D01*
G75*
G02*
X67370000Y37025000I-70000J0D01*
G01*
X67230000Y37025000D01*
G75*
G02*
X67160000Y37095000I0J70000D01*
G01*
G37*
G36*
G01*
X65660000Y37095000D02*
X65660000Y37805000D01*
G75*
G02*
X65730000Y37875000I70000J0D01*
G01*
X65870000Y37875000D01*
G75*
G02*
X65940000Y37805000I0J-70000D01*
G01*
X65940000Y37095000D01*
G75*
G02*
X65870000Y37025000I-70000J0D01*
G01*
X65730000Y37025000D01*
G75*
G02*
X65660000Y37095000I0J70000D01*
G01*
G37*
G36*
G01*
X66160000Y37095000D02*
X66160000Y37805000D01*
G75*
G02*
X66230000Y37875000I70000J0D01*
G01*
X66370000Y37875000D01*
G75*
G02*
X66440000Y37805000I0J-70000D01*
G01*
X66440000Y37095000D01*
G75*
G02*
X66370000Y37025000I-70000J0D01*
G01*
X66230000Y37025000D01*
G75*
G02*
X66160000Y37095000I0J70000D01*
G01*
G37*
G36*
G01*
X68175000Y35090000D02*
X68885000Y35090000D01*
G75*
G02*
X68955000Y35020000I0J-70000D01*
G01*
X68955000Y34880000D01*
G75*
G02*
X68885000Y34810000I-70000J0D01*
G01*
X68175000Y34810000D01*
G75*
G02*
X68105000Y34880000I0J70000D01*
G01*
X68105000Y35020000D01*
G75*
G02*
X68175000Y35090000I70000J0D01*
G01*
G37*
G36*
G01*
X68175000Y36590000D02*
X68885000Y36590000D01*
G75*
G02*
X68955000Y36520000I0J-70000D01*
G01*
X68955000Y36380000D01*
G75*
G02*
X68885000Y36310000I-70000J0D01*
G01*
X68175000Y36310000D01*
G75*
G02*
X68105000Y36380000I0J70000D01*
G01*
X68105000Y36520000D01*
G75*
G02*
X68175000Y36590000I70000J0D01*
G01*
G37*
G36*
G01*
X64215000Y35090000D02*
X64925000Y35090000D01*
G75*
G02*
X64995000Y35020000I0J-70000D01*
G01*
X64995000Y34880000D01*
G75*
G02*
X64925000Y34810000I-70000J0D01*
G01*
X64215000Y34810000D01*
G75*
G02*
X64145000Y34880000I0J70000D01*
G01*
X64145000Y35020000D01*
G75*
G02*
X64215000Y35090000I70000J0D01*
G01*
G37*
G36*
G01*
X64215000Y36590000D02*
X64925000Y36590000D01*
G75*
G02*
X64995000Y36520000I0J-70000D01*
G01*
X64995000Y36380000D01*
G75*
G02*
X64925000Y36310000I-70000J0D01*
G01*
X64215000Y36310000D01*
G75*
G02*
X64145000Y36380000I0J70000D01*
G01*
X64145000Y36520000D01*
G75*
G02*
X64215000Y36590000I70000J0D01*
G01*
G37*
G36*
G01*
X66660000Y33595000D02*
X66660000Y34305000D01*
G75*
G02*
X66730000Y34375000I70000J0D01*
G01*
X66870000Y34375000D01*
G75*
G02*
X66940000Y34305000I0J-70000D01*
G01*
X66940000Y33595000D01*
G75*
G02*
X66870000Y33525000I-70000J0D01*
G01*
X66730000Y33525000D01*
G75*
G02*
X66660000Y33595000I0J70000D01*
G01*
G37*
G36*
G01*
X66160000Y33595000D02*
X66160000Y34305000D01*
G75*
G02*
X66230000Y34375000I70000J0D01*
G01*
X66370000Y34375000D01*
G75*
G02*
X66440000Y34305000I0J-70000D01*
G01*
X66440000Y33595000D01*
G75*
G02*
X66370000Y33525000I-70000J0D01*
G01*
X66230000Y33525000D01*
G75*
G02*
X66160000Y33595000I0J70000D01*
G01*
G37*
G36*
G01*
X65660000Y33595000D02*
X65660000Y34305000D01*
G75*
G02*
X65730000Y34375000I70000J0D01*
G01*
X65870000Y34375000D01*
G75*
G02*
X65940000Y34305000I0J-70000D01*
G01*
X65940000Y33595000D01*
G75*
G02*
X65870000Y33525000I-70000J0D01*
G01*
X65730000Y33525000D01*
G75*
G02*
X65660000Y33595000I0J70000D01*
G01*
G37*
G36*
G01*
X65160000Y33595000D02*
X65160000Y34305000D01*
G75*
G02*
X65230000Y34375000I70000J0D01*
G01*
X65370000Y34375000D01*
G75*
G02*
X65440000Y34305000I0J-70000D01*
G01*
X65440000Y33595000D01*
G75*
G02*
X65370000Y33525000I-70000J0D01*
G01*
X65230000Y33525000D01*
G75*
G02*
X65160000Y33595000I0J70000D01*
G01*
G37*
G36*
G01*
X67660000Y33595000D02*
X67660000Y34305000D01*
G75*
G02*
X67730000Y34375000I70000J0D01*
G01*
X67870000Y34375000D01*
G75*
G02*
X67940000Y34305000I0J-70000D01*
G01*
X67940000Y33595000D01*
G75*
G02*
X67870000Y33525000I-70000J0D01*
G01*
X67730000Y33525000D01*
G75*
G02*
X67660000Y33595000I0J70000D01*
G01*
G37*
G36*
G01*
X67160000Y33595000D02*
X67160000Y34305000D01*
G75*
G02*
X67230000Y34375000I70000J0D01*
G01*
X67370000Y34375000D01*
G75*
G02*
X67440000Y34305000I0J-70000D01*
G01*
X67440000Y33595000D01*
G75*
G02*
X67370000Y33525000I-70000J0D01*
G01*
X67230000Y33525000D01*
G75*
G02*
X67160000Y33595000I0J70000D01*
G01*
G37*
%TD*%
%TO.C,U25*%
G36*
G01*
X56210000Y37145000D02*
X56210000Y37855000D01*
G75*
G02*
X56280000Y37925000I70000J0D01*
G01*
X56420000Y37925000D01*
G75*
G02*
X56490000Y37855000I0J-70000D01*
G01*
X56490000Y37145000D01*
G75*
G02*
X56420000Y37075000I-70000J0D01*
G01*
X56280000Y37075000D01*
G75*
G02*
X56210000Y37145000I0J70000D01*
G01*
G37*
G36*
G01*
X57210000Y37145000D02*
X57210000Y37855000D01*
G75*
G02*
X57280000Y37925000I70000J0D01*
G01*
X57420000Y37925000D01*
G75*
G02*
X57490000Y37855000I0J-70000D01*
G01*
X57490000Y37145000D01*
G75*
G02*
X57420000Y37075000I-70000J0D01*
G01*
X57280000Y37075000D01*
G75*
G02*
X57210000Y37145000I0J70000D01*
G01*
G37*
G36*
G01*
X54710000Y37145000D02*
X54710000Y37855000D01*
G75*
G02*
X54780000Y37925000I70000J0D01*
G01*
X54920000Y37925000D01*
G75*
G02*
X54990000Y37855000I0J-70000D01*
G01*
X54990000Y37145000D01*
G75*
G02*
X54920000Y37075000I-70000J0D01*
G01*
X54780000Y37075000D01*
G75*
G02*
X54710000Y37145000I0J70000D01*
G01*
G37*
G36*
G01*
X56710000Y37145000D02*
X56710000Y37855000D01*
G75*
G02*
X56780000Y37925000I70000J0D01*
G01*
X56920000Y37925000D01*
G75*
G02*
X56990000Y37855000I0J-70000D01*
G01*
X56990000Y37145000D01*
G75*
G02*
X56920000Y37075000I-70000J0D01*
G01*
X56780000Y37075000D01*
G75*
G02*
X56710000Y37145000I0J70000D01*
G01*
G37*
G36*
G01*
X55210000Y37145000D02*
X55210000Y37855000D01*
G75*
G02*
X55280000Y37925000I70000J0D01*
G01*
X55420000Y37925000D01*
G75*
G02*
X55490000Y37855000I0J-70000D01*
G01*
X55490000Y37145000D01*
G75*
G02*
X55420000Y37075000I-70000J0D01*
G01*
X55280000Y37075000D01*
G75*
G02*
X55210000Y37145000I0J70000D01*
G01*
G37*
G36*
G01*
X55710000Y37145000D02*
X55710000Y37855000D01*
G75*
G02*
X55780000Y37925000I70000J0D01*
G01*
X55920000Y37925000D01*
G75*
G02*
X55990000Y37855000I0J-70000D01*
G01*
X55990000Y37145000D01*
G75*
G02*
X55920000Y37075000I-70000J0D01*
G01*
X55780000Y37075000D01*
G75*
G02*
X55710000Y37145000I0J70000D01*
G01*
G37*
G36*
G01*
X57725000Y35140000D02*
X58435000Y35140000D01*
G75*
G02*
X58505000Y35070000I0J-70000D01*
G01*
X58505000Y34930000D01*
G75*
G02*
X58435000Y34860000I-70000J0D01*
G01*
X57725000Y34860000D01*
G75*
G02*
X57655000Y34930000I0J70000D01*
G01*
X57655000Y35070000D01*
G75*
G02*
X57725000Y35140000I70000J0D01*
G01*
G37*
G36*
G01*
X57725000Y36640000D02*
X58435000Y36640000D01*
G75*
G02*
X58505000Y36570000I0J-70000D01*
G01*
X58505000Y36430000D01*
G75*
G02*
X58435000Y36360000I-70000J0D01*
G01*
X57725000Y36360000D01*
G75*
G02*
X57655000Y36430000I0J70000D01*
G01*
X57655000Y36570000D01*
G75*
G02*
X57725000Y36640000I70000J0D01*
G01*
G37*
G36*
G01*
X53765000Y35140000D02*
X54475000Y35140000D01*
G75*
G02*
X54545000Y35070000I0J-70000D01*
G01*
X54545000Y34930000D01*
G75*
G02*
X54475000Y34860000I-70000J0D01*
G01*
X53765000Y34860000D01*
G75*
G02*
X53695000Y34930000I0J70000D01*
G01*
X53695000Y35070000D01*
G75*
G02*
X53765000Y35140000I70000J0D01*
G01*
G37*
G36*
G01*
X53765000Y36640000D02*
X54475000Y36640000D01*
G75*
G02*
X54545000Y36570000I0J-70000D01*
G01*
X54545000Y36430000D01*
G75*
G02*
X54475000Y36360000I-70000J0D01*
G01*
X53765000Y36360000D01*
G75*
G02*
X53695000Y36430000I0J70000D01*
G01*
X53695000Y36570000D01*
G75*
G02*
X53765000Y36640000I70000J0D01*
G01*
G37*
G36*
G01*
X56210000Y33645000D02*
X56210000Y34355000D01*
G75*
G02*
X56280000Y34425000I70000J0D01*
G01*
X56420000Y34425000D01*
G75*
G02*
X56490000Y34355000I0J-70000D01*
G01*
X56490000Y33645000D01*
G75*
G02*
X56420000Y33575000I-70000J0D01*
G01*
X56280000Y33575000D01*
G75*
G02*
X56210000Y33645000I0J70000D01*
G01*
G37*
G36*
G01*
X55710000Y33645000D02*
X55710000Y34355000D01*
G75*
G02*
X55780000Y34425000I70000J0D01*
G01*
X55920000Y34425000D01*
G75*
G02*
X55990000Y34355000I0J-70000D01*
G01*
X55990000Y33645000D01*
G75*
G02*
X55920000Y33575000I-70000J0D01*
G01*
X55780000Y33575000D01*
G75*
G02*
X55710000Y33645000I0J70000D01*
G01*
G37*
G36*
G01*
X55210000Y33645000D02*
X55210000Y34355000D01*
G75*
G02*
X55280000Y34425000I70000J0D01*
G01*
X55420000Y34425000D01*
G75*
G02*
X55490000Y34355000I0J-70000D01*
G01*
X55490000Y33645000D01*
G75*
G02*
X55420000Y33575000I-70000J0D01*
G01*
X55280000Y33575000D01*
G75*
G02*
X55210000Y33645000I0J70000D01*
G01*
G37*
G36*
G01*
X54710000Y33645000D02*
X54710000Y34355000D01*
G75*
G02*
X54780000Y34425000I70000J0D01*
G01*
X54920000Y34425000D01*
G75*
G02*
X54990000Y34355000I0J-70000D01*
G01*
X54990000Y33645000D01*
G75*
G02*
X54920000Y33575000I-70000J0D01*
G01*
X54780000Y33575000D01*
G75*
G02*
X54710000Y33645000I0J70000D01*
G01*
G37*
G36*
G01*
X57210000Y33645000D02*
X57210000Y34355000D01*
G75*
G02*
X57280000Y34425000I70000J0D01*
G01*
X57420000Y34425000D01*
G75*
G02*
X57490000Y34355000I0J-70000D01*
G01*
X57490000Y33645000D01*
G75*
G02*
X57420000Y33575000I-70000J0D01*
G01*
X57280000Y33575000D01*
G75*
G02*
X57210000Y33645000I0J70000D01*
G01*
G37*
G36*
G01*
X56710000Y33645000D02*
X56710000Y34355000D01*
G75*
G02*
X56780000Y34425000I70000J0D01*
G01*
X56920000Y34425000D01*
G75*
G02*
X56990000Y34355000I0J-70000D01*
G01*
X56990000Y33645000D01*
G75*
G02*
X56920000Y33575000I-70000J0D01*
G01*
X56780000Y33575000D01*
G75*
G02*
X56710000Y33645000I0J70000D01*
G01*
G37*
%TD*%
%TO.C,U24*%
G36*
G01*
X45860000Y37145000D02*
X45860000Y37855000D01*
G75*
G02*
X45930000Y37925000I70000J0D01*
G01*
X46070000Y37925000D01*
G75*
G02*
X46140000Y37855000I0J-70000D01*
G01*
X46140000Y37145000D01*
G75*
G02*
X46070000Y37075000I-70000J0D01*
G01*
X45930000Y37075000D01*
G75*
G02*
X45860000Y37145000I0J70000D01*
G01*
G37*
G36*
G01*
X46860000Y37145000D02*
X46860000Y37855000D01*
G75*
G02*
X46930000Y37925000I70000J0D01*
G01*
X47070000Y37925000D01*
G75*
G02*
X47140000Y37855000I0J-70000D01*
G01*
X47140000Y37145000D01*
G75*
G02*
X47070000Y37075000I-70000J0D01*
G01*
X46930000Y37075000D01*
G75*
G02*
X46860000Y37145000I0J70000D01*
G01*
G37*
G36*
G01*
X44360000Y37145000D02*
X44360000Y37855000D01*
G75*
G02*
X44430000Y37925000I70000J0D01*
G01*
X44570000Y37925000D01*
G75*
G02*
X44640000Y37855000I0J-70000D01*
G01*
X44640000Y37145000D01*
G75*
G02*
X44570000Y37075000I-70000J0D01*
G01*
X44430000Y37075000D01*
G75*
G02*
X44360000Y37145000I0J70000D01*
G01*
G37*
G36*
G01*
X46360000Y37145000D02*
X46360000Y37855000D01*
G75*
G02*
X46430000Y37925000I70000J0D01*
G01*
X46570000Y37925000D01*
G75*
G02*
X46640000Y37855000I0J-70000D01*
G01*
X46640000Y37145000D01*
G75*
G02*
X46570000Y37075000I-70000J0D01*
G01*
X46430000Y37075000D01*
G75*
G02*
X46360000Y37145000I0J70000D01*
G01*
G37*
G36*
G01*
X44860000Y37145000D02*
X44860000Y37855000D01*
G75*
G02*
X44930000Y37925000I70000J0D01*
G01*
X45070000Y37925000D01*
G75*
G02*
X45140000Y37855000I0J-70000D01*
G01*
X45140000Y37145000D01*
G75*
G02*
X45070000Y37075000I-70000J0D01*
G01*
X44930000Y37075000D01*
G75*
G02*
X44860000Y37145000I0J70000D01*
G01*
G37*
G36*
G01*
X45360000Y37145000D02*
X45360000Y37855000D01*
G75*
G02*
X45430000Y37925000I70000J0D01*
G01*
X45570000Y37925000D01*
G75*
G02*
X45640000Y37855000I0J-70000D01*
G01*
X45640000Y37145000D01*
G75*
G02*
X45570000Y37075000I-70000J0D01*
G01*
X45430000Y37075000D01*
G75*
G02*
X45360000Y37145000I0J70000D01*
G01*
G37*
G36*
G01*
X47375000Y35140000D02*
X48085000Y35140000D01*
G75*
G02*
X48155000Y35070000I0J-70000D01*
G01*
X48155000Y34930000D01*
G75*
G02*
X48085000Y34860000I-70000J0D01*
G01*
X47375000Y34860000D01*
G75*
G02*
X47305000Y34930000I0J70000D01*
G01*
X47305000Y35070000D01*
G75*
G02*
X47375000Y35140000I70000J0D01*
G01*
G37*
G36*
G01*
X47375000Y36640000D02*
X48085000Y36640000D01*
G75*
G02*
X48155000Y36570000I0J-70000D01*
G01*
X48155000Y36430000D01*
G75*
G02*
X48085000Y36360000I-70000J0D01*
G01*
X47375000Y36360000D01*
G75*
G02*
X47305000Y36430000I0J70000D01*
G01*
X47305000Y36570000D01*
G75*
G02*
X47375000Y36640000I70000J0D01*
G01*
G37*
G36*
G01*
X43415000Y35140000D02*
X44125000Y35140000D01*
G75*
G02*
X44195000Y35070000I0J-70000D01*
G01*
X44195000Y34930000D01*
G75*
G02*
X44125000Y34860000I-70000J0D01*
G01*
X43415000Y34860000D01*
G75*
G02*
X43345000Y34930000I0J70000D01*
G01*
X43345000Y35070000D01*
G75*
G02*
X43415000Y35140000I70000J0D01*
G01*
G37*
G36*
G01*
X43415000Y36640000D02*
X44125000Y36640000D01*
G75*
G02*
X44195000Y36570000I0J-70000D01*
G01*
X44195000Y36430000D01*
G75*
G02*
X44125000Y36360000I-70000J0D01*
G01*
X43415000Y36360000D01*
G75*
G02*
X43345000Y36430000I0J70000D01*
G01*
X43345000Y36570000D01*
G75*
G02*
X43415000Y36640000I70000J0D01*
G01*
G37*
G36*
G01*
X45860000Y33645000D02*
X45860000Y34355000D01*
G75*
G02*
X45930000Y34425000I70000J0D01*
G01*
X46070000Y34425000D01*
G75*
G02*
X46140000Y34355000I0J-70000D01*
G01*
X46140000Y33645000D01*
G75*
G02*
X46070000Y33575000I-70000J0D01*
G01*
X45930000Y33575000D01*
G75*
G02*
X45860000Y33645000I0J70000D01*
G01*
G37*
G36*
G01*
X45360000Y33645000D02*
X45360000Y34355000D01*
G75*
G02*
X45430000Y34425000I70000J0D01*
G01*
X45570000Y34425000D01*
G75*
G02*
X45640000Y34355000I0J-70000D01*
G01*
X45640000Y33645000D01*
G75*
G02*
X45570000Y33575000I-70000J0D01*
G01*
X45430000Y33575000D01*
G75*
G02*
X45360000Y33645000I0J70000D01*
G01*
G37*
G36*
G01*
X44860000Y33645000D02*
X44860000Y34355000D01*
G75*
G02*
X44930000Y34425000I70000J0D01*
G01*
X45070000Y34425000D01*
G75*
G02*
X45140000Y34355000I0J-70000D01*
G01*
X45140000Y33645000D01*
G75*
G02*
X45070000Y33575000I-70000J0D01*
G01*
X44930000Y33575000D01*
G75*
G02*
X44860000Y33645000I0J70000D01*
G01*
G37*
G36*
G01*
X44360000Y33645000D02*
X44360000Y34355000D01*
G75*
G02*
X44430000Y34425000I70000J0D01*
G01*
X44570000Y34425000D01*
G75*
G02*
X44640000Y34355000I0J-70000D01*
G01*
X44640000Y33645000D01*
G75*
G02*
X44570000Y33575000I-70000J0D01*
G01*
X44430000Y33575000D01*
G75*
G02*
X44360000Y33645000I0J70000D01*
G01*
G37*
G36*
G01*
X46860000Y33645000D02*
X46860000Y34355000D01*
G75*
G02*
X46930000Y34425000I70000J0D01*
G01*
X47070000Y34425000D01*
G75*
G02*
X47140000Y34355000I0J-70000D01*
G01*
X47140000Y33645000D01*
G75*
G02*
X47070000Y33575000I-70000J0D01*
G01*
X46930000Y33575000D01*
G75*
G02*
X46860000Y33645000I0J70000D01*
G01*
G37*
G36*
G01*
X46360000Y33645000D02*
X46360000Y34355000D01*
G75*
G02*
X46430000Y34425000I70000J0D01*
G01*
X46570000Y34425000D01*
G75*
G02*
X46640000Y34355000I0J-70000D01*
G01*
X46640000Y33645000D01*
G75*
G02*
X46570000Y33575000I-70000J0D01*
G01*
X46430000Y33575000D01*
G75*
G02*
X46360000Y33645000I0J70000D01*
G01*
G37*
%TD*%
%TO.C,U23*%
G36*
G01*
X35410000Y37145000D02*
X35410000Y37855000D01*
G75*
G02*
X35480000Y37925000I70000J0D01*
G01*
X35620000Y37925000D01*
G75*
G02*
X35690000Y37855000I0J-70000D01*
G01*
X35690000Y37145000D01*
G75*
G02*
X35620000Y37075000I-70000J0D01*
G01*
X35480000Y37075000D01*
G75*
G02*
X35410000Y37145000I0J70000D01*
G01*
G37*
G36*
G01*
X36410000Y37145000D02*
X36410000Y37855000D01*
G75*
G02*
X36480000Y37925000I70000J0D01*
G01*
X36620000Y37925000D01*
G75*
G02*
X36690000Y37855000I0J-70000D01*
G01*
X36690000Y37145000D01*
G75*
G02*
X36620000Y37075000I-70000J0D01*
G01*
X36480000Y37075000D01*
G75*
G02*
X36410000Y37145000I0J70000D01*
G01*
G37*
G36*
G01*
X33910000Y37145000D02*
X33910000Y37855000D01*
G75*
G02*
X33980000Y37925000I70000J0D01*
G01*
X34120000Y37925000D01*
G75*
G02*
X34190000Y37855000I0J-70000D01*
G01*
X34190000Y37145000D01*
G75*
G02*
X34120000Y37075000I-70000J0D01*
G01*
X33980000Y37075000D01*
G75*
G02*
X33910000Y37145000I0J70000D01*
G01*
G37*
G36*
G01*
X35910000Y37145000D02*
X35910000Y37855000D01*
G75*
G02*
X35980000Y37925000I70000J0D01*
G01*
X36120000Y37925000D01*
G75*
G02*
X36190000Y37855000I0J-70000D01*
G01*
X36190000Y37145000D01*
G75*
G02*
X36120000Y37075000I-70000J0D01*
G01*
X35980000Y37075000D01*
G75*
G02*
X35910000Y37145000I0J70000D01*
G01*
G37*
G36*
G01*
X34410000Y37145000D02*
X34410000Y37855000D01*
G75*
G02*
X34480000Y37925000I70000J0D01*
G01*
X34620000Y37925000D01*
G75*
G02*
X34690000Y37855000I0J-70000D01*
G01*
X34690000Y37145000D01*
G75*
G02*
X34620000Y37075000I-70000J0D01*
G01*
X34480000Y37075000D01*
G75*
G02*
X34410000Y37145000I0J70000D01*
G01*
G37*
G36*
G01*
X34910000Y37145000D02*
X34910000Y37855000D01*
G75*
G02*
X34980000Y37925000I70000J0D01*
G01*
X35120000Y37925000D01*
G75*
G02*
X35190000Y37855000I0J-70000D01*
G01*
X35190000Y37145000D01*
G75*
G02*
X35120000Y37075000I-70000J0D01*
G01*
X34980000Y37075000D01*
G75*
G02*
X34910000Y37145000I0J70000D01*
G01*
G37*
G36*
G01*
X36925000Y35140000D02*
X37635000Y35140000D01*
G75*
G02*
X37705000Y35070000I0J-70000D01*
G01*
X37705000Y34930000D01*
G75*
G02*
X37635000Y34860000I-70000J0D01*
G01*
X36925000Y34860000D01*
G75*
G02*
X36855000Y34930000I0J70000D01*
G01*
X36855000Y35070000D01*
G75*
G02*
X36925000Y35140000I70000J0D01*
G01*
G37*
G36*
G01*
X36925000Y36640000D02*
X37635000Y36640000D01*
G75*
G02*
X37705000Y36570000I0J-70000D01*
G01*
X37705000Y36430000D01*
G75*
G02*
X37635000Y36360000I-70000J0D01*
G01*
X36925000Y36360000D01*
G75*
G02*
X36855000Y36430000I0J70000D01*
G01*
X36855000Y36570000D01*
G75*
G02*
X36925000Y36640000I70000J0D01*
G01*
G37*
G36*
G01*
X32965000Y35140000D02*
X33675000Y35140000D01*
G75*
G02*
X33745000Y35070000I0J-70000D01*
G01*
X33745000Y34930000D01*
G75*
G02*
X33675000Y34860000I-70000J0D01*
G01*
X32965000Y34860000D01*
G75*
G02*
X32895000Y34930000I0J70000D01*
G01*
X32895000Y35070000D01*
G75*
G02*
X32965000Y35140000I70000J0D01*
G01*
G37*
G36*
G01*
X32965000Y36640000D02*
X33675000Y36640000D01*
G75*
G02*
X33745000Y36570000I0J-70000D01*
G01*
X33745000Y36430000D01*
G75*
G02*
X33675000Y36360000I-70000J0D01*
G01*
X32965000Y36360000D01*
G75*
G02*
X32895000Y36430000I0J70000D01*
G01*
X32895000Y36570000D01*
G75*
G02*
X32965000Y36640000I70000J0D01*
G01*
G37*
G36*
G01*
X35410000Y33645000D02*
X35410000Y34355000D01*
G75*
G02*
X35480000Y34425000I70000J0D01*
G01*
X35620000Y34425000D01*
G75*
G02*
X35690000Y34355000I0J-70000D01*
G01*
X35690000Y33645000D01*
G75*
G02*
X35620000Y33575000I-70000J0D01*
G01*
X35480000Y33575000D01*
G75*
G02*
X35410000Y33645000I0J70000D01*
G01*
G37*
G36*
G01*
X34910000Y33645000D02*
X34910000Y34355000D01*
G75*
G02*
X34980000Y34425000I70000J0D01*
G01*
X35120000Y34425000D01*
G75*
G02*
X35190000Y34355000I0J-70000D01*
G01*
X35190000Y33645000D01*
G75*
G02*
X35120000Y33575000I-70000J0D01*
G01*
X34980000Y33575000D01*
G75*
G02*
X34910000Y33645000I0J70000D01*
G01*
G37*
G36*
G01*
X34410000Y33645000D02*
X34410000Y34355000D01*
G75*
G02*
X34480000Y34425000I70000J0D01*
G01*
X34620000Y34425000D01*
G75*
G02*
X34690000Y34355000I0J-70000D01*
G01*
X34690000Y33645000D01*
G75*
G02*
X34620000Y33575000I-70000J0D01*
G01*
X34480000Y33575000D01*
G75*
G02*
X34410000Y33645000I0J70000D01*
G01*
G37*
G36*
G01*
X33910000Y33645000D02*
X33910000Y34355000D01*
G75*
G02*
X33980000Y34425000I70000J0D01*
G01*
X34120000Y34425000D01*
G75*
G02*
X34190000Y34355000I0J-70000D01*
G01*
X34190000Y33645000D01*
G75*
G02*
X34120000Y33575000I-70000J0D01*
G01*
X33980000Y33575000D01*
G75*
G02*
X33910000Y33645000I0J70000D01*
G01*
G37*
G36*
G01*
X36410000Y33645000D02*
X36410000Y34355000D01*
G75*
G02*
X36480000Y34425000I70000J0D01*
G01*
X36620000Y34425000D01*
G75*
G02*
X36690000Y34355000I0J-70000D01*
G01*
X36690000Y33645000D01*
G75*
G02*
X36620000Y33575000I-70000J0D01*
G01*
X36480000Y33575000D01*
G75*
G02*
X36410000Y33645000I0J70000D01*
G01*
G37*
G36*
G01*
X35910000Y33645000D02*
X35910000Y34355000D01*
G75*
G02*
X35980000Y34425000I70000J0D01*
G01*
X36120000Y34425000D01*
G75*
G02*
X36190000Y34355000I0J-70000D01*
G01*
X36190000Y33645000D01*
G75*
G02*
X36120000Y33575000I-70000J0D01*
G01*
X35980000Y33575000D01*
G75*
G02*
X35910000Y33645000I0J70000D01*
G01*
G37*
%TD*%
%TO.C,U22*%
G36*
G01*
X25060000Y37195000D02*
X25060000Y37905000D01*
G75*
G02*
X25130000Y37975000I70000J0D01*
G01*
X25270000Y37975000D01*
G75*
G02*
X25340000Y37905000I0J-70000D01*
G01*
X25340000Y37195000D01*
G75*
G02*
X25270000Y37125000I-70000J0D01*
G01*
X25130000Y37125000D01*
G75*
G02*
X25060000Y37195000I0J70000D01*
G01*
G37*
G36*
G01*
X26060000Y37195000D02*
X26060000Y37905000D01*
G75*
G02*
X26130000Y37975000I70000J0D01*
G01*
X26270000Y37975000D01*
G75*
G02*
X26340000Y37905000I0J-70000D01*
G01*
X26340000Y37195000D01*
G75*
G02*
X26270000Y37125000I-70000J0D01*
G01*
X26130000Y37125000D01*
G75*
G02*
X26060000Y37195000I0J70000D01*
G01*
G37*
G36*
G01*
X23560000Y37195000D02*
X23560000Y37905000D01*
G75*
G02*
X23630000Y37975000I70000J0D01*
G01*
X23770000Y37975000D01*
G75*
G02*
X23840000Y37905000I0J-70000D01*
G01*
X23840000Y37195000D01*
G75*
G02*
X23770000Y37125000I-70000J0D01*
G01*
X23630000Y37125000D01*
G75*
G02*
X23560000Y37195000I0J70000D01*
G01*
G37*
G36*
G01*
X25560000Y37195000D02*
X25560000Y37905000D01*
G75*
G02*
X25630000Y37975000I70000J0D01*
G01*
X25770000Y37975000D01*
G75*
G02*
X25840000Y37905000I0J-70000D01*
G01*
X25840000Y37195000D01*
G75*
G02*
X25770000Y37125000I-70000J0D01*
G01*
X25630000Y37125000D01*
G75*
G02*
X25560000Y37195000I0J70000D01*
G01*
G37*
G36*
G01*
X24060000Y37195000D02*
X24060000Y37905000D01*
G75*
G02*
X24130000Y37975000I70000J0D01*
G01*
X24270000Y37975000D01*
G75*
G02*
X24340000Y37905000I0J-70000D01*
G01*
X24340000Y37195000D01*
G75*
G02*
X24270000Y37125000I-70000J0D01*
G01*
X24130000Y37125000D01*
G75*
G02*
X24060000Y37195000I0J70000D01*
G01*
G37*
G36*
G01*
X24560000Y37195000D02*
X24560000Y37905000D01*
G75*
G02*
X24630000Y37975000I70000J0D01*
G01*
X24770000Y37975000D01*
G75*
G02*
X24840000Y37905000I0J-70000D01*
G01*
X24840000Y37195000D01*
G75*
G02*
X24770000Y37125000I-70000J0D01*
G01*
X24630000Y37125000D01*
G75*
G02*
X24560000Y37195000I0J70000D01*
G01*
G37*
G36*
G01*
X26575000Y35190000D02*
X27285000Y35190000D01*
G75*
G02*
X27355000Y35120000I0J-70000D01*
G01*
X27355000Y34980000D01*
G75*
G02*
X27285000Y34910000I-70000J0D01*
G01*
X26575000Y34910000D01*
G75*
G02*
X26505000Y34980000I0J70000D01*
G01*
X26505000Y35120000D01*
G75*
G02*
X26575000Y35190000I70000J0D01*
G01*
G37*
G36*
G01*
X26575000Y36690000D02*
X27285000Y36690000D01*
G75*
G02*
X27355000Y36620000I0J-70000D01*
G01*
X27355000Y36480000D01*
G75*
G02*
X27285000Y36410000I-70000J0D01*
G01*
X26575000Y36410000D01*
G75*
G02*
X26505000Y36480000I0J70000D01*
G01*
X26505000Y36620000D01*
G75*
G02*
X26575000Y36690000I70000J0D01*
G01*
G37*
G36*
G01*
X22615000Y35190000D02*
X23325000Y35190000D01*
G75*
G02*
X23395000Y35120000I0J-70000D01*
G01*
X23395000Y34980000D01*
G75*
G02*
X23325000Y34910000I-70000J0D01*
G01*
X22615000Y34910000D01*
G75*
G02*
X22545000Y34980000I0J70000D01*
G01*
X22545000Y35120000D01*
G75*
G02*
X22615000Y35190000I70000J0D01*
G01*
G37*
G36*
G01*
X22615000Y36690000D02*
X23325000Y36690000D01*
G75*
G02*
X23395000Y36620000I0J-70000D01*
G01*
X23395000Y36480000D01*
G75*
G02*
X23325000Y36410000I-70000J0D01*
G01*
X22615000Y36410000D01*
G75*
G02*
X22545000Y36480000I0J70000D01*
G01*
X22545000Y36620000D01*
G75*
G02*
X22615000Y36690000I70000J0D01*
G01*
G37*
G36*
G01*
X25060000Y33695000D02*
X25060000Y34405000D01*
G75*
G02*
X25130000Y34475000I70000J0D01*
G01*
X25270000Y34475000D01*
G75*
G02*
X25340000Y34405000I0J-70000D01*
G01*
X25340000Y33695000D01*
G75*
G02*
X25270000Y33625000I-70000J0D01*
G01*
X25130000Y33625000D01*
G75*
G02*
X25060000Y33695000I0J70000D01*
G01*
G37*
G36*
G01*
X24560000Y33695000D02*
X24560000Y34405000D01*
G75*
G02*
X24630000Y34475000I70000J0D01*
G01*
X24770000Y34475000D01*
G75*
G02*
X24840000Y34405000I0J-70000D01*
G01*
X24840000Y33695000D01*
G75*
G02*
X24770000Y33625000I-70000J0D01*
G01*
X24630000Y33625000D01*
G75*
G02*
X24560000Y33695000I0J70000D01*
G01*
G37*
G36*
G01*
X24060000Y33695000D02*
X24060000Y34405000D01*
G75*
G02*
X24130000Y34475000I70000J0D01*
G01*
X24270000Y34475000D01*
G75*
G02*
X24340000Y34405000I0J-70000D01*
G01*
X24340000Y33695000D01*
G75*
G02*
X24270000Y33625000I-70000J0D01*
G01*
X24130000Y33625000D01*
G75*
G02*
X24060000Y33695000I0J70000D01*
G01*
G37*
G36*
G01*
X23560000Y33695000D02*
X23560000Y34405000D01*
G75*
G02*
X23630000Y34475000I70000J0D01*
G01*
X23770000Y34475000D01*
G75*
G02*
X23840000Y34405000I0J-70000D01*
G01*
X23840000Y33695000D01*
G75*
G02*
X23770000Y33625000I-70000J0D01*
G01*
X23630000Y33625000D01*
G75*
G02*
X23560000Y33695000I0J70000D01*
G01*
G37*
G36*
G01*
X26060000Y33695000D02*
X26060000Y34405000D01*
G75*
G02*
X26130000Y34475000I70000J0D01*
G01*
X26270000Y34475000D01*
G75*
G02*
X26340000Y34405000I0J-70000D01*
G01*
X26340000Y33695000D01*
G75*
G02*
X26270000Y33625000I-70000J0D01*
G01*
X26130000Y33625000D01*
G75*
G02*
X26060000Y33695000I0J70000D01*
G01*
G37*
G36*
G01*
X25560000Y33695000D02*
X25560000Y34405000D01*
G75*
G02*
X25630000Y34475000I70000J0D01*
G01*
X25770000Y34475000D01*
G75*
G02*
X25840000Y34405000I0J-70000D01*
G01*
X25840000Y33695000D01*
G75*
G02*
X25770000Y33625000I-70000J0D01*
G01*
X25630000Y33625000D01*
G75*
G02*
X25560000Y33695000I0J70000D01*
G01*
G37*
%TD*%
%TO.C,U21*%
G36*
G01*
X14660000Y37195000D02*
X14660000Y37905000D01*
G75*
G02*
X14730000Y37975000I70000J0D01*
G01*
X14870000Y37975000D01*
G75*
G02*
X14940000Y37905000I0J-70000D01*
G01*
X14940000Y37195000D01*
G75*
G02*
X14870000Y37125000I-70000J0D01*
G01*
X14730000Y37125000D01*
G75*
G02*
X14660000Y37195000I0J70000D01*
G01*
G37*
G36*
G01*
X15660000Y37195000D02*
X15660000Y37905000D01*
G75*
G02*
X15730000Y37975000I70000J0D01*
G01*
X15870000Y37975000D01*
G75*
G02*
X15940000Y37905000I0J-70000D01*
G01*
X15940000Y37195000D01*
G75*
G02*
X15870000Y37125000I-70000J0D01*
G01*
X15730000Y37125000D01*
G75*
G02*
X15660000Y37195000I0J70000D01*
G01*
G37*
G36*
G01*
X13160000Y37195000D02*
X13160000Y37905000D01*
G75*
G02*
X13230000Y37975000I70000J0D01*
G01*
X13370000Y37975000D01*
G75*
G02*
X13440000Y37905000I0J-70000D01*
G01*
X13440000Y37195000D01*
G75*
G02*
X13370000Y37125000I-70000J0D01*
G01*
X13230000Y37125000D01*
G75*
G02*
X13160000Y37195000I0J70000D01*
G01*
G37*
G36*
G01*
X15160000Y37195000D02*
X15160000Y37905000D01*
G75*
G02*
X15230000Y37975000I70000J0D01*
G01*
X15370000Y37975000D01*
G75*
G02*
X15440000Y37905000I0J-70000D01*
G01*
X15440000Y37195000D01*
G75*
G02*
X15370000Y37125000I-70000J0D01*
G01*
X15230000Y37125000D01*
G75*
G02*
X15160000Y37195000I0J70000D01*
G01*
G37*
G36*
G01*
X13660000Y37195000D02*
X13660000Y37905000D01*
G75*
G02*
X13730000Y37975000I70000J0D01*
G01*
X13870000Y37975000D01*
G75*
G02*
X13940000Y37905000I0J-70000D01*
G01*
X13940000Y37195000D01*
G75*
G02*
X13870000Y37125000I-70000J0D01*
G01*
X13730000Y37125000D01*
G75*
G02*
X13660000Y37195000I0J70000D01*
G01*
G37*
G36*
G01*
X14160000Y37195000D02*
X14160000Y37905000D01*
G75*
G02*
X14230000Y37975000I70000J0D01*
G01*
X14370000Y37975000D01*
G75*
G02*
X14440000Y37905000I0J-70000D01*
G01*
X14440000Y37195000D01*
G75*
G02*
X14370000Y37125000I-70000J0D01*
G01*
X14230000Y37125000D01*
G75*
G02*
X14160000Y37195000I0J70000D01*
G01*
G37*
G36*
G01*
X16175000Y35190000D02*
X16885000Y35190000D01*
G75*
G02*
X16955000Y35120000I0J-70000D01*
G01*
X16955000Y34980000D01*
G75*
G02*
X16885000Y34910000I-70000J0D01*
G01*
X16175000Y34910000D01*
G75*
G02*
X16105000Y34980000I0J70000D01*
G01*
X16105000Y35120000D01*
G75*
G02*
X16175000Y35190000I70000J0D01*
G01*
G37*
G36*
G01*
X16175000Y36690000D02*
X16885000Y36690000D01*
G75*
G02*
X16955000Y36620000I0J-70000D01*
G01*
X16955000Y36480000D01*
G75*
G02*
X16885000Y36410000I-70000J0D01*
G01*
X16175000Y36410000D01*
G75*
G02*
X16105000Y36480000I0J70000D01*
G01*
X16105000Y36620000D01*
G75*
G02*
X16175000Y36690000I70000J0D01*
G01*
G37*
G36*
G01*
X12215000Y35190000D02*
X12925000Y35190000D01*
G75*
G02*
X12995000Y35120000I0J-70000D01*
G01*
X12995000Y34980000D01*
G75*
G02*
X12925000Y34910000I-70000J0D01*
G01*
X12215000Y34910000D01*
G75*
G02*
X12145000Y34980000I0J70000D01*
G01*
X12145000Y35120000D01*
G75*
G02*
X12215000Y35190000I70000J0D01*
G01*
G37*
G36*
G01*
X12215000Y36690000D02*
X12925000Y36690000D01*
G75*
G02*
X12995000Y36620000I0J-70000D01*
G01*
X12995000Y36480000D01*
G75*
G02*
X12925000Y36410000I-70000J0D01*
G01*
X12215000Y36410000D01*
G75*
G02*
X12145000Y36480000I0J70000D01*
G01*
X12145000Y36620000D01*
G75*
G02*
X12215000Y36690000I70000J0D01*
G01*
G37*
G36*
G01*
X14660000Y33695000D02*
X14660000Y34405000D01*
G75*
G02*
X14730000Y34475000I70000J0D01*
G01*
X14870000Y34475000D01*
G75*
G02*
X14940000Y34405000I0J-70000D01*
G01*
X14940000Y33695000D01*
G75*
G02*
X14870000Y33625000I-70000J0D01*
G01*
X14730000Y33625000D01*
G75*
G02*
X14660000Y33695000I0J70000D01*
G01*
G37*
G36*
G01*
X14160000Y33695000D02*
X14160000Y34405000D01*
G75*
G02*
X14230000Y34475000I70000J0D01*
G01*
X14370000Y34475000D01*
G75*
G02*
X14440000Y34405000I0J-70000D01*
G01*
X14440000Y33695000D01*
G75*
G02*
X14370000Y33625000I-70000J0D01*
G01*
X14230000Y33625000D01*
G75*
G02*
X14160000Y33695000I0J70000D01*
G01*
G37*
G36*
G01*
X13660000Y33695000D02*
X13660000Y34405000D01*
G75*
G02*
X13730000Y34475000I70000J0D01*
G01*
X13870000Y34475000D01*
G75*
G02*
X13940000Y34405000I0J-70000D01*
G01*
X13940000Y33695000D01*
G75*
G02*
X13870000Y33625000I-70000J0D01*
G01*
X13730000Y33625000D01*
G75*
G02*
X13660000Y33695000I0J70000D01*
G01*
G37*
G36*
G01*
X13160000Y33695000D02*
X13160000Y34405000D01*
G75*
G02*
X13230000Y34475000I70000J0D01*
G01*
X13370000Y34475000D01*
G75*
G02*
X13440000Y34405000I0J-70000D01*
G01*
X13440000Y33695000D01*
G75*
G02*
X13370000Y33625000I-70000J0D01*
G01*
X13230000Y33625000D01*
G75*
G02*
X13160000Y33695000I0J70000D01*
G01*
G37*
G36*
G01*
X15660000Y33695000D02*
X15660000Y34405000D01*
G75*
G02*
X15730000Y34475000I70000J0D01*
G01*
X15870000Y34475000D01*
G75*
G02*
X15940000Y34405000I0J-70000D01*
G01*
X15940000Y33695000D01*
G75*
G02*
X15870000Y33625000I-70000J0D01*
G01*
X15730000Y33625000D01*
G75*
G02*
X15660000Y33695000I0J70000D01*
G01*
G37*
G36*
G01*
X15160000Y33695000D02*
X15160000Y34405000D01*
G75*
G02*
X15230000Y34475000I70000J0D01*
G01*
X15370000Y34475000D01*
G75*
G02*
X15440000Y34405000I0J-70000D01*
G01*
X15440000Y33695000D01*
G75*
G02*
X15370000Y33625000I-70000J0D01*
G01*
X15230000Y33625000D01*
G75*
G02*
X15160000Y33695000I0J70000D01*
G01*
G37*
%TD*%
%TO.C,U20*%
G36*
G01*
X48324900Y42500000D02*
X48125100Y42500000D01*
G75*
G02*
X48075000Y42550100I0J50100D01*
G01*
X48075000Y43049900D01*
G75*
G02*
X48125100Y43100000I50100J0D01*
G01*
X48324900Y43100000D01*
G75*
G02*
X48375000Y43049900I0J-50100D01*
G01*
X48375000Y42550100D01*
G75*
G02*
X48324900Y42500000I-50100J0D01*
G01*
G37*
G36*
G01*
X49624900Y42500000D02*
X49425100Y42500000D01*
G75*
G02*
X49375000Y42550100I0J50100D01*
G01*
X49375000Y43049900D01*
G75*
G02*
X49425100Y43100000I50100J0D01*
G01*
X49624900Y43100000D01*
G75*
G02*
X49675000Y43049900I0J-50100D01*
G01*
X49675000Y42550100D01*
G75*
G02*
X49624900Y42500000I-50100J0D01*
G01*
G37*
G36*
G01*
X50274900Y42500000D02*
X50075100Y42500000D01*
G75*
G02*
X50025000Y42550100I0J50100D01*
G01*
X50025000Y43049900D01*
G75*
G02*
X50075100Y43100000I50100J0D01*
G01*
X50274900Y43100000D01*
G75*
G02*
X50325000Y43049900I0J-50100D01*
G01*
X50325000Y42550100D01*
G75*
G02*
X50274900Y42500000I-50100J0D01*
G01*
G37*
G36*
G01*
X48974900Y42500000D02*
X48775100Y42500000D01*
G75*
G02*
X48725000Y42550100I0J50100D01*
G01*
X48725000Y43049900D01*
G75*
G02*
X48775100Y43100000I50100J0D01*
G01*
X48974900Y43100000D01*
G75*
G02*
X49025000Y43049900I0J-50100D01*
G01*
X49025000Y42550100D01*
G75*
G02*
X48974900Y42500000I-50100J0D01*
G01*
G37*
G36*
G01*
X50274900Y39700000D02*
X50075100Y39700000D01*
G75*
G02*
X50025000Y39750100I0J50100D01*
G01*
X50025000Y40249900D01*
G75*
G02*
X50075100Y40300000I50100J0D01*
G01*
X50274900Y40300000D01*
G75*
G02*
X50325000Y40249900I0J-50100D01*
G01*
X50325000Y39750100D01*
G75*
G02*
X50274900Y39700000I-50100J0D01*
G01*
G37*
G36*
G01*
X49624900Y39700000D02*
X49425100Y39700000D01*
G75*
G02*
X49375000Y39750100I0J50100D01*
G01*
X49375000Y40249900D01*
G75*
G02*
X49425100Y40300000I50100J0D01*
G01*
X49624900Y40300000D01*
G75*
G02*
X49675000Y40249900I0J-50100D01*
G01*
X49675000Y39750100D01*
G75*
G02*
X49624900Y39700000I-50100J0D01*
G01*
G37*
G36*
G01*
X48974900Y39700000D02*
X48775100Y39700000D01*
G75*
G02*
X48725000Y39750100I0J50100D01*
G01*
X48725000Y40249900D01*
G75*
G02*
X48775100Y40300000I50100J0D01*
G01*
X48974900Y40300000D01*
G75*
G02*
X49025000Y40249900I0J-50100D01*
G01*
X49025000Y39750100D01*
G75*
G02*
X48974900Y39700000I-50100J0D01*
G01*
G37*
G36*
G01*
X48324900Y39700000D02*
X48125100Y39700000D01*
G75*
G02*
X48075000Y39750100I0J50100D01*
G01*
X48075000Y40249900D01*
G75*
G02*
X48125100Y40300000I50100J0D01*
G01*
X48324900Y40300000D01*
G75*
G02*
X48375000Y40249900I0J-50100D01*
G01*
X48375000Y39750100D01*
G75*
G02*
X48324900Y39700000I-50100J0D01*
G01*
G37*
%TD*%
%TO.C,U19*%
G36*
G01*
X31024900Y42450000D02*
X30825100Y42450000D01*
G75*
G02*
X30775000Y42500100I0J50100D01*
G01*
X30775000Y42999900D01*
G75*
G02*
X30825100Y43050000I50100J0D01*
G01*
X31024900Y43050000D01*
G75*
G02*
X31075000Y42999900I0J-50100D01*
G01*
X31075000Y42500100D01*
G75*
G02*
X31024900Y42450000I-50100J0D01*
G01*
G37*
G36*
G01*
X32324900Y42450000D02*
X32125100Y42450000D01*
G75*
G02*
X32075000Y42500100I0J50100D01*
G01*
X32075000Y42999900D01*
G75*
G02*
X32125100Y43050000I50100J0D01*
G01*
X32324900Y43050000D01*
G75*
G02*
X32375000Y42999900I0J-50100D01*
G01*
X32375000Y42500100D01*
G75*
G02*
X32324900Y42450000I-50100J0D01*
G01*
G37*
G36*
G01*
X32974900Y42450000D02*
X32775100Y42450000D01*
G75*
G02*
X32725000Y42500100I0J50100D01*
G01*
X32725000Y42999900D01*
G75*
G02*
X32775100Y43050000I50100J0D01*
G01*
X32974900Y43050000D01*
G75*
G02*
X33025000Y42999900I0J-50100D01*
G01*
X33025000Y42500100D01*
G75*
G02*
X32974900Y42450000I-50100J0D01*
G01*
G37*
G36*
G01*
X31674900Y42450000D02*
X31475100Y42450000D01*
G75*
G02*
X31425000Y42500100I0J50100D01*
G01*
X31425000Y42999900D01*
G75*
G02*
X31475100Y43050000I50100J0D01*
G01*
X31674900Y43050000D01*
G75*
G02*
X31725000Y42999900I0J-50100D01*
G01*
X31725000Y42500100D01*
G75*
G02*
X31674900Y42450000I-50100J0D01*
G01*
G37*
G36*
G01*
X32974900Y39650000D02*
X32775100Y39650000D01*
G75*
G02*
X32725000Y39700100I0J50100D01*
G01*
X32725000Y40199900D01*
G75*
G02*
X32775100Y40250000I50100J0D01*
G01*
X32974900Y40250000D01*
G75*
G02*
X33025000Y40199900I0J-50100D01*
G01*
X33025000Y39700100D01*
G75*
G02*
X32974900Y39650000I-50100J0D01*
G01*
G37*
G36*
G01*
X32324900Y39650000D02*
X32125100Y39650000D01*
G75*
G02*
X32075000Y39700100I0J50100D01*
G01*
X32075000Y40199900D01*
G75*
G02*
X32125100Y40250000I50100J0D01*
G01*
X32324900Y40250000D01*
G75*
G02*
X32375000Y40199900I0J-50100D01*
G01*
X32375000Y39700100D01*
G75*
G02*
X32324900Y39650000I-50100J0D01*
G01*
G37*
G36*
G01*
X31674900Y39650000D02*
X31475100Y39650000D01*
G75*
G02*
X31425000Y39700100I0J50100D01*
G01*
X31425000Y40199900D01*
G75*
G02*
X31475100Y40250000I50100J0D01*
G01*
X31674900Y40250000D01*
G75*
G02*
X31725000Y40199900I0J-50100D01*
G01*
X31725000Y39700100D01*
G75*
G02*
X31674900Y39650000I-50100J0D01*
G01*
G37*
G36*
G01*
X31024900Y39650000D02*
X30825100Y39650000D01*
G75*
G02*
X30775000Y39700100I0J50100D01*
G01*
X30775000Y40199900D01*
G75*
G02*
X30825100Y40250000I50100J0D01*
G01*
X31024900Y40250000D01*
G75*
G02*
X31075000Y40199900I0J-50100D01*
G01*
X31075000Y39700100D01*
G75*
G02*
X31024900Y39650000I-50100J0D01*
G01*
G37*
%TD*%
%TO.C,U18*%
G36*
G01*
X27524900Y42450000D02*
X27325100Y42450000D01*
G75*
G02*
X27275000Y42500100I0J50100D01*
G01*
X27275000Y42999900D01*
G75*
G02*
X27325100Y43050000I50100J0D01*
G01*
X27524900Y43050000D01*
G75*
G02*
X27575000Y42999900I0J-50100D01*
G01*
X27575000Y42500100D01*
G75*
G02*
X27524900Y42450000I-50100J0D01*
G01*
G37*
G36*
G01*
X28824900Y42450000D02*
X28625100Y42450000D01*
G75*
G02*
X28575000Y42500100I0J50100D01*
G01*
X28575000Y42999900D01*
G75*
G02*
X28625100Y43050000I50100J0D01*
G01*
X28824900Y43050000D01*
G75*
G02*
X28875000Y42999900I0J-50100D01*
G01*
X28875000Y42500100D01*
G75*
G02*
X28824900Y42450000I-50100J0D01*
G01*
G37*
G36*
G01*
X29474900Y42450000D02*
X29275100Y42450000D01*
G75*
G02*
X29225000Y42500100I0J50100D01*
G01*
X29225000Y42999900D01*
G75*
G02*
X29275100Y43050000I50100J0D01*
G01*
X29474900Y43050000D01*
G75*
G02*
X29525000Y42999900I0J-50100D01*
G01*
X29525000Y42500100D01*
G75*
G02*
X29474900Y42450000I-50100J0D01*
G01*
G37*
G36*
G01*
X28174900Y42450000D02*
X27975100Y42450000D01*
G75*
G02*
X27925000Y42500100I0J50100D01*
G01*
X27925000Y42999900D01*
G75*
G02*
X27975100Y43050000I50100J0D01*
G01*
X28174900Y43050000D01*
G75*
G02*
X28225000Y42999900I0J-50100D01*
G01*
X28225000Y42500100D01*
G75*
G02*
X28174900Y42450000I-50100J0D01*
G01*
G37*
G36*
G01*
X29474900Y39650000D02*
X29275100Y39650000D01*
G75*
G02*
X29225000Y39700100I0J50100D01*
G01*
X29225000Y40199900D01*
G75*
G02*
X29275100Y40250000I50100J0D01*
G01*
X29474900Y40250000D01*
G75*
G02*
X29525000Y40199900I0J-50100D01*
G01*
X29525000Y39700100D01*
G75*
G02*
X29474900Y39650000I-50100J0D01*
G01*
G37*
G36*
G01*
X28824900Y39650000D02*
X28625100Y39650000D01*
G75*
G02*
X28575000Y39700100I0J50100D01*
G01*
X28575000Y40199900D01*
G75*
G02*
X28625100Y40250000I50100J0D01*
G01*
X28824900Y40250000D01*
G75*
G02*
X28875000Y40199900I0J-50100D01*
G01*
X28875000Y39700100D01*
G75*
G02*
X28824900Y39650000I-50100J0D01*
G01*
G37*
G36*
G01*
X28174900Y39650000D02*
X27975100Y39650000D01*
G75*
G02*
X27925000Y39700100I0J50100D01*
G01*
X27925000Y40199900D01*
G75*
G02*
X27975100Y40250000I50100J0D01*
G01*
X28174900Y40250000D01*
G75*
G02*
X28225000Y40199900I0J-50100D01*
G01*
X28225000Y39700100D01*
G75*
G02*
X28174900Y39650000I-50100J0D01*
G01*
G37*
G36*
G01*
X27524900Y39650000D02*
X27325100Y39650000D01*
G75*
G02*
X27275000Y39700100I0J50100D01*
G01*
X27275000Y40199900D01*
G75*
G02*
X27325100Y40250000I50100J0D01*
G01*
X27524900Y40250000D01*
G75*
G02*
X27575000Y40199900I0J-50100D01*
G01*
X27575000Y39700100D01*
G75*
G02*
X27524900Y39650000I-50100J0D01*
G01*
G37*
%TD*%
%TO.C,U17*%
G36*
G01*
X10224900Y42450000D02*
X10025100Y42450000D01*
G75*
G02*
X9975000Y42500100I0J50100D01*
G01*
X9975000Y42999900D01*
G75*
G02*
X10025100Y43050000I50100J0D01*
G01*
X10224900Y43050000D01*
G75*
G02*
X10275000Y42999900I0J-50100D01*
G01*
X10275000Y42500100D01*
G75*
G02*
X10224900Y42450000I-50100J0D01*
G01*
G37*
G36*
G01*
X11524900Y42450000D02*
X11325100Y42450000D01*
G75*
G02*
X11275000Y42500100I0J50100D01*
G01*
X11275000Y42999900D01*
G75*
G02*
X11325100Y43050000I50100J0D01*
G01*
X11524900Y43050000D01*
G75*
G02*
X11575000Y42999900I0J-50100D01*
G01*
X11575000Y42500100D01*
G75*
G02*
X11524900Y42450000I-50100J0D01*
G01*
G37*
G36*
G01*
X12174900Y42450000D02*
X11975100Y42450000D01*
G75*
G02*
X11925000Y42500100I0J50100D01*
G01*
X11925000Y42999900D01*
G75*
G02*
X11975100Y43050000I50100J0D01*
G01*
X12174900Y43050000D01*
G75*
G02*
X12225000Y42999900I0J-50100D01*
G01*
X12225000Y42500100D01*
G75*
G02*
X12174900Y42450000I-50100J0D01*
G01*
G37*
G36*
G01*
X10874900Y42450000D02*
X10675100Y42450000D01*
G75*
G02*
X10625000Y42500100I0J50100D01*
G01*
X10625000Y42999900D01*
G75*
G02*
X10675100Y43050000I50100J0D01*
G01*
X10874900Y43050000D01*
G75*
G02*
X10925000Y42999900I0J-50100D01*
G01*
X10925000Y42500100D01*
G75*
G02*
X10874900Y42450000I-50100J0D01*
G01*
G37*
G36*
G01*
X12174900Y39650000D02*
X11975100Y39650000D01*
G75*
G02*
X11925000Y39700100I0J50100D01*
G01*
X11925000Y40199900D01*
G75*
G02*
X11975100Y40250000I50100J0D01*
G01*
X12174900Y40250000D01*
G75*
G02*
X12225000Y40199900I0J-50100D01*
G01*
X12225000Y39700100D01*
G75*
G02*
X12174900Y39650000I-50100J0D01*
G01*
G37*
G36*
G01*
X11524900Y39650000D02*
X11325100Y39650000D01*
G75*
G02*
X11275000Y39700100I0J50100D01*
G01*
X11275000Y40199900D01*
G75*
G02*
X11325100Y40250000I50100J0D01*
G01*
X11524900Y40250000D01*
G75*
G02*
X11575000Y40199900I0J-50100D01*
G01*
X11575000Y39700100D01*
G75*
G02*
X11524900Y39650000I-50100J0D01*
G01*
G37*
G36*
G01*
X10874900Y39650000D02*
X10675100Y39650000D01*
G75*
G02*
X10625000Y39700100I0J50100D01*
G01*
X10625000Y40199900D01*
G75*
G02*
X10675100Y40250000I50100J0D01*
G01*
X10874900Y40250000D01*
G75*
G02*
X10925000Y40199900I0J-50100D01*
G01*
X10925000Y39700100D01*
G75*
G02*
X10874900Y39650000I-50100J0D01*
G01*
G37*
G36*
G01*
X10224900Y39650000D02*
X10025100Y39650000D01*
G75*
G02*
X9975000Y39700100I0J50100D01*
G01*
X9975000Y40199900D01*
G75*
G02*
X10025100Y40250000I50100J0D01*
G01*
X10224900Y40250000D01*
G75*
G02*
X10275000Y40199900I0J-50100D01*
G01*
X10275000Y39700100D01*
G75*
G02*
X10224900Y39650000I-50100J0D01*
G01*
G37*
%TD*%
%TO.C,U16*%
G36*
G01*
X55224900Y42500000D02*
X55025100Y42500000D01*
G75*
G02*
X54975000Y42550100I0J50100D01*
G01*
X54975000Y43049900D01*
G75*
G02*
X55025100Y43100000I50100J0D01*
G01*
X55224900Y43100000D01*
G75*
G02*
X55275000Y43049900I0J-50100D01*
G01*
X55275000Y42550100D01*
G75*
G02*
X55224900Y42500000I-50100J0D01*
G01*
G37*
G36*
G01*
X56524900Y42500000D02*
X56325100Y42500000D01*
G75*
G02*
X56275000Y42550100I0J50100D01*
G01*
X56275000Y43049900D01*
G75*
G02*
X56325100Y43100000I50100J0D01*
G01*
X56524900Y43100000D01*
G75*
G02*
X56575000Y43049900I0J-50100D01*
G01*
X56575000Y42550100D01*
G75*
G02*
X56524900Y42500000I-50100J0D01*
G01*
G37*
G36*
G01*
X57174900Y42500000D02*
X56975100Y42500000D01*
G75*
G02*
X56925000Y42550100I0J50100D01*
G01*
X56925000Y43049900D01*
G75*
G02*
X56975100Y43100000I50100J0D01*
G01*
X57174900Y43100000D01*
G75*
G02*
X57225000Y43049900I0J-50100D01*
G01*
X57225000Y42550100D01*
G75*
G02*
X57174900Y42500000I-50100J0D01*
G01*
G37*
G36*
G01*
X55874900Y42500000D02*
X55675100Y42500000D01*
G75*
G02*
X55625000Y42550100I0J50100D01*
G01*
X55625000Y43049900D01*
G75*
G02*
X55675100Y43100000I50100J0D01*
G01*
X55874900Y43100000D01*
G75*
G02*
X55925000Y43049900I0J-50100D01*
G01*
X55925000Y42550100D01*
G75*
G02*
X55874900Y42500000I-50100J0D01*
G01*
G37*
G36*
G01*
X57174900Y39700000D02*
X56975100Y39700000D01*
G75*
G02*
X56925000Y39750100I0J50100D01*
G01*
X56925000Y40249900D01*
G75*
G02*
X56975100Y40300000I50100J0D01*
G01*
X57174900Y40300000D01*
G75*
G02*
X57225000Y40249900I0J-50100D01*
G01*
X57225000Y39750100D01*
G75*
G02*
X57174900Y39700000I-50100J0D01*
G01*
G37*
G36*
G01*
X56524900Y39700000D02*
X56325100Y39700000D01*
G75*
G02*
X56275000Y39750100I0J50100D01*
G01*
X56275000Y40249900D01*
G75*
G02*
X56325100Y40300000I50100J0D01*
G01*
X56524900Y40300000D01*
G75*
G02*
X56575000Y40249900I0J-50100D01*
G01*
X56575000Y39750100D01*
G75*
G02*
X56524900Y39700000I-50100J0D01*
G01*
G37*
G36*
G01*
X55874900Y39700000D02*
X55675100Y39700000D01*
G75*
G02*
X55625000Y39750100I0J50100D01*
G01*
X55625000Y40249900D01*
G75*
G02*
X55675100Y40300000I50100J0D01*
G01*
X55874900Y40300000D01*
G75*
G02*
X55925000Y40249900I0J-50100D01*
G01*
X55925000Y39750100D01*
G75*
G02*
X55874900Y39700000I-50100J0D01*
G01*
G37*
G36*
G01*
X55224900Y39700000D02*
X55025100Y39700000D01*
G75*
G02*
X54975000Y39750100I0J50100D01*
G01*
X54975000Y40249900D01*
G75*
G02*
X55025100Y40300000I50100J0D01*
G01*
X55224900Y40300000D01*
G75*
G02*
X55275000Y40249900I0J-50100D01*
G01*
X55275000Y39750100D01*
G75*
G02*
X55224900Y39700000I-50100J0D01*
G01*
G37*
%TD*%
%TO.C,U15*%
G36*
G01*
X34474900Y42450000D02*
X34275100Y42450000D01*
G75*
G02*
X34225000Y42500100I0J50100D01*
G01*
X34225000Y42999900D01*
G75*
G02*
X34275100Y43050000I50100J0D01*
G01*
X34474900Y43050000D01*
G75*
G02*
X34525000Y42999900I0J-50100D01*
G01*
X34525000Y42500100D01*
G75*
G02*
X34474900Y42450000I-50100J0D01*
G01*
G37*
G36*
G01*
X35774900Y42450000D02*
X35575100Y42450000D01*
G75*
G02*
X35525000Y42500100I0J50100D01*
G01*
X35525000Y42999900D01*
G75*
G02*
X35575100Y43050000I50100J0D01*
G01*
X35774900Y43050000D01*
G75*
G02*
X35825000Y42999900I0J-50100D01*
G01*
X35825000Y42500100D01*
G75*
G02*
X35774900Y42450000I-50100J0D01*
G01*
G37*
G36*
G01*
X36424900Y42450000D02*
X36225100Y42450000D01*
G75*
G02*
X36175000Y42500100I0J50100D01*
G01*
X36175000Y42999900D01*
G75*
G02*
X36225100Y43050000I50100J0D01*
G01*
X36424900Y43050000D01*
G75*
G02*
X36475000Y42999900I0J-50100D01*
G01*
X36475000Y42500100D01*
G75*
G02*
X36424900Y42450000I-50100J0D01*
G01*
G37*
G36*
G01*
X35124900Y42450000D02*
X34925100Y42450000D01*
G75*
G02*
X34875000Y42500100I0J50100D01*
G01*
X34875000Y42999900D01*
G75*
G02*
X34925100Y43050000I50100J0D01*
G01*
X35124900Y43050000D01*
G75*
G02*
X35175000Y42999900I0J-50100D01*
G01*
X35175000Y42500100D01*
G75*
G02*
X35124900Y42450000I-50100J0D01*
G01*
G37*
G36*
G01*
X36424900Y39650000D02*
X36225100Y39650000D01*
G75*
G02*
X36175000Y39700100I0J50100D01*
G01*
X36175000Y40199900D01*
G75*
G02*
X36225100Y40250000I50100J0D01*
G01*
X36424900Y40250000D01*
G75*
G02*
X36475000Y40199900I0J-50100D01*
G01*
X36475000Y39700100D01*
G75*
G02*
X36424900Y39650000I-50100J0D01*
G01*
G37*
G36*
G01*
X35774900Y39650000D02*
X35575100Y39650000D01*
G75*
G02*
X35525000Y39700100I0J50100D01*
G01*
X35525000Y40199900D01*
G75*
G02*
X35575100Y40250000I50100J0D01*
G01*
X35774900Y40250000D01*
G75*
G02*
X35825000Y40199900I0J-50100D01*
G01*
X35825000Y39700100D01*
G75*
G02*
X35774900Y39650000I-50100J0D01*
G01*
G37*
G36*
G01*
X35124900Y39650000D02*
X34925100Y39650000D01*
G75*
G02*
X34875000Y39700100I0J50100D01*
G01*
X34875000Y40199900D01*
G75*
G02*
X34925100Y40250000I50100J0D01*
G01*
X35124900Y40250000D01*
G75*
G02*
X35175000Y40199900I0J-50100D01*
G01*
X35175000Y39700100D01*
G75*
G02*
X35124900Y39650000I-50100J0D01*
G01*
G37*
G36*
G01*
X34474900Y39650000D02*
X34275100Y39650000D01*
G75*
G02*
X34225000Y39700100I0J50100D01*
G01*
X34225000Y40199900D01*
G75*
G02*
X34275100Y40250000I50100J0D01*
G01*
X34474900Y40250000D01*
G75*
G02*
X34525000Y40199900I0J-50100D01*
G01*
X34525000Y39700100D01*
G75*
G02*
X34474900Y39650000I-50100J0D01*
G01*
G37*
%TD*%
%TO.C,U14*%
G36*
G01*
X51824900Y42500000D02*
X51625100Y42500000D01*
G75*
G02*
X51575000Y42550100I0J50100D01*
G01*
X51575000Y43049900D01*
G75*
G02*
X51625100Y43100000I50100J0D01*
G01*
X51824900Y43100000D01*
G75*
G02*
X51875000Y43049900I0J-50100D01*
G01*
X51875000Y42550100D01*
G75*
G02*
X51824900Y42500000I-50100J0D01*
G01*
G37*
G36*
G01*
X53124900Y42500000D02*
X52925100Y42500000D01*
G75*
G02*
X52875000Y42550100I0J50100D01*
G01*
X52875000Y43049900D01*
G75*
G02*
X52925100Y43100000I50100J0D01*
G01*
X53124900Y43100000D01*
G75*
G02*
X53175000Y43049900I0J-50100D01*
G01*
X53175000Y42550100D01*
G75*
G02*
X53124900Y42500000I-50100J0D01*
G01*
G37*
G36*
G01*
X53774900Y42500000D02*
X53575100Y42500000D01*
G75*
G02*
X53525000Y42550100I0J50100D01*
G01*
X53525000Y43049900D01*
G75*
G02*
X53575100Y43100000I50100J0D01*
G01*
X53774900Y43100000D01*
G75*
G02*
X53825000Y43049900I0J-50100D01*
G01*
X53825000Y42550100D01*
G75*
G02*
X53774900Y42500000I-50100J0D01*
G01*
G37*
G36*
G01*
X52474900Y42500000D02*
X52275100Y42500000D01*
G75*
G02*
X52225000Y42550100I0J50100D01*
G01*
X52225000Y43049900D01*
G75*
G02*
X52275100Y43100000I50100J0D01*
G01*
X52474900Y43100000D01*
G75*
G02*
X52525000Y43049900I0J-50100D01*
G01*
X52525000Y42550100D01*
G75*
G02*
X52474900Y42500000I-50100J0D01*
G01*
G37*
G36*
G01*
X53774900Y39700000D02*
X53575100Y39700000D01*
G75*
G02*
X53525000Y39750100I0J50100D01*
G01*
X53525000Y40249900D01*
G75*
G02*
X53575100Y40300000I50100J0D01*
G01*
X53774900Y40300000D01*
G75*
G02*
X53825000Y40249900I0J-50100D01*
G01*
X53825000Y39750100D01*
G75*
G02*
X53774900Y39700000I-50100J0D01*
G01*
G37*
G36*
G01*
X53124900Y39700000D02*
X52925100Y39700000D01*
G75*
G02*
X52875000Y39750100I0J50100D01*
G01*
X52875000Y40249900D01*
G75*
G02*
X52925100Y40300000I50100J0D01*
G01*
X53124900Y40300000D01*
G75*
G02*
X53175000Y40249900I0J-50100D01*
G01*
X53175000Y39750100D01*
G75*
G02*
X53124900Y39700000I-50100J0D01*
G01*
G37*
G36*
G01*
X52474900Y39700000D02*
X52275100Y39700000D01*
G75*
G02*
X52225000Y39750100I0J50100D01*
G01*
X52225000Y40249900D01*
G75*
G02*
X52275100Y40300000I50100J0D01*
G01*
X52474900Y40300000D01*
G75*
G02*
X52525000Y40249900I0J-50100D01*
G01*
X52525000Y39750100D01*
G75*
G02*
X52474900Y39700000I-50100J0D01*
G01*
G37*
G36*
G01*
X51824900Y39700000D02*
X51625100Y39700000D01*
G75*
G02*
X51575000Y39750100I0J50100D01*
G01*
X51575000Y40249900D01*
G75*
G02*
X51625100Y40300000I50100J0D01*
G01*
X51824900Y40300000D01*
G75*
G02*
X51875000Y40249900I0J-50100D01*
G01*
X51875000Y39750100D01*
G75*
G02*
X51824900Y39700000I-50100J0D01*
G01*
G37*
%TD*%
%TO.C,U13*%
G36*
G01*
X69124900Y42500000D02*
X68925100Y42500000D01*
G75*
G02*
X68875000Y42550100I0J50100D01*
G01*
X68875000Y43049900D01*
G75*
G02*
X68925100Y43100000I50100J0D01*
G01*
X69124900Y43100000D01*
G75*
G02*
X69175000Y43049900I0J-50100D01*
G01*
X69175000Y42550100D01*
G75*
G02*
X69124900Y42500000I-50100J0D01*
G01*
G37*
G36*
G01*
X70424900Y42500000D02*
X70225100Y42500000D01*
G75*
G02*
X70175000Y42550100I0J50100D01*
G01*
X70175000Y43049900D01*
G75*
G02*
X70225100Y43100000I50100J0D01*
G01*
X70424900Y43100000D01*
G75*
G02*
X70475000Y43049900I0J-50100D01*
G01*
X70475000Y42550100D01*
G75*
G02*
X70424900Y42500000I-50100J0D01*
G01*
G37*
G36*
G01*
X71074900Y42500000D02*
X70875100Y42500000D01*
G75*
G02*
X70825000Y42550100I0J50100D01*
G01*
X70825000Y43049900D01*
G75*
G02*
X70875100Y43100000I50100J0D01*
G01*
X71074900Y43100000D01*
G75*
G02*
X71125000Y43049900I0J-50100D01*
G01*
X71125000Y42550100D01*
G75*
G02*
X71074900Y42500000I-50100J0D01*
G01*
G37*
G36*
G01*
X69774900Y42500000D02*
X69575100Y42500000D01*
G75*
G02*
X69525000Y42550100I0J50100D01*
G01*
X69525000Y43049900D01*
G75*
G02*
X69575100Y43100000I50100J0D01*
G01*
X69774900Y43100000D01*
G75*
G02*
X69825000Y43049900I0J-50100D01*
G01*
X69825000Y42550100D01*
G75*
G02*
X69774900Y42500000I-50100J0D01*
G01*
G37*
G36*
G01*
X71074900Y39700000D02*
X70875100Y39700000D01*
G75*
G02*
X70825000Y39750100I0J50100D01*
G01*
X70825000Y40249900D01*
G75*
G02*
X70875100Y40300000I50100J0D01*
G01*
X71074900Y40300000D01*
G75*
G02*
X71125000Y40249900I0J-50100D01*
G01*
X71125000Y39750100D01*
G75*
G02*
X71074900Y39700000I-50100J0D01*
G01*
G37*
G36*
G01*
X70424900Y39700000D02*
X70225100Y39700000D01*
G75*
G02*
X70175000Y39750100I0J50100D01*
G01*
X70175000Y40249900D01*
G75*
G02*
X70225100Y40300000I50100J0D01*
G01*
X70424900Y40300000D01*
G75*
G02*
X70475000Y40249900I0J-50100D01*
G01*
X70475000Y39750100D01*
G75*
G02*
X70424900Y39700000I-50100J0D01*
G01*
G37*
G36*
G01*
X69774900Y39700000D02*
X69575100Y39700000D01*
G75*
G02*
X69525000Y39750100I0J50100D01*
G01*
X69525000Y40249900D01*
G75*
G02*
X69575100Y40300000I50100J0D01*
G01*
X69774900Y40300000D01*
G75*
G02*
X69825000Y40249900I0J-50100D01*
G01*
X69825000Y39750100D01*
G75*
G02*
X69774900Y39700000I-50100J0D01*
G01*
G37*
G36*
G01*
X69124900Y39700000D02*
X68925100Y39700000D01*
G75*
G02*
X68875000Y39750100I0J50100D01*
G01*
X68875000Y40249900D01*
G75*
G02*
X68925100Y40300000I50100J0D01*
G01*
X69124900Y40300000D01*
G75*
G02*
X69175000Y40249900I0J-50100D01*
G01*
X69175000Y39750100D01*
G75*
G02*
X69124900Y39700000I-50100J0D01*
G01*
G37*
%TD*%
%TO.C,U12*%
G36*
G01*
X24074900Y42450000D02*
X23875100Y42450000D01*
G75*
G02*
X23825000Y42500100I0J50100D01*
G01*
X23825000Y42999900D01*
G75*
G02*
X23875100Y43050000I50100J0D01*
G01*
X24074900Y43050000D01*
G75*
G02*
X24125000Y42999900I0J-50100D01*
G01*
X24125000Y42500100D01*
G75*
G02*
X24074900Y42450000I-50100J0D01*
G01*
G37*
G36*
G01*
X25374900Y42450000D02*
X25175100Y42450000D01*
G75*
G02*
X25125000Y42500100I0J50100D01*
G01*
X25125000Y42999900D01*
G75*
G02*
X25175100Y43050000I50100J0D01*
G01*
X25374900Y43050000D01*
G75*
G02*
X25425000Y42999900I0J-50100D01*
G01*
X25425000Y42500100D01*
G75*
G02*
X25374900Y42450000I-50100J0D01*
G01*
G37*
G36*
G01*
X26024900Y42450000D02*
X25825100Y42450000D01*
G75*
G02*
X25775000Y42500100I0J50100D01*
G01*
X25775000Y42999900D01*
G75*
G02*
X25825100Y43050000I50100J0D01*
G01*
X26024900Y43050000D01*
G75*
G02*
X26075000Y42999900I0J-50100D01*
G01*
X26075000Y42500100D01*
G75*
G02*
X26024900Y42450000I-50100J0D01*
G01*
G37*
G36*
G01*
X24724900Y42450000D02*
X24525100Y42450000D01*
G75*
G02*
X24475000Y42500100I0J50100D01*
G01*
X24475000Y42999900D01*
G75*
G02*
X24525100Y43050000I50100J0D01*
G01*
X24724900Y43050000D01*
G75*
G02*
X24775000Y42999900I0J-50100D01*
G01*
X24775000Y42500100D01*
G75*
G02*
X24724900Y42450000I-50100J0D01*
G01*
G37*
G36*
G01*
X26024900Y39650000D02*
X25825100Y39650000D01*
G75*
G02*
X25775000Y39700100I0J50100D01*
G01*
X25775000Y40199900D01*
G75*
G02*
X25825100Y40250000I50100J0D01*
G01*
X26024900Y40250000D01*
G75*
G02*
X26075000Y40199900I0J-50100D01*
G01*
X26075000Y39700100D01*
G75*
G02*
X26024900Y39650000I-50100J0D01*
G01*
G37*
G36*
G01*
X25374900Y39650000D02*
X25175100Y39650000D01*
G75*
G02*
X25125000Y39700100I0J50100D01*
G01*
X25125000Y40199900D01*
G75*
G02*
X25175100Y40250000I50100J0D01*
G01*
X25374900Y40250000D01*
G75*
G02*
X25425000Y40199900I0J-50100D01*
G01*
X25425000Y39700100D01*
G75*
G02*
X25374900Y39650000I-50100J0D01*
G01*
G37*
G36*
G01*
X24724900Y39650000D02*
X24525100Y39650000D01*
G75*
G02*
X24475000Y39700100I0J50100D01*
G01*
X24475000Y40199900D01*
G75*
G02*
X24525100Y40250000I50100J0D01*
G01*
X24724900Y40250000D01*
G75*
G02*
X24775000Y40199900I0J-50100D01*
G01*
X24775000Y39700100D01*
G75*
G02*
X24724900Y39650000I-50100J0D01*
G01*
G37*
G36*
G01*
X24074900Y39650000D02*
X23875100Y39650000D01*
G75*
G02*
X23825000Y39700100I0J50100D01*
G01*
X23825000Y40199900D01*
G75*
G02*
X23875100Y40250000I50100J0D01*
G01*
X24074900Y40250000D01*
G75*
G02*
X24125000Y40199900I0J-50100D01*
G01*
X24125000Y39700100D01*
G75*
G02*
X24074900Y39650000I-50100J0D01*
G01*
G37*
%TD*%
%TO.C,U11*%
G36*
G01*
X44874900Y42500000D02*
X44675100Y42500000D01*
G75*
G02*
X44625000Y42550100I0J50100D01*
G01*
X44625000Y43049900D01*
G75*
G02*
X44675100Y43100000I50100J0D01*
G01*
X44874900Y43100000D01*
G75*
G02*
X44925000Y43049900I0J-50100D01*
G01*
X44925000Y42550100D01*
G75*
G02*
X44874900Y42500000I-50100J0D01*
G01*
G37*
G36*
G01*
X46174900Y42500000D02*
X45975100Y42500000D01*
G75*
G02*
X45925000Y42550100I0J50100D01*
G01*
X45925000Y43049900D01*
G75*
G02*
X45975100Y43100000I50100J0D01*
G01*
X46174900Y43100000D01*
G75*
G02*
X46225000Y43049900I0J-50100D01*
G01*
X46225000Y42550100D01*
G75*
G02*
X46174900Y42500000I-50100J0D01*
G01*
G37*
G36*
G01*
X46824900Y42500000D02*
X46625100Y42500000D01*
G75*
G02*
X46575000Y42550100I0J50100D01*
G01*
X46575000Y43049900D01*
G75*
G02*
X46625100Y43100000I50100J0D01*
G01*
X46824900Y43100000D01*
G75*
G02*
X46875000Y43049900I0J-50100D01*
G01*
X46875000Y42550100D01*
G75*
G02*
X46824900Y42500000I-50100J0D01*
G01*
G37*
G36*
G01*
X45524900Y42500000D02*
X45325100Y42500000D01*
G75*
G02*
X45275000Y42550100I0J50100D01*
G01*
X45275000Y43049900D01*
G75*
G02*
X45325100Y43100000I50100J0D01*
G01*
X45524900Y43100000D01*
G75*
G02*
X45575000Y43049900I0J-50100D01*
G01*
X45575000Y42550100D01*
G75*
G02*
X45524900Y42500000I-50100J0D01*
G01*
G37*
G36*
G01*
X46824900Y39700000D02*
X46625100Y39700000D01*
G75*
G02*
X46575000Y39750100I0J50100D01*
G01*
X46575000Y40249900D01*
G75*
G02*
X46625100Y40300000I50100J0D01*
G01*
X46824900Y40300000D01*
G75*
G02*
X46875000Y40249900I0J-50100D01*
G01*
X46875000Y39750100D01*
G75*
G02*
X46824900Y39700000I-50100J0D01*
G01*
G37*
G36*
G01*
X46174900Y39700000D02*
X45975100Y39700000D01*
G75*
G02*
X45925000Y39750100I0J50100D01*
G01*
X45925000Y40249900D01*
G75*
G02*
X45975100Y40300000I50100J0D01*
G01*
X46174900Y40300000D01*
G75*
G02*
X46225000Y40249900I0J-50100D01*
G01*
X46225000Y39750100D01*
G75*
G02*
X46174900Y39700000I-50100J0D01*
G01*
G37*
G36*
G01*
X45524900Y39700000D02*
X45325100Y39700000D01*
G75*
G02*
X45275000Y39750100I0J50100D01*
G01*
X45275000Y40249900D01*
G75*
G02*
X45325100Y40300000I50100J0D01*
G01*
X45524900Y40300000D01*
G75*
G02*
X45575000Y40249900I0J-50100D01*
G01*
X45575000Y39750100D01*
G75*
G02*
X45524900Y39700000I-50100J0D01*
G01*
G37*
G36*
G01*
X44874900Y39700000D02*
X44675100Y39700000D01*
G75*
G02*
X44625000Y39750100I0J50100D01*
G01*
X44625000Y40249900D01*
G75*
G02*
X44675100Y40300000I50100J0D01*
G01*
X44874900Y40300000D01*
G75*
G02*
X44925000Y40249900I0J-50100D01*
G01*
X44925000Y39750100D01*
G75*
G02*
X44874900Y39700000I-50100J0D01*
G01*
G37*
%TD*%
%TO.C,U10*%
G36*
G01*
X13674900Y42450000D02*
X13475100Y42450000D01*
G75*
G02*
X13425000Y42500100I0J50100D01*
G01*
X13425000Y42999900D01*
G75*
G02*
X13475100Y43050000I50100J0D01*
G01*
X13674900Y43050000D01*
G75*
G02*
X13725000Y42999900I0J-50100D01*
G01*
X13725000Y42500100D01*
G75*
G02*
X13674900Y42450000I-50100J0D01*
G01*
G37*
G36*
G01*
X14974900Y42450000D02*
X14775100Y42450000D01*
G75*
G02*
X14725000Y42500100I0J50100D01*
G01*
X14725000Y42999900D01*
G75*
G02*
X14775100Y43050000I50100J0D01*
G01*
X14974900Y43050000D01*
G75*
G02*
X15025000Y42999900I0J-50100D01*
G01*
X15025000Y42500100D01*
G75*
G02*
X14974900Y42450000I-50100J0D01*
G01*
G37*
G36*
G01*
X15624900Y42450000D02*
X15425100Y42450000D01*
G75*
G02*
X15375000Y42500100I0J50100D01*
G01*
X15375000Y42999900D01*
G75*
G02*
X15425100Y43050000I50100J0D01*
G01*
X15624900Y43050000D01*
G75*
G02*
X15675000Y42999900I0J-50100D01*
G01*
X15675000Y42500100D01*
G75*
G02*
X15624900Y42450000I-50100J0D01*
G01*
G37*
G36*
G01*
X14324900Y42450000D02*
X14125100Y42450000D01*
G75*
G02*
X14075000Y42500100I0J50100D01*
G01*
X14075000Y42999900D01*
G75*
G02*
X14125100Y43050000I50100J0D01*
G01*
X14324900Y43050000D01*
G75*
G02*
X14375000Y42999900I0J-50100D01*
G01*
X14375000Y42500100D01*
G75*
G02*
X14324900Y42450000I-50100J0D01*
G01*
G37*
G36*
G01*
X15624900Y39650000D02*
X15425100Y39650000D01*
G75*
G02*
X15375000Y39700100I0J50100D01*
G01*
X15375000Y40199900D01*
G75*
G02*
X15425100Y40250000I50100J0D01*
G01*
X15624900Y40250000D01*
G75*
G02*
X15675000Y40199900I0J-50100D01*
G01*
X15675000Y39700100D01*
G75*
G02*
X15624900Y39650000I-50100J0D01*
G01*
G37*
G36*
G01*
X14974900Y39650000D02*
X14775100Y39650000D01*
G75*
G02*
X14725000Y39700100I0J50100D01*
G01*
X14725000Y40199900D01*
G75*
G02*
X14775100Y40250000I50100J0D01*
G01*
X14974900Y40250000D01*
G75*
G02*
X15025000Y40199900I0J-50100D01*
G01*
X15025000Y39700100D01*
G75*
G02*
X14974900Y39650000I-50100J0D01*
G01*
G37*
G36*
G01*
X14324900Y39650000D02*
X14125100Y39650000D01*
G75*
G02*
X14075000Y39700100I0J50100D01*
G01*
X14075000Y40199900D01*
G75*
G02*
X14125100Y40250000I50100J0D01*
G01*
X14324900Y40250000D01*
G75*
G02*
X14375000Y40199900I0J-50100D01*
G01*
X14375000Y39700100D01*
G75*
G02*
X14324900Y39650000I-50100J0D01*
G01*
G37*
G36*
G01*
X13674900Y39650000D02*
X13475100Y39650000D01*
G75*
G02*
X13425000Y39700100I0J50100D01*
G01*
X13425000Y40199900D01*
G75*
G02*
X13475100Y40250000I50100J0D01*
G01*
X13674900Y40250000D01*
G75*
G02*
X13725000Y40199900I0J-50100D01*
G01*
X13725000Y39700100D01*
G75*
G02*
X13674900Y39650000I-50100J0D01*
G01*
G37*
%TD*%
%TO.C,U9*%
G36*
G01*
X58724900Y42500000D02*
X58525100Y42500000D01*
G75*
G02*
X58475000Y42550100I0J50100D01*
G01*
X58475000Y43049900D01*
G75*
G02*
X58525100Y43100000I50100J0D01*
G01*
X58724900Y43100000D01*
G75*
G02*
X58775000Y43049900I0J-50100D01*
G01*
X58775000Y42550100D01*
G75*
G02*
X58724900Y42500000I-50100J0D01*
G01*
G37*
G36*
G01*
X60024900Y42500000D02*
X59825100Y42500000D01*
G75*
G02*
X59775000Y42550100I0J50100D01*
G01*
X59775000Y43049900D01*
G75*
G02*
X59825100Y43100000I50100J0D01*
G01*
X60024900Y43100000D01*
G75*
G02*
X60075000Y43049900I0J-50100D01*
G01*
X60075000Y42550100D01*
G75*
G02*
X60024900Y42500000I-50100J0D01*
G01*
G37*
G36*
G01*
X60674900Y42500000D02*
X60475100Y42500000D01*
G75*
G02*
X60425000Y42550100I0J50100D01*
G01*
X60425000Y43049900D01*
G75*
G02*
X60475100Y43100000I50100J0D01*
G01*
X60674900Y43100000D01*
G75*
G02*
X60725000Y43049900I0J-50100D01*
G01*
X60725000Y42550100D01*
G75*
G02*
X60674900Y42500000I-50100J0D01*
G01*
G37*
G36*
G01*
X59374900Y42500000D02*
X59175100Y42500000D01*
G75*
G02*
X59125000Y42550100I0J50100D01*
G01*
X59125000Y43049900D01*
G75*
G02*
X59175100Y43100000I50100J0D01*
G01*
X59374900Y43100000D01*
G75*
G02*
X59425000Y43049900I0J-50100D01*
G01*
X59425000Y42550100D01*
G75*
G02*
X59374900Y42500000I-50100J0D01*
G01*
G37*
G36*
G01*
X60674900Y39700000D02*
X60475100Y39700000D01*
G75*
G02*
X60425000Y39750100I0J50100D01*
G01*
X60425000Y40249900D01*
G75*
G02*
X60475100Y40300000I50100J0D01*
G01*
X60674900Y40300000D01*
G75*
G02*
X60725000Y40249900I0J-50100D01*
G01*
X60725000Y39750100D01*
G75*
G02*
X60674900Y39700000I-50100J0D01*
G01*
G37*
G36*
G01*
X60024900Y39700000D02*
X59825100Y39700000D01*
G75*
G02*
X59775000Y39750100I0J50100D01*
G01*
X59775000Y40249900D01*
G75*
G02*
X59825100Y40300000I50100J0D01*
G01*
X60024900Y40300000D01*
G75*
G02*
X60075000Y40249900I0J-50100D01*
G01*
X60075000Y39750100D01*
G75*
G02*
X60024900Y39700000I-50100J0D01*
G01*
G37*
G36*
G01*
X59374900Y39700000D02*
X59175100Y39700000D01*
G75*
G02*
X59125000Y39750100I0J50100D01*
G01*
X59125000Y40249900D01*
G75*
G02*
X59175100Y40300000I50100J0D01*
G01*
X59374900Y40300000D01*
G75*
G02*
X59425000Y40249900I0J-50100D01*
G01*
X59425000Y39750100D01*
G75*
G02*
X59374900Y39700000I-50100J0D01*
G01*
G37*
G36*
G01*
X58724900Y39700000D02*
X58525100Y39700000D01*
G75*
G02*
X58475000Y39750100I0J50100D01*
G01*
X58475000Y40249900D01*
G75*
G02*
X58525100Y40300000I50100J0D01*
G01*
X58724900Y40300000D01*
G75*
G02*
X58775000Y40249900I0J-50100D01*
G01*
X58775000Y39750100D01*
G75*
G02*
X58724900Y39700000I-50100J0D01*
G01*
G37*
%TD*%
%TO.C,U8*%
G36*
G01*
X62224900Y42500000D02*
X62025100Y42500000D01*
G75*
G02*
X61975000Y42550100I0J50100D01*
G01*
X61975000Y43049900D01*
G75*
G02*
X62025100Y43100000I50100J0D01*
G01*
X62224900Y43100000D01*
G75*
G02*
X62275000Y43049900I0J-50100D01*
G01*
X62275000Y42550100D01*
G75*
G02*
X62224900Y42500000I-50100J0D01*
G01*
G37*
G36*
G01*
X63524900Y42500000D02*
X63325100Y42500000D01*
G75*
G02*
X63275000Y42550100I0J50100D01*
G01*
X63275000Y43049900D01*
G75*
G02*
X63325100Y43100000I50100J0D01*
G01*
X63524900Y43100000D01*
G75*
G02*
X63575000Y43049900I0J-50100D01*
G01*
X63575000Y42550100D01*
G75*
G02*
X63524900Y42500000I-50100J0D01*
G01*
G37*
G36*
G01*
X64174900Y42500000D02*
X63975100Y42500000D01*
G75*
G02*
X63925000Y42550100I0J50100D01*
G01*
X63925000Y43049900D01*
G75*
G02*
X63975100Y43100000I50100J0D01*
G01*
X64174900Y43100000D01*
G75*
G02*
X64225000Y43049900I0J-50100D01*
G01*
X64225000Y42550100D01*
G75*
G02*
X64174900Y42500000I-50100J0D01*
G01*
G37*
G36*
G01*
X62874900Y42500000D02*
X62675100Y42500000D01*
G75*
G02*
X62625000Y42550100I0J50100D01*
G01*
X62625000Y43049900D01*
G75*
G02*
X62675100Y43100000I50100J0D01*
G01*
X62874900Y43100000D01*
G75*
G02*
X62925000Y43049900I0J-50100D01*
G01*
X62925000Y42550100D01*
G75*
G02*
X62874900Y42500000I-50100J0D01*
G01*
G37*
G36*
G01*
X64174900Y39700000D02*
X63975100Y39700000D01*
G75*
G02*
X63925000Y39750100I0J50100D01*
G01*
X63925000Y40249900D01*
G75*
G02*
X63975100Y40300000I50100J0D01*
G01*
X64174900Y40300000D01*
G75*
G02*
X64225000Y40249900I0J-50100D01*
G01*
X64225000Y39750100D01*
G75*
G02*
X64174900Y39700000I-50100J0D01*
G01*
G37*
G36*
G01*
X63524900Y39700000D02*
X63325100Y39700000D01*
G75*
G02*
X63275000Y39750100I0J50100D01*
G01*
X63275000Y40249900D01*
G75*
G02*
X63325100Y40300000I50100J0D01*
G01*
X63524900Y40300000D01*
G75*
G02*
X63575000Y40249900I0J-50100D01*
G01*
X63575000Y39750100D01*
G75*
G02*
X63524900Y39700000I-50100J0D01*
G01*
G37*
G36*
G01*
X62874900Y39700000D02*
X62675100Y39700000D01*
G75*
G02*
X62625000Y39750100I0J50100D01*
G01*
X62625000Y40249900D01*
G75*
G02*
X62675100Y40300000I50100J0D01*
G01*
X62874900Y40300000D01*
G75*
G02*
X62925000Y40249900I0J-50100D01*
G01*
X62925000Y39750100D01*
G75*
G02*
X62874900Y39700000I-50100J0D01*
G01*
G37*
G36*
G01*
X62224900Y39700000D02*
X62025100Y39700000D01*
G75*
G02*
X61975000Y39750100I0J50100D01*
G01*
X61975000Y40249900D01*
G75*
G02*
X62025100Y40300000I50100J0D01*
G01*
X62224900Y40300000D01*
G75*
G02*
X62275000Y40249900I0J-50100D01*
G01*
X62275000Y39750100D01*
G75*
G02*
X62224900Y39700000I-50100J0D01*
G01*
G37*
%TD*%
%TO.C,U7*%
G36*
G01*
X65674900Y42500000D02*
X65475100Y42500000D01*
G75*
G02*
X65425000Y42550100I0J50100D01*
G01*
X65425000Y43049900D01*
G75*
G02*
X65475100Y43100000I50100J0D01*
G01*
X65674900Y43100000D01*
G75*
G02*
X65725000Y43049900I0J-50100D01*
G01*
X65725000Y42550100D01*
G75*
G02*
X65674900Y42500000I-50100J0D01*
G01*
G37*
G36*
G01*
X66974900Y42500000D02*
X66775100Y42500000D01*
G75*
G02*
X66725000Y42550100I0J50100D01*
G01*
X66725000Y43049900D01*
G75*
G02*
X66775100Y43100000I50100J0D01*
G01*
X66974900Y43100000D01*
G75*
G02*
X67025000Y43049900I0J-50100D01*
G01*
X67025000Y42550100D01*
G75*
G02*
X66974900Y42500000I-50100J0D01*
G01*
G37*
G36*
G01*
X67624900Y42500000D02*
X67425100Y42500000D01*
G75*
G02*
X67375000Y42550100I0J50100D01*
G01*
X67375000Y43049900D01*
G75*
G02*
X67425100Y43100000I50100J0D01*
G01*
X67624900Y43100000D01*
G75*
G02*
X67675000Y43049900I0J-50100D01*
G01*
X67675000Y42550100D01*
G75*
G02*
X67624900Y42500000I-50100J0D01*
G01*
G37*
G36*
G01*
X66324900Y42500000D02*
X66125100Y42500000D01*
G75*
G02*
X66075000Y42550100I0J50100D01*
G01*
X66075000Y43049900D01*
G75*
G02*
X66125100Y43100000I50100J0D01*
G01*
X66324900Y43100000D01*
G75*
G02*
X66375000Y43049900I0J-50100D01*
G01*
X66375000Y42550100D01*
G75*
G02*
X66324900Y42500000I-50100J0D01*
G01*
G37*
G36*
G01*
X67624900Y39700000D02*
X67425100Y39700000D01*
G75*
G02*
X67375000Y39750100I0J50100D01*
G01*
X67375000Y40249900D01*
G75*
G02*
X67425100Y40300000I50100J0D01*
G01*
X67624900Y40300000D01*
G75*
G02*
X67675000Y40249900I0J-50100D01*
G01*
X67675000Y39750100D01*
G75*
G02*
X67624900Y39700000I-50100J0D01*
G01*
G37*
G36*
G01*
X66974900Y39700000D02*
X66775100Y39700000D01*
G75*
G02*
X66725000Y39750100I0J50100D01*
G01*
X66725000Y40249900D01*
G75*
G02*
X66775100Y40300000I50100J0D01*
G01*
X66974900Y40300000D01*
G75*
G02*
X67025000Y40249900I0J-50100D01*
G01*
X67025000Y39750100D01*
G75*
G02*
X66974900Y39700000I-50100J0D01*
G01*
G37*
G36*
G01*
X66324900Y39700000D02*
X66125100Y39700000D01*
G75*
G02*
X66075000Y39750100I0J50100D01*
G01*
X66075000Y40249900D01*
G75*
G02*
X66125100Y40300000I50100J0D01*
G01*
X66324900Y40300000D01*
G75*
G02*
X66375000Y40249900I0J-50100D01*
G01*
X66375000Y39750100D01*
G75*
G02*
X66324900Y39700000I-50100J0D01*
G01*
G37*
G36*
G01*
X65674900Y39700000D02*
X65475100Y39700000D01*
G75*
G02*
X65425000Y39750100I0J50100D01*
G01*
X65425000Y40249900D01*
G75*
G02*
X65475100Y40300000I50100J0D01*
G01*
X65674900Y40300000D01*
G75*
G02*
X65725000Y40249900I0J-50100D01*
G01*
X65725000Y39750100D01*
G75*
G02*
X65674900Y39700000I-50100J0D01*
G01*
G37*
%TD*%
%TO.C,U6*%
G36*
G01*
X41424900Y42500000D02*
X41225100Y42500000D01*
G75*
G02*
X41175000Y42550100I0J50100D01*
G01*
X41175000Y43049900D01*
G75*
G02*
X41225100Y43100000I50100J0D01*
G01*
X41424900Y43100000D01*
G75*
G02*
X41475000Y43049900I0J-50100D01*
G01*
X41475000Y42550100D01*
G75*
G02*
X41424900Y42500000I-50100J0D01*
G01*
G37*
G36*
G01*
X42724900Y42500000D02*
X42525100Y42500000D01*
G75*
G02*
X42475000Y42550100I0J50100D01*
G01*
X42475000Y43049900D01*
G75*
G02*
X42525100Y43100000I50100J0D01*
G01*
X42724900Y43100000D01*
G75*
G02*
X42775000Y43049900I0J-50100D01*
G01*
X42775000Y42550100D01*
G75*
G02*
X42724900Y42500000I-50100J0D01*
G01*
G37*
G36*
G01*
X43374900Y42500000D02*
X43175100Y42500000D01*
G75*
G02*
X43125000Y42550100I0J50100D01*
G01*
X43125000Y43049900D01*
G75*
G02*
X43175100Y43100000I50100J0D01*
G01*
X43374900Y43100000D01*
G75*
G02*
X43425000Y43049900I0J-50100D01*
G01*
X43425000Y42550100D01*
G75*
G02*
X43374900Y42500000I-50100J0D01*
G01*
G37*
G36*
G01*
X42074900Y42500000D02*
X41875100Y42500000D01*
G75*
G02*
X41825000Y42550100I0J50100D01*
G01*
X41825000Y43049900D01*
G75*
G02*
X41875100Y43100000I50100J0D01*
G01*
X42074900Y43100000D01*
G75*
G02*
X42125000Y43049900I0J-50100D01*
G01*
X42125000Y42550100D01*
G75*
G02*
X42074900Y42500000I-50100J0D01*
G01*
G37*
G36*
G01*
X43374900Y39700000D02*
X43175100Y39700000D01*
G75*
G02*
X43125000Y39750100I0J50100D01*
G01*
X43125000Y40249900D01*
G75*
G02*
X43175100Y40300000I50100J0D01*
G01*
X43374900Y40300000D01*
G75*
G02*
X43425000Y40249900I0J-50100D01*
G01*
X43425000Y39750100D01*
G75*
G02*
X43374900Y39700000I-50100J0D01*
G01*
G37*
G36*
G01*
X42724900Y39700000D02*
X42525100Y39700000D01*
G75*
G02*
X42475000Y39750100I0J50100D01*
G01*
X42475000Y40249900D01*
G75*
G02*
X42525100Y40300000I50100J0D01*
G01*
X42724900Y40300000D01*
G75*
G02*
X42775000Y40249900I0J-50100D01*
G01*
X42775000Y39750100D01*
G75*
G02*
X42724900Y39700000I-50100J0D01*
G01*
G37*
G36*
G01*
X42074900Y39700000D02*
X41875100Y39700000D01*
G75*
G02*
X41825000Y39750100I0J50100D01*
G01*
X41825000Y40249900D01*
G75*
G02*
X41875100Y40300000I50100J0D01*
G01*
X42074900Y40300000D01*
G75*
G02*
X42125000Y40249900I0J-50100D01*
G01*
X42125000Y39750100D01*
G75*
G02*
X42074900Y39700000I-50100J0D01*
G01*
G37*
G36*
G01*
X41424900Y39700000D02*
X41225100Y39700000D01*
G75*
G02*
X41175000Y39750100I0J50100D01*
G01*
X41175000Y40249900D01*
G75*
G02*
X41225100Y40300000I50100J0D01*
G01*
X41424900Y40300000D01*
G75*
G02*
X41475000Y40249900I0J-50100D01*
G01*
X41475000Y39750100D01*
G75*
G02*
X41424900Y39700000I-50100J0D01*
G01*
G37*
%TD*%
%TO.C,U5*%
G36*
G01*
X20624900Y42450000D02*
X20425100Y42450000D01*
G75*
G02*
X20375000Y42500100I0J50100D01*
G01*
X20375000Y42999900D01*
G75*
G02*
X20425100Y43050000I50100J0D01*
G01*
X20624900Y43050000D01*
G75*
G02*
X20675000Y42999900I0J-50100D01*
G01*
X20675000Y42500100D01*
G75*
G02*
X20624900Y42450000I-50100J0D01*
G01*
G37*
G36*
G01*
X21924900Y42450000D02*
X21725100Y42450000D01*
G75*
G02*
X21675000Y42500100I0J50100D01*
G01*
X21675000Y42999900D01*
G75*
G02*
X21725100Y43050000I50100J0D01*
G01*
X21924900Y43050000D01*
G75*
G02*
X21975000Y42999900I0J-50100D01*
G01*
X21975000Y42500100D01*
G75*
G02*
X21924900Y42450000I-50100J0D01*
G01*
G37*
G36*
G01*
X22574900Y42450000D02*
X22375100Y42450000D01*
G75*
G02*
X22325000Y42500100I0J50100D01*
G01*
X22325000Y42999900D01*
G75*
G02*
X22375100Y43050000I50100J0D01*
G01*
X22574900Y43050000D01*
G75*
G02*
X22625000Y42999900I0J-50100D01*
G01*
X22625000Y42500100D01*
G75*
G02*
X22574900Y42450000I-50100J0D01*
G01*
G37*
G36*
G01*
X21274900Y42450000D02*
X21075100Y42450000D01*
G75*
G02*
X21025000Y42500100I0J50100D01*
G01*
X21025000Y42999900D01*
G75*
G02*
X21075100Y43050000I50100J0D01*
G01*
X21274900Y43050000D01*
G75*
G02*
X21325000Y42999900I0J-50100D01*
G01*
X21325000Y42500100D01*
G75*
G02*
X21274900Y42450000I-50100J0D01*
G01*
G37*
G36*
G01*
X22574900Y39650000D02*
X22375100Y39650000D01*
G75*
G02*
X22325000Y39700100I0J50100D01*
G01*
X22325000Y40199900D01*
G75*
G02*
X22375100Y40250000I50100J0D01*
G01*
X22574900Y40250000D01*
G75*
G02*
X22625000Y40199900I0J-50100D01*
G01*
X22625000Y39700100D01*
G75*
G02*
X22574900Y39650000I-50100J0D01*
G01*
G37*
G36*
G01*
X21924900Y39650000D02*
X21725100Y39650000D01*
G75*
G02*
X21675000Y39700100I0J50100D01*
G01*
X21675000Y40199900D01*
G75*
G02*
X21725100Y40250000I50100J0D01*
G01*
X21924900Y40250000D01*
G75*
G02*
X21975000Y40199900I0J-50100D01*
G01*
X21975000Y39700100D01*
G75*
G02*
X21924900Y39650000I-50100J0D01*
G01*
G37*
G36*
G01*
X21274900Y39650000D02*
X21075100Y39650000D01*
G75*
G02*
X21025000Y39700100I0J50100D01*
G01*
X21025000Y40199900D01*
G75*
G02*
X21075100Y40250000I50100J0D01*
G01*
X21274900Y40250000D01*
G75*
G02*
X21325000Y40199900I0J-50100D01*
G01*
X21325000Y39700100D01*
G75*
G02*
X21274900Y39650000I-50100J0D01*
G01*
G37*
G36*
G01*
X20624900Y39650000D02*
X20425100Y39650000D01*
G75*
G02*
X20375000Y39700100I0J50100D01*
G01*
X20375000Y40199900D01*
G75*
G02*
X20425100Y40250000I50100J0D01*
G01*
X20624900Y40250000D01*
G75*
G02*
X20675000Y40199900I0J-50100D01*
G01*
X20675000Y39700100D01*
G75*
G02*
X20624900Y39650000I-50100J0D01*
G01*
G37*
%TD*%
%TO.C,U4*%
G36*
G01*
X17124900Y42450000D02*
X16925100Y42450000D01*
G75*
G02*
X16875000Y42500100I0J50100D01*
G01*
X16875000Y42999900D01*
G75*
G02*
X16925100Y43050000I50100J0D01*
G01*
X17124900Y43050000D01*
G75*
G02*
X17175000Y42999900I0J-50100D01*
G01*
X17175000Y42500100D01*
G75*
G02*
X17124900Y42450000I-50100J0D01*
G01*
G37*
G36*
G01*
X18424900Y42450000D02*
X18225100Y42450000D01*
G75*
G02*
X18175000Y42500100I0J50100D01*
G01*
X18175000Y42999900D01*
G75*
G02*
X18225100Y43050000I50100J0D01*
G01*
X18424900Y43050000D01*
G75*
G02*
X18475000Y42999900I0J-50100D01*
G01*
X18475000Y42500100D01*
G75*
G02*
X18424900Y42450000I-50100J0D01*
G01*
G37*
G36*
G01*
X19074900Y42450000D02*
X18875100Y42450000D01*
G75*
G02*
X18825000Y42500100I0J50100D01*
G01*
X18825000Y42999900D01*
G75*
G02*
X18875100Y43050000I50100J0D01*
G01*
X19074900Y43050000D01*
G75*
G02*
X19125000Y42999900I0J-50100D01*
G01*
X19125000Y42500100D01*
G75*
G02*
X19074900Y42450000I-50100J0D01*
G01*
G37*
G36*
G01*
X17774900Y42450000D02*
X17575100Y42450000D01*
G75*
G02*
X17525000Y42500100I0J50100D01*
G01*
X17525000Y42999900D01*
G75*
G02*
X17575100Y43050000I50100J0D01*
G01*
X17774900Y43050000D01*
G75*
G02*
X17825000Y42999900I0J-50100D01*
G01*
X17825000Y42500100D01*
G75*
G02*
X17774900Y42450000I-50100J0D01*
G01*
G37*
G36*
G01*
X19074900Y39650000D02*
X18875100Y39650000D01*
G75*
G02*
X18825000Y39700100I0J50100D01*
G01*
X18825000Y40199900D01*
G75*
G02*
X18875100Y40250000I50100J0D01*
G01*
X19074900Y40250000D01*
G75*
G02*
X19125000Y40199900I0J-50100D01*
G01*
X19125000Y39700100D01*
G75*
G02*
X19074900Y39650000I-50100J0D01*
G01*
G37*
G36*
G01*
X18424900Y39650000D02*
X18225100Y39650000D01*
G75*
G02*
X18175000Y39700100I0J50100D01*
G01*
X18175000Y40199900D01*
G75*
G02*
X18225100Y40250000I50100J0D01*
G01*
X18424900Y40250000D01*
G75*
G02*
X18475000Y40199900I0J-50100D01*
G01*
X18475000Y39700100D01*
G75*
G02*
X18424900Y39650000I-50100J0D01*
G01*
G37*
G36*
G01*
X17774900Y39650000D02*
X17575100Y39650000D01*
G75*
G02*
X17525000Y39700100I0J50100D01*
G01*
X17525000Y40199900D01*
G75*
G02*
X17575100Y40250000I50100J0D01*
G01*
X17774900Y40250000D01*
G75*
G02*
X17825000Y40199900I0J-50100D01*
G01*
X17825000Y39700100D01*
G75*
G02*
X17774900Y39650000I-50100J0D01*
G01*
G37*
G36*
G01*
X17124900Y39650000D02*
X16925100Y39650000D01*
G75*
G02*
X16875000Y39700100I0J50100D01*
G01*
X16875000Y40199900D01*
G75*
G02*
X16925100Y40250000I50100J0D01*
G01*
X17124900Y40250000D01*
G75*
G02*
X17175000Y40199900I0J-50100D01*
G01*
X17175000Y39700100D01*
G75*
G02*
X17124900Y39650000I-50100J0D01*
G01*
G37*
%TD*%
%TO.C,U3*%
G36*
G01*
X37924900Y42450000D02*
X37725100Y42450000D01*
G75*
G02*
X37675000Y42500100I0J50100D01*
G01*
X37675000Y42999900D01*
G75*
G02*
X37725100Y43050000I50100J0D01*
G01*
X37924900Y43050000D01*
G75*
G02*
X37975000Y42999900I0J-50100D01*
G01*
X37975000Y42500100D01*
G75*
G02*
X37924900Y42450000I-50100J0D01*
G01*
G37*
G36*
G01*
X39224900Y42450000D02*
X39025100Y42450000D01*
G75*
G02*
X38975000Y42500100I0J50100D01*
G01*
X38975000Y42999900D01*
G75*
G02*
X39025100Y43050000I50100J0D01*
G01*
X39224900Y43050000D01*
G75*
G02*
X39275000Y42999900I0J-50100D01*
G01*
X39275000Y42500100D01*
G75*
G02*
X39224900Y42450000I-50100J0D01*
G01*
G37*
G36*
G01*
X39874900Y42450000D02*
X39675100Y42450000D01*
G75*
G02*
X39625000Y42500100I0J50100D01*
G01*
X39625000Y42999900D01*
G75*
G02*
X39675100Y43050000I50100J0D01*
G01*
X39874900Y43050000D01*
G75*
G02*
X39925000Y42999900I0J-50100D01*
G01*
X39925000Y42500100D01*
G75*
G02*
X39874900Y42450000I-50100J0D01*
G01*
G37*
G36*
G01*
X38574900Y42450000D02*
X38375100Y42450000D01*
G75*
G02*
X38325000Y42500100I0J50100D01*
G01*
X38325000Y42999900D01*
G75*
G02*
X38375100Y43050000I50100J0D01*
G01*
X38574900Y43050000D01*
G75*
G02*
X38625000Y42999900I0J-50100D01*
G01*
X38625000Y42500100D01*
G75*
G02*
X38574900Y42450000I-50100J0D01*
G01*
G37*
G36*
G01*
X39874900Y39650000D02*
X39675100Y39650000D01*
G75*
G02*
X39625000Y39700100I0J50100D01*
G01*
X39625000Y40199900D01*
G75*
G02*
X39675100Y40250000I50100J0D01*
G01*
X39874900Y40250000D01*
G75*
G02*
X39925000Y40199900I0J-50100D01*
G01*
X39925000Y39700100D01*
G75*
G02*
X39874900Y39650000I-50100J0D01*
G01*
G37*
G36*
G01*
X39224900Y39650000D02*
X39025100Y39650000D01*
G75*
G02*
X38975000Y39700100I0J50100D01*
G01*
X38975000Y40199900D01*
G75*
G02*
X39025100Y40250000I50100J0D01*
G01*
X39224900Y40250000D01*
G75*
G02*
X39275000Y40199900I0J-50100D01*
G01*
X39275000Y39700100D01*
G75*
G02*
X39224900Y39650000I-50100J0D01*
G01*
G37*
G36*
G01*
X38574900Y39650000D02*
X38375100Y39650000D01*
G75*
G02*
X38325000Y39700100I0J50100D01*
G01*
X38325000Y40199900D01*
G75*
G02*
X38375100Y40250000I50100J0D01*
G01*
X38574900Y40250000D01*
G75*
G02*
X38625000Y40199900I0J-50100D01*
G01*
X38625000Y39700100D01*
G75*
G02*
X38574900Y39650000I-50100J0D01*
G01*
G37*
G36*
G01*
X37924900Y39650000D02*
X37725100Y39650000D01*
G75*
G02*
X37675000Y39700100I0J50100D01*
G01*
X37675000Y40199900D01*
G75*
G02*
X37725100Y40250000I50100J0D01*
G01*
X37924900Y40250000D01*
G75*
G02*
X37975000Y40199900I0J-50100D01*
G01*
X37975000Y39700100D01*
G75*
G02*
X37924900Y39650000I-50100J0D01*
G01*
G37*
%TD*%
%TO.C,R8*%
G36*
G01*
X63006250Y36050000D02*
X62493750Y36050000D01*
G75*
G02*
X62275000Y36268750I0J218750D01*
G01*
X62275000Y36706250D01*
G75*
G02*
X62493750Y36925000I218750J0D01*
G01*
X63006250Y36925000D01*
G75*
G02*
X63225000Y36706250I0J-218750D01*
G01*
X63225000Y36268750D01*
G75*
G02*
X63006250Y36050000I-218750J0D01*
G01*
G37*
G36*
G01*
X63006250Y34475000D02*
X62493750Y34475000D01*
G75*
G02*
X62275000Y34693750I0J218750D01*
G01*
X62275000Y35131250D01*
G75*
G02*
X62493750Y35350000I218750J0D01*
G01*
X63006250Y35350000D01*
G75*
G02*
X63225000Y35131250I0J-218750D01*
G01*
X63225000Y34693750D01*
G75*
G02*
X63006250Y34475000I-218750J0D01*
G01*
G37*
%TD*%
%TO.C,R7*%
G36*
G01*
X52606250Y36100000D02*
X52093750Y36100000D01*
G75*
G02*
X51875000Y36318750I0J218750D01*
G01*
X51875000Y36756250D01*
G75*
G02*
X52093750Y36975000I218750J0D01*
G01*
X52606250Y36975000D01*
G75*
G02*
X52825000Y36756250I0J-218750D01*
G01*
X52825000Y36318750D01*
G75*
G02*
X52606250Y36100000I-218750J0D01*
G01*
G37*
G36*
G01*
X52606250Y34525000D02*
X52093750Y34525000D01*
G75*
G02*
X51875000Y34743750I0J218750D01*
G01*
X51875000Y35181250D01*
G75*
G02*
X52093750Y35400000I218750J0D01*
G01*
X52606250Y35400000D01*
G75*
G02*
X52825000Y35181250I0J-218750D01*
G01*
X52825000Y34743750D01*
G75*
G02*
X52606250Y34525000I-218750J0D01*
G01*
G37*
%TD*%
%TO.C,R6*%
G36*
G01*
X42356250Y36100000D02*
X41843750Y36100000D01*
G75*
G02*
X41625000Y36318750I0J218750D01*
G01*
X41625000Y36756250D01*
G75*
G02*
X41843750Y36975000I218750J0D01*
G01*
X42356250Y36975000D01*
G75*
G02*
X42575000Y36756250I0J-218750D01*
G01*
X42575000Y36318750D01*
G75*
G02*
X42356250Y36100000I-218750J0D01*
G01*
G37*
G36*
G01*
X42356250Y34525000D02*
X41843750Y34525000D01*
G75*
G02*
X41625000Y34743750I0J218750D01*
G01*
X41625000Y35181250D01*
G75*
G02*
X41843750Y35400000I218750J0D01*
G01*
X42356250Y35400000D01*
G75*
G02*
X42575000Y35181250I0J-218750D01*
G01*
X42575000Y34743750D01*
G75*
G02*
X42356250Y34525000I-218750J0D01*
G01*
G37*
%TD*%
%TO.C,R5*%
G36*
G01*
X31756250Y36100000D02*
X31243750Y36100000D01*
G75*
G02*
X31025000Y36318750I0J218750D01*
G01*
X31025000Y36756250D01*
G75*
G02*
X31243750Y36975000I218750J0D01*
G01*
X31756250Y36975000D01*
G75*
G02*
X31975000Y36756250I0J-218750D01*
G01*
X31975000Y36318750D01*
G75*
G02*
X31756250Y36100000I-218750J0D01*
G01*
G37*
G36*
G01*
X31756250Y34525000D02*
X31243750Y34525000D01*
G75*
G02*
X31025000Y34743750I0J218750D01*
G01*
X31025000Y35181250D01*
G75*
G02*
X31243750Y35400000I218750J0D01*
G01*
X31756250Y35400000D01*
G75*
G02*
X31975000Y35181250I0J-218750D01*
G01*
X31975000Y34743750D01*
G75*
G02*
X31756250Y34525000I-218750J0D01*
G01*
G37*
%TD*%
%TO.C,R4*%
G36*
G01*
X21456250Y36150000D02*
X20943750Y36150000D01*
G75*
G02*
X20725000Y36368750I0J218750D01*
G01*
X20725000Y36806250D01*
G75*
G02*
X20943750Y37025000I218750J0D01*
G01*
X21456250Y37025000D01*
G75*
G02*
X21675000Y36806250I0J-218750D01*
G01*
X21675000Y36368750D01*
G75*
G02*
X21456250Y36150000I-218750J0D01*
G01*
G37*
G36*
G01*
X21456250Y34575000D02*
X20943750Y34575000D01*
G75*
G02*
X20725000Y34793750I0J218750D01*
G01*
X20725000Y35231250D01*
G75*
G02*
X20943750Y35450000I218750J0D01*
G01*
X21456250Y35450000D01*
G75*
G02*
X21675000Y35231250I0J-218750D01*
G01*
X21675000Y34793750D01*
G75*
G02*
X21456250Y34575000I-218750J0D01*
G01*
G37*
%TD*%
%TO.C,R3*%
G36*
G01*
X10956250Y36150000D02*
X10443750Y36150000D01*
G75*
G02*
X10225000Y36368750I0J218750D01*
G01*
X10225000Y36806250D01*
G75*
G02*
X10443750Y37025000I218750J0D01*
G01*
X10956250Y37025000D01*
G75*
G02*
X11175000Y36806250I0J-218750D01*
G01*
X11175000Y36368750D01*
G75*
G02*
X10956250Y36150000I-218750J0D01*
G01*
G37*
G36*
G01*
X10956250Y34575000D02*
X10443750Y34575000D01*
G75*
G02*
X10225000Y34793750I0J218750D01*
G01*
X10225000Y35231250D01*
G75*
G02*
X10443750Y35450000I218750J0D01*
G01*
X10956250Y35450000D01*
G75*
G02*
X11175000Y35231250I0J-218750D01*
G01*
X11175000Y34793750D01*
G75*
G02*
X10956250Y34575000I-218750J0D01*
G01*
G37*
%TD*%
%TO.C,D72*%
G36*
G01*
X64277500Y45660000D02*
X64622500Y45660000D01*
G75*
G02*
X64770000Y45512500I0J-147500D01*
G01*
X64770000Y45217500D01*
G75*
G02*
X64622500Y45070000I-147500J0D01*
G01*
X64277500Y45070000D01*
G75*
G02*
X64130000Y45217500I0J147500D01*
G01*
X64130000Y45512500D01*
G75*
G02*
X64277500Y45660000I147500J0D01*
G01*
G37*
G36*
G01*
X64277500Y46630000D02*
X64622500Y46630000D01*
G75*
G02*
X64770000Y46482500I0J-147500D01*
G01*
X64770000Y46187500D01*
G75*
G02*
X64622500Y46040000I-147500J0D01*
G01*
X64277500Y46040000D01*
G75*
G02*
X64130000Y46187500I0J147500D01*
G01*
X64130000Y46482500D01*
G75*
G02*
X64277500Y46630000I147500J0D01*
G01*
G37*
%TD*%
%TO.C,D71*%
G36*
G01*
X63177500Y45660000D02*
X63522500Y45660000D01*
G75*
G02*
X63670000Y45512500I0J-147500D01*
G01*
X63670000Y45217500D01*
G75*
G02*
X63522500Y45070000I-147500J0D01*
G01*
X63177500Y45070000D01*
G75*
G02*
X63030000Y45217500I0J147500D01*
G01*
X63030000Y45512500D01*
G75*
G02*
X63177500Y45660000I147500J0D01*
G01*
G37*
G36*
G01*
X63177500Y46630000D02*
X63522500Y46630000D01*
G75*
G02*
X63670000Y46482500I0J-147500D01*
G01*
X63670000Y46187500D01*
G75*
G02*
X63522500Y46040000I-147500J0D01*
G01*
X63177500Y46040000D01*
G75*
G02*
X63030000Y46187500I0J147500D01*
G01*
X63030000Y46482500D01*
G75*
G02*
X63177500Y46630000I147500J0D01*
G01*
G37*
%TD*%
%TO.C,D68*%
G36*
G01*
X67727500Y45660000D02*
X68072500Y45660000D01*
G75*
G02*
X68220000Y45512500I0J-147500D01*
G01*
X68220000Y45217500D01*
G75*
G02*
X68072500Y45070000I-147500J0D01*
G01*
X67727500Y45070000D01*
G75*
G02*
X67580000Y45217500I0J147500D01*
G01*
X67580000Y45512500D01*
G75*
G02*
X67727500Y45660000I147500J0D01*
G01*
G37*
G36*
G01*
X67727500Y46630000D02*
X68072500Y46630000D01*
G75*
G02*
X68220000Y46482500I0J-147500D01*
G01*
X68220000Y46187500D01*
G75*
G02*
X68072500Y46040000I-147500J0D01*
G01*
X67727500Y46040000D01*
G75*
G02*
X67580000Y46187500I0J147500D01*
G01*
X67580000Y46482500D01*
G75*
G02*
X67727500Y46630000I147500J0D01*
G01*
G37*
%TD*%
%TO.C,D67*%
G36*
G01*
X66627500Y45660000D02*
X66972500Y45660000D01*
G75*
G02*
X67120000Y45512500I0J-147500D01*
G01*
X67120000Y45217500D01*
G75*
G02*
X66972500Y45070000I-147500J0D01*
G01*
X66627500Y45070000D01*
G75*
G02*
X66480000Y45217500I0J147500D01*
G01*
X66480000Y45512500D01*
G75*
G02*
X66627500Y45660000I147500J0D01*
G01*
G37*
G36*
G01*
X66627500Y46630000D02*
X66972500Y46630000D01*
G75*
G02*
X67120000Y46482500I0J-147500D01*
G01*
X67120000Y46187500D01*
G75*
G02*
X66972500Y46040000I-147500J0D01*
G01*
X66627500Y46040000D01*
G75*
G02*
X66480000Y46187500I0J147500D01*
G01*
X66480000Y46482500D01*
G75*
G02*
X66627500Y46630000I147500J0D01*
G01*
G37*
%TD*%
%TO.C,D64*%
G36*
G01*
X71177500Y45660000D02*
X71522500Y45660000D01*
G75*
G02*
X71670000Y45512500I0J-147500D01*
G01*
X71670000Y45217500D01*
G75*
G02*
X71522500Y45070000I-147500J0D01*
G01*
X71177500Y45070000D01*
G75*
G02*
X71030000Y45217500I0J147500D01*
G01*
X71030000Y45512500D01*
G75*
G02*
X71177500Y45660000I147500J0D01*
G01*
G37*
G36*
G01*
X71177500Y46630000D02*
X71522500Y46630000D01*
G75*
G02*
X71670000Y46482500I0J-147500D01*
G01*
X71670000Y46187500D01*
G75*
G02*
X71522500Y46040000I-147500J0D01*
G01*
X71177500Y46040000D01*
G75*
G02*
X71030000Y46187500I0J147500D01*
G01*
X71030000Y46482500D01*
G75*
G02*
X71177500Y46630000I147500J0D01*
G01*
G37*
%TD*%
%TO.C,D63*%
G36*
G01*
X70077500Y45660000D02*
X70422500Y45660000D01*
G75*
G02*
X70570000Y45512500I0J-147500D01*
G01*
X70570000Y45217500D01*
G75*
G02*
X70422500Y45070000I-147500J0D01*
G01*
X70077500Y45070000D01*
G75*
G02*
X69930000Y45217500I0J147500D01*
G01*
X69930000Y45512500D01*
G75*
G02*
X70077500Y45660000I147500J0D01*
G01*
G37*
G36*
G01*
X70077500Y46630000D02*
X70422500Y46630000D01*
G75*
G02*
X70570000Y46482500I0J-147500D01*
G01*
X70570000Y46187500D01*
G75*
G02*
X70422500Y46040000I-147500J0D01*
G01*
X70077500Y46040000D01*
G75*
G02*
X69930000Y46187500I0J147500D01*
G01*
X69930000Y46482500D01*
G75*
G02*
X70077500Y46630000I147500J0D01*
G01*
G37*
%TD*%
%TO.C,D60*%
G36*
G01*
X53877500Y45660000D02*
X54222500Y45660000D01*
G75*
G02*
X54370000Y45512500I0J-147500D01*
G01*
X54370000Y45217500D01*
G75*
G02*
X54222500Y45070000I-147500J0D01*
G01*
X53877500Y45070000D01*
G75*
G02*
X53730000Y45217500I0J147500D01*
G01*
X53730000Y45512500D01*
G75*
G02*
X53877500Y45660000I147500J0D01*
G01*
G37*
G36*
G01*
X53877500Y46630000D02*
X54222500Y46630000D01*
G75*
G02*
X54370000Y46482500I0J-147500D01*
G01*
X54370000Y46187500D01*
G75*
G02*
X54222500Y46040000I-147500J0D01*
G01*
X53877500Y46040000D01*
G75*
G02*
X53730000Y46187500I0J147500D01*
G01*
X53730000Y46482500D01*
G75*
G02*
X53877500Y46630000I147500J0D01*
G01*
G37*
%TD*%
%TO.C,D59*%
G36*
G01*
X52777500Y45660000D02*
X53122500Y45660000D01*
G75*
G02*
X53270000Y45512500I0J-147500D01*
G01*
X53270000Y45217500D01*
G75*
G02*
X53122500Y45070000I-147500J0D01*
G01*
X52777500Y45070000D01*
G75*
G02*
X52630000Y45217500I0J147500D01*
G01*
X52630000Y45512500D01*
G75*
G02*
X52777500Y45660000I147500J0D01*
G01*
G37*
G36*
G01*
X52777500Y46630000D02*
X53122500Y46630000D01*
G75*
G02*
X53270000Y46482500I0J-147500D01*
G01*
X53270000Y46187500D01*
G75*
G02*
X53122500Y46040000I-147500J0D01*
G01*
X52777500Y46040000D01*
G75*
G02*
X52630000Y46187500I0J147500D01*
G01*
X52630000Y46482500D01*
G75*
G02*
X52777500Y46630000I147500J0D01*
G01*
G37*
%TD*%
%TO.C,D56*%
G36*
G01*
X57327500Y45660000D02*
X57672500Y45660000D01*
G75*
G02*
X57820000Y45512500I0J-147500D01*
G01*
X57820000Y45217500D01*
G75*
G02*
X57672500Y45070000I-147500J0D01*
G01*
X57327500Y45070000D01*
G75*
G02*
X57180000Y45217500I0J147500D01*
G01*
X57180000Y45512500D01*
G75*
G02*
X57327500Y45660000I147500J0D01*
G01*
G37*
G36*
G01*
X57327500Y46630000D02*
X57672500Y46630000D01*
G75*
G02*
X57820000Y46482500I0J-147500D01*
G01*
X57820000Y46187500D01*
G75*
G02*
X57672500Y46040000I-147500J0D01*
G01*
X57327500Y46040000D01*
G75*
G02*
X57180000Y46187500I0J147500D01*
G01*
X57180000Y46482500D01*
G75*
G02*
X57327500Y46630000I147500J0D01*
G01*
G37*
%TD*%
%TO.C,D55*%
G36*
G01*
X56227500Y45660000D02*
X56572500Y45660000D01*
G75*
G02*
X56720000Y45512500I0J-147500D01*
G01*
X56720000Y45217500D01*
G75*
G02*
X56572500Y45070000I-147500J0D01*
G01*
X56227500Y45070000D01*
G75*
G02*
X56080000Y45217500I0J147500D01*
G01*
X56080000Y45512500D01*
G75*
G02*
X56227500Y45660000I147500J0D01*
G01*
G37*
G36*
G01*
X56227500Y46630000D02*
X56572500Y46630000D01*
G75*
G02*
X56720000Y46482500I0J-147500D01*
G01*
X56720000Y46187500D01*
G75*
G02*
X56572500Y46040000I-147500J0D01*
G01*
X56227500Y46040000D01*
G75*
G02*
X56080000Y46187500I0J147500D01*
G01*
X56080000Y46482500D01*
G75*
G02*
X56227500Y46630000I147500J0D01*
G01*
G37*
%TD*%
%TO.C,D52*%
G36*
G01*
X60777500Y45660000D02*
X61122500Y45660000D01*
G75*
G02*
X61270000Y45512500I0J-147500D01*
G01*
X61270000Y45217500D01*
G75*
G02*
X61122500Y45070000I-147500J0D01*
G01*
X60777500Y45070000D01*
G75*
G02*
X60630000Y45217500I0J147500D01*
G01*
X60630000Y45512500D01*
G75*
G02*
X60777500Y45660000I147500J0D01*
G01*
G37*
G36*
G01*
X60777500Y46630000D02*
X61122500Y46630000D01*
G75*
G02*
X61270000Y46482500I0J-147500D01*
G01*
X61270000Y46187500D01*
G75*
G02*
X61122500Y46040000I-147500J0D01*
G01*
X60777500Y46040000D01*
G75*
G02*
X60630000Y46187500I0J147500D01*
G01*
X60630000Y46482500D01*
G75*
G02*
X60777500Y46630000I147500J0D01*
G01*
G37*
%TD*%
%TO.C,D51*%
G36*
G01*
X59677500Y45660000D02*
X60022500Y45660000D01*
G75*
G02*
X60170000Y45512500I0J-147500D01*
G01*
X60170000Y45217500D01*
G75*
G02*
X60022500Y45070000I-147500J0D01*
G01*
X59677500Y45070000D01*
G75*
G02*
X59530000Y45217500I0J147500D01*
G01*
X59530000Y45512500D01*
G75*
G02*
X59677500Y45660000I147500J0D01*
G01*
G37*
G36*
G01*
X59677500Y46630000D02*
X60022500Y46630000D01*
G75*
G02*
X60170000Y46482500I0J-147500D01*
G01*
X60170000Y46187500D01*
G75*
G02*
X60022500Y46040000I-147500J0D01*
G01*
X59677500Y46040000D01*
G75*
G02*
X59530000Y46187500I0J147500D01*
G01*
X59530000Y46482500D01*
G75*
G02*
X59677500Y46630000I147500J0D01*
G01*
G37*
%TD*%
%TO.C,D48*%
G36*
G01*
X43477500Y45660000D02*
X43822500Y45660000D01*
G75*
G02*
X43970000Y45512500I0J-147500D01*
G01*
X43970000Y45217500D01*
G75*
G02*
X43822500Y45070000I-147500J0D01*
G01*
X43477500Y45070000D01*
G75*
G02*
X43330000Y45217500I0J147500D01*
G01*
X43330000Y45512500D01*
G75*
G02*
X43477500Y45660000I147500J0D01*
G01*
G37*
G36*
G01*
X43477500Y46630000D02*
X43822500Y46630000D01*
G75*
G02*
X43970000Y46482500I0J-147500D01*
G01*
X43970000Y46187500D01*
G75*
G02*
X43822500Y46040000I-147500J0D01*
G01*
X43477500Y46040000D01*
G75*
G02*
X43330000Y46187500I0J147500D01*
G01*
X43330000Y46482500D01*
G75*
G02*
X43477500Y46630000I147500J0D01*
G01*
G37*
%TD*%
%TO.C,D47*%
G36*
G01*
X42377500Y45660000D02*
X42722500Y45660000D01*
G75*
G02*
X42870000Y45512500I0J-147500D01*
G01*
X42870000Y45217500D01*
G75*
G02*
X42722500Y45070000I-147500J0D01*
G01*
X42377500Y45070000D01*
G75*
G02*
X42230000Y45217500I0J147500D01*
G01*
X42230000Y45512500D01*
G75*
G02*
X42377500Y45660000I147500J0D01*
G01*
G37*
G36*
G01*
X42377500Y46630000D02*
X42722500Y46630000D01*
G75*
G02*
X42870000Y46482500I0J-147500D01*
G01*
X42870000Y46187500D01*
G75*
G02*
X42722500Y46040000I-147500J0D01*
G01*
X42377500Y46040000D01*
G75*
G02*
X42230000Y46187500I0J147500D01*
G01*
X42230000Y46482500D01*
G75*
G02*
X42377500Y46630000I147500J0D01*
G01*
G37*
%TD*%
%TO.C,D44*%
G36*
G01*
X46927500Y45660000D02*
X47272500Y45660000D01*
G75*
G02*
X47420000Y45512500I0J-147500D01*
G01*
X47420000Y45217500D01*
G75*
G02*
X47272500Y45070000I-147500J0D01*
G01*
X46927500Y45070000D01*
G75*
G02*
X46780000Y45217500I0J147500D01*
G01*
X46780000Y45512500D01*
G75*
G02*
X46927500Y45660000I147500J0D01*
G01*
G37*
G36*
G01*
X46927500Y46630000D02*
X47272500Y46630000D01*
G75*
G02*
X47420000Y46482500I0J-147500D01*
G01*
X47420000Y46187500D01*
G75*
G02*
X47272500Y46040000I-147500J0D01*
G01*
X46927500Y46040000D01*
G75*
G02*
X46780000Y46187500I0J147500D01*
G01*
X46780000Y46482500D01*
G75*
G02*
X46927500Y46630000I147500J0D01*
G01*
G37*
%TD*%
%TO.C,D43*%
G36*
G01*
X45827500Y45660000D02*
X46172500Y45660000D01*
G75*
G02*
X46320000Y45512500I0J-147500D01*
G01*
X46320000Y45217500D01*
G75*
G02*
X46172500Y45070000I-147500J0D01*
G01*
X45827500Y45070000D01*
G75*
G02*
X45680000Y45217500I0J147500D01*
G01*
X45680000Y45512500D01*
G75*
G02*
X45827500Y45660000I147500J0D01*
G01*
G37*
G36*
G01*
X45827500Y46630000D02*
X46172500Y46630000D01*
G75*
G02*
X46320000Y46482500I0J-147500D01*
G01*
X46320000Y46187500D01*
G75*
G02*
X46172500Y46040000I-147500J0D01*
G01*
X45827500Y46040000D01*
G75*
G02*
X45680000Y46187500I0J147500D01*
G01*
X45680000Y46482500D01*
G75*
G02*
X45827500Y46630000I147500J0D01*
G01*
G37*
%TD*%
%TO.C,D40*%
G36*
G01*
X50377500Y45660000D02*
X50722500Y45660000D01*
G75*
G02*
X50870000Y45512500I0J-147500D01*
G01*
X50870000Y45217500D01*
G75*
G02*
X50722500Y45070000I-147500J0D01*
G01*
X50377500Y45070000D01*
G75*
G02*
X50230000Y45217500I0J147500D01*
G01*
X50230000Y45512500D01*
G75*
G02*
X50377500Y45660000I147500J0D01*
G01*
G37*
G36*
G01*
X50377500Y46630000D02*
X50722500Y46630000D01*
G75*
G02*
X50870000Y46482500I0J-147500D01*
G01*
X50870000Y46187500D01*
G75*
G02*
X50722500Y46040000I-147500J0D01*
G01*
X50377500Y46040000D01*
G75*
G02*
X50230000Y46187500I0J147500D01*
G01*
X50230000Y46482500D01*
G75*
G02*
X50377500Y46630000I147500J0D01*
G01*
G37*
%TD*%
%TO.C,D39*%
G36*
G01*
X49277500Y45660000D02*
X49622500Y45660000D01*
G75*
G02*
X49770000Y45512500I0J-147500D01*
G01*
X49770000Y45217500D01*
G75*
G02*
X49622500Y45070000I-147500J0D01*
G01*
X49277500Y45070000D01*
G75*
G02*
X49130000Y45217500I0J147500D01*
G01*
X49130000Y45512500D01*
G75*
G02*
X49277500Y45660000I147500J0D01*
G01*
G37*
G36*
G01*
X49277500Y46630000D02*
X49622500Y46630000D01*
G75*
G02*
X49770000Y46482500I0J-147500D01*
G01*
X49770000Y46187500D01*
G75*
G02*
X49622500Y46040000I-147500J0D01*
G01*
X49277500Y46040000D01*
G75*
G02*
X49130000Y46187500I0J147500D01*
G01*
X49130000Y46482500D01*
G75*
G02*
X49277500Y46630000I147500J0D01*
G01*
G37*
%TD*%
%TO.C,D36*%
G36*
G01*
X33077500Y45660000D02*
X33422500Y45660000D01*
G75*
G02*
X33570000Y45512500I0J-147500D01*
G01*
X33570000Y45217500D01*
G75*
G02*
X33422500Y45070000I-147500J0D01*
G01*
X33077500Y45070000D01*
G75*
G02*
X32930000Y45217500I0J147500D01*
G01*
X32930000Y45512500D01*
G75*
G02*
X33077500Y45660000I147500J0D01*
G01*
G37*
G36*
G01*
X33077500Y46630000D02*
X33422500Y46630000D01*
G75*
G02*
X33570000Y46482500I0J-147500D01*
G01*
X33570000Y46187500D01*
G75*
G02*
X33422500Y46040000I-147500J0D01*
G01*
X33077500Y46040000D01*
G75*
G02*
X32930000Y46187500I0J147500D01*
G01*
X32930000Y46482500D01*
G75*
G02*
X33077500Y46630000I147500J0D01*
G01*
G37*
%TD*%
%TO.C,D35*%
G36*
G01*
X31977500Y45660000D02*
X32322500Y45660000D01*
G75*
G02*
X32470000Y45512500I0J-147500D01*
G01*
X32470000Y45217500D01*
G75*
G02*
X32322500Y45070000I-147500J0D01*
G01*
X31977500Y45070000D01*
G75*
G02*
X31830000Y45217500I0J147500D01*
G01*
X31830000Y45512500D01*
G75*
G02*
X31977500Y45660000I147500J0D01*
G01*
G37*
G36*
G01*
X31977500Y46630000D02*
X32322500Y46630000D01*
G75*
G02*
X32470000Y46482500I0J-147500D01*
G01*
X32470000Y46187500D01*
G75*
G02*
X32322500Y46040000I-147500J0D01*
G01*
X31977500Y46040000D01*
G75*
G02*
X31830000Y46187500I0J147500D01*
G01*
X31830000Y46482500D01*
G75*
G02*
X31977500Y46630000I147500J0D01*
G01*
G37*
%TD*%
%TO.C,D32*%
G36*
G01*
X36527500Y45660000D02*
X36872500Y45660000D01*
G75*
G02*
X37020000Y45512500I0J-147500D01*
G01*
X37020000Y45217500D01*
G75*
G02*
X36872500Y45070000I-147500J0D01*
G01*
X36527500Y45070000D01*
G75*
G02*
X36380000Y45217500I0J147500D01*
G01*
X36380000Y45512500D01*
G75*
G02*
X36527500Y45660000I147500J0D01*
G01*
G37*
G36*
G01*
X36527500Y46630000D02*
X36872500Y46630000D01*
G75*
G02*
X37020000Y46482500I0J-147500D01*
G01*
X37020000Y46187500D01*
G75*
G02*
X36872500Y46040000I-147500J0D01*
G01*
X36527500Y46040000D01*
G75*
G02*
X36380000Y46187500I0J147500D01*
G01*
X36380000Y46482500D01*
G75*
G02*
X36527500Y46630000I147500J0D01*
G01*
G37*
%TD*%
%TO.C,D31*%
G36*
G01*
X35427500Y45660000D02*
X35772500Y45660000D01*
G75*
G02*
X35920000Y45512500I0J-147500D01*
G01*
X35920000Y45217500D01*
G75*
G02*
X35772500Y45070000I-147500J0D01*
G01*
X35427500Y45070000D01*
G75*
G02*
X35280000Y45217500I0J147500D01*
G01*
X35280000Y45512500D01*
G75*
G02*
X35427500Y45660000I147500J0D01*
G01*
G37*
G36*
G01*
X35427500Y46630000D02*
X35772500Y46630000D01*
G75*
G02*
X35920000Y46482500I0J-147500D01*
G01*
X35920000Y46187500D01*
G75*
G02*
X35772500Y46040000I-147500J0D01*
G01*
X35427500Y46040000D01*
G75*
G02*
X35280000Y46187500I0J147500D01*
G01*
X35280000Y46482500D01*
G75*
G02*
X35427500Y46630000I147500J0D01*
G01*
G37*
%TD*%
%TO.C,D28*%
G36*
G01*
X39977500Y45660000D02*
X40322500Y45660000D01*
G75*
G02*
X40470000Y45512500I0J-147500D01*
G01*
X40470000Y45217500D01*
G75*
G02*
X40322500Y45070000I-147500J0D01*
G01*
X39977500Y45070000D01*
G75*
G02*
X39830000Y45217500I0J147500D01*
G01*
X39830000Y45512500D01*
G75*
G02*
X39977500Y45660000I147500J0D01*
G01*
G37*
G36*
G01*
X39977500Y46630000D02*
X40322500Y46630000D01*
G75*
G02*
X40470000Y46482500I0J-147500D01*
G01*
X40470000Y46187500D01*
G75*
G02*
X40322500Y46040000I-147500J0D01*
G01*
X39977500Y46040000D01*
G75*
G02*
X39830000Y46187500I0J147500D01*
G01*
X39830000Y46482500D01*
G75*
G02*
X39977500Y46630000I147500J0D01*
G01*
G37*
%TD*%
%TO.C,D27*%
G36*
G01*
X38877500Y45660000D02*
X39222500Y45660000D01*
G75*
G02*
X39370000Y45512500I0J-147500D01*
G01*
X39370000Y45217500D01*
G75*
G02*
X39222500Y45070000I-147500J0D01*
G01*
X38877500Y45070000D01*
G75*
G02*
X38730000Y45217500I0J147500D01*
G01*
X38730000Y45512500D01*
G75*
G02*
X38877500Y45660000I147500J0D01*
G01*
G37*
G36*
G01*
X38877500Y46630000D02*
X39222500Y46630000D01*
G75*
G02*
X39370000Y46482500I0J-147500D01*
G01*
X39370000Y46187500D01*
G75*
G02*
X39222500Y46040000I-147500J0D01*
G01*
X38877500Y46040000D01*
G75*
G02*
X38730000Y46187500I0J147500D01*
G01*
X38730000Y46482500D01*
G75*
G02*
X38877500Y46630000I147500J0D01*
G01*
G37*
%TD*%
%TO.C,D24*%
G36*
G01*
X22677500Y45710000D02*
X23022500Y45710000D01*
G75*
G02*
X23170000Y45562500I0J-147500D01*
G01*
X23170000Y45267500D01*
G75*
G02*
X23022500Y45120000I-147500J0D01*
G01*
X22677500Y45120000D01*
G75*
G02*
X22530000Y45267500I0J147500D01*
G01*
X22530000Y45562500D01*
G75*
G02*
X22677500Y45710000I147500J0D01*
G01*
G37*
G36*
G01*
X22677500Y46680000D02*
X23022500Y46680000D01*
G75*
G02*
X23170000Y46532500I0J-147500D01*
G01*
X23170000Y46237500D01*
G75*
G02*
X23022500Y46090000I-147500J0D01*
G01*
X22677500Y46090000D01*
G75*
G02*
X22530000Y46237500I0J147500D01*
G01*
X22530000Y46532500D01*
G75*
G02*
X22677500Y46680000I147500J0D01*
G01*
G37*
%TD*%
%TO.C,D23*%
G36*
G01*
X21627500Y45710000D02*
X21972500Y45710000D01*
G75*
G02*
X22120000Y45562500I0J-147500D01*
G01*
X22120000Y45267500D01*
G75*
G02*
X21972500Y45120000I-147500J0D01*
G01*
X21627500Y45120000D01*
G75*
G02*
X21480000Y45267500I0J147500D01*
G01*
X21480000Y45562500D01*
G75*
G02*
X21627500Y45710000I147500J0D01*
G01*
G37*
G36*
G01*
X21627500Y46680000D02*
X21972500Y46680000D01*
G75*
G02*
X22120000Y46532500I0J-147500D01*
G01*
X22120000Y46237500D01*
G75*
G02*
X21972500Y46090000I-147500J0D01*
G01*
X21627500Y46090000D01*
G75*
G02*
X21480000Y46237500I0J147500D01*
G01*
X21480000Y46532500D01*
G75*
G02*
X21627500Y46680000I147500J0D01*
G01*
G37*
%TD*%
%TO.C,D20*%
G36*
G01*
X26127500Y45710000D02*
X26472500Y45710000D01*
G75*
G02*
X26620000Y45562500I0J-147500D01*
G01*
X26620000Y45267500D01*
G75*
G02*
X26472500Y45120000I-147500J0D01*
G01*
X26127500Y45120000D01*
G75*
G02*
X25980000Y45267500I0J147500D01*
G01*
X25980000Y45562500D01*
G75*
G02*
X26127500Y45710000I147500J0D01*
G01*
G37*
G36*
G01*
X26127500Y46680000D02*
X26472500Y46680000D01*
G75*
G02*
X26620000Y46532500I0J-147500D01*
G01*
X26620000Y46237500D01*
G75*
G02*
X26472500Y46090000I-147500J0D01*
G01*
X26127500Y46090000D01*
G75*
G02*
X25980000Y46237500I0J147500D01*
G01*
X25980000Y46532500D01*
G75*
G02*
X26127500Y46680000I147500J0D01*
G01*
G37*
%TD*%
%TO.C,D19*%
G36*
G01*
X25027500Y45710000D02*
X25372500Y45710000D01*
G75*
G02*
X25520000Y45562500I0J-147500D01*
G01*
X25520000Y45267500D01*
G75*
G02*
X25372500Y45120000I-147500J0D01*
G01*
X25027500Y45120000D01*
G75*
G02*
X24880000Y45267500I0J147500D01*
G01*
X24880000Y45562500D01*
G75*
G02*
X25027500Y45710000I147500J0D01*
G01*
G37*
G36*
G01*
X25027500Y46680000D02*
X25372500Y46680000D01*
G75*
G02*
X25520000Y46532500I0J-147500D01*
G01*
X25520000Y46237500D01*
G75*
G02*
X25372500Y46090000I-147500J0D01*
G01*
X25027500Y46090000D01*
G75*
G02*
X24880000Y46237500I0J147500D01*
G01*
X24880000Y46532500D01*
G75*
G02*
X25027500Y46680000I147500J0D01*
G01*
G37*
%TD*%
%TO.C,D16*%
G36*
G01*
X29527500Y45710000D02*
X29872500Y45710000D01*
G75*
G02*
X30020000Y45562500I0J-147500D01*
G01*
X30020000Y45267500D01*
G75*
G02*
X29872500Y45120000I-147500J0D01*
G01*
X29527500Y45120000D01*
G75*
G02*
X29380000Y45267500I0J147500D01*
G01*
X29380000Y45562500D01*
G75*
G02*
X29527500Y45710000I147500J0D01*
G01*
G37*
G36*
G01*
X29527500Y46680000D02*
X29872500Y46680000D01*
G75*
G02*
X30020000Y46532500I0J-147500D01*
G01*
X30020000Y46237500D01*
G75*
G02*
X29872500Y46090000I-147500J0D01*
G01*
X29527500Y46090000D01*
G75*
G02*
X29380000Y46237500I0J147500D01*
G01*
X29380000Y46532500D01*
G75*
G02*
X29527500Y46680000I147500J0D01*
G01*
G37*
%TD*%
%TO.C,D15*%
G36*
G01*
X28477500Y45710000D02*
X28822500Y45710000D01*
G75*
G02*
X28970000Y45562500I0J-147500D01*
G01*
X28970000Y45267500D01*
G75*
G02*
X28822500Y45120000I-147500J0D01*
G01*
X28477500Y45120000D01*
G75*
G02*
X28330000Y45267500I0J147500D01*
G01*
X28330000Y45562500D01*
G75*
G02*
X28477500Y45710000I147500J0D01*
G01*
G37*
G36*
G01*
X28477500Y46680000D02*
X28822500Y46680000D01*
G75*
G02*
X28970000Y46532500I0J-147500D01*
G01*
X28970000Y46237500D01*
G75*
G02*
X28822500Y46090000I-147500J0D01*
G01*
X28477500Y46090000D01*
G75*
G02*
X28330000Y46237500I0J147500D01*
G01*
X28330000Y46532500D01*
G75*
G02*
X28477500Y46680000I147500J0D01*
G01*
G37*
%TD*%
%TO.C,D12*%
G36*
G01*
X12277500Y45710000D02*
X12622500Y45710000D01*
G75*
G02*
X12770000Y45562500I0J-147500D01*
G01*
X12770000Y45267500D01*
G75*
G02*
X12622500Y45120000I-147500J0D01*
G01*
X12277500Y45120000D01*
G75*
G02*
X12130000Y45267500I0J147500D01*
G01*
X12130000Y45562500D01*
G75*
G02*
X12277500Y45710000I147500J0D01*
G01*
G37*
G36*
G01*
X12277500Y46680000D02*
X12622500Y46680000D01*
G75*
G02*
X12770000Y46532500I0J-147500D01*
G01*
X12770000Y46237500D01*
G75*
G02*
X12622500Y46090000I-147500J0D01*
G01*
X12277500Y46090000D01*
G75*
G02*
X12130000Y46237500I0J147500D01*
G01*
X12130000Y46532500D01*
G75*
G02*
X12277500Y46680000I147500J0D01*
G01*
G37*
%TD*%
%TO.C,D11*%
G36*
G01*
X11227500Y45710000D02*
X11572500Y45710000D01*
G75*
G02*
X11720000Y45562500I0J-147500D01*
G01*
X11720000Y45267500D01*
G75*
G02*
X11572500Y45120000I-147500J0D01*
G01*
X11227500Y45120000D01*
G75*
G02*
X11080000Y45267500I0J147500D01*
G01*
X11080000Y45562500D01*
G75*
G02*
X11227500Y45710000I147500J0D01*
G01*
G37*
G36*
G01*
X11227500Y46680000D02*
X11572500Y46680000D01*
G75*
G02*
X11720000Y46532500I0J-147500D01*
G01*
X11720000Y46237500D01*
G75*
G02*
X11572500Y46090000I-147500J0D01*
G01*
X11227500Y46090000D01*
G75*
G02*
X11080000Y46237500I0J147500D01*
G01*
X11080000Y46532500D01*
G75*
G02*
X11227500Y46680000I147500J0D01*
G01*
G37*
%TD*%
%TO.C,D8*%
G36*
G01*
X15727500Y45710000D02*
X16072500Y45710000D01*
G75*
G02*
X16220000Y45562500I0J-147500D01*
G01*
X16220000Y45267500D01*
G75*
G02*
X16072500Y45120000I-147500J0D01*
G01*
X15727500Y45120000D01*
G75*
G02*
X15580000Y45267500I0J147500D01*
G01*
X15580000Y45562500D01*
G75*
G02*
X15727500Y45710000I147500J0D01*
G01*
G37*
G36*
G01*
X15727500Y46680000D02*
X16072500Y46680000D01*
G75*
G02*
X16220000Y46532500I0J-147500D01*
G01*
X16220000Y46237500D01*
G75*
G02*
X16072500Y46090000I-147500J0D01*
G01*
X15727500Y46090000D01*
G75*
G02*
X15580000Y46237500I0J147500D01*
G01*
X15580000Y46532500D01*
G75*
G02*
X15727500Y46680000I147500J0D01*
G01*
G37*
%TD*%
%TO.C,D7*%
G36*
G01*
X14677500Y45710000D02*
X15022500Y45710000D01*
G75*
G02*
X15170000Y45562500I0J-147500D01*
G01*
X15170000Y45267500D01*
G75*
G02*
X15022500Y45120000I-147500J0D01*
G01*
X14677500Y45120000D01*
G75*
G02*
X14530000Y45267500I0J147500D01*
G01*
X14530000Y45562500D01*
G75*
G02*
X14677500Y45710000I147500J0D01*
G01*
G37*
G36*
G01*
X14677500Y46680000D02*
X15022500Y46680000D01*
G75*
G02*
X15170000Y46532500I0J-147500D01*
G01*
X15170000Y46237500D01*
G75*
G02*
X15022500Y46090000I-147500J0D01*
G01*
X14677500Y46090000D01*
G75*
G02*
X14530000Y46237500I0J147500D01*
G01*
X14530000Y46532500D01*
G75*
G02*
X14677500Y46680000I147500J0D01*
G01*
G37*
%TD*%
%TO.C,D4*%
G36*
G01*
X19127500Y45710000D02*
X19472500Y45710000D01*
G75*
G02*
X19620000Y45562500I0J-147500D01*
G01*
X19620000Y45267500D01*
G75*
G02*
X19472500Y45120000I-147500J0D01*
G01*
X19127500Y45120000D01*
G75*
G02*
X18980000Y45267500I0J147500D01*
G01*
X18980000Y45562500D01*
G75*
G02*
X19127500Y45710000I147500J0D01*
G01*
G37*
G36*
G01*
X19127500Y46680000D02*
X19472500Y46680000D01*
G75*
G02*
X19620000Y46532500I0J-147500D01*
G01*
X19620000Y46237500D01*
G75*
G02*
X19472500Y46090000I-147500J0D01*
G01*
X19127500Y46090000D01*
G75*
G02*
X18980000Y46237500I0J147500D01*
G01*
X18980000Y46532500D01*
G75*
G02*
X19127500Y46680000I147500J0D01*
G01*
G37*
%TD*%
%TO.C,D3*%
G36*
G01*
X18077500Y45710000D02*
X18422500Y45710000D01*
G75*
G02*
X18570000Y45562500I0J-147500D01*
G01*
X18570000Y45267500D01*
G75*
G02*
X18422500Y45120000I-147500J0D01*
G01*
X18077500Y45120000D01*
G75*
G02*
X17930000Y45267500I0J147500D01*
G01*
X17930000Y45562500D01*
G75*
G02*
X18077500Y45710000I147500J0D01*
G01*
G37*
G36*
G01*
X18077500Y46680000D02*
X18422500Y46680000D01*
G75*
G02*
X18570000Y46532500I0J-147500D01*
G01*
X18570000Y46237500D01*
G75*
G02*
X18422500Y46090000I-147500J0D01*
G01*
X18077500Y46090000D01*
G75*
G02*
X17930000Y46237500I0J147500D01*
G01*
X17930000Y46532500D01*
G75*
G02*
X18077500Y46680000I147500J0D01*
G01*
G37*
%TD*%
%TO.C,R2*%
G36*
G01*
X3143750Y55750000D02*
X3656250Y55750000D01*
G75*
G02*
X3875000Y55531250I0J-218750D01*
G01*
X3875000Y55093750D01*
G75*
G02*
X3656250Y54875000I-218750J0D01*
G01*
X3143750Y54875000D01*
G75*
G02*
X2925000Y55093750I0J218750D01*
G01*
X2925000Y55531250D01*
G75*
G02*
X3143750Y55750000I218750J0D01*
G01*
G37*
G36*
G01*
X3143750Y57325000D02*
X3656250Y57325000D01*
G75*
G02*
X3875000Y57106250I0J-218750D01*
G01*
X3875000Y56668750D01*
G75*
G02*
X3656250Y56450000I-218750J0D01*
G01*
X3143750Y56450000D01*
G75*
G02*
X2925000Y56668750I0J218750D01*
G01*
X2925000Y57106250D01*
G75*
G02*
X3143750Y57325000I218750J0D01*
G01*
G37*
%TD*%
%TO.C,C4*%
G36*
G01*
X4793750Y55750000D02*
X5306250Y55750000D01*
G75*
G02*
X5525000Y55531250I0J-218750D01*
G01*
X5525000Y55093750D01*
G75*
G02*
X5306250Y54875000I-218750J0D01*
G01*
X4793750Y54875000D01*
G75*
G02*
X4575000Y55093750I0J218750D01*
G01*
X4575000Y55531250D01*
G75*
G02*
X4793750Y55750000I218750J0D01*
G01*
G37*
G36*
G01*
X4793750Y57325000D02*
X5306250Y57325000D01*
G75*
G02*
X5525000Y57106250I0J-218750D01*
G01*
X5525000Y56668750D01*
G75*
G02*
X5306250Y56450000I-218750J0D01*
G01*
X4793750Y56450000D01*
G75*
G02*
X4575000Y56668750I0J218750D01*
G01*
X4575000Y57106250D01*
G75*
G02*
X4793750Y57325000I218750J0D01*
G01*
G37*
%TD*%
%TO.C,R1*%
G36*
G01*
X31000000Y3606250D02*
X31000000Y3093750D01*
G75*
G02*
X30781250Y2875000I-218750J0D01*
G01*
X30343750Y2875000D01*
G75*
G02*
X30125000Y3093750I0J218750D01*
G01*
X30125000Y3606250D01*
G75*
G02*
X30343750Y3825000I218750J0D01*
G01*
X30781250Y3825000D01*
G75*
G02*
X31000000Y3606250I0J-218750D01*
G01*
G37*
G36*
G01*
X32575000Y3606250D02*
X32575000Y3093750D01*
G75*
G02*
X32356250Y2875000I-218750J0D01*
G01*
X31918750Y2875000D01*
G75*
G02*
X31700000Y3093750I0J218750D01*
G01*
X31700000Y3606250D01*
G75*
G02*
X31918750Y3825000I218750J0D01*
G01*
X32356250Y3825000D01*
G75*
G02*
X32575000Y3606250I0J-218750D01*
G01*
G37*
%TD*%
%TO.C,C1*%
G36*
G01*
X31000000Y5256250D02*
X31000000Y4743750D01*
G75*
G02*
X30781250Y4525000I-218750J0D01*
G01*
X30343750Y4525000D01*
G75*
G02*
X30125000Y4743750I0J218750D01*
G01*
X30125000Y5256250D01*
G75*
G02*
X30343750Y5475000I218750J0D01*
G01*
X30781250Y5475000D01*
G75*
G02*
X31000000Y5256250I0J-218750D01*
G01*
G37*
G36*
G01*
X32575000Y5256250D02*
X32575000Y4743750D01*
G75*
G02*
X32356250Y4525000I-218750J0D01*
G01*
X31918750Y4525000D01*
G75*
G02*
X31700000Y4743750I0J218750D01*
G01*
X31700000Y5256250D01*
G75*
G02*
X31918750Y5475000I218750J0D01*
G01*
X32356250Y5475000D01*
G75*
G02*
X32575000Y5256250I0J-218750D01*
G01*
G37*
%TD*%
M02*
