%TF.GenerationSoftware,KiCad,Pcbnew,5.1.6*%
%TF.CreationDate,2020-08-02T00:36:08-04:00*%
%TF.ProjectId,squishy,73717569-7368-4792-9e6b-696361645f70,rev?*%
%TF.SameCoordinates,PX67f3540PY72ba1e0*%
%TF.FileFunction,Soldermask,Top*%
%TF.FilePolarity,Negative*%
%FSLAX46Y46*%
G04 Gerber Fmt 4.6, Leading zero omitted, Abs format (unit mm)*
G04 Created by KiCad (PCBNEW 5.1.6) date 2020-08-02 00:36:08*
%MOMM*%
%LPD*%
G01*
G04 APERTURE LIST*
%ADD10C,0.100000*%
%ADD11C,0.010000*%
%ADD12C,1.500000*%
%ADD13C,1.100000*%
%ADD14O,1.800000X1.800000*%
%ADD15R,1.800000X1.800000*%
%ADD16R,1.700000X1.100000*%
%ADD17R,0.450000X0.750000*%
%ADD18R,1.000000X0.900000*%
%ADD19C,0.500000*%
%ADD20R,2.700000X2.700000*%
%ADD21R,0.840000X2.890000*%
%ADD22C,4.100000*%
%ADD23C,1.700000*%
%ADD24R,1.403200X1.603200*%
%ADD25R,0.603200X1.603200*%
G04 APERTURE END LIST*
D10*
%TO.C,J1*%
G36*
X23300000Y4950000D02*
G01*
X23800000Y4950000D01*
X23800000Y6450000D01*
X23300000Y6450000D01*
X23300000Y4950000D01*
G37*
G36*
X22000000Y4950000D02*
G01*
X22500000Y4950000D01*
X22500000Y6450000D01*
X22000000Y6450000D01*
X22000000Y4950000D01*
G37*
G36*
X22650000Y4950000D02*
G01*
X23150000Y4950000D01*
X23150000Y6450000D01*
X22650000Y6450000D01*
X22650000Y4950000D01*
G37*
G36*
X21350000Y4950000D02*
G01*
X21850000Y4950000D01*
X21850000Y6450000D01*
X21350000Y6450000D01*
X21350000Y4950000D01*
G37*
G36*
X23950000Y4950000D02*
G01*
X24450000Y4950000D01*
X24450000Y6450000D01*
X23950000Y6450000D01*
X23950000Y4950000D01*
G37*
G36*
X19900000Y4950000D02*
G01*
X21200000Y4950000D01*
X21200000Y6450000D01*
X19900000Y6450000D01*
X19900000Y4950000D01*
G37*
G36*
X24600000Y4950000D02*
G01*
X25900000Y4950000D01*
X25900000Y6450000D01*
X24600000Y6450000D01*
X24600000Y4950000D01*
G37*
D11*
%TO.C,G1*%
G36*
X66272477Y10090526D02*
G01*
X66569750Y9868330D01*
X66904748Y9642486D01*
X67244999Y9433868D01*
X67558029Y9263348D01*
X67563795Y9260467D01*
X68058118Y9039294D01*
X68535555Y8881728D01*
X69021214Y8781966D01*
X69540204Y8734203D01*
X69867222Y8728043D01*
X70211109Y8735337D01*
X70512919Y8757281D01*
X70799228Y8798171D01*
X71096610Y8862301D01*
X71431641Y8953965D01*
X71622130Y9011635D01*
X71869746Y9085654D01*
X72062749Y9135320D01*
X72226083Y9165250D01*
X72384692Y9180059D01*
X72555389Y9184334D01*
X72770417Y9180043D01*
X72934476Y9161439D01*
X73080790Y9123167D01*
X73189809Y9082066D01*
X73322437Y9019192D01*
X73418408Y8957672D01*
X73454962Y8914665D01*
X73443043Y8864282D01*
X73404587Y8741581D01*
X73342100Y8553776D01*
X73258087Y8308078D01*
X73155052Y8011701D01*
X73035502Y7671857D01*
X72901940Y7295759D01*
X72756873Y6890619D01*
X72624230Y6522834D01*
X71781766Y4194500D01*
X71554744Y4187916D01*
X71411586Y4187815D01*
X71295204Y4194793D01*
X71253639Y4201603D01*
X71190780Y4244351D01*
X71179555Y4275954D01*
X71192636Y4328108D01*
X71229699Y4450299D01*
X71287475Y4632403D01*
X71362696Y4864294D01*
X71452093Y5135850D01*
X71552397Y5436945D01*
X71603915Y5590348D01*
X71726419Y5950966D01*
X71824245Y6239498D01*
X71896615Y6465081D01*
X71942753Y6636852D01*
X71961883Y6763949D01*
X71953228Y6855508D01*
X71916012Y6920666D01*
X71849457Y6968560D01*
X71752788Y7008328D01*
X71625228Y7049106D01*
X71475889Y7096714D01*
X71284731Y7158548D01*
X71144304Y7195461D01*
X71025697Y7211266D01*
X70900000Y7209778D01*
X70738301Y7194813D01*
X70735055Y7194462D01*
X70564995Y7181102D01*
X70337389Y7170268D01*
X70079342Y7162916D01*
X69817960Y7160006D01*
X69761389Y7160061D01*
X69391318Y7169572D01*
X69078326Y7199017D01*
X68796036Y7254049D01*
X68518074Y7340322D01*
X68218064Y7463490D01*
X68106126Y7514882D01*
X67728194Y7712122D01*
X67404862Y7928980D01*
X67106085Y8186941D01*
X66959890Y8334493D01*
X66737285Y8601201D01*
X66536197Y8903616D01*
X66367010Y9221428D01*
X66240107Y9534330D01*
X66165871Y9822015D01*
X66154561Y9909500D01*
X66127899Y10205834D01*
X66272477Y10090526D01*
G37*
X66272477Y10090526D02*
X66569750Y9868330D01*
X66904748Y9642486D01*
X67244999Y9433868D01*
X67558029Y9263348D01*
X67563795Y9260467D01*
X68058118Y9039294D01*
X68535555Y8881728D01*
X69021214Y8781966D01*
X69540204Y8734203D01*
X69867222Y8728043D01*
X70211109Y8735337D01*
X70512919Y8757281D01*
X70799228Y8798171D01*
X71096610Y8862301D01*
X71431641Y8953965D01*
X71622130Y9011635D01*
X71869746Y9085654D01*
X72062749Y9135320D01*
X72226083Y9165250D01*
X72384692Y9180059D01*
X72555389Y9184334D01*
X72770417Y9180043D01*
X72934476Y9161439D01*
X73080790Y9123167D01*
X73189809Y9082066D01*
X73322437Y9019192D01*
X73418408Y8957672D01*
X73454962Y8914665D01*
X73443043Y8864282D01*
X73404587Y8741581D01*
X73342100Y8553776D01*
X73258087Y8308078D01*
X73155052Y8011701D01*
X73035502Y7671857D01*
X72901940Y7295759D01*
X72756873Y6890619D01*
X72624230Y6522834D01*
X71781766Y4194500D01*
X71554744Y4187916D01*
X71411586Y4187815D01*
X71295204Y4194793D01*
X71253639Y4201603D01*
X71190780Y4244351D01*
X71179555Y4275954D01*
X71192636Y4328108D01*
X71229699Y4450299D01*
X71287475Y4632403D01*
X71362696Y4864294D01*
X71452093Y5135850D01*
X71552397Y5436945D01*
X71603915Y5590348D01*
X71726419Y5950966D01*
X71824245Y6239498D01*
X71896615Y6465081D01*
X71942753Y6636852D01*
X71961883Y6763949D01*
X71953228Y6855508D01*
X71916012Y6920666D01*
X71849457Y6968560D01*
X71752788Y7008328D01*
X71625228Y7049106D01*
X71475889Y7096714D01*
X71284731Y7158548D01*
X71144304Y7195461D01*
X71025697Y7211266D01*
X70900000Y7209778D01*
X70738301Y7194813D01*
X70735055Y7194462D01*
X70564995Y7181102D01*
X70337389Y7170268D01*
X70079342Y7162916D01*
X69817960Y7160006D01*
X69761389Y7160061D01*
X69391318Y7169572D01*
X69078326Y7199017D01*
X68796036Y7254049D01*
X68518074Y7340322D01*
X68218064Y7463490D01*
X68106126Y7514882D01*
X67728194Y7712122D01*
X67404862Y7928980D01*
X67106085Y8186941D01*
X66959890Y8334493D01*
X66737285Y8601201D01*
X66536197Y8903616D01*
X66367010Y9221428D01*
X66240107Y9534330D01*
X66165871Y9822015D01*
X66154561Y9909500D01*
X66127899Y10205834D01*
X66272477Y10090526D01*
%TD*%
D12*
%TO.C,FID3*%
X4000000Y4000000D03*
%TD*%
%TO.C,FID2*%
X78000000Y72800000D03*
%TD*%
%TO.C,FID1*%
X4000000Y72800000D03*
%TD*%
%TO.C,R68*%
G36*
G01*
X46418750Y12600000D02*
X46981250Y12600000D01*
G75*
G02*
X47225000Y12356250I0J-243750D01*
G01*
X47225000Y11868750D01*
G75*
G02*
X46981250Y11625000I-243750J0D01*
G01*
X46418750Y11625000D01*
G75*
G02*
X46175000Y11868750I0J243750D01*
G01*
X46175000Y12356250D01*
G75*
G02*
X46418750Y12600000I243750J0D01*
G01*
G37*
G36*
G01*
X46418750Y14175000D02*
X46981250Y14175000D01*
G75*
G02*
X47225000Y13931250I0J-243750D01*
G01*
X47225000Y13443750D01*
G75*
G02*
X46981250Y13200000I-243750J0D01*
G01*
X46418750Y13200000D01*
G75*
G02*
X46175000Y13443750I0J243750D01*
G01*
X46175000Y13931250D01*
G75*
G02*
X46418750Y14175000I243750J0D01*
G01*
G37*
%TD*%
D13*
%TO.C,TP4*%
X8000000Y5400000D03*
%TD*%
%TO.C,TP3*%
X14750000Y21400000D03*
%TD*%
%TO.C,TP2*%
X10050000Y14750000D03*
%TD*%
%TO.C,TP1*%
X10700000Y21400000D03*
%TD*%
D14*
%TO.C,JP1*%
X3050000Y48690000D03*
D15*
X3050000Y46150000D03*
%TD*%
%TO.C,F1*%
G36*
G01*
X5590625Y49525000D02*
X7709375Y49525000D01*
G75*
G02*
X7975000Y49259375I0J-265625D01*
G01*
X7975000Y48090625D01*
G75*
G02*
X7709375Y47825000I-265625J0D01*
G01*
X5590625Y47825000D01*
G75*
G02*
X5325000Y48090625I0J265625D01*
G01*
X5325000Y49259375D01*
G75*
G02*
X5590625Y49525000I265625J0D01*
G01*
G37*
G36*
G01*
X5590625Y52375000D02*
X7709375Y52375000D01*
G75*
G02*
X7975000Y52109375I0J-265625D01*
G01*
X7975000Y50940625D01*
G75*
G02*
X7709375Y50675000I-265625J0D01*
G01*
X5590625Y50675000D01*
G75*
G02*
X5325000Y50940625I0J265625D01*
G01*
X5325000Y52109375D01*
G75*
G02*
X5590625Y52375000I265625J0D01*
G01*
G37*
%TD*%
D16*
%TO.C,U30*%
X12050000Y17200000D03*
D17*
X12700000Y16150000D03*
X12050000Y16150000D03*
X11400000Y16150000D03*
X11400000Y18250000D03*
X12050000Y18250000D03*
X12700000Y18250000D03*
%TD*%
D16*
%TO.C,U29*%
X15750000Y17200000D03*
D17*
X16400000Y16150000D03*
X15750000Y16150000D03*
X15100000Y16150000D03*
X15100000Y18250000D03*
X15750000Y18250000D03*
X16400000Y18250000D03*
%TD*%
D18*
%TO.C,U28*%
X13000000Y11250000D03*
X15000000Y12200000D03*
X15000000Y10300000D03*
%TD*%
%TO.C,C57*%
G36*
G01*
X12200000Y19368750D02*
X12200000Y19931250D01*
G75*
G02*
X12443750Y20175000I243750J0D01*
G01*
X12931250Y20175000D01*
G75*
G02*
X13175000Y19931250I0J-243750D01*
G01*
X13175000Y19368750D01*
G75*
G02*
X12931250Y19125000I-243750J0D01*
G01*
X12443750Y19125000D01*
G75*
G02*
X12200000Y19368750I0J243750D01*
G01*
G37*
G36*
G01*
X10625000Y19368750D02*
X10625000Y19931250D01*
G75*
G02*
X10868750Y20175000I243750J0D01*
G01*
X11356250Y20175000D01*
G75*
G02*
X11600000Y19931250I0J-243750D01*
G01*
X11600000Y19368750D01*
G75*
G02*
X11356250Y19125000I-243750J0D01*
G01*
X10868750Y19125000D01*
G75*
G02*
X10625000Y19368750I0J243750D01*
G01*
G37*
%TD*%
%TO.C,C56*%
G36*
G01*
X15850000Y19368750D02*
X15850000Y19931250D01*
G75*
G02*
X16093750Y20175000I243750J0D01*
G01*
X16581250Y20175000D01*
G75*
G02*
X16825000Y19931250I0J-243750D01*
G01*
X16825000Y19368750D01*
G75*
G02*
X16581250Y19125000I-243750J0D01*
G01*
X16093750Y19125000D01*
G75*
G02*
X15850000Y19368750I0J243750D01*
G01*
G37*
G36*
G01*
X14275000Y19368750D02*
X14275000Y19931250D01*
G75*
G02*
X14518750Y20175000I243750J0D01*
G01*
X15006250Y20175000D01*
G75*
G02*
X15250000Y19931250I0J-243750D01*
G01*
X15250000Y19368750D01*
G75*
G02*
X15006250Y19125000I-243750J0D01*
G01*
X14518750Y19125000D01*
G75*
G02*
X14275000Y19368750I0J243750D01*
G01*
G37*
%TD*%
%TO.C,C55*%
G36*
G01*
X12900000Y15031250D02*
X12900000Y14468750D01*
G75*
G02*
X12656250Y14225000I-243750J0D01*
G01*
X12168750Y14225000D01*
G75*
G02*
X11925000Y14468750I0J243750D01*
G01*
X11925000Y15031250D01*
G75*
G02*
X12168750Y15275000I243750J0D01*
G01*
X12656250Y15275000D01*
G75*
G02*
X12900000Y15031250I0J-243750D01*
G01*
G37*
G36*
G01*
X14475000Y15031250D02*
X14475000Y14468750D01*
G75*
G02*
X14231250Y14225000I-243750J0D01*
G01*
X13743750Y14225000D01*
G75*
G02*
X13500000Y14468750I0J243750D01*
G01*
X13500000Y15031250D01*
G75*
G02*
X13743750Y15275000I243750J0D01*
G01*
X14231250Y15275000D01*
G75*
G02*
X14475000Y15031250I0J-243750D01*
G01*
G37*
%TD*%
%TO.C,C54*%
G36*
G01*
X16600000Y15031250D02*
X16600000Y14468750D01*
G75*
G02*
X16356250Y14225000I-243750J0D01*
G01*
X15868750Y14225000D01*
G75*
G02*
X15625000Y14468750I0J243750D01*
G01*
X15625000Y15031250D01*
G75*
G02*
X15868750Y15275000I243750J0D01*
G01*
X16356250Y15275000D01*
G75*
G02*
X16600000Y15031250I0J-243750D01*
G01*
G37*
G36*
G01*
X18175000Y15031250D02*
X18175000Y14468750D01*
G75*
G02*
X17931250Y14225000I-243750J0D01*
G01*
X17443750Y14225000D01*
G75*
G02*
X17200000Y14468750I0J243750D01*
G01*
X17200000Y15031250D01*
G75*
G02*
X17443750Y15275000I243750J0D01*
G01*
X17931250Y15275000D01*
G75*
G02*
X18175000Y15031250I0J-243750D01*
G01*
G37*
%TD*%
%TO.C,R69*%
G36*
G01*
X45618750Y5450000D02*
X46181250Y5450000D01*
G75*
G02*
X46425000Y5206250I0J-243750D01*
G01*
X46425000Y4718750D01*
G75*
G02*
X46181250Y4475000I-243750J0D01*
G01*
X45618750Y4475000D01*
G75*
G02*
X45375000Y4718750I0J243750D01*
G01*
X45375000Y5206250D01*
G75*
G02*
X45618750Y5450000I243750J0D01*
G01*
G37*
G36*
G01*
X45618750Y7025000D02*
X46181250Y7025000D01*
G75*
G02*
X46425000Y6781250I0J-243750D01*
G01*
X46425000Y6293750D01*
G75*
G02*
X46181250Y6050000I-243750J0D01*
G01*
X45618750Y6050000D01*
G75*
G02*
X45375000Y6293750I0J243750D01*
G01*
X45375000Y6781250D01*
G75*
G02*
X45618750Y7025000I243750J0D01*
G01*
G37*
%TD*%
%TO.C,D10*%
G36*
G01*
X46162500Y2800000D02*
X45637500Y2800000D01*
G75*
G02*
X45375000Y3062500I0J262500D01*
G01*
X45375000Y3687500D01*
G75*
G02*
X45637500Y3950000I262500J0D01*
G01*
X46162500Y3950000D01*
G75*
G02*
X46425000Y3687500I0J-262500D01*
G01*
X46425000Y3062500D01*
G75*
G02*
X46162500Y2800000I-262500J0D01*
G01*
G37*
G36*
G01*
X46162500Y1050000D02*
X45637500Y1050000D01*
G75*
G02*
X45375000Y1312500I0J262500D01*
G01*
X45375000Y1937500D01*
G75*
G02*
X45637500Y2200000I262500J0D01*
G01*
X46162500Y2200000D01*
G75*
G02*
X46425000Y1937500I0J-262500D01*
G01*
X46425000Y1312500D01*
G75*
G02*
X46162500Y1050000I-262500J0D01*
G01*
G37*
%TD*%
%TO.C,R67*%
G36*
G01*
X42318750Y5450000D02*
X42881250Y5450000D01*
G75*
G02*
X43125000Y5206250I0J-243750D01*
G01*
X43125000Y4718750D01*
G75*
G02*
X42881250Y4475000I-243750J0D01*
G01*
X42318750Y4475000D01*
G75*
G02*
X42075000Y4718750I0J243750D01*
G01*
X42075000Y5206250D01*
G75*
G02*
X42318750Y5450000I243750J0D01*
G01*
G37*
G36*
G01*
X42318750Y7025000D02*
X42881250Y7025000D01*
G75*
G02*
X43125000Y6781250I0J-243750D01*
G01*
X43125000Y6293750D01*
G75*
G02*
X42881250Y6050000I-243750J0D01*
G01*
X42318750Y6050000D01*
G75*
G02*
X42075000Y6293750I0J243750D01*
G01*
X42075000Y6781250D01*
G75*
G02*
X42318750Y7025000I243750J0D01*
G01*
G37*
%TD*%
%TO.C,R66*%
G36*
G01*
X40518750Y5450000D02*
X41081250Y5450000D01*
G75*
G02*
X41325000Y5206250I0J-243750D01*
G01*
X41325000Y4718750D01*
G75*
G02*
X41081250Y4475000I-243750J0D01*
G01*
X40518750Y4475000D01*
G75*
G02*
X40275000Y4718750I0J243750D01*
G01*
X40275000Y5206250D01*
G75*
G02*
X40518750Y5450000I243750J0D01*
G01*
G37*
G36*
G01*
X40518750Y7025000D02*
X41081250Y7025000D01*
G75*
G02*
X41325000Y6781250I0J-243750D01*
G01*
X41325000Y6293750D01*
G75*
G02*
X41081250Y6050000I-243750J0D01*
G01*
X40518750Y6050000D01*
G75*
G02*
X40275000Y6293750I0J243750D01*
G01*
X40275000Y6781250D01*
G75*
G02*
X40518750Y7025000I243750J0D01*
G01*
G37*
%TD*%
%TO.C,R65*%
G36*
G01*
X38718750Y5450000D02*
X39281250Y5450000D01*
G75*
G02*
X39525000Y5206250I0J-243750D01*
G01*
X39525000Y4718750D01*
G75*
G02*
X39281250Y4475000I-243750J0D01*
G01*
X38718750Y4475000D01*
G75*
G02*
X38475000Y4718750I0J243750D01*
G01*
X38475000Y5206250D01*
G75*
G02*
X38718750Y5450000I243750J0D01*
G01*
G37*
G36*
G01*
X38718750Y7025000D02*
X39281250Y7025000D01*
G75*
G02*
X39525000Y6781250I0J-243750D01*
G01*
X39525000Y6293750D01*
G75*
G02*
X39281250Y6050000I-243750J0D01*
G01*
X38718750Y6050000D01*
G75*
G02*
X38475000Y6293750I0J243750D01*
G01*
X38475000Y6781250D01*
G75*
G02*
X38718750Y7025000I243750J0D01*
G01*
G37*
%TD*%
%TO.C,R64*%
G36*
G01*
X36918750Y5450000D02*
X37481250Y5450000D01*
G75*
G02*
X37725000Y5206250I0J-243750D01*
G01*
X37725000Y4718750D01*
G75*
G02*
X37481250Y4475000I-243750J0D01*
G01*
X36918750Y4475000D01*
G75*
G02*
X36675000Y4718750I0J243750D01*
G01*
X36675000Y5206250D01*
G75*
G02*
X36918750Y5450000I243750J0D01*
G01*
G37*
G36*
G01*
X36918750Y7025000D02*
X37481250Y7025000D01*
G75*
G02*
X37725000Y6781250I0J-243750D01*
G01*
X37725000Y6293750D01*
G75*
G02*
X37481250Y6050000I-243750J0D01*
G01*
X36918750Y6050000D01*
G75*
G02*
X36675000Y6293750I0J243750D01*
G01*
X36675000Y6781250D01*
G75*
G02*
X36918750Y7025000I243750J0D01*
G01*
G37*
%TD*%
%TO.C,R63*%
G36*
G01*
X35118750Y5450000D02*
X35681250Y5450000D01*
G75*
G02*
X35925000Y5206250I0J-243750D01*
G01*
X35925000Y4718750D01*
G75*
G02*
X35681250Y4475000I-243750J0D01*
G01*
X35118750Y4475000D01*
G75*
G02*
X34875000Y4718750I0J243750D01*
G01*
X34875000Y5206250D01*
G75*
G02*
X35118750Y5450000I243750J0D01*
G01*
G37*
G36*
G01*
X35118750Y7025000D02*
X35681250Y7025000D01*
G75*
G02*
X35925000Y6781250I0J-243750D01*
G01*
X35925000Y6293750D01*
G75*
G02*
X35681250Y6050000I-243750J0D01*
G01*
X35118750Y6050000D01*
G75*
G02*
X34875000Y6293750I0J243750D01*
G01*
X34875000Y6781250D01*
G75*
G02*
X35118750Y7025000I243750J0D01*
G01*
G37*
%TD*%
%TO.C,D9*%
G36*
G01*
X42862500Y2800000D02*
X42337500Y2800000D01*
G75*
G02*
X42075000Y3062500I0J262500D01*
G01*
X42075000Y3687500D01*
G75*
G02*
X42337500Y3950000I262500J0D01*
G01*
X42862500Y3950000D01*
G75*
G02*
X43125000Y3687500I0J-262500D01*
G01*
X43125000Y3062500D01*
G75*
G02*
X42862500Y2800000I-262500J0D01*
G01*
G37*
G36*
G01*
X42862500Y1050000D02*
X42337500Y1050000D01*
G75*
G02*
X42075000Y1312500I0J262500D01*
G01*
X42075000Y1937500D01*
G75*
G02*
X42337500Y2200000I262500J0D01*
G01*
X42862500Y2200000D01*
G75*
G02*
X43125000Y1937500I0J-262500D01*
G01*
X43125000Y1312500D01*
G75*
G02*
X42862500Y1050000I-262500J0D01*
G01*
G37*
%TD*%
%TO.C,D6*%
G36*
G01*
X41062500Y2800000D02*
X40537500Y2800000D01*
G75*
G02*
X40275000Y3062500I0J262500D01*
G01*
X40275000Y3687500D01*
G75*
G02*
X40537500Y3950000I262500J0D01*
G01*
X41062500Y3950000D01*
G75*
G02*
X41325000Y3687500I0J-262500D01*
G01*
X41325000Y3062500D01*
G75*
G02*
X41062500Y2800000I-262500J0D01*
G01*
G37*
G36*
G01*
X41062500Y1050000D02*
X40537500Y1050000D01*
G75*
G02*
X40275000Y1312500I0J262500D01*
G01*
X40275000Y1937500D01*
G75*
G02*
X40537500Y2200000I262500J0D01*
G01*
X41062500Y2200000D01*
G75*
G02*
X41325000Y1937500I0J-262500D01*
G01*
X41325000Y1312500D01*
G75*
G02*
X41062500Y1050000I-262500J0D01*
G01*
G37*
%TD*%
%TO.C,D5*%
G36*
G01*
X39262500Y2800000D02*
X38737500Y2800000D01*
G75*
G02*
X38475000Y3062500I0J262500D01*
G01*
X38475000Y3687500D01*
G75*
G02*
X38737500Y3950000I262500J0D01*
G01*
X39262500Y3950000D01*
G75*
G02*
X39525000Y3687500I0J-262500D01*
G01*
X39525000Y3062500D01*
G75*
G02*
X39262500Y2800000I-262500J0D01*
G01*
G37*
G36*
G01*
X39262500Y1050000D02*
X38737500Y1050000D01*
G75*
G02*
X38475000Y1312500I0J262500D01*
G01*
X38475000Y1937500D01*
G75*
G02*
X38737500Y2200000I262500J0D01*
G01*
X39262500Y2200000D01*
G75*
G02*
X39525000Y1937500I0J-262500D01*
G01*
X39525000Y1312500D01*
G75*
G02*
X39262500Y1050000I-262500J0D01*
G01*
G37*
%TD*%
%TO.C,D2*%
G36*
G01*
X37462500Y2800000D02*
X36937500Y2800000D01*
G75*
G02*
X36675000Y3062500I0J262500D01*
G01*
X36675000Y3687500D01*
G75*
G02*
X36937500Y3950000I262500J0D01*
G01*
X37462500Y3950000D01*
G75*
G02*
X37725000Y3687500I0J-262500D01*
G01*
X37725000Y3062500D01*
G75*
G02*
X37462500Y2800000I-262500J0D01*
G01*
G37*
G36*
G01*
X37462500Y1050000D02*
X36937500Y1050000D01*
G75*
G02*
X36675000Y1312500I0J262500D01*
G01*
X36675000Y1937500D01*
G75*
G02*
X36937500Y2200000I262500J0D01*
G01*
X37462500Y2200000D01*
G75*
G02*
X37725000Y1937500I0J-262500D01*
G01*
X37725000Y1312500D01*
G75*
G02*
X37462500Y1050000I-262500J0D01*
G01*
G37*
%TD*%
%TO.C,D1*%
G36*
G01*
X35662500Y2800000D02*
X35137500Y2800000D01*
G75*
G02*
X34875000Y3062500I0J262500D01*
G01*
X34875000Y3687500D01*
G75*
G02*
X35137500Y3950000I262500J0D01*
G01*
X35662500Y3950000D01*
G75*
G02*
X35925000Y3687500I0J-262500D01*
G01*
X35925000Y3062500D01*
G75*
G02*
X35662500Y2800000I-262500J0D01*
G01*
G37*
G36*
G01*
X35662500Y1050000D02*
X35137500Y1050000D01*
G75*
G02*
X34875000Y1312500I0J262500D01*
G01*
X34875000Y1937500D01*
G75*
G02*
X35137500Y2200000I262500J0D01*
G01*
X35662500Y2200000D01*
G75*
G02*
X35925000Y1937500I0J-262500D01*
G01*
X35925000Y1312500D01*
G75*
G02*
X35662500Y1050000I-262500J0D01*
G01*
G37*
%TD*%
D10*
%TO.C,X1*%
G36*
X32053464Y8521662D02*
G01*
X31204936Y9370190D01*
X32194886Y10360140D01*
X33043414Y9511612D01*
X32053464Y8521662D01*
G37*
G36*
X33538388Y10006586D02*
G01*
X32689860Y10855114D01*
X33679810Y11845064D01*
X34528338Y10996536D01*
X33538388Y10006586D01*
G37*
G36*
X34705114Y8839860D02*
G01*
X33856586Y9688388D01*
X34846536Y10678338D01*
X35695064Y9829810D01*
X34705114Y8839860D01*
G37*
G36*
X33220190Y7354936D02*
G01*
X32371662Y8203464D01*
X33361612Y9193414D01*
X34210140Y8344886D01*
X33220190Y7354936D01*
G37*
%TD*%
D19*
%TO.C,U2*%
X46656854Y17050000D03*
X46091169Y17615685D03*
X45525483Y18181371D03*
X44959798Y18747056D03*
X44394113Y19312742D03*
X43828427Y19878427D03*
X43262742Y20444113D03*
X42697056Y21009798D03*
X42131371Y21575483D03*
X41565685Y22141169D03*
X41000000Y22706854D03*
X46091169Y16484315D03*
X45525483Y17050000D03*
X44959798Y17615685D03*
X44394113Y18181371D03*
X43828427Y18747056D03*
X43262742Y19312742D03*
X42697056Y19878427D03*
X42131371Y20444113D03*
X41565685Y21009798D03*
X41000000Y21575483D03*
X40434315Y22141169D03*
X45525483Y15918629D03*
X44959798Y16484315D03*
X44394113Y17050000D03*
X43828427Y17615685D03*
X43262742Y18181371D03*
X42697056Y18747056D03*
X42131371Y19312742D03*
X41565685Y19878427D03*
X41000000Y20444113D03*
X40434315Y21009798D03*
X39868629Y21575483D03*
X44959798Y15352944D03*
X44394113Y15918629D03*
X43828427Y16484315D03*
X43262742Y17050000D03*
X42697056Y17615685D03*
X42131371Y18181371D03*
X41565685Y18747056D03*
X41000000Y19312742D03*
X40434315Y19878427D03*
X39868629Y20444113D03*
X39302944Y21009798D03*
X44394113Y14787258D03*
X43828427Y15352944D03*
X43262742Y15918629D03*
X42697056Y16484315D03*
X42131371Y17050000D03*
X41565685Y17615685D03*
X41000000Y18181371D03*
X40434315Y18747056D03*
X39868629Y19312742D03*
X39302944Y19878427D03*
X38737258Y20444113D03*
X43828427Y14221573D03*
X43262742Y14787258D03*
X42697056Y15352944D03*
X42131371Y15918629D03*
X41565685Y16484315D03*
X41000000Y17050000D03*
X40434315Y17615685D03*
X39868629Y18181371D03*
X39302944Y18747056D03*
X38737258Y19312742D03*
X38171573Y19878427D03*
X43262742Y13655887D03*
X42697056Y14221573D03*
X42131371Y14787258D03*
X41565685Y15352944D03*
X41000000Y15918629D03*
X40434315Y16484315D03*
X39868629Y17050000D03*
X39302944Y17615685D03*
X38737258Y18181371D03*
X38171573Y18747056D03*
X37605887Y19312742D03*
X42697056Y13090202D03*
X42131371Y13655887D03*
X41565685Y14221573D03*
X41000000Y14787258D03*
X40434315Y15352944D03*
X39868629Y15918629D03*
X39302944Y16484315D03*
X38737258Y17050000D03*
X38171573Y17615685D03*
X37605887Y18181371D03*
X37040202Y18747056D03*
X42131371Y12524517D03*
X41565685Y13090202D03*
X41000000Y13655887D03*
X40434315Y14221573D03*
X39868629Y14787258D03*
X39302944Y15352944D03*
X38737258Y15918629D03*
X38171573Y16484315D03*
X37605887Y17050000D03*
X37040202Y17615685D03*
X36474517Y18181371D03*
X41565685Y11958831D03*
X41000000Y12524517D03*
X40434315Y13090202D03*
X39868629Y13655887D03*
X39302944Y14221573D03*
X38737258Y14787258D03*
X38171573Y15352944D03*
X37605887Y15918629D03*
X37040202Y16484315D03*
X36474517Y17050000D03*
X35908831Y17615685D03*
X41000000Y11393146D03*
X40434315Y11958831D03*
X39868629Y12524517D03*
X39302944Y13090202D03*
X38737258Y13655887D03*
X38171573Y14221573D03*
X37605887Y14787258D03*
X37040202Y15352944D03*
X36474517Y15918629D03*
X35908831Y16484315D03*
X35343146Y17050000D03*
%TD*%
D20*
%TO.C,U27*%
X22900000Y14750000D03*
G36*
G01*
X24462500Y16175000D02*
X25212500Y16175000D01*
G75*
G02*
X25300000Y16087500I0J-87500D01*
G01*
X25300000Y15912500D01*
G75*
G02*
X25212500Y15825000I-87500J0D01*
G01*
X24462500Y15825000D01*
G75*
G02*
X24375000Y15912500I0J87500D01*
G01*
X24375000Y16087500D01*
G75*
G02*
X24462500Y16175000I87500J0D01*
G01*
G37*
G36*
G01*
X24462500Y15675000D02*
X25212500Y15675000D01*
G75*
G02*
X25300000Y15587500I0J-87500D01*
G01*
X25300000Y15412500D01*
G75*
G02*
X25212500Y15325000I-87500J0D01*
G01*
X24462500Y15325000D01*
G75*
G02*
X24375000Y15412500I0J87500D01*
G01*
X24375000Y15587500D01*
G75*
G02*
X24462500Y15675000I87500J0D01*
G01*
G37*
G36*
G01*
X24462500Y15175000D02*
X25212500Y15175000D01*
G75*
G02*
X25300000Y15087500I0J-87500D01*
G01*
X25300000Y14912500D01*
G75*
G02*
X25212500Y14825000I-87500J0D01*
G01*
X24462500Y14825000D01*
G75*
G02*
X24375000Y14912500I0J87500D01*
G01*
X24375000Y15087500D01*
G75*
G02*
X24462500Y15175000I87500J0D01*
G01*
G37*
G36*
G01*
X24462500Y14675000D02*
X25212500Y14675000D01*
G75*
G02*
X25300000Y14587500I0J-87500D01*
G01*
X25300000Y14412500D01*
G75*
G02*
X25212500Y14325000I-87500J0D01*
G01*
X24462500Y14325000D01*
G75*
G02*
X24375000Y14412500I0J87500D01*
G01*
X24375000Y14587500D01*
G75*
G02*
X24462500Y14675000I87500J0D01*
G01*
G37*
G36*
G01*
X24462500Y14175000D02*
X25212500Y14175000D01*
G75*
G02*
X25300000Y14087500I0J-87500D01*
G01*
X25300000Y13912500D01*
G75*
G02*
X25212500Y13825000I-87500J0D01*
G01*
X24462500Y13825000D01*
G75*
G02*
X24375000Y13912500I0J87500D01*
G01*
X24375000Y14087500D01*
G75*
G02*
X24462500Y14175000I87500J0D01*
G01*
G37*
G36*
G01*
X24462500Y13675000D02*
X25212500Y13675000D01*
G75*
G02*
X25300000Y13587500I0J-87500D01*
G01*
X25300000Y13412500D01*
G75*
G02*
X25212500Y13325000I-87500J0D01*
G01*
X24462500Y13325000D01*
G75*
G02*
X24375000Y13412500I0J87500D01*
G01*
X24375000Y13587500D01*
G75*
G02*
X24462500Y13675000I87500J0D01*
G01*
G37*
G36*
G01*
X24062500Y13275000D02*
X24237500Y13275000D01*
G75*
G02*
X24325000Y13187500I0J-87500D01*
G01*
X24325000Y12437500D01*
G75*
G02*
X24237500Y12350000I-87500J0D01*
G01*
X24062500Y12350000D01*
G75*
G02*
X23975000Y12437500I0J87500D01*
G01*
X23975000Y13187500D01*
G75*
G02*
X24062500Y13275000I87500J0D01*
G01*
G37*
G36*
G01*
X23562500Y13275000D02*
X23737500Y13275000D01*
G75*
G02*
X23825000Y13187500I0J-87500D01*
G01*
X23825000Y12437500D01*
G75*
G02*
X23737500Y12350000I-87500J0D01*
G01*
X23562500Y12350000D01*
G75*
G02*
X23475000Y12437500I0J87500D01*
G01*
X23475000Y13187500D01*
G75*
G02*
X23562500Y13275000I87500J0D01*
G01*
G37*
G36*
G01*
X23062500Y13275000D02*
X23237500Y13275000D01*
G75*
G02*
X23325000Y13187500I0J-87500D01*
G01*
X23325000Y12437500D01*
G75*
G02*
X23237500Y12350000I-87500J0D01*
G01*
X23062500Y12350000D01*
G75*
G02*
X22975000Y12437500I0J87500D01*
G01*
X22975000Y13187500D01*
G75*
G02*
X23062500Y13275000I87500J0D01*
G01*
G37*
G36*
G01*
X22562500Y13275000D02*
X22737500Y13275000D01*
G75*
G02*
X22825000Y13187500I0J-87500D01*
G01*
X22825000Y12437500D01*
G75*
G02*
X22737500Y12350000I-87500J0D01*
G01*
X22562500Y12350000D01*
G75*
G02*
X22475000Y12437500I0J87500D01*
G01*
X22475000Y13187500D01*
G75*
G02*
X22562500Y13275000I87500J0D01*
G01*
G37*
G36*
G01*
X22062500Y13275000D02*
X22237500Y13275000D01*
G75*
G02*
X22325000Y13187500I0J-87500D01*
G01*
X22325000Y12437500D01*
G75*
G02*
X22237500Y12350000I-87500J0D01*
G01*
X22062500Y12350000D01*
G75*
G02*
X21975000Y12437500I0J87500D01*
G01*
X21975000Y13187500D01*
G75*
G02*
X22062500Y13275000I87500J0D01*
G01*
G37*
G36*
G01*
X21562500Y13275000D02*
X21737500Y13275000D01*
G75*
G02*
X21825000Y13187500I0J-87500D01*
G01*
X21825000Y12437500D01*
G75*
G02*
X21737500Y12350000I-87500J0D01*
G01*
X21562500Y12350000D01*
G75*
G02*
X21475000Y12437500I0J87500D01*
G01*
X21475000Y13187500D01*
G75*
G02*
X21562500Y13275000I87500J0D01*
G01*
G37*
G36*
G01*
X20587500Y13675000D02*
X21337500Y13675000D01*
G75*
G02*
X21425000Y13587500I0J-87500D01*
G01*
X21425000Y13412500D01*
G75*
G02*
X21337500Y13325000I-87500J0D01*
G01*
X20587500Y13325000D01*
G75*
G02*
X20500000Y13412500I0J87500D01*
G01*
X20500000Y13587500D01*
G75*
G02*
X20587500Y13675000I87500J0D01*
G01*
G37*
G36*
G01*
X20587500Y14175000D02*
X21337500Y14175000D01*
G75*
G02*
X21425000Y14087500I0J-87500D01*
G01*
X21425000Y13912500D01*
G75*
G02*
X21337500Y13825000I-87500J0D01*
G01*
X20587500Y13825000D01*
G75*
G02*
X20500000Y13912500I0J87500D01*
G01*
X20500000Y14087500D01*
G75*
G02*
X20587500Y14175000I87500J0D01*
G01*
G37*
G36*
G01*
X20587500Y14675000D02*
X21337500Y14675000D01*
G75*
G02*
X21425000Y14587500I0J-87500D01*
G01*
X21425000Y14412500D01*
G75*
G02*
X21337500Y14325000I-87500J0D01*
G01*
X20587500Y14325000D01*
G75*
G02*
X20500000Y14412500I0J87500D01*
G01*
X20500000Y14587500D01*
G75*
G02*
X20587500Y14675000I87500J0D01*
G01*
G37*
G36*
G01*
X20587500Y15175000D02*
X21337500Y15175000D01*
G75*
G02*
X21425000Y15087500I0J-87500D01*
G01*
X21425000Y14912500D01*
G75*
G02*
X21337500Y14825000I-87500J0D01*
G01*
X20587500Y14825000D01*
G75*
G02*
X20500000Y14912500I0J87500D01*
G01*
X20500000Y15087500D01*
G75*
G02*
X20587500Y15175000I87500J0D01*
G01*
G37*
G36*
G01*
X20587500Y15675000D02*
X21337500Y15675000D01*
G75*
G02*
X21425000Y15587500I0J-87500D01*
G01*
X21425000Y15412500D01*
G75*
G02*
X21337500Y15325000I-87500J0D01*
G01*
X20587500Y15325000D01*
G75*
G02*
X20500000Y15412500I0J87500D01*
G01*
X20500000Y15587500D01*
G75*
G02*
X20587500Y15675000I87500J0D01*
G01*
G37*
G36*
G01*
X20587500Y16175000D02*
X21337500Y16175000D01*
G75*
G02*
X21425000Y16087500I0J-87500D01*
G01*
X21425000Y15912500D01*
G75*
G02*
X21337500Y15825000I-87500J0D01*
G01*
X20587500Y15825000D01*
G75*
G02*
X20500000Y15912500I0J87500D01*
G01*
X20500000Y16087500D01*
G75*
G02*
X20587500Y16175000I87500J0D01*
G01*
G37*
G36*
G01*
X21562500Y17150000D02*
X21737500Y17150000D01*
G75*
G02*
X21825000Y17062500I0J-87500D01*
G01*
X21825000Y16312500D01*
G75*
G02*
X21737500Y16225000I-87500J0D01*
G01*
X21562500Y16225000D01*
G75*
G02*
X21475000Y16312500I0J87500D01*
G01*
X21475000Y17062500D01*
G75*
G02*
X21562500Y17150000I87500J0D01*
G01*
G37*
G36*
G01*
X22062500Y17150000D02*
X22237500Y17150000D01*
G75*
G02*
X22325000Y17062500I0J-87500D01*
G01*
X22325000Y16312500D01*
G75*
G02*
X22237500Y16225000I-87500J0D01*
G01*
X22062500Y16225000D01*
G75*
G02*
X21975000Y16312500I0J87500D01*
G01*
X21975000Y17062500D01*
G75*
G02*
X22062500Y17150000I87500J0D01*
G01*
G37*
G36*
G01*
X22562500Y17150000D02*
X22737500Y17150000D01*
G75*
G02*
X22825000Y17062500I0J-87500D01*
G01*
X22825000Y16312500D01*
G75*
G02*
X22737500Y16225000I-87500J0D01*
G01*
X22562500Y16225000D01*
G75*
G02*
X22475000Y16312500I0J87500D01*
G01*
X22475000Y17062500D01*
G75*
G02*
X22562500Y17150000I87500J0D01*
G01*
G37*
G36*
G01*
X23062500Y17150000D02*
X23237500Y17150000D01*
G75*
G02*
X23325000Y17062500I0J-87500D01*
G01*
X23325000Y16312500D01*
G75*
G02*
X23237500Y16225000I-87500J0D01*
G01*
X23062500Y16225000D01*
G75*
G02*
X22975000Y16312500I0J87500D01*
G01*
X22975000Y17062500D01*
G75*
G02*
X23062500Y17150000I87500J0D01*
G01*
G37*
G36*
G01*
X23562500Y17150000D02*
X23737500Y17150000D01*
G75*
G02*
X23825000Y17062500I0J-87500D01*
G01*
X23825000Y16312500D01*
G75*
G02*
X23737500Y16225000I-87500J0D01*
G01*
X23562500Y16225000D01*
G75*
G02*
X23475000Y16312500I0J87500D01*
G01*
X23475000Y17062500D01*
G75*
G02*
X23562500Y17150000I87500J0D01*
G01*
G37*
G36*
G01*
X24062500Y17150000D02*
X24237500Y17150000D01*
G75*
G02*
X24325000Y17062500I0J-87500D01*
G01*
X24325000Y16312500D01*
G75*
G02*
X24237500Y16225000I-87500J0D01*
G01*
X24062500Y16225000D01*
G75*
G02*
X23975000Y16312500I0J87500D01*
G01*
X23975000Y17062500D01*
G75*
G02*
X24062500Y17150000I87500J0D01*
G01*
G37*
%TD*%
D21*
%TO.C,J3*%
X57860000Y7815000D03*
X57860000Y11885000D03*
X59130000Y7815000D03*
X59130000Y11885000D03*
X60400000Y7815000D03*
X60400000Y11885000D03*
X61670000Y7815000D03*
X61670000Y11885000D03*
X62940000Y7815000D03*
X62940000Y11885000D03*
%TD*%
%TO.C,C41*%
G36*
G01*
X11495000Y6075001D02*
X13705000Y6075001D01*
G75*
G02*
X13975000Y5805001I0J-270000D01*
G01*
X13975000Y4995001D01*
G75*
G02*
X13705000Y4725001I-270000J0D01*
G01*
X11495000Y4725001D01*
G75*
G02*
X11225000Y4995001I0J270000D01*
G01*
X11225000Y5805001D01*
G75*
G02*
X11495000Y6075001I270000J0D01*
G01*
G37*
G36*
G01*
X11495000Y8875001D02*
X13705000Y8875001D01*
G75*
G02*
X13975000Y8605001I0J-270000D01*
G01*
X13975000Y7795001D01*
G75*
G02*
X13705000Y7525001I-270000J0D01*
G01*
X11495000Y7525001D01*
G75*
G02*
X11225000Y7795001I0J270000D01*
G01*
X11225000Y8605001D01*
G75*
G02*
X11495000Y8875001I270000J0D01*
G01*
G37*
%TD*%
%TO.C,C36*%
G36*
G01*
X16910000Y11447500D02*
X16910000Y11052500D01*
G75*
G02*
X16737500Y10880000I-172500J0D01*
G01*
X16392500Y10880000D01*
G75*
G02*
X16220000Y11052500I0J172500D01*
G01*
X16220000Y11447500D01*
G75*
G02*
X16392500Y11620000I172500J0D01*
G01*
X16737500Y11620000D01*
G75*
G02*
X16910000Y11447500I0J-172500D01*
G01*
G37*
G36*
G01*
X17880000Y11447500D02*
X17880000Y11052500D01*
G75*
G02*
X17707500Y10880000I-172500J0D01*
G01*
X17362500Y10880000D01*
G75*
G02*
X17190000Y11052500I0J172500D01*
G01*
X17190000Y11447500D01*
G75*
G02*
X17362500Y11620000I172500J0D01*
G01*
X17707500Y11620000D01*
G75*
G02*
X17880000Y11447500I0J-172500D01*
G01*
G37*
%TD*%
%TO.C,C35*%
G36*
G01*
X19090000Y11052500D02*
X19090000Y11447500D01*
G75*
G02*
X19262500Y11620000I172500J0D01*
G01*
X19607500Y11620000D01*
G75*
G02*
X19780000Y11447500I0J-172500D01*
G01*
X19780000Y11052500D01*
G75*
G02*
X19607500Y10880000I-172500J0D01*
G01*
X19262500Y10880000D01*
G75*
G02*
X19090000Y11052500I0J172500D01*
G01*
G37*
G36*
G01*
X18120000Y11052500D02*
X18120000Y11447500D01*
G75*
G02*
X18292500Y11620000I172500J0D01*
G01*
X18637500Y11620000D01*
G75*
G02*
X18810000Y11447500I0J-172500D01*
G01*
X18810000Y11052500D01*
G75*
G02*
X18637500Y10880000I-172500J0D01*
G01*
X18292500Y10880000D01*
G75*
G02*
X18120000Y11052500I0J172500D01*
G01*
G37*
%TD*%
D22*
%TO.C,J2*%
X78425000Y66100000D03*
X3575000Y66100000D03*
D23*
X15080000Y68245000D03*
X17240000Y68245000D03*
X19400000Y68245000D03*
X21560000Y68245000D03*
X23720000Y68245000D03*
X25880000Y68245000D03*
X28040000Y68245000D03*
X30200000Y68245000D03*
X32360000Y68245000D03*
X34520000Y68245000D03*
X36680000Y68245000D03*
X38840000Y68245000D03*
X41000000Y68245000D03*
X43160000Y68245000D03*
X45320000Y68245000D03*
X47480000Y68245000D03*
X49640000Y68245000D03*
X51800000Y68245000D03*
X53960000Y68245000D03*
X56120000Y68245000D03*
X58280000Y68245000D03*
X60440000Y68245000D03*
X62600000Y68245000D03*
X64760000Y68245000D03*
X66920000Y68245000D03*
X15080000Y63955000D03*
X17240000Y63955000D03*
X19400000Y63955000D03*
X21560000Y63955000D03*
X23720000Y63955000D03*
X25880000Y63955000D03*
X28040000Y63955000D03*
X30200000Y63955000D03*
X32360000Y63955000D03*
X34520000Y63955000D03*
X36680000Y63955000D03*
X38840000Y63955000D03*
X41000000Y63955000D03*
X43160000Y63955000D03*
X45320000Y63955000D03*
X47480000Y63955000D03*
X49640000Y63955000D03*
X51800000Y63955000D03*
X53960000Y63955000D03*
X56120000Y63955000D03*
X58280000Y63955000D03*
X60440000Y63955000D03*
X62600000Y63955000D03*
X64760000Y63955000D03*
X66920000Y63955000D03*
%TD*%
D10*
%TO.C,U1*%
G36*
X49850241Y11504902D02*
G01*
X49851202Y11514657D01*
X49853114Y11524269D01*
X49855959Y11533648D01*
X49859710Y11542704D01*
X49864331Y11551349D01*
X49869778Y11559500D01*
X49875996Y11567076D01*
X49882924Y11574004D01*
X49890500Y11580222D01*
X49898651Y11585669D01*
X49907296Y11590290D01*
X49916352Y11594041D01*
X49925731Y11596886D01*
X49935343Y11598798D01*
X49945098Y11599759D01*
X49950000Y11600000D01*
X54250000Y11600000D01*
X54254902Y11599759D01*
X54264657Y11598798D01*
X54274269Y11596886D01*
X54283648Y11594041D01*
X54292704Y11590290D01*
X54301349Y11585669D01*
X54309500Y11580222D01*
X54317076Y11574004D01*
X54324004Y11567076D01*
X54330222Y11559500D01*
X54335669Y11551349D01*
X54340290Y11542704D01*
X54344041Y11533648D01*
X54346886Y11524269D01*
X54348798Y11514657D01*
X54349759Y11504902D01*
X54350000Y11500000D01*
X54350000Y8100000D01*
X54349759Y8095098D01*
X54348798Y8085343D01*
X54346886Y8075731D01*
X54344041Y8066352D01*
X54340290Y8057296D01*
X54335669Y8048651D01*
X54330222Y8040500D01*
X54324004Y8032924D01*
X54317076Y8025996D01*
X54309500Y8019778D01*
X54301349Y8014331D01*
X54292704Y8009710D01*
X54283648Y8005959D01*
X54274269Y8003114D01*
X54264657Y8001202D01*
X54254902Y8000241D01*
X54250000Y8000000D01*
X50450000Y8000000D01*
X50445098Y8000241D01*
X50435343Y8001202D01*
X50425731Y8003114D01*
X50416352Y8005959D01*
X50407296Y8009710D01*
X50398651Y8014331D01*
X50390500Y8019778D01*
X50382924Y8025996D01*
X50379290Y8029290D01*
X49879290Y8529290D01*
X49875996Y8532924D01*
X49869778Y8540500D01*
X49864331Y8548651D01*
X49859710Y8557296D01*
X49855959Y8566352D01*
X49853114Y8575731D01*
X49851202Y8585343D01*
X49850241Y8595098D01*
X49850000Y8600000D01*
X49850000Y11500000D01*
X49850241Y11504902D01*
G37*
G36*
G01*
X51520000Y13250000D02*
X51220000Y13250000D01*
G75*
G02*
X51070000Y13400000I0J150000D01*
G01*
X51070000Y14000000D01*
G75*
G02*
X51220000Y14150000I150000J0D01*
G01*
X51520000Y14150000D01*
G75*
G02*
X51670000Y14000000I0J-150000D01*
G01*
X51670000Y13400000D01*
G75*
G02*
X51520000Y13250000I-150000J0D01*
G01*
G37*
G36*
G01*
X54060000Y13250000D02*
X53760000Y13250000D01*
G75*
G02*
X53610000Y13400000I0J150000D01*
G01*
X53610000Y14000000D01*
G75*
G02*
X53760000Y14150000I150000J0D01*
G01*
X54060000Y14150000D01*
G75*
G02*
X54210000Y14000000I0J-150000D01*
G01*
X54210000Y13400000D01*
G75*
G02*
X54060000Y13250000I-150000J0D01*
G01*
G37*
G36*
G01*
X52790000Y13250000D02*
X52490000Y13250000D01*
G75*
G02*
X52340000Y13400000I0J150000D01*
G01*
X52340000Y14000000D01*
G75*
G02*
X52490000Y14150000I150000J0D01*
G01*
X52790000Y14150000D01*
G75*
G02*
X52940000Y14000000I0J-150000D01*
G01*
X52940000Y13400000D01*
G75*
G02*
X52790000Y13250000I-150000J0D01*
G01*
G37*
G36*
G01*
X50250000Y13250000D02*
X49950000Y13250000D01*
G75*
G02*
X49800000Y13400000I0J150000D01*
G01*
X49800000Y14000000D01*
G75*
G02*
X49950000Y14150000I150000J0D01*
G01*
X50250000Y14150000D01*
G75*
G02*
X50400000Y14000000I0J-150000D01*
G01*
X50400000Y13400000D01*
G75*
G02*
X50250000Y13250000I-150000J0D01*
G01*
G37*
G36*
G01*
X54060000Y5150000D02*
X53760000Y5150000D01*
G75*
G02*
X53610000Y5300000I0J150000D01*
G01*
X53610000Y5900000D01*
G75*
G02*
X53760000Y6050000I150000J0D01*
G01*
X54060000Y6050000D01*
G75*
G02*
X54210000Y5900000I0J-150000D01*
G01*
X54210000Y5300000D01*
G75*
G02*
X54060000Y5150000I-150000J0D01*
G01*
G37*
G36*
G01*
X52790000Y5150000D02*
X52490000Y5150000D01*
G75*
G02*
X52340000Y5300000I0J150000D01*
G01*
X52340000Y5900000D01*
G75*
G02*
X52490000Y6050000I150000J0D01*
G01*
X52790000Y6050000D01*
G75*
G02*
X52940000Y5900000I0J-150000D01*
G01*
X52940000Y5300000D01*
G75*
G02*
X52790000Y5150000I-150000J0D01*
G01*
G37*
G36*
G01*
X51520000Y5150000D02*
X51220000Y5150000D01*
G75*
G02*
X51070000Y5300000I0J150000D01*
G01*
X51070000Y5900000D01*
G75*
G02*
X51220000Y6050000I150000J0D01*
G01*
X51520000Y6050000D01*
G75*
G02*
X51670000Y5900000I0J-150000D01*
G01*
X51670000Y5300000D01*
G75*
G02*
X51520000Y5150000I-150000J0D01*
G01*
G37*
G36*
G01*
X50250000Y5150000D02*
X49950000Y5150000D01*
G75*
G02*
X49800000Y5300000I0J150000D01*
G01*
X49800000Y5900000D01*
G75*
G02*
X49950000Y6050000I150000J0D01*
G01*
X50250000Y6050000D01*
G75*
G02*
X50400000Y5900000I0J-150000D01*
G01*
X50400000Y5300000D01*
G75*
G02*
X50250000Y5150000I-150000J0D01*
G01*
G37*
%TD*%
%TO.C,J1*%
G36*
G01*
X27100000Y625000D02*
X27100000Y2575000D01*
G75*
G02*
X27325000Y2800000I225000J0D01*
G01*
X28675000Y2800000D01*
G75*
G02*
X28900000Y2575000I0J-225000D01*
G01*
X28900000Y625000D01*
G75*
G02*
X28675000Y400000I-225000J0D01*
G01*
X27325000Y400000D01*
G75*
G02*
X27100000Y625000I0J225000D01*
G01*
G37*
G36*
G01*
X27100000Y4325000D02*
X27100000Y6275000D01*
G75*
G02*
X27325000Y6500000I225000J0D01*
G01*
X28675000Y6500000D01*
G75*
G02*
X28900000Y6275000I0J-225000D01*
G01*
X28900000Y4325000D01*
G75*
G02*
X28675000Y4100000I-225000J0D01*
G01*
X27325000Y4100000D01*
G75*
G02*
X27100000Y4325000I0J225000D01*
G01*
G37*
G36*
G01*
X16900000Y4325000D02*
X16900000Y6275000D01*
G75*
G02*
X17125000Y6500000I225000J0D01*
G01*
X18475000Y6500000D01*
G75*
G02*
X18700000Y6275000I0J-225000D01*
G01*
X18700000Y4325000D01*
G75*
G02*
X18475000Y4100000I-225000J0D01*
G01*
X17125000Y4100000D01*
G75*
G02*
X16900000Y4325000I0J225000D01*
G01*
G37*
G36*
G01*
X16900000Y625000D02*
X16900000Y2575000D01*
G75*
G02*
X17125000Y2800000I225000J0D01*
G01*
X18475000Y2800000D01*
G75*
G02*
X18700000Y2575000I0J-225000D01*
G01*
X18700000Y625000D01*
G75*
G02*
X18475000Y400000I-225000J0D01*
G01*
X17125000Y400000D01*
G75*
G02*
X16900000Y625000I0J225000D01*
G01*
G37*
D24*
X25250000Y5700000D03*
X20550000Y5700000D03*
D25*
X21600000Y5700000D03*
X24200000Y5700000D03*
X23550000Y5700000D03*
X22900000Y5700000D03*
X22250000Y5700000D03*
%TD*%
%TO.C,R61*%
G36*
G01*
X64040000Y50302500D02*
X64040000Y50697500D01*
G75*
G02*
X64212500Y50870000I172500J0D01*
G01*
X64557500Y50870000D01*
G75*
G02*
X64730000Y50697500I0J-172500D01*
G01*
X64730000Y50302500D01*
G75*
G02*
X64557500Y50130000I-172500J0D01*
G01*
X64212500Y50130000D01*
G75*
G02*
X64040000Y50302500I0J172500D01*
G01*
G37*
G36*
G01*
X63070000Y50302500D02*
X63070000Y50697500D01*
G75*
G02*
X63242500Y50870000I172500J0D01*
G01*
X63587500Y50870000D01*
G75*
G02*
X63760000Y50697500I0J-172500D01*
G01*
X63760000Y50302500D01*
G75*
G02*
X63587500Y50130000I-172500J0D01*
G01*
X63242500Y50130000D01*
G75*
G02*
X63070000Y50302500I0J172500D01*
G01*
G37*
%TD*%
%TO.C,R58*%
G36*
G01*
X67490000Y50252500D02*
X67490000Y50647500D01*
G75*
G02*
X67662500Y50820000I172500J0D01*
G01*
X68007500Y50820000D01*
G75*
G02*
X68180000Y50647500I0J-172500D01*
G01*
X68180000Y50252500D01*
G75*
G02*
X68007500Y50080000I-172500J0D01*
G01*
X67662500Y50080000D01*
G75*
G02*
X67490000Y50252500I0J172500D01*
G01*
G37*
G36*
G01*
X66520000Y50252500D02*
X66520000Y50647500D01*
G75*
G02*
X66692500Y50820000I172500J0D01*
G01*
X67037500Y50820000D01*
G75*
G02*
X67210000Y50647500I0J-172500D01*
G01*
X67210000Y50252500D01*
G75*
G02*
X67037500Y50080000I-172500J0D01*
G01*
X66692500Y50080000D01*
G75*
G02*
X66520000Y50252500I0J172500D01*
G01*
G37*
%TD*%
%TO.C,R55*%
G36*
G01*
X70940000Y50252500D02*
X70940000Y50647500D01*
G75*
G02*
X71112500Y50820000I172500J0D01*
G01*
X71457500Y50820000D01*
G75*
G02*
X71630000Y50647500I0J-172500D01*
G01*
X71630000Y50252500D01*
G75*
G02*
X71457500Y50080000I-172500J0D01*
G01*
X71112500Y50080000D01*
G75*
G02*
X70940000Y50252500I0J172500D01*
G01*
G37*
G36*
G01*
X69970000Y50252500D02*
X69970000Y50647500D01*
G75*
G02*
X70142500Y50820000I172500J0D01*
G01*
X70487500Y50820000D01*
G75*
G02*
X70660000Y50647500I0J-172500D01*
G01*
X70660000Y50252500D01*
G75*
G02*
X70487500Y50080000I-172500J0D01*
G01*
X70142500Y50080000D01*
G75*
G02*
X69970000Y50252500I0J172500D01*
G01*
G37*
%TD*%
%TO.C,R52*%
G36*
G01*
X53640000Y50302500D02*
X53640000Y50697500D01*
G75*
G02*
X53812500Y50870000I172500J0D01*
G01*
X54157500Y50870000D01*
G75*
G02*
X54330000Y50697500I0J-172500D01*
G01*
X54330000Y50302500D01*
G75*
G02*
X54157500Y50130000I-172500J0D01*
G01*
X53812500Y50130000D01*
G75*
G02*
X53640000Y50302500I0J172500D01*
G01*
G37*
G36*
G01*
X52670000Y50302500D02*
X52670000Y50697500D01*
G75*
G02*
X52842500Y50870000I172500J0D01*
G01*
X53187500Y50870000D01*
G75*
G02*
X53360000Y50697500I0J-172500D01*
G01*
X53360000Y50302500D01*
G75*
G02*
X53187500Y50130000I-172500J0D01*
G01*
X52842500Y50130000D01*
G75*
G02*
X52670000Y50302500I0J172500D01*
G01*
G37*
%TD*%
%TO.C,R49*%
G36*
G01*
X57090000Y50302500D02*
X57090000Y50697500D01*
G75*
G02*
X57262500Y50870000I172500J0D01*
G01*
X57607500Y50870000D01*
G75*
G02*
X57780000Y50697500I0J-172500D01*
G01*
X57780000Y50302500D01*
G75*
G02*
X57607500Y50130000I-172500J0D01*
G01*
X57262500Y50130000D01*
G75*
G02*
X57090000Y50302500I0J172500D01*
G01*
G37*
G36*
G01*
X56120000Y50302500D02*
X56120000Y50697500D01*
G75*
G02*
X56292500Y50870000I172500J0D01*
G01*
X56637500Y50870000D01*
G75*
G02*
X56810000Y50697500I0J-172500D01*
G01*
X56810000Y50302500D01*
G75*
G02*
X56637500Y50130000I-172500J0D01*
G01*
X56292500Y50130000D01*
G75*
G02*
X56120000Y50302500I0J172500D01*
G01*
G37*
%TD*%
%TO.C,R46*%
G36*
G01*
X60540000Y50302500D02*
X60540000Y50697500D01*
G75*
G02*
X60712500Y50870000I172500J0D01*
G01*
X61057500Y50870000D01*
G75*
G02*
X61230000Y50697500I0J-172500D01*
G01*
X61230000Y50302500D01*
G75*
G02*
X61057500Y50130000I-172500J0D01*
G01*
X60712500Y50130000D01*
G75*
G02*
X60540000Y50302500I0J172500D01*
G01*
G37*
G36*
G01*
X59570000Y50302500D02*
X59570000Y50697500D01*
G75*
G02*
X59742500Y50870000I172500J0D01*
G01*
X60087500Y50870000D01*
G75*
G02*
X60260000Y50697500I0J-172500D01*
G01*
X60260000Y50302500D01*
G75*
G02*
X60087500Y50130000I-172500J0D01*
G01*
X59742500Y50130000D01*
G75*
G02*
X59570000Y50302500I0J172500D01*
G01*
G37*
%TD*%
%TO.C,R43*%
G36*
G01*
X43240000Y50302500D02*
X43240000Y50697500D01*
G75*
G02*
X43412500Y50870000I172500J0D01*
G01*
X43757500Y50870000D01*
G75*
G02*
X43930000Y50697500I0J-172500D01*
G01*
X43930000Y50302500D01*
G75*
G02*
X43757500Y50130000I-172500J0D01*
G01*
X43412500Y50130000D01*
G75*
G02*
X43240000Y50302500I0J172500D01*
G01*
G37*
G36*
G01*
X42270000Y50302500D02*
X42270000Y50697500D01*
G75*
G02*
X42442500Y50870000I172500J0D01*
G01*
X42787500Y50870000D01*
G75*
G02*
X42960000Y50697500I0J-172500D01*
G01*
X42960000Y50302500D01*
G75*
G02*
X42787500Y50130000I-172500J0D01*
G01*
X42442500Y50130000D01*
G75*
G02*
X42270000Y50302500I0J172500D01*
G01*
G37*
%TD*%
%TO.C,R40*%
G36*
G01*
X46690000Y50302500D02*
X46690000Y50697500D01*
G75*
G02*
X46862500Y50870000I172500J0D01*
G01*
X47207500Y50870000D01*
G75*
G02*
X47380000Y50697500I0J-172500D01*
G01*
X47380000Y50302500D01*
G75*
G02*
X47207500Y50130000I-172500J0D01*
G01*
X46862500Y50130000D01*
G75*
G02*
X46690000Y50302500I0J172500D01*
G01*
G37*
G36*
G01*
X45720000Y50302500D02*
X45720000Y50697500D01*
G75*
G02*
X45892500Y50870000I172500J0D01*
G01*
X46237500Y50870000D01*
G75*
G02*
X46410000Y50697500I0J-172500D01*
G01*
X46410000Y50302500D01*
G75*
G02*
X46237500Y50130000I-172500J0D01*
G01*
X45892500Y50130000D01*
G75*
G02*
X45720000Y50302500I0J172500D01*
G01*
G37*
%TD*%
%TO.C,R37*%
G36*
G01*
X50140000Y50302500D02*
X50140000Y50697500D01*
G75*
G02*
X50312500Y50870000I172500J0D01*
G01*
X50657500Y50870000D01*
G75*
G02*
X50830000Y50697500I0J-172500D01*
G01*
X50830000Y50302500D01*
G75*
G02*
X50657500Y50130000I-172500J0D01*
G01*
X50312500Y50130000D01*
G75*
G02*
X50140000Y50302500I0J172500D01*
G01*
G37*
G36*
G01*
X49170000Y50302500D02*
X49170000Y50697500D01*
G75*
G02*
X49342500Y50870000I172500J0D01*
G01*
X49687500Y50870000D01*
G75*
G02*
X49860000Y50697500I0J-172500D01*
G01*
X49860000Y50302500D01*
G75*
G02*
X49687500Y50130000I-172500J0D01*
G01*
X49342500Y50130000D01*
G75*
G02*
X49170000Y50302500I0J172500D01*
G01*
G37*
%TD*%
%TO.C,R34*%
G36*
G01*
X32875000Y50302500D02*
X32875000Y50697500D01*
G75*
G02*
X33047500Y50870000I172500J0D01*
G01*
X33392500Y50870000D01*
G75*
G02*
X33565000Y50697500I0J-172500D01*
G01*
X33565000Y50302500D01*
G75*
G02*
X33392500Y50130000I-172500J0D01*
G01*
X33047500Y50130000D01*
G75*
G02*
X32875000Y50302500I0J172500D01*
G01*
G37*
G36*
G01*
X31905000Y50302500D02*
X31905000Y50697500D01*
G75*
G02*
X32077500Y50870000I172500J0D01*
G01*
X32422500Y50870000D01*
G75*
G02*
X32595000Y50697500I0J-172500D01*
G01*
X32595000Y50302500D01*
G75*
G02*
X32422500Y50130000I-172500J0D01*
G01*
X32077500Y50130000D01*
G75*
G02*
X31905000Y50302500I0J172500D01*
G01*
G37*
%TD*%
%TO.C,R31*%
G36*
G01*
X36290000Y50352500D02*
X36290000Y50747500D01*
G75*
G02*
X36462500Y50920000I172500J0D01*
G01*
X36807500Y50920000D01*
G75*
G02*
X36980000Y50747500I0J-172500D01*
G01*
X36980000Y50352500D01*
G75*
G02*
X36807500Y50180000I-172500J0D01*
G01*
X36462500Y50180000D01*
G75*
G02*
X36290000Y50352500I0J172500D01*
G01*
G37*
G36*
G01*
X35320000Y50352500D02*
X35320000Y50747500D01*
G75*
G02*
X35492500Y50920000I172500J0D01*
G01*
X35837500Y50920000D01*
G75*
G02*
X36010000Y50747500I0J-172500D01*
G01*
X36010000Y50352500D01*
G75*
G02*
X35837500Y50180000I-172500J0D01*
G01*
X35492500Y50180000D01*
G75*
G02*
X35320000Y50352500I0J172500D01*
G01*
G37*
%TD*%
%TO.C,R28*%
G36*
G01*
X39740000Y50352500D02*
X39740000Y50747500D01*
G75*
G02*
X39912500Y50920000I172500J0D01*
G01*
X40257500Y50920000D01*
G75*
G02*
X40430000Y50747500I0J-172500D01*
G01*
X40430000Y50352500D01*
G75*
G02*
X40257500Y50180000I-172500J0D01*
G01*
X39912500Y50180000D01*
G75*
G02*
X39740000Y50352500I0J172500D01*
G01*
G37*
G36*
G01*
X38770000Y50352500D02*
X38770000Y50747500D01*
G75*
G02*
X38942500Y50920000I172500J0D01*
G01*
X39287500Y50920000D01*
G75*
G02*
X39460000Y50747500I0J-172500D01*
G01*
X39460000Y50352500D01*
G75*
G02*
X39287500Y50180000I-172500J0D01*
G01*
X38942500Y50180000D01*
G75*
G02*
X38770000Y50352500I0J172500D01*
G01*
G37*
%TD*%
%TO.C,R25*%
G36*
G01*
X22440000Y50352500D02*
X22440000Y50747500D01*
G75*
G02*
X22612500Y50920000I172500J0D01*
G01*
X22957500Y50920000D01*
G75*
G02*
X23130000Y50747500I0J-172500D01*
G01*
X23130000Y50352500D01*
G75*
G02*
X22957500Y50180000I-172500J0D01*
G01*
X22612500Y50180000D01*
G75*
G02*
X22440000Y50352500I0J172500D01*
G01*
G37*
G36*
G01*
X21470000Y50352500D02*
X21470000Y50747500D01*
G75*
G02*
X21642500Y50920000I172500J0D01*
G01*
X21987500Y50920000D01*
G75*
G02*
X22160000Y50747500I0J-172500D01*
G01*
X22160000Y50352500D01*
G75*
G02*
X21987500Y50180000I-172500J0D01*
G01*
X21642500Y50180000D01*
G75*
G02*
X21470000Y50352500I0J172500D01*
G01*
G37*
%TD*%
%TO.C,R22*%
G36*
G01*
X25890000Y50352500D02*
X25890000Y50747500D01*
G75*
G02*
X26062500Y50920000I172500J0D01*
G01*
X26407500Y50920000D01*
G75*
G02*
X26580000Y50747500I0J-172500D01*
G01*
X26580000Y50352500D01*
G75*
G02*
X26407500Y50180000I-172500J0D01*
G01*
X26062500Y50180000D01*
G75*
G02*
X25890000Y50352500I0J172500D01*
G01*
G37*
G36*
G01*
X24920000Y50352500D02*
X24920000Y50747500D01*
G75*
G02*
X25092500Y50920000I172500J0D01*
G01*
X25437500Y50920000D01*
G75*
G02*
X25610000Y50747500I0J-172500D01*
G01*
X25610000Y50352500D01*
G75*
G02*
X25437500Y50180000I-172500J0D01*
G01*
X25092500Y50180000D01*
G75*
G02*
X24920000Y50352500I0J172500D01*
G01*
G37*
%TD*%
%TO.C,R19*%
G36*
G01*
X29340000Y50352500D02*
X29340000Y50747500D01*
G75*
G02*
X29512500Y50920000I172500J0D01*
G01*
X29857500Y50920000D01*
G75*
G02*
X30030000Y50747500I0J-172500D01*
G01*
X30030000Y50352500D01*
G75*
G02*
X29857500Y50180000I-172500J0D01*
G01*
X29512500Y50180000D01*
G75*
G02*
X29340000Y50352500I0J172500D01*
G01*
G37*
G36*
G01*
X28370000Y50352500D02*
X28370000Y50747500D01*
G75*
G02*
X28542500Y50920000I172500J0D01*
G01*
X28887500Y50920000D01*
G75*
G02*
X29060000Y50747500I0J-172500D01*
G01*
X29060000Y50352500D01*
G75*
G02*
X28887500Y50180000I-172500J0D01*
G01*
X28542500Y50180000D01*
G75*
G02*
X28370000Y50352500I0J172500D01*
G01*
G37*
%TD*%
%TO.C,R16*%
G36*
G01*
X12040000Y50352500D02*
X12040000Y50747500D01*
G75*
G02*
X12212500Y50920000I172500J0D01*
G01*
X12557500Y50920000D01*
G75*
G02*
X12730000Y50747500I0J-172500D01*
G01*
X12730000Y50352500D01*
G75*
G02*
X12557500Y50180000I-172500J0D01*
G01*
X12212500Y50180000D01*
G75*
G02*
X12040000Y50352500I0J172500D01*
G01*
G37*
G36*
G01*
X11070000Y50352500D02*
X11070000Y50747500D01*
G75*
G02*
X11242500Y50920000I172500J0D01*
G01*
X11587500Y50920000D01*
G75*
G02*
X11760000Y50747500I0J-172500D01*
G01*
X11760000Y50352500D01*
G75*
G02*
X11587500Y50180000I-172500J0D01*
G01*
X11242500Y50180000D01*
G75*
G02*
X11070000Y50352500I0J172500D01*
G01*
G37*
%TD*%
%TO.C,R13*%
G36*
G01*
X15490000Y50352500D02*
X15490000Y50747500D01*
G75*
G02*
X15662500Y50920000I172500J0D01*
G01*
X16007500Y50920000D01*
G75*
G02*
X16180000Y50747500I0J-172500D01*
G01*
X16180000Y50352500D01*
G75*
G02*
X16007500Y50180000I-172500J0D01*
G01*
X15662500Y50180000D01*
G75*
G02*
X15490000Y50352500I0J172500D01*
G01*
G37*
G36*
G01*
X14520000Y50352500D02*
X14520000Y50747500D01*
G75*
G02*
X14692500Y50920000I172500J0D01*
G01*
X15037500Y50920000D01*
G75*
G02*
X15210000Y50747500I0J-172500D01*
G01*
X15210000Y50352500D01*
G75*
G02*
X15037500Y50180000I-172500J0D01*
G01*
X14692500Y50180000D01*
G75*
G02*
X14520000Y50352500I0J172500D01*
G01*
G37*
%TD*%
%TO.C,R10*%
G36*
G01*
X18940000Y50352500D02*
X18940000Y50747500D01*
G75*
G02*
X19112500Y50920000I172500J0D01*
G01*
X19457500Y50920000D01*
G75*
G02*
X19630000Y50747500I0J-172500D01*
G01*
X19630000Y50352500D01*
G75*
G02*
X19457500Y50180000I-172500J0D01*
G01*
X19112500Y50180000D01*
G75*
G02*
X18940000Y50352500I0J172500D01*
G01*
G37*
G36*
G01*
X17970000Y50352500D02*
X17970000Y50747500D01*
G75*
G02*
X18142500Y50920000I172500J0D01*
G01*
X18487500Y50920000D01*
G75*
G02*
X18660000Y50747500I0J-172500D01*
G01*
X18660000Y50352500D01*
G75*
G02*
X18487500Y50180000I-172500J0D01*
G01*
X18142500Y50180000D01*
G75*
G02*
X17970000Y50352500I0J172500D01*
G01*
G37*
%TD*%
%TO.C,U26*%
G36*
G01*
X66610000Y37070000D02*
X66610000Y37830000D01*
G75*
G02*
X66705000Y37925000I95000J0D01*
G01*
X66895000Y37925000D01*
G75*
G02*
X66990000Y37830000I0J-95000D01*
G01*
X66990000Y37070000D01*
G75*
G02*
X66895000Y36975000I-95000J0D01*
G01*
X66705000Y36975000D01*
G75*
G02*
X66610000Y37070000I0J95000D01*
G01*
G37*
G36*
G01*
X67610000Y37070000D02*
X67610000Y37830000D01*
G75*
G02*
X67705000Y37925000I95000J0D01*
G01*
X67895000Y37925000D01*
G75*
G02*
X67990000Y37830000I0J-95000D01*
G01*
X67990000Y37070000D01*
G75*
G02*
X67895000Y36975000I-95000J0D01*
G01*
X67705000Y36975000D01*
G75*
G02*
X67610000Y37070000I0J95000D01*
G01*
G37*
G36*
G01*
X65110000Y37070000D02*
X65110000Y37830000D01*
G75*
G02*
X65205000Y37925000I95000J0D01*
G01*
X65395000Y37925000D01*
G75*
G02*
X65490000Y37830000I0J-95000D01*
G01*
X65490000Y37070000D01*
G75*
G02*
X65395000Y36975000I-95000J0D01*
G01*
X65205000Y36975000D01*
G75*
G02*
X65110000Y37070000I0J95000D01*
G01*
G37*
G36*
G01*
X67110000Y37070000D02*
X67110000Y37830000D01*
G75*
G02*
X67205000Y37925000I95000J0D01*
G01*
X67395000Y37925000D01*
G75*
G02*
X67490000Y37830000I0J-95000D01*
G01*
X67490000Y37070000D01*
G75*
G02*
X67395000Y36975000I-95000J0D01*
G01*
X67205000Y36975000D01*
G75*
G02*
X67110000Y37070000I0J95000D01*
G01*
G37*
G36*
G01*
X65610000Y37070000D02*
X65610000Y37830000D01*
G75*
G02*
X65705000Y37925000I95000J0D01*
G01*
X65895000Y37925000D01*
G75*
G02*
X65990000Y37830000I0J-95000D01*
G01*
X65990000Y37070000D01*
G75*
G02*
X65895000Y36975000I-95000J0D01*
G01*
X65705000Y36975000D01*
G75*
G02*
X65610000Y37070000I0J95000D01*
G01*
G37*
G36*
G01*
X66110000Y37070000D02*
X66110000Y37830000D01*
G75*
G02*
X66205000Y37925000I95000J0D01*
G01*
X66395000Y37925000D01*
G75*
G02*
X66490000Y37830000I0J-95000D01*
G01*
X66490000Y37070000D01*
G75*
G02*
X66395000Y36975000I-95000J0D01*
G01*
X66205000Y36975000D01*
G75*
G02*
X66110000Y37070000I0J95000D01*
G01*
G37*
G36*
G01*
X67875000Y36669650D02*
X67875000Y34730350D01*
G75*
G02*
X67769650Y34625000I-105350J0D01*
G01*
X65330350Y34625000D01*
G75*
G02*
X65225000Y34730350I0J105350D01*
G01*
X65225000Y36669650D01*
G75*
G02*
X65330350Y36775000I105350J0D01*
G01*
X67769650Y36775000D01*
G75*
G02*
X67875000Y36669650I0J-105350D01*
G01*
G37*
G36*
G01*
X68150000Y35140000D02*
X68910000Y35140000D01*
G75*
G02*
X69005000Y35045000I0J-95000D01*
G01*
X69005000Y34855000D01*
G75*
G02*
X68910000Y34760000I-95000J0D01*
G01*
X68150000Y34760000D01*
G75*
G02*
X68055000Y34855000I0J95000D01*
G01*
X68055000Y35045000D01*
G75*
G02*
X68150000Y35140000I95000J0D01*
G01*
G37*
G36*
G01*
X68150000Y36640000D02*
X68910000Y36640000D01*
G75*
G02*
X69005000Y36545000I0J-95000D01*
G01*
X69005000Y36355000D01*
G75*
G02*
X68910000Y36260000I-95000J0D01*
G01*
X68150000Y36260000D01*
G75*
G02*
X68055000Y36355000I0J95000D01*
G01*
X68055000Y36545000D01*
G75*
G02*
X68150000Y36640000I95000J0D01*
G01*
G37*
G36*
G01*
X64190000Y35140000D02*
X64950000Y35140000D01*
G75*
G02*
X65045000Y35045000I0J-95000D01*
G01*
X65045000Y34855000D01*
G75*
G02*
X64950000Y34760000I-95000J0D01*
G01*
X64190000Y34760000D01*
G75*
G02*
X64095000Y34855000I0J95000D01*
G01*
X64095000Y35045000D01*
G75*
G02*
X64190000Y35140000I95000J0D01*
G01*
G37*
G36*
G01*
X64190000Y36640000D02*
X64950000Y36640000D01*
G75*
G02*
X65045000Y36545000I0J-95000D01*
G01*
X65045000Y36355000D01*
G75*
G02*
X64950000Y36260000I-95000J0D01*
G01*
X64190000Y36260000D01*
G75*
G02*
X64095000Y36355000I0J95000D01*
G01*
X64095000Y36545000D01*
G75*
G02*
X64190000Y36640000I95000J0D01*
G01*
G37*
G36*
G01*
X66610000Y33570000D02*
X66610000Y34330000D01*
G75*
G02*
X66705000Y34425000I95000J0D01*
G01*
X66895000Y34425000D01*
G75*
G02*
X66990000Y34330000I0J-95000D01*
G01*
X66990000Y33570000D01*
G75*
G02*
X66895000Y33475000I-95000J0D01*
G01*
X66705000Y33475000D01*
G75*
G02*
X66610000Y33570000I0J95000D01*
G01*
G37*
G36*
G01*
X66110000Y33570000D02*
X66110000Y34330000D01*
G75*
G02*
X66205000Y34425000I95000J0D01*
G01*
X66395000Y34425000D01*
G75*
G02*
X66490000Y34330000I0J-95000D01*
G01*
X66490000Y33570000D01*
G75*
G02*
X66395000Y33475000I-95000J0D01*
G01*
X66205000Y33475000D01*
G75*
G02*
X66110000Y33570000I0J95000D01*
G01*
G37*
G36*
G01*
X65610000Y33570000D02*
X65610000Y34330000D01*
G75*
G02*
X65705000Y34425000I95000J0D01*
G01*
X65895000Y34425000D01*
G75*
G02*
X65990000Y34330000I0J-95000D01*
G01*
X65990000Y33570000D01*
G75*
G02*
X65895000Y33475000I-95000J0D01*
G01*
X65705000Y33475000D01*
G75*
G02*
X65610000Y33570000I0J95000D01*
G01*
G37*
G36*
G01*
X65110000Y33570000D02*
X65110000Y34330000D01*
G75*
G02*
X65205000Y34425000I95000J0D01*
G01*
X65395000Y34425000D01*
G75*
G02*
X65490000Y34330000I0J-95000D01*
G01*
X65490000Y33570000D01*
G75*
G02*
X65395000Y33475000I-95000J0D01*
G01*
X65205000Y33475000D01*
G75*
G02*
X65110000Y33570000I0J95000D01*
G01*
G37*
G36*
G01*
X67610000Y33570000D02*
X67610000Y34330000D01*
G75*
G02*
X67705000Y34425000I95000J0D01*
G01*
X67895000Y34425000D01*
G75*
G02*
X67990000Y34330000I0J-95000D01*
G01*
X67990000Y33570000D01*
G75*
G02*
X67895000Y33475000I-95000J0D01*
G01*
X67705000Y33475000D01*
G75*
G02*
X67610000Y33570000I0J95000D01*
G01*
G37*
G36*
G01*
X67110000Y33570000D02*
X67110000Y34330000D01*
G75*
G02*
X67205000Y34425000I95000J0D01*
G01*
X67395000Y34425000D01*
G75*
G02*
X67490000Y34330000I0J-95000D01*
G01*
X67490000Y33570000D01*
G75*
G02*
X67395000Y33475000I-95000J0D01*
G01*
X67205000Y33475000D01*
G75*
G02*
X67110000Y33570000I0J95000D01*
G01*
G37*
%TD*%
%TO.C,U25*%
G36*
G01*
X56160000Y37120000D02*
X56160000Y37880000D01*
G75*
G02*
X56255000Y37975000I95000J0D01*
G01*
X56445000Y37975000D01*
G75*
G02*
X56540000Y37880000I0J-95000D01*
G01*
X56540000Y37120000D01*
G75*
G02*
X56445000Y37025000I-95000J0D01*
G01*
X56255000Y37025000D01*
G75*
G02*
X56160000Y37120000I0J95000D01*
G01*
G37*
G36*
G01*
X57160000Y37120000D02*
X57160000Y37880000D01*
G75*
G02*
X57255000Y37975000I95000J0D01*
G01*
X57445000Y37975000D01*
G75*
G02*
X57540000Y37880000I0J-95000D01*
G01*
X57540000Y37120000D01*
G75*
G02*
X57445000Y37025000I-95000J0D01*
G01*
X57255000Y37025000D01*
G75*
G02*
X57160000Y37120000I0J95000D01*
G01*
G37*
G36*
G01*
X54660000Y37120000D02*
X54660000Y37880000D01*
G75*
G02*
X54755000Y37975000I95000J0D01*
G01*
X54945000Y37975000D01*
G75*
G02*
X55040000Y37880000I0J-95000D01*
G01*
X55040000Y37120000D01*
G75*
G02*
X54945000Y37025000I-95000J0D01*
G01*
X54755000Y37025000D01*
G75*
G02*
X54660000Y37120000I0J95000D01*
G01*
G37*
G36*
G01*
X56660000Y37120000D02*
X56660000Y37880000D01*
G75*
G02*
X56755000Y37975000I95000J0D01*
G01*
X56945000Y37975000D01*
G75*
G02*
X57040000Y37880000I0J-95000D01*
G01*
X57040000Y37120000D01*
G75*
G02*
X56945000Y37025000I-95000J0D01*
G01*
X56755000Y37025000D01*
G75*
G02*
X56660000Y37120000I0J95000D01*
G01*
G37*
G36*
G01*
X55160000Y37120000D02*
X55160000Y37880000D01*
G75*
G02*
X55255000Y37975000I95000J0D01*
G01*
X55445000Y37975000D01*
G75*
G02*
X55540000Y37880000I0J-95000D01*
G01*
X55540000Y37120000D01*
G75*
G02*
X55445000Y37025000I-95000J0D01*
G01*
X55255000Y37025000D01*
G75*
G02*
X55160000Y37120000I0J95000D01*
G01*
G37*
G36*
G01*
X55660000Y37120000D02*
X55660000Y37880000D01*
G75*
G02*
X55755000Y37975000I95000J0D01*
G01*
X55945000Y37975000D01*
G75*
G02*
X56040000Y37880000I0J-95000D01*
G01*
X56040000Y37120000D01*
G75*
G02*
X55945000Y37025000I-95000J0D01*
G01*
X55755000Y37025000D01*
G75*
G02*
X55660000Y37120000I0J95000D01*
G01*
G37*
G36*
G01*
X57425000Y36719650D02*
X57425000Y34780350D01*
G75*
G02*
X57319650Y34675000I-105350J0D01*
G01*
X54880350Y34675000D01*
G75*
G02*
X54775000Y34780350I0J105350D01*
G01*
X54775000Y36719650D01*
G75*
G02*
X54880350Y36825000I105350J0D01*
G01*
X57319650Y36825000D01*
G75*
G02*
X57425000Y36719650I0J-105350D01*
G01*
G37*
G36*
G01*
X57700000Y35190000D02*
X58460000Y35190000D01*
G75*
G02*
X58555000Y35095000I0J-95000D01*
G01*
X58555000Y34905000D01*
G75*
G02*
X58460000Y34810000I-95000J0D01*
G01*
X57700000Y34810000D01*
G75*
G02*
X57605000Y34905000I0J95000D01*
G01*
X57605000Y35095000D01*
G75*
G02*
X57700000Y35190000I95000J0D01*
G01*
G37*
G36*
G01*
X57700000Y36690000D02*
X58460000Y36690000D01*
G75*
G02*
X58555000Y36595000I0J-95000D01*
G01*
X58555000Y36405000D01*
G75*
G02*
X58460000Y36310000I-95000J0D01*
G01*
X57700000Y36310000D01*
G75*
G02*
X57605000Y36405000I0J95000D01*
G01*
X57605000Y36595000D01*
G75*
G02*
X57700000Y36690000I95000J0D01*
G01*
G37*
G36*
G01*
X53740000Y35190000D02*
X54500000Y35190000D01*
G75*
G02*
X54595000Y35095000I0J-95000D01*
G01*
X54595000Y34905000D01*
G75*
G02*
X54500000Y34810000I-95000J0D01*
G01*
X53740000Y34810000D01*
G75*
G02*
X53645000Y34905000I0J95000D01*
G01*
X53645000Y35095000D01*
G75*
G02*
X53740000Y35190000I95000J0D01*
G01*
G37*
G36*
G01*
X53740000Y36690000D02*
X54500000Y36690000D01*
G75*
G02*
X54595000Y36595000I0J-95000D01*
G01*
X54595000Y36405000D01*
G75*
G02*
X54500000Y36310000I-95000J0D01*
G01*
X53740000Y36310000D01*
G75*
G02*
X53645000Y36405000I0J95000D01*
G01*
X53645000Y36595000D01*
G75*
G02*
X53740000Y36690000I95000J0D01*
G01*
G37*
G36*
G01*
X56160000Y33620000D02*
X56160000Y34380000D01*
G75*
G02*
X56255000Y34475000I95000J0D01*
G01*
X56445000Y34475000D01*
G75*
G02*
X56540000Y34380000I0J-95000D01*
G01*
X56540000Y33620000D01*
G75*
G02*
X56445000Y33525000I-95000J0D01*
G01*
X56255000Y33525000D01*
G75*
G02*
X56160000Y33620000I0J95000D01*
G01*
G37*
G36*
G01*
X55660000Y33620000D02*
X55660000Y34380000D01*
G75*
G02*
X55755000Y34475000I95000J0D01*
G01*
X55945000Y34475000D01*
G75*
G02*
X56040000Y34380000I0J-95000D01*
G01*
X56040000Y33620000D01*
G75*
G02*
X55945000Y33525000I-95000J0D01*
G01*
X55755000Y33525000D01*
G75*
G02*
X55660000Y33620000I0J95000D01*
G01*
G37*
G36*
G01*
X55160000Y33620000D02*
X55160000Y34380000D01*
G75*
G02*
X55255000Y34475000I95000J0D01*
G01*
X55445000Y34475000D01*
G75*
G02*
X55540000Y34380000I0J-95000D01*
G01*
X55540000Y33620000D01*
G75*
G02*
X55445000Y33525000I-95000J0D01*
G01*
X55255000Y33525000D01*
G75*
G02*
X55160000Y33620000I0J95000D01*
G01*
G37*
G36*
G01*
X54660000Y33620000D02*
X54660000Y34380000D01*
G75*
G02*
X54755000Y34475000I95000J0D01*
G01*
X54945000Y34475000D01*
G75*
G02*
X55040000Y34380000I0J-95000D01*
G01*
X55040000Y33620000D01*
G75*
G02*
X54945000Y33525000I-95000J0D01*
G01*
X54755000Y33525000D01*
G75*
G02*
X54660000Y33620000I0J95000D01*
G01*
G37*
G36*
G01*
X57160000Y33620000D02*
X57160000Y34380000D01*
G75*
G02*
X57255000Y34475000I95000J0D01*
G01*
X57445000Y34475000D01*
G75*
G02*
X57540000Y34380000I0J-95000D01*
G01*
X57540000Y33620000D01*
G75*
G02*
X57445000Y33525000I-95000J0D01*
G01*
X57255000Y33525000D01*
G75*
G02*
X57160000Y33620000I0J95000D01*
G01*
G37*
G36*
G01*
X56660000Y33620000D02*
X56660000Y34380000D01*
G75*
G02*
X56755000Y34475000I95000J0D01*
G01*
X56945000Y34475000D01*
G75*
G02*
X57040000Y34380000I0J-95000D01*
G01*
X57040000Y33620000D01*
G75*
G02*
X56945000Y33525000I-95000J0D01*
G01*
X56755000Y33525000D01*
G75*
G02*
X56660000Y33620000I0J95000D01*
G01*
G37*
%TD*%
%TO.C,U24*%
G36*
G01*
X45810000Y37120000D02*
X45810000Y37880000D01*
G75*
G02*
X45905000Y37975000I95000J0D01*
G01*
X46095000Y37975000D01*
G75*
G02*
X46190000Y37880000I0J-95000D01*
G01*
X46190000Y37120000D01*
G75*
G02*
X46095000Y37025000I-95000J0D01*
G01*
X45905000Y37025000D01*
G75*
G02*
X45810000Y37120000I0J95000D01*
G01*
G37*
G36*
G01*
X46810000Y37120000D02*
X46810000Y37880000D01*
G75*
G02*
X46905000Y37975000I95000J0D01*
G01*
X47095000Y37975000D01*
G75*
G02*
X47190000Y37880000I0J-95000D01*
G01*
X47190000Y37120000D01*
G75*
G02*
X47095000Y37025000I-95000J0D01*
G01*
X46905000Y37025000D01*
G75*
G02*
X46810000Y37120000I0J95000D01*
G01*
G37*
G36*
G01*
X44310000Y37120000D02*
X44310000Y37880000D01*
G75*
G02*
X44405000Y37975000I95000J0D01*
G01*
X44595000Y37975000D01*
G75*
G02*
X44690000Y37880000I0J-95000D01*
G01*
X44690000Y37120000D01*
G75*
G02*
X44595000Y37025000I-95000J0D01*
G01*
X44405000Y37025000D01*
G75*
G02*
X44310000Y37120000I0J95000D01*
G01*
G37*
G36*
G01*
X46310000Y37120000D02*
X46310000Y37880000D01*
G75*
G02*
X46405000Y37975000I95000J0D01*
G01*
X46595000Y37975000D01*
G75*
G02*
X46690000Y37880000I0J-95000D01*
G01*
X46690000Y37120000D01*
G75*
G02*
X46595000Y37025000I-95000J0D01*
G01*
X46405000Y37025000D01*
G75*
G02*
X46310000Y37120000I0J95000D01*
G01*
G37*
G36*
G01*
X44810000Y37120000D02*
X44810000Y37880000D01*
G75*
G02*
X44905000Y37975000I95000J0D01*
G01*
X45095000Y37975000D01*
G75*
G02*
X45190000Y37880000I0J-95000D01*
G01*
X45190000Y37120000D01*
G75*
G02*
X45095000Y37025000I-95000J0D01*
G01*
X44905000Y37025000D01*
G75*
G02*
X44810000Y37120000I0J95000D01*
G01*
G37*
G36*
G01*
X45310000Y37120000D02*
X45310000Y37880000D01*
G75*
G02*
X45405000Y37975000I95000J0D01*
G01*
X45595000Y37975000D01*
G75*
G02*
X45690000Y37880000I0J-95000D01*
G01*
X45690000Y37120000D01*
G75*
G02*
X45595000Y37025000I-95000J0D01*
G01*
X45405000Y37025000D01*
G75*
G02*
X45310000Y37120000I0J95000D01*
G01*
G37*
G36*
G01*
X47075000Y36719650D02*
X47075000Y34780350D01*
G75*
G02*
X46969650Y34675000I-105350J0D01*
G01*
X44530350Y34675000D01*
G75*
G02*
X44425000Y34780350I0J105350D01*
G01*
X44425000Y36719650D01*
G75*
G02*
X44530350Y36825000I105350J0D01*
G01*
X46969650Y36825000D01*
G75*
G02*
X47075000Y36719650I0J-105350D01*
G01*
G37*
G36*
G01*
X47350000Y35190000D02*
X48110000Y35190000D01*
G75*
G02*
X48205000Y35095000I0J-95000D01*
G01*
X48205000Y34905000D01*
G75*
G02*
X48110000Y34810000I-95000J0D01*
G01*
X47350000Y34810000D01*
G75*
G02*
X47255000Y34905000I0J95000D01*
G01*
X47255000Y35095000D01*
G75*
G02*
X47350000Y35190000I95000J0D01*
G01*
G37*
G36*
G01*
X47350000Y36690000D02*
X48110000Y36690000D01*
G75*
G02*
X48205000Y36595000I0J-95000D01*
G01*
X48205000Y36405000D01*
G75*
G02*
X48110000Y36310000I-95000J0D01*
G01*
X47350000Y36310000D01*
G75*
G02*
X47255000Y36405000I0J95000D01*
G01*
X47255000Y36595000D01*
G75*
G02*
X47350000Y36690000I95000J0D01*
G01*
G37*
G36*
G01*
X43390000Y35190000D02*
X44150000Y35190000D01*
G75*
G02*
X44245000Y35095000I0J-95000D01*
G01*
X44245000Y34905000D01*
G75*
G02*
X44150000Y34810000I-95000J0D01*
G01*
X43390000Y34810000D01*
G75*
G02*
X43295000Y34905000I0J95000D01*
G01*
X43295000Y35095000D01*
G75*
G02*
X43390000Y35190000I95000J0D01*
G01*
G37*
G36*
G01*
X43390000Y36690000D02*
X44150000Y36690000D01*
G75*
G02*
X44245000Y36595000I0J-95000D01*
G01*
X44245000Y36405000D01*
G75*
G02*
X44150000Y36310000I-95000J0D01*
G01*
X43390000Y36310000D01*
G75*
G02*
X43295000Y36405000I0J95000D01*
G01*
X43295000Y36595000D01*
G75*
G02*
X43390000Y36690000I95000J0D01*
G01*
G37*
G36*
G01*
X45810000Y33620000D02*
X45810000Y34380000D01*
G75*
G02*
X45905000Y34475000I95000J0D01*
G01*
X46095000Y34475000D01*
G75*
G02*
X46190000Y34380000I0J-95000D01*
G01*
X46190000Y33620000D01*
G75*
G02*
X46095000Y33525000I-95000J0D01*
G01*
X45905000Y33525000D01*
G75*
G02*
X45810000Y33620000I0J95000D01*
G01*
G37*
G36*
G01*
X45310000Y33620000D02*
X45310000Y34380000D01*
G75*
G02*
X45405000Y34475000I95000J0D01*
G01*
X45595000Y34475000D01*
G75*
G02*
X45690000Y34380000I0J-95000D01*
G01*
X45690000Y33620000D01*
G75*
G02*
X45595000Y33525000I-95000J0D01*
G01*
X45405000Y33525000D01*
G75*
G02*
X45310000Y33620000I0J95000D01*
G01*
G37*
G36*
G01*
X44810000Y33620000D02*
X44810000Y34380000D01*
G75*
G02*
X44905000Y34475000I95000J0D01*
G01*
X45095000Y34475000D01*
G75*
G02*
X45190000Y34380000I0J-95000D01*
G01*
X45190000Y33620000D01*
G75*
G02*
X45095000Y33525000I-95000J0D01*
G01*
X44905000Y33525000D01*
G75*
G02*
X44810000Y33620000I0J95000D01*
G01*
G37*
G36*
G01*
X44310000Y33620000D02*
X44310000Y34380000D01*
G75*
G02*
X44405000Y34475000I95000J0D01*
G01*
X44595000Y34475000D01*
G75*
G02*
X44690000Y34380000I0J-95000D01*
G01*
X44690000Y33620000D01*
G75*
G02*
X44595000Y33525000I-95000J0D01*
G01*
X44405000Y33525000D01*
G75*
G02*
X44310000Y33620000I0J95000D01*
G01*
G37*
G36*
G01*
X46810000Y33620000D02*
X46810000Y34380000D01*
G75*
G02*
X46905000Y34475000I95000J0D01*
G01*
X47095000Y34475000D01*
G75*
G02*
X47190000Y34380000I0J-95000D01*
G01*
X47190000Y33620000D01*
G75*
G02*
X47095000Y33525000I-95000J0D01*
G01*
X46905000Y33525000D01*
G75*
G02*
X46810000Y33620000I0J95000D01*
G01*
G37*
G36*
G01*
X46310000Y33620000D02*
X46310000Y34380000D01*
G75*
G02*
X46405000Y34475000I95000J0D01*
G01*
X46595000Y34475000D01*
G75*
G02*
X46690000Y34380000I0J-95000D01*
G01*
X46690000Y33620000D01*
G75*
G02*
X46595000Y33525000I-95000J0D01*
G01*
X46405000Y33525000D01*
G75*
G02*
X46310000Y33620000I0J95000D01*
G01*
G37*
%TD*%
%TO.C,U23*%
G36*
G01*
X35360000Y37120000D02*
X35360000Y37880000D01*
G75*
G02*
X35455000Y37975000I95000J0D01*
G01*
X35645000Y37975000D01*
G75*
G02*
X35740000Y37880000I0J-95000D01*
G01*
X35740000Y37120000D01*
G75*
G02*
X35645000Y37025000I-95000J0D01*
G01*
X35455000Y37025000D01*
G75*
G02*
X35360000Y37120000I0J95000D01*
G01*
G37*
G36*
G01*
X36360000Y37120000D02*
X36360000Y37880000D01*
G75*
G02*
X36455000Y37975000I95000J0D01*
G01*
X36645000Y37975000D01*
G75*
G02*
X36740000Y37880000I0J-95000D01*
G01*
X36740000Y37120000D01*
G75*
G02*
X36645000Y37025000I-95000J0D01*
G01*
X36455000Y37025000D01*
G75*
G02*
X36360000Y37120000I0J95000D01*
G01*
G37*
G36*
G01*
X33860000Y37120000D02*
X33860000Y37880000D01*
G75*
G02*
X33955000Y37975000I95000J0D01*
G01*
X34145000Y37975000D01*
G75*
G02*
X34240000Y37880000I0J-95000D01*
G01*
X34240000Y37120000D01*
G75*
G02*
X34145000Y37025000I-95000J0D01*
G01*
X33955000Y37025000D01*
G75*
G02*
X33860000Y37120000I0J95000D01*
G01*
G37*
G36*
G01*
X35860000Y37120000D02*
X35860000Y37880000D01*
G75*
G02*
X35955000Y37975000I95000J0D01*
G01*
X36145000Y37975000D01*
G75*
G02*
X36240000Y37880000I0J-95000D01*
G01*
X36240000Y37120000D01*
G75*
G02*
X36145000Y37025000I-95000J0D01*
G01*
X35955000Y37025000D01*
G75*
G02*
X35860000Y37120000I0J95000D01*
G01*
G37*
G36*
G01*
X34360000Y37120000D02*
X34360000Y37880000D01*
G75*
G02*
X34455000Y37975000I95000J0D01*
G01*
X34645000Y37975000D01*
G75*
G02*
X34740000Y37880000I0J-95000D01*
G01*
X34740000Y37120000D01*
G75*
G02*
X34645000Y37025000I-95000J0D01*
G01*
X34455000Y37025000D01*
G75*
G02*
X34360000Y37120000I0J95000D01*
G01*
G37*
G36*
G01*
X34860000Y37120000D02*
X34860000Y37880000D01*
G75*
G02*
X34955000Y37975000I95000J0D01*
G01*
X35145000Y37975000D01*
G75*
G02*
X35240000Y37880000I0J-95000D01*
G01*
X35240000Y37120000D01*
G75*
G02*
X35145000Y37025000I-95000J0D01*
G01*
X34955000Y37025000D01*
G75*
G02*
X34860000Y37120000I0J95000D01*
G01*
G37*
G36*
G01*
X36625000Y36719650D02*
X36625000Y34780350D01*
G75*
G02*
X36519650Y34675000I-105350J0D01*
G01*
X34080350Y34675000D01*
G75*
G02*
X33975000Y34780350I0J105350D01*
G01*
X33975000Y36719650D01*
G75*
G02*
X34080350Y36825000I105350J0D01*
G01*
X36519650Y36825000D01*
G75*
G02*
X36625000Y36719650I0J-105350D01*
G01*
G37*
G36*
G01*
X36900000Y35190000D02*
X37660000Y35190000D01*
G75*
G02*
X37755000Y35095000I0J-95000D01*
G01*
X37755000Y34905000D01*
G75*
G02*
X37660000Y34810000I-95000J0D01*
G01*
X36900000Y34810000D01*
G75*
G02*
X36805000Y34905000I0J95000D01*
G01*
X36805000Y35095000D01*
G75*
G02*
X36900000Y35190000I95000J0D01*
G01*
G37*
G36*
G01*
X36900000Y36690000D02*
X37660000Y36690000D01*
G75*
G02*
X37755000Y36595000I0J-95000D01*
G01*
X37755000Y36405000D01*
G75*
G02*
X37660000Y36310000I-95000J0D01*
G01*
X36900000Y36310000D01*
G75*
G02*
X36805000Y36405000I0J95000D01*
G01*
X36805000Y36595000D01*
G75*
G02*
X36900000Y36690000I95000J0D01*
G01*
G37*
G36*
G01*
X32940000Y35190000D02*
X33700000Y35190000D01*
G75*
G02*
X33795000Y35095000I0J-95000D01*
G01*
X33795000Y34905000D01*
G75*
G02*
X33700000Y34810000I-95000J0D01*
G01*
X32940000Y34810000D01*
G75*
G02*
X32845000Y34905000I0J95000D01*
G01*
X32845000Y35095000D01*
G75*
G02*
X32940000Y35190000I95000J0D01*
G01*
G37*
G36*
G01*
X32940000Y36690000D02*
X33700000Y36690000D01*
G75*
G02*
X33795000Y36595000I0J-95000D01*
G01*
X33795000Y36405000D01*
G75*
G02*
X33700000Y36310000I-95000J0D01*
G01*
X32940000Y36310000D01*
G75*
G02*
X32845000Y36405000I0J95000D01*
G01*
X32845000Y36595000D01*
G75*
G02*
X32940000Y36690000I95000J0D01*
G01*
G37*
G36*
G01*
X35360000Y33620000D02*
X35360000Y34380000D01*
G75*
G02*
X35455000Y34475000I95000J0D01*
G01*
X35645000Y34475000D01*
G75*
G02*
X35740000Y34380000I0J-95000D01*
G01*
X35740000Y33620000D01*
G75*
G02*
X35645000Y33525000I-95000J0D01*
G01*
X35455000Y33525000D01*
G75*
G02*
X35360000Y33620000I0J95000D01*
G01*
G37*
G36*
G01*
X34860000Y33620000D02*
X34860000Y34380000D01*
G75*
G02*
X34955000Y34475000I95000J0D01*
G01*
X35145000Y34475000D01*
G75*
G02*
X35240000Y34380000I0J-95000D01*
G01*
X35240000Y33620000D01*
G75*
G02*
X35145000Y33525000I-95000J0D01*
G01*
X34955000Y33525000D01*
G75*
G02*
X34860000Y33620000I0J95000D01*
G01*
G37*
G36*
G01*
X34360000Y33620000D02*
X34360000Y34380000D01*
G75*
G02*
X34455000Y34475000I95000J0D01*
G01*
X34645000Y34475000D01*
G75*
G02*
X34740000Y34380000I0J-95000D01*
G01*
X34740000Y33620000D01*
G75*
G02*
X34645000Y33525000I-95000J0D01*
G01*
X34455000Y33525000D01*
G75*
G02*
X34360000Y33620000I0J95000D01*
G01*
G37*
G36*
G01*
X33860000Y33620000D02*
X33860000Y34380000D01*
G75*
G02*
X33955000Y34475000I95000J0D01*
G01*
X34145000Y34475000D01*
G75*
G02*
X34240000Y34380000I0J-95000D01*
G01*
X34240000Y33620000D01*
G75*
G02*
X34145000Y33525000I-95000J0D01*
G01*
X33955000Y33525000D01*
G75*
G02*
X33860000Y33620000I0J95000D01*
G01*
G37*
G36*
G01*
X36360000Y33620000D02*
X36360000Y34380000D01*
G75*
G02*
X36455000Y34475000I95000J0D01*
G01*
X36645000Y34475000D01*
G75*
G02*
X36740000Y34380000I0J-95000D01*
G01*
X36740000Y33620000D01*
G75*
G02*
X36645000Y33525000I-95000J0D01*
G01*
X36455000Y33525000D01*
G75*
G02*
X36360000Y33620000I0J95000D01*
G01*
G37*
G36*
G01*
X35860000Y33620000D02*
X35860000Y34380000D01*
G75*
G02*
X35955000Y34475000I95000J0D01*
G01*
X36145000Y34475000D01*
G75*
G02*
X36240000Y34380000I0J-95000D01*
G01*
X36240000Y33620000D01*
G75*
G02*
X36145000Y33525000I-95000J0D01*
G01*
X35955000Y33525000D01*
G75*
G02*
X35860000Y33620000I0J95000D01*
G01*
G37*
%TD*%
%TO.C,U22*%
G36*
G01*
X25010000Y37170000D02*
X25010000Y37930000D01*
G75*
G02*
X25105000Y38025000I95000J0D01*
G01*
X25295000Y38025000D01*
G75*
G02*
X25390000Y37930000I0J-95000D01*
G01*
X25390000Y37170000D01*
G75*
G02*
X25295000Y37075000I-95000J0D01*
G01*
X25105000Y37075000D01*
G75*
G02*
X25010000Y37170000I0J95000D01*
G01*
G37*
G36*
G01*
X26010000Y37170000D02*
X26010000Y37930000D01*
G75*
G02*
X26105000Y38025000I95000J0D01*
G01*
X26295000Y38025000D01*
G75*
G02*
X26390000Y37930000I0J-95000D01*
G01*
X26390000Y37170000D01*
G75*
G02*
X26295000Y37075000I-95000J0D01*
G01*
X26105000Y37075000D01*
G75*
G02*
X26010000Y37170000I0J95000D01*
G01*
G37*
G36*
G01*
X23510000Y37170000D02*
X23510000Y37930000D01*
G75*
G02*
X23605000Y38025000I95000J0D01*
G01*
X23795000Y38025000D01*
G75*
G02*
X23890000Y37930000I0J-95000D01*
G01*
X23890000Y37170000D01*
G75*
G02*
X23795000Y37075000I-95000J0D01*
G01*
X23605000Y37075000D01*
G75*
G02*
X23510000Y37170000I0J95000D01*
G01*
G37*
G36*
G01*
X25510000Y37170000D02*
X25510000Y37930000D01*
G75*
G02*
X25605000Y38025000I95000J0D01*
G01*
X25795000Y38025000D01*
G75*
G02*
X25890000Y37930000I0J-95000D01*
G01*
X25890000Y37170000D01*
G75*
G02*
X25795000Y37075000I-95000J0D01*
G01*
X25605000Y37075000D01*
G75*
G02*
X25510000Y37170000I0J95000D01*
G01*
G37*
G36*
G01*
X24010000Y37170000D02*
X24010000Y37930000D01*
G75*
G02*
X24105000Y38025000I95000J0D01*
G01*
X24295000Y38025000D01*
G75*
G02*
X24390000Y37930000I0J-95000D01*
G01*
X24390000Y37170000D01*
G75*
G02*
X24295000Y37075000I-95000J0D01*
G01*
X24105000Y37075000D01*
G75*
G02*
X24010000Y37170000I0J95000D01*
G01*
G37*
G36*
G01*
X24510000Y37170000D02*
X24510000Y37930000D01*
G75*
G02*
X24605000Y38025000I95000J0D01*
G01*
X24795000Y38025000D01*
G75*
G02*
X24890000Y37930000I0J-95000D01*
G01*
X24890000Y37170000D01*
G75*
G02*
X24795000Y37075000I-95000J0D01*
G01*
X24605000Y37075000D01*
G75*
G02*
X24510000Y37170000I0J95000D01*
G01*
G37*
G36*
G01*
X26275000Y36769650D02*
X26275000Y34830350D01*
G75*
G02*
X26169650Y34725000I-105350J0D01*
G01*
X23730350Y34725000D01*
G75*
G02*
X23625000Y34830350I0J105350D01*
G01*
X23625000Y36769650D01*
G75*
G02*
X23730350Y36875000I105350J0D01*
G01*
X26169650Y36875000D01*
G75*
G02*
X26275000Y36769650I0J-105350D01*
G01*
G37*
G36*
G01*
X26550000Y35240000D02*
X27310000Y35240000D01*
G75*
G02*
X27405000Y35145000I0J-95000D01*
G01*
X27405000Y34955000D01*
G75*
G02*
X27310000Y34860000I-95000J0D01*
G01*
X26550000Y34860000D01*
G75*
G02*
X26455000Y34955000I0J95000D01*
G01*
X26455000Y35145000D01*
G75*
G02*
X26550000Y35240000I95000J0D01*
G01*
G37*
G36*
G01*
X26550000Y36740000D02*
X27310000Y36740000D01*
G75*
G02*
X27405000Y36645000I0J-95000D01*
G01*
X27405000Y36455000D01*
G75*
G02*
X27310000Y36360000I-95000J0D01*
G01*
X26550000Y36360000D01*
G75*
G02*
X26455000Y36455000I0J95000D01*
G01*
X26455000Y36645000D01*
G75*
G02*
X26550000Y36740000I95000J0D01*
G01*
G37*
G36*
G01*
X22590000Y35240000D02*
X23350000Y35240000D01*
G75*
G02*
X23445000Y35145000I0J-95000D01*
G01*
X23445000Y34955000D01*
G75*
G02*
X23350000Y34860000I-95000J0D01*
G01*
X22590000Y34860000D01*
G75*
G02*
X22495000Y34955000I0J95000D01*
G01*
X22495000Y35145000D01*
G75*
G02*
X22590000Y35240000I95000J0D01*
G01*
G37*
G36*
G01*
X22590000Y36740000D02*
X23350000Y36740000D01*
G75*
G02*
X23445000Y36645000I0J-95000D01*
G01*
X23445000Y36455000D01*
G75*
G02*
X23350000Y36360000I-95000J0D01*
G01*
X22590000Y36360000D01*
G75*
G02*
X22495000Y36455000I0J95000D01*
G01*
X22495000Y36645000D01*
G75*
G02*
X22590000Y36740000I95000J0D01*
G01*
G37*
G36*
G01*
X25010000Y33670000D02*
X25010000Y34430000D01*
G75*
G02*
X25105000Y34525000I95000J0D01*
G01*
X25295000Y34525000D01*
G75*
G02*
X25390000Y34430000I0J-95000D01*
G01*
X25390000Y33670000D01*
G75*
G02*
X25295000Y33575000I-95000J0D01*
G01*
X25105000Y33575000D01*
G75*
G02*
X25010000Y33670000I0J95000D01*
G01*
G37*
G36*
G01*
X24510000Y33670000D02*
X24510000Y34430000D01*
G75*
G02*
X24605000Y34525000I95000J0D01*
G01*
X24795000Y34525000D01*
G75*
G02*
X24890000Y34430000I0J-95000D01*
G01*
X24890000Y33670000D01*
G75*
G02*
X24795000Y33575000I-95000J0D01*
G01*
X24605000Y33575000D01*
G75*
G02*
X24510000Y33670000I0J95000D01*
G01*
G37*
G36*
G01*
X24010000Y33670000D02*
X24010000Y34430000D01*
G75*
G02*
X24105000Y34525000I95000J0D01*
G01*
X24295000Y34525000D01*
G75*
G02*
X24390000Y34430000I0J-95000D01*
G01*
X24390000Y33670000D01*
G75*
G02*
X24295000Y33575000I-95000J0D01*
G01*
X24105000Y33575000D01*
G75*
G02*
X24010000Y33670000I0J95000D01*
G01*
G37*
G36*
G01*
X23510000Y33670000D02*
X23510000Y34430000D01*
G75*
G02*
X23605000Y34525000I95000J0D01*
G01*
X23795000Y34525000D01*
G75*
G02*
X23890000Y34430000I0J-95000D01*
G01*
X23890000Y33670000D01*
G75*
G02*
X23795000Y33575000I-95000J0D01*
G01*
X23605000Y33575000D01*
G75*
G02*
X23510000Y33670000I0J95000D01*
G01*
G37*
G36*
G01*
X26010000Y33670000D02*
X26010000Y34430000D01*
G75*
G02*
X26105000Y34525000I95000J0D01*
G01*
X26295000Y34525000D01*
G75*
G02*
X26390000Y34430000I0J-95000D01*
G01*
X26390000Y33670000D01*
G75*
G02*
X26295000Y33575000I-95000J0D01*
G01*
X26105000Y33575000D01*
G75*
G02*
X26010000Y33670000I0J95000D01*
G01*
G37*
G36*
G01*
X25510000Y33670000D02*
X25510000Y34430000D01*
G75*
G02*
X25605000Y34525000I95000J0D01*
G01*
X25795000Y34525000D01*
G75*
G02*
X25890000Y34430000I0J-95000D01*
G01*
X25890000Y33670000D01*
G75*
G02*
X25795000Y33575000I-95000J0D01*
G01*
X25605000Y33575000D01*
G75*
G02*
X25510000Y33670000I0J95000D01*
G01*
G37*
%TD*%
%TO.C,U21*%
G36*
G01*
X14610000Y37170000D02*
X14610000Y37930000D01*
G75*
G02*
X14705000Y38025000I95000J0D01*
G01*
X14895000Y38025000D01*
G75*
G02*
X14990000Y37930000I0J-95000D01*
G01*
X14990000Y37170000D01*
G75*
G02*
X14895000Y37075000I-95000J0D01*
G01*
X14705000Y37075000D01*
G75*
G02*
X14610000Y37170000I0J95000D01*
G01*
G37*
G36*
G01*
X15610000Y37170000D02*
X15610000Y37930000D01*
G75*
G02*
X15705000Y38025000I95000J0D01*
G01*
X15895000Y38025000D01*
G75*
G02*
X15990000Y37930000I0J-95000D01*
G01*
X15990000Y37170000D01*
G75*
G02*
X15895000Y37075000I-95000J0D01*
G01*
X15705000Y37075000D01*
G75*
G02*
X15610000Y37170000I0J95000D01*
G01*
G37*
G36*
G01*
X13110000Y37170000D02*
X13110000Y37930000D01*
G75*
G02*
X13205000Y38025000I95000J0D01*
G01*
X13395000Y38025000D01*
G75*
G02*
X13490000Y37930000I0J-95000D01*
G01*
X13490000Y37170000D01*
G75*
G02*
X13395000Y37075000I-95000J0D01*
G01*
X13205000Y37075000D01*
G75*
G02*
X13110000Y37170000I0J95000D01*
G01*
G37*
G36*
G01*
X15110000Y37170000D02*
X15110000Y37930000D01*
G75*
G02*
X15205000Y38025000I95000J0D01*
G01*
X15395000Y38025000D01*
G75*
G02*
X15490000Y37930000I0J-95000D01*
G01*
X15490000Y37170000D01*
G75*
G02*
X15395000Y37075000I-95000J0D01*
G01*
X15205000Y37075000D01*
G75*
G02*
X15110000Y37170000I0J95000D01*
G01*
G37*
G36*
G01*
X13610000Y37170000D02*
X13610000Y37930000D01*
G75*
G02*
X13705000Y38025000I95000J0D01*
G01*
X13895000Y38025000D01*
G75*
G02*
X13990000Y37930000I0J-95000D01*
G01*
X13990000Y37170000D01*
G75*
G02*
X13895000Y37075000I-95000J0D01*
G01*
X13705000Y37075000D01*
G75*
G02*
X13610000Y37170000I0J95000D01*
G01*
G37*
G36*
G01*
X14110000Y37170000D02*
X14110000Y37930000D01*
G75*
G02*
X14205000Y38025000I95000J0D01*
G01*
X14395000Y38025000D01*
G75*
G02*
X14490000Y37930000I0J-95000D01*
G01*
X14490000Y37170000D01*
G75*
G02*
X14395000Y37075000I-95000J0D01*
G01*
X14205000Y37075000D01*
G75*
G02*
X14110000Y37170000I0J95000D01*
G01*
G37*
G36*
G01*
X15875000Y36769650D02*
X15875000Y34830350D01*
G75*
G02*
X15769650Y34725000I-105350J0D01*
G01*
X13330350Y34725000D01*
G75*
G02*
X13225000Y34830350I0J105350D01*
G01*
X13225000Y36769650D01*
G75*
G02*
X13330350Y36875000I105350J0D01*
G01*
X15769650Y36875000D01*
G75*
G02*
X15875000Y36769650I0J-105350D01*
G01*
G37*
G36*
G01*
X16150000Y35240000D02*
X16910000Y35240000D01*
G75*
G02*
X17005000Y35145000I0J-95000D01*
G01*
X17005000Y34955000D01*
G75*
G02*
X16910000Y34860000I-95000J0D01*
G01*
X16150000Y34860000D01*
G75*
G02*
X16055000Y34955000I0J95000D01*
G01*
X16055000Y35145000D01*
G75*
G02*
X16150000Y35240000I95000J0D01*
G01*
G37*
G36*
G01*
X16150000Y36740000D02*
X16910000Y36740000D01*
G75*
G02*
X17005000Y36645000I0J-95000D01*
G01*
X17005000Y36455000D01*
G75*
G02*
X16910000Y36360000I-95000J0D01*
G01*
X16150000Y36360000D01*
G75*
G02*
X16055000Y36455000I0J95000D01*
G01*
X16055000Y36645000D01*
G75*
G02*
X16150000Y36740000I95000J0D01*
G01*
G37*
G36*
G01*
X12190000Y35240000D02*
X12950000Y35240000D01*
G75*
G02*
X13045000Y35145000I0J-95000D01*
G01*
X13045000Y34955000D01*
G75*
G02*
X12950000Y34860000I-95000J0D01*
G01*
X12190000Y34860000D01*
G75*
G02*
X12095000Y34955000I0J95000D01*
G01*
X12095000Y35145000D01*
G75*
G02*
X12190000Y35240000I95000J0D01*
G01*
G37*
G36*
G01*
X12190000Y36740000D02*
X12950000Y36740000D01*
G75*
G02*
X13045000Y36645000I0J-95000D01*
G01*
X13045000Y36455000D01*
G75*
G02*
X12950000Y36360000I-95000J0D01*
G01*
X12190000Y36360000D01*
G75*
G02*
X12095000Y36455000I0J95000D01*
G01*
X12095000Y36645000D01*
G75*
G02*
X12190000Y36740000I95000J0D01*
G01*
G37*
G36*
G01*
X14610000Y33670000D02*
X14610000Y34430000D01*
G75*
G02*
X14705000Y34525000I95000J0D01*
G01*
X14895000Y34525000D01*
G75*
G02*
X14990000Y34430000I0J-95000D01*
G01*
X14990000Y33670000D01*
G75*
G02*
X14895000Y33575000I-95000J0D01*
G01*
X14705000Y33575000D01*
G75*
G02*
X14610000Y33670000I0J95000D01*
G01*
G37*
G36*
G01*
X14110000Y33670000D02*
X14110000Y34430000D01*
G75*
G02*
X14205000Y34525000I95000J0D01*
G01*
X14395000Y34525000D01*
G75*
G02*
X14490000Y34430000I0J-95000D01*
G01*
X14490000Y33670000D01*
G75*
G02*
X14395000Y33575000I-95000J0D01*
G01*
X14205000Y33575000D01*
G75*
G02*
X14110000Y33670000I0J95000D01*
G01*
G37*
G36*
G01*
X13610000Y33670000D02*
X13610000Y34430000D01*
G75*
G02*
X13705000Y34525000I95000J0D01*
G01*
X13895000Y34525000D01*
G75*
G02*
X13990000Y34430000I0J-95000D01*
G01*
X13990000Y33670000D01*
G75*
G02*
X13895000Y33575000I-95000J0D01*
G01*
X13705000Y33575000D01*
G75*
G02*
X13610000Y33670000I0J95000D01*
G01*
G37*
G36*
G01*
X13110000Y33670000D02*
X13110000Y34430000D01*
G75*
G02*
X13205000Y34525000I95000J0D01*
G01*
X13395000Y34525000D01*
G75*
G02*
X13490000Y34430000I0J-95000D01*
G01*
X13490000Y33670000D01*
G75*
G02*
X13395000Y33575000I-95000J0D01*
G01*
X13205000Y33575000D01*
G75*
G02*
X13110000Y33670000I0J95000D01*
G01*
G37*
G36*
G01*
X15610000Y33670000D02*
X15610000Y34430000D01*
G75*
G02*
X15705000Y34525000I95000J0D01*
G01*
X15895000Y34525000D01*
G75*
G02*
X15990000Y34430000I0J-95000D01*
G01*
X15990000Y33670000D01*
G75*
G02*
X15895000Y33575000I-95000J0D01*
G01*
X15705000Y33575000D01*
G75*
G02*
X15610000Y33670000I0J95000D01*
G01*
G37*
G36*
G01*
X15110000Y33670000D02*
X15110000Y34430000D01*
G75*
G02*
X15205000Y34525000I95000J0D01*
G01*
X15395000Y34525000D01*
G75*
G02*
X15490000Y34430000I0J-95000D01*
G01*
X15490000Y33670000D01*
G75*
G02*
X15395000Y33575000I-95000J0D01*
G01*
X15205000Y33575000D01*
G75*
G02*
X15110000Y33670000I0J95000D01*
G01*
G37*
%TD*%
%TO.C,U20*%
G36*
G01*
X48358200Y42450000D02*
X48091800Y42450000D01*
G75*
G02*
X48025000Y42516800I0J66800D01*
G01*
X48025000Y43083200D01*
G75*
G02*
X48091800Y43150000I66800J0D01*
G01*
X48358200Y43150000D01*
G75*
G02*
X48425000Y43083200I0J-66800D01*
G01*
X48425000Y42516800D01*
G75*
G02*
X48358200Y42450000I-66800J0D01*
G01*
G37*
G36*
G01*
X49658200Y42450000D02*
X49391800Y42450000D01*
G75*
G02*
X49325000Y42516800I0J66800D01*
G01*
X49325000Y43083200D01*
G75*
G02*
X49391800Y43150000I66800J0D01*
G01*
X49658200Y43150000D01*
G75*
G02*
X49725000Y43083200I0J-66800D01*
G01*
X49725000Y42516800D01*
G75*
G02*
X49658200Y42450000I-66800J0D01*
G01*
G37*
G36*
G01*
X50308200Y42450000D02*
X50041800Y42450000D01*
G75*
G02*
X49975000Y42516800I0J66800D01*
G01*
X49975000Y43083200D01*
G75*
G02*
X50041800Y43150000I66800J0D01*
G01*
X50308200Y43150000D01*
G75*
G02*
X50375000Y43083200I0J-66800D01*
G01*
X50375000Y42516800D01*
G75*
G02*
X50308200Y42450000I-66800J0D01*
G01*
G37*
G36*
G01*
X49008200Y42450000D02*
X48741800Y42450000D01*
G75*
G02*
X48675000Y42516800I0J66800D01*
G01*
X48675000Y43083200D01*
G75*
G02*
X48741800Y43150000I66800J0D01*
G01*
X49008200Y43150000D01*
G75*
G02*
X49075000Y43083200I0J-66800D01*
G01*
X49075000Y42516800D01*
G75*
G02*
X49008200Y42450000I-66800J0D01*
G01*
G37*
G36*
G01*
X50308200Y39650000D02*
X50041800Y39650000D01*
G75*
G02*
X49975000Y39716800I0J66800D01*
G01*
X49975000Y40283200D01*
G75*
G02*
X50041800Y40350000I66800J0D01*
G01*
X50308200Y40350000D01*
G75*
G02*
X50375000Y40283200I0J-66800D01*
G01*
X50375000Y39716800D01*
G75*
G02*
X50308200Y39650000I-66800J0D01*
G01*
G37*
G36*
G01*
X49658200Y39650000D02*
X49391800Y39650000D01*
G75*
G02*
X49325000Y39716800I0J66800D01*
G01*
X49325000Y40283200D01*
G75*
G02*
X49391800Y40350000I66800J0D01*
G01*
X49658200Y40350000D01*
G75*
G02*
X49725000Y40283200I0J-66800D01*
G01*
X49725000Y39716800D01*
G75*
G02*
X49658200Y39650000I-66800J0D01*
G01*
G37*
G36*
G01*
X49008200Y39650000D02*
X48741800Y39650000D01*
G75*
G02*
X48675000Y39716800I0J66800D01*
G01*
X48675000Y40283200D01*
G75*
G02*
X48741800Y40350000I66800J0D01*
G01*
X49008200Y40350000D01*
G75*
G02*
X49075000Y40283200I0J-66800D01*
G01*
X49075000Y39716800D01*
G75*
G02*
X49008200Y39650000I-66800J0D01*
G01*
G37*
G36*
G01*
X48358200Y39650000D02*
X48091800Y39650000D01*
G75*
G02*
X48025000Y39716800I0J66800D01*
G01*
X48025000Y40283200D01*
G75*
G02*
X48091800Y40350000I66800J0D01*
G01*
X48358200Y40350000D01*
G75*
G02*
X48425000Y40283200I0J-66800D01*
G01*
X48425000Y39716800D01*
G75*
G02*
X48358200Y39650000I-66800J0D01*
G01*
G37*
G36*
G01*
X50397300Y40550000D02*
X48002700Y40550000D01*
G75*
G02*
X47950000Y40602700I0J52700D01*
G01*
X47950000Y42197300D01*
G75*
G02*
X48002700Y42250000I52700J0D01*
G01*
X50397300Y42250000D01*
G75*
G02*
X50450000Y42197300I0J-52700D01*
G01*
X50450000Y40602700D01*
G75*
G02*
X50397300Y40550000I-52700J0D01*
G01*
G37*
%TD*%
%TO.C,U19*%
G36*
G01*
X31058200Y42400000D02*
X30791800Y42400000D01*
G75*
G02*
X30725000Y42466800I0J66800D01*
G01*
X30725000Y43033200D01*
G75*
G02*
X30791800Y43100000I66800J0D01*
G01*
X31058200Y43100000D01*
G75*
G02*
X31125000Y43033200I0J-66800D01*
G01*
X31125000Y42466800D01*
G75*
G02*
X31058200Y42400000I-66800J0D01*
G01*
G37*
G36*
G01*
X32358200Y42400000D02*
X32091800Y42400000D01*
G75*
G02*
X32025000Y42466800I0J66800D01*
G01*
X32025000Y43033200D01*
G75*
G02*
X32091800Y43100000I66800J0D01*
G01*
X32358200Y43100000D01*
G75*
G02*
X32425000Y43033200I0J-66800D01*
G01*
X32425000Y42466800D01*
G75*
G02*
X32358200Y42400000I-66800J0D01*
G01*
G37*
G36*
G01*
X33008200Y42400000D02*
X32741800Y42400000D01*
G75*
G02*
X32675000Y42466800I0J66800D01*
G01*
X32675000Y43033200D01*
G75*
G02*
X32741800Y43100000I66800J0D01*
G01*
X33008200Y43100000D01*
G75*
G02*
X33075000Y43033200I0J-66800D01*
G01*
X33075000Y42466800D01*
G75*
G02*
X33008200Y42400000I-66800J0D01*
G01*
G37*
G36*
G01*
X31708200Y42400000D02*
X31441800Y42400000D01*
G75*
G02*
X31375000Y42466800I0J66800D01*
G01*
X31375000Y43033200D01*
G75*
G02*
X31441800Y43100000I66800J0D01*
G01*
X31708200Y43100000D01*
G75*
G02*
X31775000Y43033200I0J-66800D01*
G01*
X31775000Y42466800D01*
G75*
G02*
X31708200Y42400000I-66800J0D01*
G01*
G37*
G36*
G01*
X33008200Y39600000D02*
X32741800Y39600000D01*
G75*
G02*
X32675000Y39666800I0J66800D01*
G01*
X32675000Y40233200D01*
G75*
G02*
X32741800Y40300000I66800J0D01*
G01*
X33008200Y40300000D01*
G75*
G02*
X33075000Y40233200I0J-66800D01*
G01*
X33075000Y39666800D01*
G75*
G02*
X33008200Y39600000I-66800J0D01*
G01*
G37*
G36*
G01*
X32358200Y39600000D02*
X32091800Y39600000D01*
G75*
G02*
X32025000Y39666800I0J66800D01*
G01*
X32025000Y40233200D01*
G75*
G02*
X32091800Y40300000I66800J0D01*
G01*
X32358200Y40300000D01*
G75*
G02*
X32425000Y40233200I0J-66800D01*
G01*
X32425000Y39666800D01*
G75*
G02*
X32358200Y39600000I-66800J0D01*
G01*
G37*
G36*
G01*
X31708200Y39600000D02*
X31441800Y39600000D01*
G75*
G02*
X31375000Y39666800I0J66800D01*
G01*
X31375000Y40233200D01*
G75*
G02*
X31441800Y40300000I66800J0D01*
G01*
X31708200Y40300000D01*
G75*
G02*
X31775000Y40233200I0J-66800D01*
G01*
X31775000Y39666800D01*
G75*
G02*
X31708200Y39600000I-66800J0D01*
G01*
G37*
G36*
G01*
X31058200Y39600000D02*
X30791800Y39600000D01*
G75*
G02*
X30725000Y39666800I0J66800D01*
G01*
X30725000Y40233200D01*
G75*
G02*
X30791800Y40300000I66800J0D01*
G01*
X31058200Y40300000D01*
G75*
G02*
X31125000Y40233200I0J-66800D01*
G01*
X31125000Y39666800D01*
G75*
G02*
X31058200Y39600000I-66800J0D01*
G01*
G37*
G36*
G01*
X33097300Y40500000D02*
X30702700Y40500000D01*
G75*
G02*
X30650000Y40552700I0J52700D01*
G01*
X30650000Y42147300D01*
G75*
G02*
X30702700Y42200000I52700J0D01*
G01*
X33097300Y42200000D01*
G75*
G02*
X33150000Y42147300I0J-52700D01*
G01*
X33150000Y40552700D01*
G75*
G02*
X33097300Y40500000I-52700J0D01*
G01*
G37*
%TD*%
%TO.C,U18*%
G36*
G01*
X27558200Y42400000D02*
X27291800Y42400000D01*
G75*
G02*
X27225000Y42466800I0J66800D01*
G01*
X27225000Y43033200D01*
G75*
G02*
X27291800Y43100000I66800J0D01*
G01*
X27558200Y43100000D01*
G75*
G02*
X27625000Y43033200I0J-66800D01*
G01*
X27625000Y42466800D01*
G75*
G02*
X27558200Y42400000I-66800J0D01*
G01*
G37*
G36*
G01*
X28858200Y42400000D02*
X28591800Y42400000D01*
G75*
G02*
X28525000Y42466800I0J66800D01*
G01*
X28525000Y43033200D01*
G75*
G02*
X28591800Y43100000I66800J0D01*
G01*
X28858200Y43100000D01*
G75*
G02*
X28925000Y43033200I0J-66800D01*
G01*
X28925000Y42466800D01*
G75*
G02*
X28858200Y42400000I-66800J0D01*
G01*
G37*
G36*
G01*
X29508200Y42400000D02*
X29241800Y42400000D01*
G75*
G02*
X29175000Y42466800I0J66800D01*
G01*
X29175000Y43033200D01*
G75*
G02*
X29241800Y43100000I66800J0D01*
G01*
X29508200Y43100000D01*
G75*
G02*
X29575000Y43033200I0J-66800D01*
G01*
X29575000Y42466800D01*
G75*
G02*
X29508200Y42400000I-66800J0D01*
G01*
G37*
G36*
G01*
X28208200Y42400000D02*
X27941800Y42400000D01*
G75*
G02*
X27875000Y42466800I0J66800D01*
G01*
X27875000Y43033200D01*
G75*
G02*
X27941800Y43100000I66800J0D01*
G01*
X28208200Y43100000D01*
G75*
G02*
X28275000Y43033200I0J-66800D01*
G01*
X28275000Y42466800D01*
G75*
G02*
X28208200Y42400000I-66800J0D01*
G01*
G37*
G36*
G01*
X29508200Y39600000D02*
X29241800Y39600000D01*
G75*
G02*
X29175000Y39666800I0J66800D01*
G01*
X29175000Y40233200D01*
G75*
G02*
X29241800Y40300000I66800J0D01*
G01*
X29508200Y40300000D01*
G75*
G02*
X29575000Y40233200I0J-66800D01*
G01*
X29575000Y39666800D01*
G75*
G02*
X29508200Y39600000I-66800J0D01*
G01*
G37*
G36*
G01*
X28858200Y39600000D02*
X28591800Y39600000D01*
G75*
G02*
X28525000Y39666800I0J66800D01*
G01*
X28525000Y40233200D01*
G75*
G02*
X28591800Y40300000I66800J0D01*
G01*
X28858200Y40300000D01*
G75*
G02*
X28925000Y40233200I0J-66800D01*
G01*
X28925000Y39666800D01*
G75*
G02*
X28858200Y39600000I-66800J0D01*
G01*
G37*
G36*
G01*
X28208200Y39600000D02*
X27941800Y39600000D01*
G75*
G02*
X27875000Y39666800I0J66800D01*
G01*
X27875000Y40233200D01*
G75*
G02*
X27941800Y40300000I66800J0D01*
G01*
X28208200Y40300000D01*
G75*
G02*
X28275000Y40233200I0J-66800D01*
G01*
X28275000Y39666800D01*
G75*
G02*
X28208200Y39600000I-66800J0D01*
G01*
G37*
G36*
G01*
X27558200Y39600000D02*
X27291800Y39600000D01*
G75*
G02*
X27225000Y39666800I0J66800D01*
G01*
X27225000Y40233200D01*
G75*
G02*
X27291800Y40300000I66800J0D01*
G01*
X27558200Y40300000D01*
G75*
G02*
X27625000Y40233200I0J-66800D01*
G01*
X27625000Y39666800D01*
G75*
G02*
X27558200Y39600000I-66800J0D01*
G01*
G37*
G36*
G01*
X29597300Y40500000D02*
X27202700Y40500000D01*
G75*
G02*
X27150000Y40552700I0J52700D01*
G01*
X27150000Y42147300D01*
G75*
G02*
X27202700Y42200000I52700J0D01*
G01*
X29597300Y42200000D01*
G75*
G02*
X29650000Y42147300I0J-52700D01*
G01*
X29650000Y40552700D01*
G75*
G02*
X29597300Y40500000I-52700J0D01*
G01*
G37*
%TD*%
%TO.C,U17*%
G36*
G01*
X10258200Y42400000D02*
X9991800Y42400000D01*
G75*
G02*
X9925000Y42466800I0J66800D01*
G01*
X9925000Y43033200D01*
G75*
G02*
X9991800Y43100000I66800J0D01*
G01*
X10258200Y43100000D01*
G75*
G02*
X10325000Y43033200I0J-66800D01*
G01*
X10325000Y42466800D01*
G75*
G02*
X10258200Y42400000I-66800J0D01*
G01*
G37*
G36*
G01*
X11558200Y42400000D02*
X11291800Y42400000D01*
G75*
G02*
X11225000Y42466800I0J66800D01*
G01*
X11225000Y43033200D01*
G75*
G02*
X11291800Y43100000I66800J0D01*
G01*
X11558200Y43100000D01*
G75*
G02*
X11625000Y43033200I0J-66800D01*
G01*
X11625000Y42466800D01*
G75*
G02*
X11558200Y42400000I-66800J0D01*
G01*
G37*
G36*
G01*
X12208200Y42400000D02*
X11941800Y42400000D01*
G75*
G02*
X11875000Y42466800I0J66800D01*
G01*
X11875000Y43033200D01*
G75*
G02*
X11941800Y43100000I66800J0D01*
G01*
X12208200Y43100000D01*
G75*
G02*
X12275000Y43033200I0J-66800D01*
G01*
X12275000Y42466800D01*
G75*
G02*
X12208200Y42400000I-66800J0D01*
G01*
G37*
G36*
G01*
X10908200Y42400000D02*
X10641800Y42400000D01*
G75*
G02*
X10575000Y42466800I0J66800D01*
G01*
X10575000Y43033200D01*
G75*
G02*
X10641800Y43100000I66800J0D01*
G01*
X10908200Y43100000D01*
G75*
G02*
X10975000Y43033200I0J-66800D01*
G01*
X10975000Y42466800D01*
G75*
G02*
X10908200Y42400000I-66800J0D01*
G01*
G37*
G36*
G01*
X12208200Y39600000D02*
X11941800Y39600000D01*
G75*
G02*
X11875000Y39666800I0J66800D01*
G01*
X11875000Y40233200D01*
G75*
G02*
X11941800Y40300000I66800J0D01*
G01*
X12208200Y40300000D01*
G75*
G02*
X12275000Y40233200I0J-66800D01*
G01*
X12275000Y39666800D01*
G75*
G02*
X12208200Y39600000I-66800J0D01*
G01*
G37*
G36*
G01*
X11558200Y39600000D02*
X11291800Y39600000D01*
G75*
G02*
X11225000Y39666800I0J66800D01*
G01*
X11225000Y40233200D01*
G75*
G02*
X11291800Y40300000I66800J0D01*
G01*
X11558200Y40300000D01*
G75*
G02*
X11625000Y40233200I0J-66800D01*
G01*
X11625000Y39666800D01*
G75*
G02*
X11558200Y39600000I-66800J0D01*
G01*
G37*
G36*
G01*
X10908200Y39600000D02*
X10641800Y39600000D01*
G75*
G02*
X10575000Y39666800I0J66800D01*
G01*
X10575000Y40233200D01*
G75*
G02*
X10641800Y40300000I66800J0D01*
G01*
X10908200Y40300000D01*
G75*
G02*
X10975000Y40233200I0J-66800D01*
G01*
X10975000Y39666800D01*
G75*
G02*
X10908200Y39600000I-66800J0D01*
G01*
G37*
G36*
G01*
X10258200Y39600000D02*
X9991800Y39600000D01*
G75*
G02*
X9925000Y39666800I0J66800D01*
G01*
X9925000Y40233200D01*
G75*
G02*
X9991800Y40300000I66800J0D01*
G01*
X10258200Y40300000D01*
G75*
G02*
X10325000Y40233200I0J-66800D01*
G01*
X10325000Y39666800D01*
G75*
G02*
X10258200Y39600000I-66800J0D01*
G01*
G37*
G36*
G01*
X12297300Y40500000D02*
X9902700Y40500000D01*
G75*
G02*
X9850000Y40552700I0J52700D01*
G01*
X9850000Y42147300D01*
G75*
G02*
X9902700Y42200000I52700J0D01*
G01*
X12297300Y42200000D01*
G75*
G02*
X12350000Y42147300I0J-52700D01*
G01*
X12350000Y40552700D01*
G75*
G02*
X12297300Y40500000I-52700J0D01*
G01*
G37*
%TD*%
%TO.C,U16*%
G36*
G01*
X55258200Y42450000D02*
X54991800Y42450000D01*
G75*
G02*
X54925000Y42516800I0J66800D01*
G01*
X54925000Y43083200D01*
G75*
G02*
X54991800Y43150000I66800J0D01*
G01*
X55258200Y43150000D01*
G75*
G02*
X55325000Y43083200I0J-66800D01*
G01*
X55325000Y42516800D01*
G75*
G02*
X55258200Y42450000I-66800J0D01*
G01*
G37*
G36*
G01*
X56558200Y42450000D02*
X56291800Y42450000D01*
G75*
G02*
X56225000Y42516800I0J66800D01*
G01*
X56225000Y43083200D01*
G75*
G02*
X56291800Y43150000I66800J0D01*
G01*
X56558200Y43150000D01*
G75*
G02*
X56625000Y43083200I0J-66800D01*
G01*
X56625000Y42516800D01*
G75*
G02*
X56558200Y42450000I-66800J0D01*
G01*
G37*
G36*
G01*
X57208200Y42450000D02*
X56941800Y42450000D01*
G75*
G02*
X56875000Y42516800I0J66800D01*
G01*
X56875000Y43083200D01*
G75*
G02*
X56941800Y43150000I66800J0D01*
G01*
X57208200Y43150000D01*
G75*
G02*
X57275000Y43083200I0J-66800D01*
G01*
X57275000Y42516800D01*
G75*
G02*
X57208200Y42450000I-66800J0D01*
G01*
G37*
G36*
G01*
X55908200Y42450000D02*
X55641800Y42450000D01*
G75*
G02*
X55575000Y42516800I0J66800D01*
G01*
X55575000Y43083200D01*
G75*
G02*
X55641800Y43150000I66800J0D01*
G01*
X55908200Y43150000D01*
G75*
G02*
X55975000Y43083200I0J-66800D01*
G01*
X55975000Y42516800D01*
G75*
G02*
X55908200Y42450000I-66800J0D01*
G01*
G37*
G36*
G01*
X57208200Y39650000D02*
X56941800Y39650000D01*
G75*
G02*
X56875000Y39716800I0J66800D01*
G01*
X56875000Y40283200D01*
G75*
G02*
X56941800Y40350000I66800J0D01*
G01*
X57208200Y40350000D01*
G75*
G02*
X57275000Y40283200I0J-66800D01*
G01*
X57275000Y39716800D01*
G75*
G02*
X57208200Y39650000I-66800J0D01*
G01*
G37*
G36*
G01*
X56558200Y39650000D02*
X56291800Y39650000D01*
G75*
G02*
X56225000Y39716800I0J66800D01*
G01*
X56225000Y40283200D01*
G75*
G02*
X56291800Y40350000I66800J0D01*
G01*
X56558200Y40350000D01*
G75*
G02*
X56625000Y40283200I0J-66800D01*
G01*
X56625000Y39716800D01*
G75*
G02*
X56558200Y39650000I-66800J0D01*
G01*
G37*
G36*
G01*
X55908200Y39650000D02*
X55641800Y39650000D01*
G75*
G02*
X55575000Y39716800I0J66800D01*
G01*
X55575000Y40283200D01*
G75*
G02*
X55641800Y40350000I66800J0D01*
G01*
X55908200Y40350000D01*
G75*
G02*
X55975000Y40283200I0J-66800D01*
G01*
X55975000Y39716800D01*
G75*
G02*
X55908200Y39650000I-66800J0D01*
G01*
G37*
G36*
G01*
X55258200Y39650000D02*
X54991800Y39650000D01*
G75*
G02*
X54925000Y39716800I0J66800D01*
G01*
X54925000Y40283200D01*
G75*
G02*
X54991800Y40350000I66800J0D01*
G01*
X55258200Y40350000D01*
G75*
G02*
X55325000Y40283200I0J-66800D01*
G01*
X55325000Y39716800D01*
G75*
G02*
X55258200Y39650000I-66800J0D01*
G01*
G37*
G36*
G01*
X57297300Y40550000D02*
X54902700Y40550000D01*
G75*
G02*
X54850000Y40602700I0J52700D01*
G01*
X54850000Y42197300D01*
G75*
G02*
X54902700Y42250000I52700J0D01*
G01*
X57297300Y42250000D01*
G75*
G02*
X57350000Y42197300I0J-52700D01*
G01*
X57350000Y40602700D01*
G75*
G02*
X57297300Y40550000I-52700J0D01*
G01*
G37*
%TD*%
%TO.C,U15*%
G36*
G01*
X34508200Y42400000D02*
X34241800Y42400000D01*
G75*
G02*
X34175000Y42466800I0J66800D01*
G01*
X34175000Y43033200D01*
G75*
G02*
X34241800Y43100000I66800J0D01*
G01*
X34508200Y43100000D01*
G75*
G02*
X34575000Y43033200I0J-66800D01*
G01*
X34575000Y42466800D01*
G75*
G02*
X34508200Y42400000I-66800J0D01*
G01*
G37*
G36*
G01*
X35808200Y42400000D02*
X35541800Y42400000D01*
G75*
G02*
X35475000Y42466800I0J66800D01*
G01*
X35475000Y43033200D01*
G75*
G02*
X35541800Y43100000I66800J0D01*
G01*
X35808200Y43100000D01*
G75*
G02*
X35875000Y43033200I0J-66800D01*
G01*
X35875000Y42466800D01*
G75*
G02*
X35808200Y42400000I-66800J0D01*
G01*
G37*
G36*
G01*
X36458200Y42400000D02*
X36191800Y42400000D01*
G75*
G02*
X36125000Y42466800I0J66800D01*
G01*
X36125000Y43033200D01*
G75*
G02*
X36191800Y43100000I66800J0D01*
G01*
X36458200Y43100000D01*
G75*
G02*
X36525000Y43033200I0J-66800D01*
G01*
X36525000Y42466800D01*
G75*
G02*
X36458200Y42400000I-66800J0D01*
G01*
G37*
G36*
G01*
X35158200Y42400000D02*
X34891800Y42400000D01*
G75*
G02*
X34825000Y42466800I0J66800D01*
G01*
X34825000Y43033200D01*
G75*
G02*
X34891800Y43100000I66800J0D01*
G01*
X35158200Y43100000D01*
G75*
G02*
X35225000Y43033200I0J-66800D01*
G01*
X35225000Y42466800D01*
G75*
G02*
X35158200Y42400000I-66800J0D01*
G01*
G37*
G36*
G01*
X36458200Y39600000D02*
X36191800Y39600000D01*
G75*
G02*
X36125000Y39666800I0J66800D01*
G01*
X36125000Y40233200D01*
G75*
G02*
X36191800Y40300000I66800J0D01*
G01*
X36458200Y40300000D01*
G75*
G02*
X36525000Y40233200I0J-66800D01*
G01*
X36525000Y39666800D01*
G75*
G02*
X36458200Y39600000I-66800J0D01*
G01*
G37*
G36*
G01*
X35808200Y39600000D02*
X35541800Y39600000D01*
G75*
G02*
X35475000Y39666800I0J66800D01*
G01*
X35475000Y40233200D01*
G75*
G02*
X35541800Y40300000I66800J0D01*
G01*
X35808200Y40300000D01*
G75*
G02*
X35875000Y40233200I0J-66800D01*
G01*
X35875000Y39666800D01*
G75*
G02*
X35808200Y39600000I-66800J0D01*
G01*
G37*
G36*
G01*
X35158200Y39600000D02*
X34891800Y39600000D01*
G75*
G02*
X34825000Y39666800I0J66800D01*
G01*
X34825000Y40233200D01*
G75*
G02*
X34891800Y40300000I66800J0D01*
G01*
X35158200Y40300000D01*
G75*
G02*
X35225000Y40233200I0J-66800D01*
G01*
X35225000Y39666800D01*
G75*
G02*
X35158200Y39600000I-66800J0D01*
G01*
G37*
G36*
G01*
X34508200Y39600000D02*
X34241800Y39600000D01*
G75*
G02*
X34175000Y39666800I0J66800D01*
G01*
X34175000Y40233200D01*
G75*
G02*
X34241800Y40300000I66800J0D01*
G01*
X34508200Y40300000D01*
G75*
G02*
X34575000Y40233200I0J-66800D01*
G01*
X34575000Y39666800D01*
G75*
G02*
X34508200Y39600000I-66800J0D01*
G01*
G37*
G36*
G01*
X36547300Y40500000D02*
X34152700Y40500000D01*
G75*
G02*
X34100000Y40552700I0J52700D01*
G01*
X34100000Y42147300D01*
G75*
G02*
X34152700Y42200000I52700J0D01*
G01*
X36547300Y42200000D01*
G75*
G02*
X36600000Y42147300I0J-52700D01*
G01*
X36600000Y40552700D01*
G75*
G02*
X36547300Y40500000I-52700J0D01*
G01*
G37*
%TD*%
%TO.C,U14*%
G36*
G01*
X51858200Y42450000D02*
X51591800Y42450000D01*
G75*
G02*
X51525000Y42516800I0J66800D01*
G01*
X51525000Y43083200D01*
G75*
G02*
X51591800Y43150000I66800J0D01*
G01*
X51858200Y43150000D01*
G75*
G02*
X51925000Y43083200I0J-66800D01*
G01*
X51925000Y42516800D01*
G75*
G02*
X51858200Y42450000I-66800J0D01*
G01*
G37*
G36*
G01*
X53158200Y42450000D02*
X52891800Y42450000D01*
G75*
G02*
X52825000Y42516800I0J66800D01*
G01*
X52825000Y43083200D01*
G75*
G02*
X52891800Y43150000I66800J0D01*
G01*
X53158200Y43150000D01*
G75*
G02*
X53225000Y43083200I0J-66800D01*
G01*
X53225000Y42516800D01*
G75*
G02*
X53158200Y42450000I-66800J0D01*
G01*
G37*
G36*
G01*
X53808200Y42450000D02*
X53541800Y42450000D01*
G75*
G02*
X53475000Y42516800I0J66800D01*
G01*
X53475000Y43083200D01*
G75*
G02*
X53541800Y43150000I66800J0D01*
G01*
X53808200Y43150000D01*
G75*
G02*
X53875000Y43083200I0J-66800D01*
G01*
X53875000Y42516800D01*
G75*
G02*
X53808200Y42450000I-66800J0D01*
G01*
G37*
G36*
G01*
X52508200Y42450000D02*
X52241800Y42450000D01*
G75*
G02*
X52175000Y42516800I0J66800D01*
G01*
X52175000Y43083200D01*
G75*
G02*
X52241800Y43150000I66800J0D01*
G01*
X52508200Y43150000D01*
G75*
G02*
X52575000Y43083200I0J-66800D01*
G01*
X52575000Y42516800D01*
G75*
G02*
X52508200Y42450000I-66800J0D01*
G01*
G37*
G36*
G01*
X53808200Y39650000D02*
X53541800Y39650000D01*
G75*
G02*
X53475000Y39716800I0J66800D01*
G01*
X53475000Y40283200D01*
G75*
G02*
X53541800Y40350000I66800J0D01*
G01*
X53808200Y40350000D01*
G75*
G02*
X53875000Y40283200I0J-66800D01*
G01*
X53875000Y39716800D01*
G75*
G02*
X53808200Y39650000I-66800J0D01*
G01*
G37*
G36*
G01*
X53158200Y39650000D02*
X52891800Y39650000D01*
G75*
G02*
X52825000Y39716800I0J66800D01*
G01*
X52825000Y40283200D01*
G75*
G02*
X52891800Y40350000I66800J0D01*
G01*
X53158200Y40350000D01*
G75*
G02*
X53225000Y40283200I0J-66800D01*
G01*
X53225000Y39716800D01*
G75*
G02*
X53158200Y39650000I-66800J0D01*
G01*
G37*
G36*
G01*
X52508200Y39650000D02*
X52241800Y39650000D01*
G75*
G02*
X52175000Y39716800I0J66800D01*
G01*
X52175000Y40283200D01*
G75*
G02*
X52241800Y40350000I66800J0D01*
G01*
X52508200Y40350000D01*
G75*
G02*
X52575000Y40283200I0J-66800D01*
G01*
X52575000Y39716800D01*
G75*
G02*
X52508200Y39650000I-66800J0D01*
G01*
G37*
G36*
G01*
X51858200Y39650000D02*
X51591800Y39650000D01*
G75*
G02*
X51525000Y39716800I0J66800D01*
G01*
X51525000Y40283200D01*
G75*
G02*
X51591800Y40350000I66800J0D01*
G01*
X51858200Y40350000D01*
G75*
G02*
X51925000Y40283200I0J-66800D01*
G01*
X51925000Y39716800D01*
G75*
G02*
X51858200Y39650000I-66800J0D01*
G01*
G37*
G36*
G01*
X53897300Y40550000D02*
X51502700Y40550000D01*
G75*
G02*
X51450000Y40602700I0J52700D01*
G01*
X51450000Y42197300D01*
G75*
G02*
X51502700Y42250000I52700J0D01*
G01*
X53897300Y42250000D01*
G75*
G02*
X53950000Y42197300I0J-52700D01*
G01*
X53950000Y40602700D01*
G75*
G02*
X53897300Y40550000I-52700J0D01*
G01*
G37*
%TD*%
%TO.C,U13*%
G36*
G01*
X69158200Y42450000D02*
X68891800Y42450000D01*
G75*
G02*
X68825000Y42516800I0J66800D01*
G01*
X68825000Y43083200D01*
G75*
G02*
X68891800Y43150000I66800J0D01*
G01*
X69158200Y43150000D01*
G75*
G02*
X69225000Y43083200I0J-66800D01*
G01*
X69225000Y42516800D01*
G75*
G02*
X69158200Y42450000I-66800J0D01*
G01*
G37*
G36*
G01*
X70458200Y42450000D02*
X70191800Y42450000D01*
G75*
G02*
X70125000Y42516800I0J66800D01*
G01*
X70125000Y43083200D01*
G75*
G02*
X70191800Y43150000I66800J0D01*
G01*
X70458200Y43150000D01*
G75*
G02*
X70525000Y43083200I0J-66800D01*
G01*
X70525000Y42516800D01*
G75*
G02*
X70458200Y42450000I-66800J0D01*
G01*
G37*
G36*
G01*
X71108200Y42450000D02*
X70841800Y42450000D01*
G75*
G02*
X70775000Y42516800I0J66800D01*
G01*
X70775000Y43083200D01*
G75*
G02*
X70841800Y43150000I66800J0D01*
G01*
X71108200Y43150000D01*
G75*
G02*
X71175000Y43083200I0J-66800D01*
G01*
X71175000Y42516800D01*
G75*
G02*
X71108200Y42450000I-66800J0D01*
G01*
G37*
G36*
G01*
X69808200Y42450000D02*
X69541800Y42450000D01*
G75*
G02*
X69475000Y42516800I0J66800D01*
G01*
X69475000Y43083200D01*
G75*
G02*
X69541800Y43150000I66800J0D01*
G01*
X69808200Y43150000D01*
G75*
G02*
X69875000Y43083200I0J-66800D01*
G01*
X69875000Y42516800D01*
G75*
G02*
X69808200Y42450000I-66800J0D01*
G01*
G37*
G36*
G01*
X71108200Y39650000D02*
X70841800Y39650000D01*
G75*
G02*
X70775000Y39716800I0J66800D01*
G01*
X70775000Y40283200D01*
G75*
G02*
X70841800Y40350000I66800J0D01*
G01*
X71108200Y40350000D01*
G75*
G02*
X71175000Y40283200I0J-66800D01*
G01*
X71175000Y39716800D01*
G75*
G02*
X71108200Y39650000I-66800J0D01*
G01*
G37*
G36*
G01*
X70458200Y39650000D02*
X70191800Y39650000D01*
G75*
G02*
X70125000Y39716800I0J66800D01*
G01*
X70125000Y40283200D01*
G75*
G02*
X70191800Y40350000I66800J0D01*
G01*
X70458200Y40350000D01*
G75*
G02*
X70525000Y40283200I0J-66800D01*
G01*
X70525000Y39716800D01*
G75*
G02*
X70458200Y39650000I-66800J0D01*
G01*
G37*
G36*
G01*
X69808200Y39650000D02*
X69541800Y39650000D01*
G75*
G02*
X69475000Y39716800I0J66800D01*
G01*
X69475000Y40283200D01*
G75*
G02*
X69541800Y40350000I66800J0D01*
G01*
X69808200Y40350000D01*
G75*
G02*
X69875000Y40283200I0J-66800D01*
G01*
X69875000Y39716800D01*
G75*
G02*
X69808200Y39650000I-66800J0D01*
G01*
G37*
G36*
G01*
X69158200Y39650000D02*
X68891800Y39650000D01*
G75*
G02*
X68825000Y39716800I0J66800D01*
G01*
X68825000Y40283200D01*
G75*
G02*
X68891800Y40350000I66800J0D01*
G01*
X69158200Y40350000D01*
G75*
G02*
X69225000Y40283200I0J-66800D01*
G01*
X69225000Y39716800D01*
G75*
G02*
X69158200Y39650000I-66800J0D01*
G01*
G37*
G36*
G01*
X71197300Y40550000D02*
X68802700Y40550000D01*
G75*
G02*
X68750000Y40602700I0J52700D01*
G01*
X68750000Y42197300D01*
G75*
G02*
X68802700Y42250000I52700J0D01*
G01*
X71197300Y42250000D01*
G75*
G02*
X71250000Y42197300I0J-52700D01*
G01*
X71250000Y40602700D01*
G75*
G02*
X71197300Y40550000I-52700J0D01*
G01*
G37*
%TD*%
%TO.C,U12*%
G36*
G01*
X24108200Y42400000D02*
X23841800Y42400000D01*
G75*
G02*
X23775000Y42466800I0J66800D01*
G01*
X23775000Y43033200D01*
G75*
G02*
X23841800Y43100000I66800J0D01*
G01*
X24108200Y43100000D01*
G75*
G02*
X24175000Y43033200I0J-66800D01*
G01*
X24175000Y42466800D01*
G75*
G02*
X24108200Y42400000I-66800J0D01*
G01*
G37*
G36*
G01*
X25408200Y42400000D02*
X25141800Y42400000D01*
G75*
G02*
X25075000Y42466800I0J66800D01*
G01*
X25075000Y43033200D01*
G75*
G02*
X25141800Y43100000I66800J0D01*
G01*
X25408200Y43100000D01*
G75*
G02*
X25475000Y43033200I0J-66800D01*
G01*
X25475000Y42466800D01*
G75*
G02*
X25408200Y42400000I-66800J0D01*
G01*
G37*
G36*
G01*
X26058200Y42400000D02*
X25791800Y42400000D01*
G75*
G02*
X25725000Y42466800I0J66800D01*
G01*
X25725000Y43033200D01*
G75*
G02*
X25791800Y43100000I66800J0D01*
G01*
X26058200Y43100000D01*
G75*
G02*
X26125000Y43033200I0J-66800D01*
G01*
X26125000Y42466800D01*
G75*
G02*
X26058200Y42400000I-66800J0D01*
G01*
G37*
G36*
G01*
X24758200Y42400000D02*
X24491800Y42400000D01*
G75*
G02*
X24425000Y42466800I0J66800D01*
G01*
X24425000Y43033200D01*
G75*
G02*
X24491800Y43100000I66800J0D01*
G01*
X24758200Y43100000D01*
G75*
G02*
X24825000Y43033200I0J-66800D01*
G01*
X24825000Y42466800D01*
G75*
G02*
X24758200Y42400000I-66800J0D01*
G01*
G37*
G36*
G01*
X26058200Y39600000D02*
X25791800Y39600000D01*
G75*
G02*
X25725000Y39666800I0J66800D01*
G01*
X25725000Y40233200D01*
G75*
G02*
X25791800Y40300000I66800J0D01*
G01*
X26058200Y40300000D01*
G75*
G02*
X26125000Y40233200I0J-66800D01*
G01*
X26125000Y39666800D01*
G75*
G02*
X26058200Y39600000I-66800J0D01*
G01*
G37*
G36*
G01*
X25408200Y39600000D02*
X25141800Y39600000D01*
G75*
G02*
X25075000Y39666800I0J66800D01*
G01*
X25075000Y40233200D01*
G75*
G02*
X25141800Y40300000I66800J0D01*
G01*
X25408200Y40300000D01*
G75*
G02*
X25475000Y40233200I0J-66800D01*
G01*
X25475000Y39666800D01*
G75*
G02*
X25408200Y39600000I-66800J0D01*
G01*
G37*
G36*
G01*
X24758200Y39600000D02*
X24491800Y39600000D01*
G75*
G02*
X24425000Y39666800I0J66800D01*
G01*
X24425000Y40233200D01*
G75*
G02*
X24491800Y40300000I66800J0D01*
G01*
X24758200Y40300000D01*
G75*
G02*
X24825000Y40233200I0J-66800D01*
G01*
X24825000Y39666800D01*
G75*
G02*
X24758200Y39600000I-66800J0D01*
G01*
G37*
G36*
G01*
X24108200Y39600000D02*
X23841800Y39600000D01*
G75*
G02*
X23775000Y39666800I0J66800D01*
G01*
X23775000Y40233200D01*
G75*
G02*
X23841800Y40300000I66800J0D01*
G01*
X24108200Y40300000D01*
G75*
G02*
X24175000Y40233200I0J-66800D01*
G01*
X24175000Y39666800D01*
G75*
G02*
X24108200Y39600000I-66800J0D01*
G01*
G37*
G36*
G01*
X26147300Y40500000D02*
X23752700Y40500000D01*
G75*
G02*
X23700000Y40552700I0J52700D01*
G01*
X23700000Y42147300D01*
G75*
G02*
X23752700Y42200000I52700J0D01*
G01*
X26147300Y42200000D01*
G75*
G02*
X26200000Y42147300I0J-52700D01*
G01*
X26200000Y40552700D01*
G75*
G02*
X26147300Y40500000I-52700J0D01*
G01*
G37*
%TD*%
%TO.C,U11*%
G36*
G01*
X44908200Y42450000D02*
X44641800Y42450000D01*
G75*
G02*
X44575000Y42516800I0J66800D01*
G01*
X44575000Y43083200D01*
G75*
G02*
X44641800Y43150000I66800J0D01*
G01*
X44908200Y43150000D01*
G75*
G02*
X44975000Y43083200I0J-66800D01*
G01*
X44975000Y42516800D01*
G75*
G02*
X44908200Y42450000I-66800J0D01*
G01*
G37*
G36*
G01*
X46208200Y42450000D02*
X45941800Y42450000D01*
G75*
G02*
X45875000Y42516800I0J66800D01*
G01*
X45875000Y43083200D01*
G75*
G02*
X45941800Y43150000I66800J0D01*
G01*
X46208200Y43150000D01*
G75*
G02*
X46275000Y43083200I0J-66800D01*
G01*
X46275000Y42516800D01*
G75*
G02*
X46208200Y42450000I-66800J0D01*
G01*
G37*
G36*
G01*
X46858200Y42450000D02*
X46591800Y42450000D01*
G75*
G02*
X46525000Y42516800I0J66800D01*
G01*
X46525000Y43083200D01*
G75*
G02*
X46591800Y43150000I66800J0D01*
G01*
X46858200Y43150000D01*
G75*
G02*
X46925000Y43083200I0J-66800D01*
G01*
X46925000Y42516800D01*
G75*
G02*
X46858200Y42450000I-66800J0D01*
G01*
G37*
G36*
G01*
X45558200Y42450000D02*
X45291800Y42450000D01*
G75*
G02*
X45225000Y42516800I0J66800D01*
G01*
X45225000Y43083200D01*
G75*
G02*
X45291800Y43150000I66800J0D01*
G01*
X45558200Y43150000D01*
G75*
G02*
X45625000Y43083200I0J-66800D01*
G01*
X45625000Y42516800D01*
G75*
G02*
X45558200Y42450000I-66800J0D01*
G01*
G37*
G36*
G01*
X46858200Y39650000D02*
X46591800Y39650000D01*
G75*
G02*
X46525000Y39716800I0J66800D01*
G01*
X46525000Y40283200D01*
G75*
G02*
X46591800Y40350000I66800J0D01*
G01*
X46858200Y40350000D01*
G75*
G02*
X46925000Y40283200I0J-66800D01*
G01*
X46925000Y39716800D01*
G75*
G02*
X46858200Y39650000I-66800J0D01*
G01*
G37*
G36*
G01*
X46208200Y39650000D02*
X45941800Y39650000D01*
G75*
G02*
X45875000Y39716800I0J66800D01*
G01*
X45875000Y40283200D01*
G75*
G02*
X45941800Y40350000I66800J0D01*
G01*
X46208200Y40350000D01*
G75*
G02*
X46275000Y40283200I0J-66800D01*
G01*
X46275000Y39716800D01*
G75*
G02*
X46208200Y39650000I-66800J0D01*
G01*
G37*
G36*
G01*
X45558200Y39650000D02*
X45291800Y39650000D01*
G75*
G02*
X45225000Y39716800I0J66800D01*
G01*
X45225000Y40283200D01*
G75*
G02*
X45291800Y40350000I66800J0D01*
G01*
X45558200Y40350000D01*
G75*
G02*
X45625000Y40283200I0J-66800D01*
G01*
X45625000Y39716800D01*
G75*
G02*
X45558200Y39650000I-66800J0D01*
G01*
G37*
G36*
G01*
X44908200Y39650000D02*
X44641800Y39650000D01*
G75*
G02*
X44575000Y39716800I0J66800D01*
G01*
X44575000Y40283200D01*
G75*
G02*
X44641800Y40350000I66800J0D01*
G01*
X44908200Y40350000D01*
G75*
G02*
X44975000Y40283200I0J-66800D01*
G01*
X44975000Y39716800D01*
G75*
G02*
X44908200Y39650000I-66800J0D01*
G01*
G37*
G36*
G01*
X46947300Y40550000D02*
X44552700Y40550000D01*
G75*
G02*
X44500000Y40602700I0J52700D01*
G01*
X44500000Y42197300D01*
G75*
G02*
X44552700Y42250000I52700J0D01*
G01*
X46947300Y42250000D01*
G75*
G02*
X47000000Y42197300I0J-52700D01*
G01*
X47000000Y40602700D01*
G75*
G02*
X46947300Y40550000I-52700J0D01*
G01*
G37*
%TD*%
%TO.C,U10*%
G36*
G01*
X13708200Y42400000D02*
X13441800Y42400000D01*
G75*
G02*
X13375000Y42466800I0J66800D01*
G01*
X13375000Y43033200D01*
G75*
G02*
X13441800Y43100000I66800J0D01*
G01*
X13708200Y43100000D01*
G75*
G02*
X13775000Y43033200I0J-66800D01*
G01*
X13775000Y42466800D01*
G75*
G02*
X13708200Y42400000I-66800J0D01*
G01*
G37*
G36*
G01*
X15008200Y42400000D02*
X14741800Y42400000D01*
G75*
G02*
X14675000Y42466800I0J66800D01*
G01*
X14675000Y43033200D01*
G75*
G02*
X14741800Y43100000I66800J0D01*
G01*
X15008200Y43100000D01*
G75*
G02*
X15075000Y43033200I0J-66800D01*
G01*
X15075000Y42466800D01*
G75*
G02*
X15008200Y42400000I-66800J0D01*
G01*
G37*
G36*
G01*
X15658200Y42400000D02*
X15391800Y42400000D01*
G75*
G02*
X15325000Y42466800I0J66800D01*
G01*
X15325000Y43033200D01*
G75*
G02*
X15391800Y43100000I66800J0D01*
G01*
X15658200Y43100000D01*
G75*
G02*
X15725000Y43033200I0J-66800D01*
G01*
X15725000Y42466800D01*
G75*
G02*
X15658200Y42400000I-66800J0D01*
G01*
G37*
G36*
G01*
X14358200Y42400000D02*
X14091800Y42400000D01*
G75*
G02*
X14025000Y42466800I0J66800D01*
G01*
X14025000Y43033200D01*
G75*
G02*
X14091800Y43100000I66800J0D01*
G01*
X14358200Y43100000D01*
G75*
G02*
X14425000Y43033200I0J-66800D01*
G01*
X14425000Y42466800D01*
G75*
G02*
X14358200Y42400000I-66800J0D01*
G01*
G37*
G36*
G01*
X15658200Y39600000D02*
X15391800Y39600000D01*
G75*
G02*
X15325000Y39666800I0J66800D01*
G01*
X15325000Y40233200D01*
G75*
G02*
X15391800Y40300000I66800J0D01*
G01*
X15658200Y40300000D01*
G75*
G02*
X15725000Y40233200I0J-66800D01*
G01*
X15725000Y39666800D01*
G75*
G02*
X15658200Y39600000I-66800J0D01*
G01*
G37*
G36*
G01*
X15008200Y39600000D02*
X14741800Y39600000D01*
G75*
G02*
X14675000Y39666800I0J66800D01*
G01*
X14675000Y40233200D01*
G75*
G02*
X14741800Y40300000I66800J0D01*
G01*
X15008200Y40300000D01*
G75*
G02*
X15075000Y40233200I0J-66800D01*
G01*
X15075000Y39666800D01*
G75*
G02*
X15008200Y39600000I-66800J0D01*
G01*
G37*
G36*
G01*
X14358200Y39600000D02*
X14091800Y39600000D01*
G75*
G02*
X14025000Y39666800I0J66800D01*
G01*
X14025000Y40233200D01*
G75*
G02*
X14091800Y40300000I66800J0D01*
G01*
X14358200Y40300000D01*
G75*
G02*
X14425000Y40233200I0J-66800D01*
G01*
X14425000Y39666800D01*
G75*
G02*
X14358200Y39600000I-66800J0D01*
G01*
G37*
G36*
G01*
X13708200Y39600000D02*
X13441800Y39600000D01*
G75*
G02*
X13375000Y39666800I0J66800D01*
G01*
X13375000Y40233200D01*
G75*
G02*
X13441800Y40300000I66800J0D01*
G01*
X13708200Y40300000D01*
G75*
G02*
X13775000Y40233200I0J-66800D01*
G01*
X13775000Y39666800D01*
G75*
G02*
X13708200Y39600000I-66800J0D01*
G01*
G37*
G36*
G01*
X15747300Y40500000D02*
X13352700Y40500000D01*
G75*
G02*
X13300000Y40552700I0J52700D01*
G01*
X13300000Y42147300D01*
G75*
G02*
X13352700Y42200000I52700J0D01*
G01*
X15747300Y42200000D01*
G75*
G02*
X15800000Y42147300I0J-52700D01*
G01*
X15800000Y40552700D01*
G75*
G02*
X15747300Y40500000I-52700J0D01*
G01*
G37*
%TD*%
%TO.C,U9*%
G36*
G01*
X58758200Y42450000D02*
X58491800Y42450000D01*
G75*
G02*
X58425000Y42516800I0J66800D01*
G01*
X58425000Y43083200D01*
G75*
G02*
X58491800Y43150000I66800J0D01*
G01*
X58758200Y43150000D01*
G75*
G02*
X58825000Y43083200I0J-66800D01*
G01*
X58825000Y42516800D01*
G75*
G02*
X58758200Y42450000I-66800J0D01*
G01*
G37*
G36*
G01*
X60058200Y42450000D02*
X59791800Y42450000D01*
G75*
G02*
X59725000Y42516800I0J66800D01*
G01*
X59725000Y43083200D01*
G75*
G02*
X59791800Y43150000I66800J0D01*
G01*
X60058200Y43150000D01*
G75*
G02*
X60125000Y43083200I0J-66800D01*
G01*
X60125000Y42516800D01*
G75*
G02*
X60058200Y42450000I-66800J0D01*
G01*
G37*
G36*
G01*
X60708200Y42450000D02*
X60441800Y42450000D01*
G75*
G02*
X60375000Y42516800I0J66800D01*
G01*
X60375000Y43083200D01*
G75*
G02*
X60441800Y43150000I66800J0D01*
G01*
X60708200Y43150000D01*
G75*
G02*
X60775000Y43083200I0J-66800D01*
G01*
X60775000Y42516800D01*
G75*
G02*
X60708200Y42450000I-66800J0D01*
G01*
G37*
G36*
G01*
X59408200Y42450000D02*
X59141800Y42450000D01*
G75*
G02*
X59075000Y42516800I0J66800D01*
G01*
X59075000Y43083200D01*
G75*
G02*
X59141800Y43150000I66800J0D01*
G01*
X59408200Y43150000D01*
G75*
G02*
X59475000Y43083200I0J-66800D01*
G01*
X59475000Y42516800D01*
G75*
G02*
X59408200Y42450000I-66800J0D01*
G01*
G37*
G36*
G01*
X60708200Y39650000D02*
X60441800Y39650000D01*
G75*
G02*
X60375000Y39716800I0J66800D01*
G01*
X60375000Y40283200D01*
G75*
G02*
X60441800Y40350000I66800J0D01*
G01*
X60708200Y40350000D01*
G75*
G02*
X60775000Y40283200I0J-66800D01*
G01*
X60775000Y39716800D01*
G75*
G02*
X60708200Y39650000I-66800J0D01*
G01*
G37*
G36*
G01*
X60058200Y39650000D02*
X59791800Y39650000D01*
G75*
G02*
X59725000Y39716800I0J66800D01*
G01*
X59725000Y40283200D01*
G75*
G02*
X59791800Y40350000I66800J0D01*
G01*
X60058200Y40350000D01*
G75*
G02*
X60125000Y40283200I0J-66800D01*
G01*
X60125000Y39716800D01*
G75*
G02*
X60058200Y39650000I-66800J0D01*
G01*
G37*
G36*
G01*
X59408200Y39650000D02*
X59141800Y39650000D01*
G75*
G02*
X59075000Y39716800I0J66800D01*
G01*
X59075000Y40283200D01*
G75*
G02*
X59141800Y40350000I66800J0D01*
G01*
X59408200Y40350000D01*
G75*
G02*
X59475000Y40283200I0J-66800D01*
G01*
X59475000Y39716800D01*
G75*
G02*
X59408200Y39650000I-66800J0D01*
G01*
G37*
G36*
G01*
X58758200Y39650000D02*
X58491800Y39650000D01*
G75*
G02*
X58425000Y39716800I0J66800D01*
G01*
X58425000Y40283200D01*
G75*
G02*
X58491800Y40350000I66800J0D01*
G01*
X58758200Y40350000D01*
G75*
G02*
X58825000Y40283200I0J-66800D01*
G01*
X58825000Y39716800D01*
G75*
G02*
X58758200Y39650000I-66800J0D01*
G01*
G37*
G36*
G01*
X60797300Y40550000D02*
X58402700Y40550000D01*
G75*
G02*
X58350000Y40602700I0J52700D01*
G01*
X58350000Y42197300D01*
G75*
G02*
X58402700Y42250000I52700J0D01*
G01*
X60797300Y42250000D01*
G75*
G02*
X60850000Y42197300I0J-52700D01*
G01*
X60850000Y40602700D01*
G75*
G02*
X60797300Y40550000I-52700J0D01*
G01*
G37*
%TD*%
%TO.C,U8*%
G36*
G01*
X62258200Y42450000D02*
X61991800Y42450000D01*
G75*
G02*
X61925000Y42516800I0J66800D01*
G01*
X61925000Y43083200D01*
G75*
G02*
X61991800Y43150000I66800J0D01*
G01*
X62258200Y43150000D01*
G75*
G02*
X62325000Y43083200I0J-66800D01*
G01*
X62325000Y42516800D01*
G75*
G02*
X62258200Y42450000I-66800J0D01*
G01*
G37*
G36*
G01*
X63558200Y42450000D02*
X63291800Y42450000D01*
G75*
G02*
X63225000Y42516800I0J66800D01*
G01*
X63225000Y43083200D01*
G75*
G02*
X63291800Y43150000I66800J0D01*
G01*
X63558200Y43150000D01*
G75*
G02*
X63625000Y43083200I0J-66800D01*
G01*
X63625000Y42516800D01*
G75*
G02*
X63558200Y42450000I-66800J0D01*
G01*
G37*
G36*
G01*
X64208200Y42450000D02*
X63941800Y42450000D01*
G75*
G02*
X63875000Y42516800I0J66800D01*
G01*
X63875000Y43083200D01*
G75*
G02*
X63941800Y43150000I66800J0D01*
G01*
X64208200Y43150000D01*
G75*
G02*
X64275000Y43083200I0J-66800D01*
G01*
X64275000Y42516800D01*
G75*
G02*
X64208200Y42450000I-66800J0D01*
G01*
G37*
G36*
G01*
X62908200Y42450000D02*
X62641800Y42450000D01*
G75*
G02*
X62575000Y42516800I0J66800D01*
G01*
X62575000Y43083200D01*
G75*
G02*
X62641800Y43150000I66800J0D01*
G01*
X62908200Y43150000D01*
G75*
G02*
X62975000Y43083200I0J-66800D01*
G01*
X62975000Y42516800D01*
G75*
G02*
X62908200Y42450000I-66800J0D01*
G01*
G37*
G36*
G01*
X64208200Y39650000D02*
X63941800Y39650000D01*
G75*
G02*
X63875000Y39716800I0J66800D01*
G01*
X63875000Y40283200D01*
G75*
G02*
X63941800Y40350000I66800J0D01*
G01*
X64208200Y40350000D01*
G75*
G02*
X64275000Y40283200I0J-66800D01*
G01*
X64275000Y39716800D01*
G75*
G02*
X64208200Y39650000I-66800J0D01*
G01*
G37*
G36*
G01*
X63558200Y39650000D02*
X63291800Y39650000D01*
G75*
G02*
X63225000Y39716800I0J66800D01*
G01*
X63225000Y40283200D01*
G75*
G02*
X63291800Y40350000I66800J0D01*
G01*
X63558200Y40350000D01*
G75*
G02*
X63625000Y40283200I0J-66800D01*
G01*
X63625000Y39716800D01*
G75*
G02*
X63558200Y39650000I-66800J0D01*
G01*
G37*
G36*
G01*
X62908200Y39650000D02*
X62641800Y39650000D01*
G75*
G02*
X62575000Y39716800I0J66800D01*
G01*
X62575000Y40283200D01*
G75*
G02*
X62641800Y40350000I66800J0D01*
G01*
X62908200Y40350000D01*
G75*
G02*
X62975000Y40283200I0J-66800D01*
G01*
X62975000Y39716800D01*
G75*
G02*
X62908200Y39650000I-66800J0D01*
G01*
G37*
G36*
G01*
X62258200Y39650000D02*
X61991800Y39650000D01*
G75*
G02*
X61925000Y39716800I0J66800D01*
G01*
X61925000Y40283200D01*
G75*
G02*
X61991800Y40350000I66800J0D01*
G01*
X62258200Y40350000D01*
G75*
G02*
X62325000Y40283200I0J-66800D01*
G01*
X62325000Y39716800D01*
G75*
G02*
X62258200Y39650000I-66800J0D01*
G01*
G37*
G36*
G01*
X64297300Y40550000D02*
X61902700Y40550000D01*
G75*
G02*
X61850000Y40602700I0J52700D01*
G01*
X61850000Y42197300D01*
G75*
G02*
X61902700Y42250000I52700J0D01*
G01*
X64297300Y42250000D01*
G75*
G02*
X64350000Y42197300I0J-52700D01*
G01*
X64350000Y40602700D01*
G75*
G02*
X64297300Y40550000I-52700J0D01*
G01*
G37*
%TD*%
%TO.C,U7*%
G36*
G01*
X65708200Y42450000D02*
X65441800Y42450000D01*
G75*
G02*
X65375000Y42516800I0J66800D01*
G01*
X65375000Y43083200D01*
G75*
G02*
X65441800Y43150000I66800J0D01*
G01*
X65708200Y43150000D01*
G75*
G02*
X65775000Y43083200I0J-66800D01*
G01*
X65775000Y42516800D01*
G75*
G02*
X65708200Y42450000I-66800J0D01*
G01*
G37*
G36*
G01*
X67008200Y42450000D02*
X66741800Y42450000D01*
G75*
G02*
X66675000Y42516800I0J66800D01*
G01*
X66675000Y43083200D01*
G75*
G02*
X66741800Y43150000I66800J0D01*
G01*
X67008200Y43150000D01*
G75*
G02*
X67075000Y43083200I0J-66800D01*
G01*
X67075000Y42516800D01*
G75*
G02*
X67008200Y42450000I-66800J0D01*
G01*
G37*
G36*
G01*
X67658200Y42450000D02*
X67391800Y42450000D01*
G75*
G02*
X67325000Y42516800I0J66800D01*
G01*
X67325000Y43083200D01*
G75*
G02*
X67391800Y43150000I66800J0D01*
G01*
X67658200Y43150000D01*
G75*
G02*
X67725000Y43083200I0J-66800D01*
G01*
X67725000Y42516800D01*
G75*
G02*
X67658200Y42450000I-66800J0D01*
G01*
G37*
G36*
G01*
X66358200Y42450000D02*
X66091800Y42450000D01*
G75*
G02*
X66025000Y42516800I0J66800D01*
G01*
X66025000Y43083200D01*
G75*
G02*
X66091800Y43150000I66800J0D01*
G01*
X66358200Y43150000D01*
G75*
G02*
X66425000Y43083200I0J-66800D01*
G01*
X66425000Y42516800D01*
G75*
G02*
X66358200Y42450000I-66800J0D01*
G01*
G37*
G36*
G01*
X67658200Y39650000D02*
X67391800Y39650000D01*
G75*
G02*
X67325000Y39716800I0J66800D01*
G01*
X67325000Y40283200D01*
G75*
G02*
X67391800Y40350000I66800J0D01*
G01*
X67658200Y40350000D01*
G75*
G02*
X67725000Y40283200I0J-66800D01*
G01*
X67725000Y39716800D01*
G75*
G02*
X67658200Y39650000I-66800J0D01*
G01*
G37*
G36*
G01*
X67008200Y39650000D02*
X66741800Y39650000D01*
G75*
G02*
X66675000Y39716800I0J66800D01*
G01*
X66675000Y40283200D01*
G75*
G02*
X66741800Y40350000I66800J0D01*
G01*
X67008200Y40350000D01*
G75*
G02*
X67075000Y40283200I0J-66800D01*
G01*
X67075000Y39716800D01*
G75*
G02*
X67008200Y39650000I-66800J0D01*
G01*
G37*
G36*
G01*
X66358200Y39650000D02*
X66091800Y39650000D01*
G75*
G02*
X66025000Y39716800I0J66800D01*
G01*
X66025000Y40283200D01*
G75*
G02*
X66091800Y40350000I66800J0D01*
G01*
X66358200Y40350000D01*
G75*
G02*
X66425000Y40283200I0J-66800D01*
G01*
X66425000Y39716800D01*
G75*
G02*
X66358200Y39650000I-66800J0D01*
G01*
G37*
G36*
G01*
X65708200Y39650000D02*
X65441800Y39650000D01*
G75*
G02*
X65375000Y39716800I0J66800D01*
G01*
X65375000Y40283200D01*
G75*
G02*
X65441800Y40350000I66800J0D01*
G01*
X65708200Y40350000D01*
G75*
G02*
X65775000Y40283200I0J-66800D01*
G01*
X65775000Y39716800D01*
G75*
G02*
X65708200Y39650000I-66800J0D01*
G01*
G37*
G36*
G01*
X67747300Y40550000D02*
X65352700Y40550000D01*
G75*
G02*
X65300000Y40602700I0J52700D01*
G01*
X65300000Y42197300D01*
G75*
G02*
X65352700Y42250000I52700J0D01*
G01*
X67747300Y42250000D01*
G75*
G02*
X67800000Y42197300I0J-52700D01*
G01*
X67800000Y40602700D01*
G75*
G02*
X67747300Y40550000I-52700J0D01*
G01*
G37*
%TD*%
%TO.C,U6*%
G36*
G01*
X41458200Y42450000D02*
X41191800Y42450000D01*
G75*
G02*
X41125000Y42516800I0J66800D01*
G01*
X41125000Y43083200D01*
G75*
G02*
X41191800Y43150000I66800J0D01*
G01*
X41458200Y43150000D01*
G75*
G02*
X41525000Y43083200I0J-66800D01*
G01*
X41525000Y42516800D01*
G75*
G02*
X41458200Y42450000I-66800J0D01*
G01*
G37*
G36*
G01*
X42758200Y42450000D02*
X42491800Y42450000D01*
G75*
G02*
X42425000Y42516800I0J66800D01*
G01*
X42425000Y43083200D01*
G75*
G02*
X42491800Y43150000I66800J0D01*
G01*
X42758200Y43150000D01*
G75*
G02*
X42825000Y43083200I0J-66800D01*
G01*
X42825000Y42516800D01*
G75*
G02*
X42758200Y42450000I-66800J0D01*
G01*
G37*
G36*
G01*
X43408200Y42450000D02*
X43141800Y42450000D01*
G75*
G02*
X43075000Y42516800I0J66800D01*
G01*
X43075000Y43083200D01*
G75*
G02*
X43141800Y43150000I66800J0D01*
G01*
X43408200Y43150000D01*
G75*
G02*
X43475000Y43083200I0J-66800D01*
G01*
X43475000Y42516800D01*
G75*
G02*
X43408200Y42450000I-66800J0D01*
G01*
G37*
G36*
G01*
X42108200Y42450000D02*
X41841800Y42450000D01*
G75*
G02*
X41775000Y42516800I0J66800D01*
G01*
X41775000Y43083200D01*
G75*
G02*
X41841800Y43150000I66800J0D01*
G01*
X42108200Y43150000D01*
G75*
G02*
X42175000Y43083200I0J-66800D01*
G01*
X42175000Y42516800D01*
G75*
G02*
X42108200Y42450000I-66800J0D01*
G01*
G37*
G36*
G01*
X43408200Y39650000D02*
X43141800Y39650000D01*
G75*
G02*
X43075000Y39716800I0J66800D01*
G01*
X43075000Y40283200D01*
G75*
G02*
X43141800Y40350000I66800J0D01*
G01*
X43408200Y40350000D01*
G75*
G02*
X43475000Y40283200I0J-66800D01*
G01*
X43475000Y39716800D01*
G75*
G02*
X43408200Y39650000I-66800J0D01*
G01*
G37*
G36*
G01*
X42758200Y39650000D02*
X42491800Y39650000D01*
G75*
G02*
X42425000Y39716800I0J66800D01*
G01*
X42425000Y40283200D01*
G75*
G02*
X42491800Y40350000I66800J0D01*
G01*
X42758200Y40350000D01*
G75*
G02*
X42825000Y40283200I0J-66800D01*
G01*
X42825000Y39716800D01*
G75*
G02*
X42758200Y39650000I-66800J0D01*
G01*
G37*
G36*
G01*
X42108200Y39650000D02*
X41841800Y39650000D01*
G75*
G02*
X41775000Y39716800I0J66800D01*
G01*
X41775000Y40283200D01*
G75*
G02*
X41841800Y40350000I66800J0D01*
G01*
X42108200Y40350000D01*
G75*
G02*
X42175000Y40283200I0J-66800D01*
G01*
X42175000Y39716800D01*
G75*
G02*
X42108200Y39650000I-66800J0D01*
G01*
G37*
G36*
G01*
X41458200Y39650000D02*
X41191800Y39650000D01*
G75*
G02*
X41125000Y39716800I0J66800D01*
G01*
X41125000Y40283200D01*
G75*
G02*
X41191800Y40350000I66800J0D01*
G01*
X41458200Y40350000D01*
G75*
G02*
X41525000Y40283200I0J-66800D01*
G01*
X41525000Y39716800D01*
G75*
G02*
X41458200Y39650000I-66800J0D01*
G01*
G37*
G36*
G01*
X43497300Y40550000D02*
X41102700Y40550000D01*
G75*
G02*
X41050000Y40602700I0J52700D01*
G01*
X41050000Y42197300D01*
G75*
G02*
X41102700Y42250000I52700J0D01*
G01*
X43497300Y42250000D01*
G75*
G02*
X43550000Y42197300I0J-52700D01*
G01*
X43550000Y40602700D01*
G75*
G02*
X43497300Y40550000I-52700J0D01*
G01*
G37*
%TD*%
%TO.C,U5*%
G36*
G01*
X20658200Y42400000D02*
X20391800Y42400000D01*
G75*
G02*
X20325000Y42466800I0J66800D01*
G01*
X20325000Y43033200D01*
G75*
G02*
X20391800Y43100000I66800J0D01*
G01*
X20658200Y43100000D01*
G75*
G02*
X20725000Y43033200I0J-66800D01*
G01*
X20725000Y42466800D01*
G75*
G02*
X20658200Y42400000I-66800J0D01*
G01*
G37*
G36*
G01*
X21958200Y42400000D02*
X21691800Y42400000D01*
G75*
G02*
X21625000Y42466800I0J66800D01*
G01*
X21625000Y43033200D01*
G75*
G02*
X21691800Y43100000I66800J0D01*
G01*
X21958200Y43100000D01*
G75*
G02*
X22025000Y43033200I0J-66800D01*
G01*
X22025000Y42466800D01*
G75*
G02*
X21958200Y42400000I-66800J0D01*
G01*
G37*
G36*
G01*
X22608200Y42400000D02*
X22341800Y42400000D01*
G75*
G02*
X22275000Y42466800I0J66800D01*
G01*
X22275000Y43033200D01*
G75*
G02*
X22341800Y43100000I66800J0D01*
G01*
X22608200Y43100000D01*
G75*
G02*
X22675000Y43033200I0J-66800D01*
G01*
X22675000Y42466800D01*
G75*
G02*
X22608200Y42400000I-66800J0D01*
G01*
G37*
G36*
G01*
X21308200Y42400000D02*
X21041800Y42400000D01*
G75*
G02*
X20975000Y42466800I0J66800D01*
G01*
X20975000Y43033200D01*
G75*
G02*
X21041800Y43100000I66800J0D01*
G01*
X21308200Y43100000D01*
G75*
G02*
X21375000Y43033200I0J-66800D01*
G01*
X21375000Y42466800D01*
G75*
G02*
X21308200Y42400000I-66800J0D01*
G01*
G37*
G36*
G01*
X22608200Y39600000D02*
X22341800Y39600000D01*
G75*
G02*
X22275000Y39666800I0J66800D01*
G01*
X22275000Y40233200D01*
G75*
G02*
X22341800Y40300000I66800J0D01*
G01*
X22608200Y40300000D01*
G75*
G02*
X22675000Y40233200I0J-66800D01*
G01*
X22675000Y39666800D01*
G75*
G02*
X22608200Y39600000I-66800J0D01*
G01*
G37*
G36*
G01*
X21958200Y39600000D02*
X21691800Y39600000D01*
G75*
G02*
X21625000Y39666800I0J66800D01*
G01*
X21625000Y40233200D01*
G75*
G02*
X21691800Y40300000I66800J0D01*
G01*
X21958200Y40300000D01*
G75*
G02*
X22025000Y40233200I0J-66800D01*
G01*
X22025000Y39666800D01*
G75*
G02*
X21958200Y39600000I-66800J0D01*
G01*
G37*
G36*
G01*
X21308200Y39600000D02*
X21041800Y39600000D01*
G75*
G02*
X20975000Y39666800I0J66800D01*
G01*
X20975000Y40233200D01*
G75*
G02*
X21041800Y40300000I66800J0D01*
G01*
X21308200Y40300000D01*
G75*
G02*
X21375000Y40233200I0J-66800D01*
G01*
X21375000Y39666800D01*
G75*
G02*
X21308200Y39600000I-66800J0D01*
G01*
G37*
G36*
G01*
X20658200Y39600000D02*
X20391800Y39600000D01*
G75*
G02*
X20325000Y39666800I0J66800D01*
G01*
X20325000Y40233200D01*
G75*
G02*
X20391800Y40300000I66800J0D01*
G01*
X20658200Y40300000D01*
G75*
G02*
X20725000Y40233200I0J-66800D01*
G01*
X20725000Y39666800D01*
G75*
G02*
X20658200Y39600000I-66800J0D01*
G01*
G37*
G36*
G01*
X22697300Y40500000D02*
X20302700Y40500000D01*
G75*
G02*
X20250000Y40552700I0J52700D01*
G01*
X20250000Y42147300D01*
G75*
G02*
X20302700Y42200000I52700J0D01*
G01*
X22697300Y42200000D01*
G75*
G02*
X22750000Y42147300I0J-52700D01*
G01*
X22750000Y40552700D01*
G75*
G02*
X22697300Y40500000I-52700J0D01*
G01*
G37*
%TD*%
%TO.C,U4*%
G36*
G01*
X17158200Y42400000D02*
X16891800Y42400000D01*
G75*
G02*
X16825000Y42466800I0J66800D01*
G01*
X16825000Y43033200D01*
G75*
G02*
X16891800Y43100000I66800J0D01*
G01*
X17158200Y43100000D01*
G75*
G02*
X17225000Y43033200I0J-66800D01*
G01*
X17225000Y42466800D01*
G75*
G02*
X17158200Y42400000I-66800J0D01*
G01*
G37*
G36*
G01*
X18458200Y42400000D02*
X18191800Y42400000D01*
G75*
G02*
X18125000Y42466800I0J66800D01*
G01*
X18125000Y43033200D01*
G75*
G02*
X18191800Y43100000I66800J0D01*
G01*
X18458200Y43100000D01*
G75*
G02*
X18525000Y43033200I0J-66800D01*
G01*
X18525000Y42466800D01*
G75*
G02*
X18458200Y42400000I-66800J0D01*
G01*
G37*
G36*
G01*
X19108200Y42400000D02*
X18841800Y42400000D01*
G75*
G02*
X18775000Y42466800I0J66800D01*
G01*
X18775000Y43033200D01*
G75*
G02*
X18841800Y43100000I66800J0D01*
G01*
X19108200Y43100000D01*
G75*
G02*
X19175000Y43033200I0J-66800D01*
G01*
X19175000Y42466800D01*
G75*
G02*
X19108200Y42400000I-66800J0D01*
G01*
G37*
G36*
G01*
X17808200Y42400000D02*
X17541800Y42400000D01*
G75*
G02*
X17475000Y42466800I0J66800D01*
G01*
X17475000Y43033200D01*
G75*
G02*
X17541800Y43100000I66800J0D01*
G01*
X17808200Y43100000D01*
G75*
G02*
X17875000Y43033200I0J-66800D01*
G01*
X17875000Y42466800D01*
G75*
G02*
X17808200Y42400000I-66800J0D01*
G01*
G37*
G36*
G01*
X19108200Y39600000D02*
X18841800Y39600000D01*
G75*
G02*
X18775000Y39666800I0J66800D01*
G01*
X18775000Y40233200D01*
G75*
G02*
X18841800Y40300000I66800J0D01*
G01*
X19108200Y40300000D01*
G75*
G02*
X19175000Y40233200I0J-66800D01*
G01*
X19175000Y39666800D01*
G75*
G02*
X19108200Y39600000I-66800J0D01*
G01*
G37*
G36*
G01*
X18458200Y39600000D02*
X18191800Y39600000D01*
G75*
G02*
X18125000Y39666800I0J66800D01*
G01*
X18125000Y40233200D01*
G75*
G02*
X18191800Y40300000I66800J0D01*
G01*
X18458200Y40300000D01*
G75*
G02*
X18525000Y40233200I0J-66800D01*
G01*
X18525000Y39666800D01*
G75*
G02*
X18458200Y39600000I-66800J0D01*
G01*
G37*
G36*
G01*
X17808200Y39600000D02*
X17541800Y39600000D01*
G75*
G02*
X17475000Y39666800I0J66800D01*
G01*
X17475000Y40233200D01*
G75*
G02*
X17541800Y40300000I66800J0D01*
G01*
X17808200Y40300000D01*
G75*
G02*
X17875000Y40233200I0J-66800D01*
G01*
X17875000Y39666800D01*
G75*
G02*
X17808200Y39600000I-66800J0D01*
G01*
G37*
G36*
G01*
X17158200Y39600000D02*
X16891800Y39600000D01*
G75*
G02*
X16825000Y39666800I0J66800D01*
G01*
X16825000Y40233200D01*
G75*
G02*
X16891800Y40300000I66800J0D01*
G01*
X17158200Y40300000D01*
G75*
G02*
X17225000Y40233200I0J-66800D01*
G01*
X17225000Y39666800D01*
G75*
G02*
X17158200Y39600000I-66800J0D01*
G01*
G37*
G36*
G01*
X19197300Y40500000D02*
X16802700Y40500000D01*
G75*
G02*
X16750000Y40552700I0J52700D01*
G01*
X16750000Y42147300D01*
G75*
G02*
X16802700Y42200000I52700J0D01*
G01*
X19197300Y42200000D01*
G75*
G02*
X19250000Y42147300I0J-52700D01*
G01*
X19250000Y40552700D01*
G75*
G02*
X19197300Y40500000I-52700J0D01*
G01*
G37*
%TD*%
%TO.C,U3*%
G36*
G01*
X37958200Y42400000D02*
X37691800Y42400000D01*
G75*
G02*
X37625000Y42466800I0J66800D01*
G01*
X37625000Y43033200D01*
G75*
G02*
X37691800Y43100000I66800J0D01*
G01*
X37958200Y43100000D01*
G75*
G02*
X38025000Y43033200I0J-66800D01*
G01*
X38025000Y42466800D01*
G75*
G02*
X37958200Y42400000I-66800J0D01*
G01*
G37*
G36*
G01*
X39258200Y42400000D02*
X38991800Y42400000D01*
G75*
G02*
X38925000Y42466800I0J66800D01*
G01*
X38925000Y43033200D01*
G75*
G02*
X38991800Y43100000I66800J0D01*
G01*
X39258200Y43100000D01*
G75*
G02*
X39325000Y43033200I0J-66800D01*
G01*
X39325000Y42466800D01*
G75*
G02*
X39258200Y42400000I-66800J0D01*
G01*
G37*
G36*
G01*
X39908200Y42400000D02*
X39641800Y42400000D01*
G75*
G02*
X39575000Y42466800I0J66800D01*
G01*
X39575000Y43033200D01*
G75*
G02*
X39641800Y43100000I66800J0D01*
G01*
X39908200Y43100000D01*
G75*
G02*
X39975000Y43033200I0J-66800D01*
G01*
X39975000Y42466800D01*
G75*
G02*
X39908200Y42400000I-66800J0D01*
G01*
G37*
G36*
G01*
X38608200Y42400000D02*
X38341800Y42400000D01*
G75*
G02*
X38275000Y42466800I0J66800D01*
G01*
X38275000Y43033200D01*
G75*
G02*
X38341800Y43100000I66800J0D01*
G01*
X38608200Y43100000D01*
G75*
G02*
X38675000Y43033200I0J-66800D01*
G01*
X38675000Y42466800D01*
G75*
G02*
X38608200Y42400000I-66800J0D01*
G01*
G37*
G36*
G01*
X39908200Y39600000D02*
X39641800Y39600000D01*
G75*
G02*
X39575000Y39666800I0J66800D01*
G01*
X39575000Y40233200D01*
G75*
G02*
X39641800Y40300000I66800J0D01*
G01*
X39908200Y40300000D01*
G75*
G02*
X39975000Y40233200I0J-66800D01*
G01*
X39975000Y39666800D01*
G75*
G02*
X39908200Y39600000I-66800J0D01*
G01*
G37*
G36*
G01*
X39258200Y39600000D02*
X38991800Y39600000D01*
G75*
G02*
X38925000Y39666800I0J66800D01*
G01*
X38925000Y40233200D01*
G75*
G02*
X38991800Y40300000I66800J0D01*
G01*
X39258200Y40300000D01*
G75*
G02*
X39325000Y40233200I0J-66800D01*
G01*
X39325000Y39666800D01*
G75*
G02*
X39258200Y39600000I-66800J0D01*
G01*
G37*
G36*
G01*
X38608200Y39600000D02*
X38341800Y39600000D01*
G75*
G02*
X38275000Y39666800I0J66800D01*
G01*
X38275000Y40233200D01*
G75*
G02*
X38341800Y40300000I66800J0D01*
G01*
X38608200Y40300000D01*
G75*
G02*
X38675000Y40233200I0J-66800D01*
G01*
X38675000Y39666800D01*
G75*
G02*
X38608200Y39600000I-66800J0D01*
G01*
G37*
G36*
G01*
X37958200Y39600000D02*
X37691800Y39600000D01*
G75*
G02*
X37625000Y39666800I0J66800D01*
G01*
X37625000Y40233200D01*
G75*
G02*
X37691800Y40300000I66800J0D01*
G01*
X37958200Y40300000D01*
G75*
G02*
X38025000Y40233200I0J-66800D01*
G01*
X38025000Y39666800D01*
G75*
G02*
X37958200Y39600000I-66800J0D01*
G01*
G37*
G36*
G01*
X39997300Y40500000D02*
X37602700Y40500000D01*
G75*
G02*
X37550000Y40552700I0J52700D01*
G01*
X37550000Y42147300D01*
G75*
G02*
X37602700Y42200000I52700J0D01*
G01*
X39997300Y42200000D01*
G75*
G02*
X40050000Y42147300I0J-52700D01*
G01*
X40050000Y40552700D01*
G75*
G02*
X39997300Y40500000I-52700J0D01*
G01*
G37*
%TD*%
%TO.C,R8*%
G36*
G01*
X63031250Y36000000D02*
X62468750Y36000000D01*
G75*
G02*
X62225000Y36243750I0J243750D01*
G01*
X62225000Y36731250D01*
G75*
G02*
X62468750Y36975000I243750J0D01*
G01*
X63031250Y36975000D01*
G75*
G02*
X63275000Y36731250I0J-243750D01*
G01*
X63275000Y36243750D01*
G75*
G02*
X63031250Y36000000I-243750J0D01*
G01*
G37*
G36*
G01*
X63031250Y34425000D02*
X62468750Y34425000D01*
G75*
G02*
X62225000Y34668750I0J243750D01*
G01*
X62225000Y35156250D01*
G75*
G02*
X62468750Y35400000I243750J0D01*
G01*
X63031250Y35400000D01*
G75*
G02*
X63275000Y35156250I0J-243750D01*
G01*
X63275000Y34668750D01*
G75*
G02*
X63031250Y34425000I-243750J0D01*
G01*
G37*
%TD*%
%TO.C,R7*%
G36*
G01*
X52631250Y36050000D02*
X52068750Y36050000D01*
G75*
G02*
X51825000Y36293750I0J243750D01*
G01*
X51825000Y36781250D01*
G75*
G02*
X52068750Y37025000I243750J0D01*
G01*
X52631250Y37025000D01*
G75*
G02*
X52875000Y36781250I0J-243750D01*
G01*
X52875000Y36293750D01*
G75*
G02*
X52631250Y36050000I-243750J0D01*
G01*
G37*
G36*
G01*
X52631250Y34475000D02*
X52068750Y34475000D01*
G75*
G02*
X51825000Y34718750I0J243750D01*
G01*
X51825000Y35206250D01*
G75*
G02*
X52068750Y35450000I243750J0D01*
G01*
X52631250Y35450000D01*
G75*
G02*
X52875000Y35206250I0J-243750D01*
G01*
X52875000Y34718750D01*
G75*
G02*
X52631250Y34475000I-243750J0D01*
G01*
G37*
%TD*%
%TO.C,R6*%
G36*
G01*
X42381250Y36050000D02*
X41818750Y36050000D01*
G75*
G02*
X41575000Y36293750I0J243750D01*
G01*
X41575000Y36781250D01*
G75*
G02*
X41818750Y37025000I243750J0D01*
G01*
X42381250Y37025000D01*
G75*
G02*
X42625000Y36781250I0J-243750D01*
G01*
X42625000Y36293750D01*
G75*
G02*
X42381250Y36050000I-243750J0D01*
G01*
G37*
G36*
G01*
X42381250Y34475000D02*
X41818750Y34475000D01*
G75*
G02*
X41575000Y34718750I0J243750D01*
G01*
X41575000Y35206250D01*
G75*
G02*
X41818750Y35450000I243750J0D01*
G01*
X42381250Y35450000D01*
G75*
G02*
X42625000Y35206250I0J-243750D01*
G01*
X42625000Y34718750D01*
G75*
G02*
X42381250Y34475000I-243750J0D01*
G01*
G37*
%TD*%
%TO.C,R5*%
G36*
G01*
X31781250Y36050000D02*
X31218750Y36050000D01*
G75*
G02*
X30975000Y36293750I0J243750D01*
G01*
X30975000Y36781250D01*
G75*
G02*
X31218750Y37025000I243750J0D01*
G01*
X31781250Y37025000D01*
G75*
G02*
X32025000Y36781250I0J-243750D01*
G01*
X32025000Y36293750D01*
G75*
G02*
X31781250Y36050000I-243750J0D01*
G01*
G37*
G36*
G01*
X31781250Y34475000D02*
X31218750Y34475000D01*
G75*
G02*
X30975000Y34718750I0J243750D01*
G01*
X30975000Y35206250D01*
G75*
G02*
X31218750Y35450000I243750J0D01*
G01*
X31781250Y35450000D01*
G75*
G02*
X32025000Y35206250I0J-243750D01*
G01*
X32025000Y34718750D01*
G75*
G02*
X31781250Y34475000I-243750J0D01*
G01*
G37*
%TD*%
%TO.C,R4*%
G36*
G01*
X21481250Y36100000D02*
X20918750Y36100000D01*
G75*
G02*
X20675000Y36343750I0J243750D01*
G01*
X20675000Y36831250D01*
G75*
G02*
X20918750Y37075000I243750J0D01*
G01*
X21481250Y37075000D01*
G75*
G02*
X21725000Y36831250I0J-243750D01*
G01*
X21725000Y36343750D01*
G75*
G02*
X21481250Y36100000I-243750J0D01*
G01*
G37*
G36*
G01*
X21481250Y34525000D02*
X20918750Y34525000D01*
G75*
G02*
X20675000Y34768750I0J243750D01*
G01*
X20675000Y35256250D01*
G75*
G02*
X20918750Y35500000I243750J0D01*
G01*
X21481250Y35500000D01*
G75*
G02*
X21725000Y35256250I0J-243750D01*
G01*
X21725000Y34768750D01*
G75*
G02*
X21481250Y34525000I-243750J0D01*
G01*
G37*
%TD*%
%TO.C,R3*%
G36*
G01*
X10981250Y36100000D02*
X10418750Y36100000D01*
G75*
G02*
X10175000Y36343750I0J243750D01*
G01*
X10175000Y36831250D01*
G75*
G02*
X10418750Y37075000I243750J0D01*
G01*
X10981250Y37075000D01*
G75*
G02*
X11225000Y36831250I0J-243750D01*
G01*
X11225000Y36343750D01*
G75*
G02*
X10981250Y36100000I-243750J0D01*
G01*
G37*
G36*
G01*
X10981250Y34525000D02*
X10418750Y34525000D01*
G75*
G02*
X10175000Y34768750I0J243750D01*
G01*
X10175000Y35256250D01*
G75*
G02*
X10418750Y35500000I243750J0D01*
G01*
X10981250Y35500000D01*
G75*
G02*
X11225000Y35256250I0J-243750D01*
G01*
X11225000Y34768750D01*
G75*
G02*
X10981250Y34525000I-243750J0D01*
G01*
G37*
%TD*%
%TO.C,D72*%
G36*
G01*
X64252500Y45710000D02*
X64647500Y45710000D01*
G75*
G02*
X64820000Y45537500I0J-172500D01*
G01*
X64820000Y45192500D01*
G75*
G02*
X64647500Y45020000I-172500J0D01*
G01*
X64252500Y45020000D01*
G75*
G02*
X64080000Y45192500I0J172500D01*
G01*
X64080000Y45537500D01*
G75*
G02*
X64252500Y45710000I172500J0D01*
G01*
G37*
G36*
G01*
X64252500Y46680000D02*
X64647500Y46680000D01*
G75*
G02*
X64820000Y46507500I0J-172500D01*
G01*
X64820000Y46162500D01*
G75*
G02*
X64647500Y45990000I-172500J0D01*
G01*
X64252500Y45990000D01*
G75*
G02*
X64080000Y46162500I0J172500D01*
G01*
X64080000Y46507500D01*
G75*
G02*
X64252500Y46680000I172500J0D01*
G01*
G37*
%TD*%
%TO.C,D71*%
G36*
G01*
X63152500Y45710000D02*
X63547500Y45710000D01*
G75*
G02*
X63720000Y45537500I0J-172500D01*
G01*
X63720000Y45192500D01*
G75*
G02*
X63547500Y45020000I-172500J0D01*
G01*
X63152500Y45020000D01*
G75*
G02*
X62980000Y45192500I0J172500D01*
G01*
X62980000Y45537500D01*
G75*
G02*
X63152500Y45710000I172500J0D01*
G01*
G37*
G36*
G01*
X63152500Y46680000D02*
X63547500Y46680000D01*
G75*
G02*
X63720000Y46507500I0J-172500D01*
G01*
X63720000Y46162500D01*
G75*
G02*
X63547500Y45990000I-172500J0D01*
G01*
X63152500Y45990000D01*
G75*
G02*
X62980000Y46162500I0J172500D01*
G01*
X62980000Y46507500D01*
G75*
G02*
X63152500Y46680000I172500J0D01*
G01*
G37*
%TD*%
%TO.C,D68*%
G36*
G01*
X67702500Y45710000D02*
X68097500Y45710000D01*
G75*
G02*
X68270000Y45537500I0J-172500D01*
G01*
X68270000Y45192500D01*
G75*
G02*
X68097500Y45020000I-172500J0D01*
G01*
X67702500Y45020000D01*
G75*
G02*
X67530000Y45192500I0J172500D01*
G01*
X67530000Y45537500D01*
G75*
G02*
X67702500Y45710000I172500J0D01*
G01*
G37*
G36*
G01*
X67702500Y46680000D02*
X68097500Y46680000D01*
G75*
G02*
X68270000Y46507500I0J-172500D01*
G01*
X68270000Y46162500D01*
G75*
G02*
X68097500Y45990000I-172500J0D01*
G01*
X67702500Y45990000D01*
G75*
G02*
X67530000Y46162500I0J172500D01*
G01*
X67530000Y46507500D01*
G75*
G02*
X67702500Y46680000I172500J0D01*
G01*
G37*
%TD*%
%TO.C,D67*%
G36*
G01*
X66602500Y45710000D02*
X66997500Y45710000D01*
G75*
G02*
X67170000Y45537500I0J-172500D01*
G01*
X67170000Y45192500D01*
G75*
G02*
X66997500Y45020000I-172500J0D01*
G01*
X66602500Y45020000D01*
G75*
G02*
X66430000Y45192500I0J172500D01*
G01*
X66430000Y45537500D01*
G75*
G02*
X66602500Y45710000I172500J0D01*
G01*
G37*
G36*
G01*
X66602500Y46680000D02*
X66997500Y46680000D01*
G75*
G02*
X67170000Y46507500I0J-172500D01*
G01*
X67170000Y46162500D01*
G75*
G02*
X66997500Y45990000I-172500J0D01*
G01*
X66602500Y45990000D01*
G75*
G02*
X66430000Y46162500I0J172500D01*
G01*
X66430000Y46507500D01*
G75*
G02*
X66602500Y46680000I172500J0D01*
G01*
G37*
%TD*%
%TO.C,D64*%
G36*
G01*
X71152500Y45710000D02*
X71547500Y45710000D01*
G75*
G02*
X71720000Y45537500I0J-172500D01*
G01*
X71720000Y45192500D01*
G75*
G02*
X71547500Y45020000I-172500J0D01*
G01*
X71152500Y45020000D01*
G75*
G02*
X70980000Y45192500I0J172500D01*
G01*
X70980000Y45537500D01*
G75*
G02*
X71152500Y45710000I172500J0D01*
G01*
G37*
G36*
G01*
X71152500Y46680000D02*
X71547500Y46680000D01*
G75*
G02*
X71720000Y46507500I0J-172500D01*
G01*
X71720000Y46162500D01*
G75*
G02*
X71547500Y45990000I-172500J0D01*
G01*
X71152500Y45990000D01*
G75*
G02*
X70980000Y46162500I0J172500D01*
G01*
X70980000Y46507500D01*
G75*
G02*
X71152500Y46680000I172500J0D01*
G01*
G37*
%TD*%
%TO.C,D63*%
G36*
G01*
X70052500Y45710000D02*
X70447500Y45710000D01*
G75*
G02*
X70620000Y45537500I0J-172500D01*
G01*
X70620000Y45192500D01*
G75*
G02*
X70447500Y45020000I-172500J0D01*
G01*
X70052500Y45020000D01*
G75*
G02*
X69880000Y45192500I0J172500D01*
G01*
X69880000Y45537500D01*
G75*
G02*
X70052500Y45710000I172500J0D01*
G01*
G37*
G36*
G01*
X70052500Y46680000D02*
X70447500Y46680000D01*
G75*
G02*
X70620000Y46507500I0J-172500D01*
G01*
X70620000Y46162500D01*
G75*
G02*
X70447500Y45990000I-172500J0D01*
G01*
X70052500Y45990000D01*
G75*
G02*
X69880000Y46162500I0J172500D01*
G01*
X69880000Y46507500D01*
G75*
G02*
X70052500Y46680000I172500J0D01*
G01*
G37*
%TD*%
%TO.C,D60*%
G36*
G01*
X53852500Y45710000D02*
X54247500Y45710000D01*
G75*
G02*
X54420000Y45537500I0J-172500D01*
G01*
X54420000Y45192500D01*
G75*
G02*
X54247500Y45020000I-172500J0D01*
G01*
X53852500Y45020000D01*
G75*
G02*
X53680000Y45192500I0J172500D01*
G01*
X53680000Y45537500D01*
G75*
G02*
X53852500Y45710000I172500J0D01*
G01*
G37*
G36*
G01*
X53852500Y46680000D02*
X54247500Y46680000D01*
G75*
G02*
X54420000Y46507500I0J-172500D01*
G01*
X54420000Y46162500D01*
G75*
G02*
X54247500Y45990000I-172500J0D01*
G01*
X53852500Y45990000D01*
G75*
G02*
X53680000Y46162500I0J172500D01*
G01*
X53680000Y46507500D01*
G75*
G02*
X53852500Y46680000I172500J0D01*
G01*
G37*
%TD*%
%TO.C,D59*%
G36*
G01*
X52752500Y45710000D02*
X53147500Y45710000D01*
G75*
G02*
X53320000Y45537500I0J-172500D01*
G01*
X53320000Y45192500D01*
G75*
G02*
X53147500Y45020000I-172500J0D01*
G01*
X52752500Y45020000D01*
G75*
G02*
X52580000Y45192500I0J172500D01*
G01*
X52580000Y45537500D01*
G75*
G02*
X52752500Y45710000I172500J0D01*
G01*
G37*
G36*
G01*
X52752500Y46680000D02*
X53147500Y46680000D01*
G75*
G02*
X53320000Y46507500I0J-172500D01*
G01*
X53320000Y46162500D01*
G75*
G02*
X53147500Y45990000I-172500J0D01*
G01*
X52752500Y45990000D01*
G75*
G02*
X52580000Y46162500I0J172500D01*
G01*
X52580000Y46507500D01*
G75*
G02*
X52752500Y46680000I172500J0D01*
G01*
G37*
%TD*%
%TO.C,D56*%
G36*
G01*
X57302500Y45710000D02*
X57697500Y45710000D01*
G75*
G02*
X57870000Y45537500I0J-172500D01*
G01*
X57870000Y45192500D01*
G75*
G02*
X57697500Y45020000I-172500J0D01*
G01*
X57302500Y45020000D01*
G75*
G02*
X57130000Y45192500I0J172500D01*
G01*
X57130000Y45537500D01*
G75*
G02*
X57302500Y45710000I172500J0D01*
G01*
G37*
G36*
G01*
X57302500Y46680000D02*
X57697500Y46680000D01*
G75*
G02*
X57870000Y46507500I0J-172500D01*
G01*
X57870000Y46162500D01*
G75*
G02*
X57697500Y45990000I-172500J0D01*
G01*
X57302500Y45990000D01*
G75*
G02*
X57130000Y46162500I0J172500D01*
G01*
X57130000Y46507500D01*
G75*
G02*
X57302500Y46680000I172500J0D01*
G01*
G37*
%TD*%
%TO.C,D55*%
G36*
G01*
X56202500Y45710000D02*
X56597500Y45710000D01*
G75*
G02*
X56770000Y45537500I0J-172500D01*
G01*
X56770000Y45192500D01*
G75*
G02*
X56597500Y45020000I-172500J0D01*
G01*
X56202500Y45020000D01*
G75*
G02*
X56030000Y45192500I0J172500D01*
G01*
X56030000Y45537500D01*
G75*
G02*
X56202500Y45710000I172500J0D01*
G01*
G37*
G36*
G01*
X56202500Y46680000D02*
X56597500Y46680000D01*
G75*
G02*
X56770000Y46507500I0J-172500D01*
G01*
X56770000Y46162500D01*
G75*
G02*
X56597500Y45990000I-172500J0D01*
G01*
X56202500Y45990000D01*
G75*
G02*
X56030000Y46162500I0J172500D01*
G01*
X56030000Y46507500D01*
G75*
G02*
X56202500Y46680000I172500J0D01*
G01*
G37*
%TD*%
%TO.C,D52*%
G36*
G01*
X60752500Y45710000D02*
X61147500Y45710000D01*
G75*
G02*
X61320000Y45537500I0J-172500D01*
G01*
X61320000Y45192500D01*
G75*
G02*
X61147500Y45020000I-172500J0D01*
G01*
X60752500Y45020000D01*
G75*
G02*
X60580000Y45192500I0J172500D01*
G01*
X60580000Y45537500D01*
G75*
G02*
X60752500Y45710000I172500J0D01*
G01*
G37*
G36*
G01*
X60752500Y46680000D02*
X61147500Y46680000D01*
G75*
G02*
X61320000Y46507500I0J-172500D01*
G01*
X61320000Y46162500D01*
G75*
G02*
X61147500Y45990000I-172500J0D01*
G01*
X60752500Y45990000D01*
G75*
G02*
X60580000Y46162500I0J172500D01*
G01*
X60580000Y46507500D01*
G75*
G02*
X60752500Y46680000I172500J0D01*
G01*
G37*
%TD*%
%TO.C,D51*%
G36*
G01*
X59652500Y45710000D02*
X60047500Y45710000D01*
G75*
G02*
X60220000Y45537500I0J-172500D01*
G01*
X60220000Y45192500D01*
G75*
G02*
X60047500Y45020000I-172500J0D01*
G01*
X59652500Y45020000D01*
G75*
G02*
X59480000Y45192500I0J172500D01*
G01*
X59480000Y45537500D01*
G75*
G02*
X59652500Y45710000I172500J0D01*
G01*
G37*
G36*
G01*
X59652500Y46680000D02*
X60047500Y46680000D01*
G75*
G02*
X60220000Y46507500I0J-172500D01*
G01*
X60220000Y46162500D01*
G75*
G02*
X60047500Y45990000I-172500J0D01*
G01*
X59652500Y45990000D01*
G75*
G02*
X59480000Y46162500I0J172500D01*
G01*
X59480000Y46507500D01*
G75*
G02*
X59652500Y46680000I172500J0D01*
G01*
G37*
%TD*%
%TO.C,D48*%
G36*
G01*
X43452500Y45710000D02*
X43847500Y45710000D01*
G75*
G02*
X44020000Y45537500I0J-172500D01*
G01*
X44020000Y45192500D01*
G75*
G02*
X43847500Y45020000I-172500J0D01*
G01*
X43452500Y45020000D01*
G75*
G02*
X43280000Y45192500I0J172500D01*
G01*
X43280000Y45537500D01*
G75*
G02*
X43452500Y45710000I172500J0D01*
G01*
G37*
G36*
G01*
X43452500Y46680000D02*
X43847500Y46680000D01*
G75*
G02*
X44020000Y46507500I0J-172500D01*
G01*
X44020000Y46162500D01*
G75*
G02*
X43847500Y45990000I-172500J0D01*
G01*
X43452500Y45990000D01*
G75*
G02*
X43280000Y46162500I0J172500D01*
G01*
X43280000Y46507500D01*
G75*
G02*
X43452500Y46680000I172500J0D01*
G01*
G37*
%TD*%
%TO.C,D47*%
G36*
G01*
X42352500Y45710000D02*
X42747500Y45710000D01*
G75*
G02*
X42920000Y45537500I0J-172500D01*
G01*
X42920000Y45192500D01*
G75*
G02*
X42747500Y45020000I-172500J0D01*
G01*
X42352500Y45020000D01*
G75*
G02*
X42180000Y45192500I0J172500D01*
G01*
X42180000Y45537500D01*
G75*
G02*
X42352500Y45710000I172500J0D01*
G01*
G37*
G36*
G01*
X42352500Y46680000D02*
X42747500Y46680000D01*
G75*
G02*
X42920000Y46507500I0J-172500D01*
G01*
X42920000Y46162500D01*
G75*
G02*
X42747500Y45990000I-172500J0D01*
G01*
X42352500Y45990000D01*
G75*
G02*
X42180000Y46162500I0J172500D01*
G01*
X42180000Y46507500D01*
G75*
G02*
X42352500Y46680000I172500J0D01*
G01*
G37*
%TD*%
%TO.C,D44*%
G36*
G01*
X46902500Y45710000D02*
X47297500Y45710000D01*
G75*
G02*
X47470000Y45537500I0J-172500D01*
G01*
X47470000Y45192500D01*
G75*
G02*
X47297500Y45020000I-172500J0D01*
G01*
X46902500Y45020000D01*
G75*
G02*
X46730000Y45192500I0J172500D01*
G01*
X46730000Y45537500D01*
G75*
G02*
X46902500Y45710000I172500J0D01*
G01*
G37*
G36*
G01*
X46902500Y46680000D02*
X47297500Y46680000D01*
G75*
G02*
X47470000Y46507500I0J-172500D01*
G01*
X47470000Y46162500D01*
G75*
G02*
X47297500Y45990000I-172500J0D01*
G01*
X46902500Y45990000D01*
G75*
G02*
X46730000Y46162500I0J172500D01*
G01*
X46730000Y46507500D01*
G75*
G02*
X46902500Y46680000I172500J0D01*
G01*
G37*
%TD*%
%TO.C,D43*%
G36*
G01*
X45802500Y45710000D02*
X46197500Y45710000D01*
G75*
G02*
X46370000Y45537500I0J-172500D01*
G01*
X46370000Y45192500D01*
G75*
G02*
X46197500Y45020000I-172500J0D01*
G01*
X45802500Y45020000D01*
G75*
G02*
X45630000Y45192500I0J172500D01*
G01*
X45630000Y45537500D01*
G75*
G02*
X45802500Y45710000I172500J0D01*
G01*
G37*
G36*
G01*
X45802500Y46680000D02*
X46197500Y46680000D01*
G75*
G02*
X46370000Y46507500I0J-172500D01*
G01*
X46370000Y46162500D01*
G75*
G02*
X46197500Y45990000I-172500J0D01*
G01*
X45802500Y45990000D01*
G75*
G02*
X45630000Y46162500I0J172500D01*
G01*
X45630000Y46507500D01*
G75*
G02*
X45802500Y46680000I172500J0D01*
G01*
G37*
%TD*%
%TO.C,D40*%
G36*
G01*
X50352500Y45710000D02*
X50747500Y45710000D01*
G75*
G02*
X50920000Y45537500I0J-172500D01*
G01*
X50920000Y45192500D01*
G75*
G02*
X50747500Y45020000I-172500J0D01*
G01*
X50352500Y45020000D01*
G75*
G02*
X50180000Y45192500I0J172500D01*
G01*
X50180000Y45537500D01*
G75*
G02*
X50352500Y45710000I172500J0D01*
G01*
G37*
G36*
G01*
X50352500Y46680000D02*
X50747500Y46680000D01*
G75*
G02*
X50920000Y46507500I0J-172500D01*
G01*
X50920000Y46162500D01*
G75*
G02*
X50747500Y45990000I-172500J0D01*
G01*
X50352500Y45990000D01*
G75*
G02*
X50180000Y46162500I0J172500D01*
G01*
X50180000Y46507500D01*
G75*
G02*
X50352500Y46680000I172500J0D01*
G01*
G37*
%TD*%
%TO.C,D39*%
G36*
G01*
X49252500Y45710000D02*
X49647500Y45710000D01*
G75*
G02*
X49820000Y45537500I0J-172500D01*
G01*
X49820000Y45192500D01*
G75*
G02*
X49647500Y45020000I-172500J0D01*
G01*
X49252500Y45020000D01*
G75*
G02*
X49080000Y45192500I0J172500D01*
G01*
X49080000Y45537500D01*
G75*
G02*
X49252500Y45710000I172500J0D01*
G01*
G37*
G36*
G01*
X49252500Y46680000D02*
X49647500Y46680000D01*
G75*
G02*
X49820000Y46507500I0J-172500D01*
G01*
X49820000Y46162500D01*
G75*
G02*
X49647500Y45990000I-172500J0D01*
G01*
X49252500Y45990000D01*
G75*
G02*
X49080000Y46162500I0J172500D01*
G01*
X49080000Y46507500D01*
G75*
G02*
X49252500Y46680000I172500J0D01*
G01*
G37*
%TD*%
%TO.C,D36*%
G36*
G01*
X33052500Y45710000D02*
X33447500Y45710000D01*
G75*
G02*
X33620000Y45537500I0J-172500D01*
G01*
X33620000Y45192500D01*
G75*
G02*
X33447500Y45020000I-172500J0D01*
G01*
X33052500Y45020000D01*
G75*
G02*
X32880000Y45192500I0J172500D01*
G01*
X32880000Y45537500D01*
G75*
G02*
X33052500Y45710000I172500J0D01*
G01*
G37*
G36*
G01*
X33052500Y46680000D02*
X33447500Y46680000D01*
G75*
G02*
X33620000Y46507500I0J-172500D01*
G01*
X33620000Y46162500D01*
G75*
G02*
X33447500Y45990000I-172500J0D01*
G01*
X33052500Y45990000D01*
G75*
G02*
X32880000Y46162500I0J172500D01*
G01*
X32880000Y46507500D01*
G75*
G02*
X33052500Y46680000I172500J0D01*
G01*
G37*
%TD*%
%TO.C,D35*%
G36*
G01*
X31952500Y45710000D02*
X32347500Y45710000D01*
G75*
G02*
X32520000Y45537500I0J-172500D01*
G01*
X32520000Y45192500D01*
G75*
G02*
X32347500Y45020000I-172500J0D01*
G01*
X31952500Y45020000D01*
G75*
G02*
X31780000Y45192500I0J172500D01*
G01*
X31780000Y45537500D01*
G75*
G02*
X31952500Y45710000I172500J0D01*
G01*
G37*
G36*
G01*
X31952500Y46680000D02*
X32347500Y46680000D01*
G75*
G02*
X32520000Y46507500I0J-172500D01*
G01*
X32520000Y46162500D01*
G75*
G02*
X32347500Y45990000I-172500J0D01*
G01*
X31952500Y45990000D01*
G75*
G02*
X31780000Y46162500I0J172500D01*
G01*
X31780000Y46507500D01*
G75*
G02*
X31952500Y46680000I172500J0D01*
G01*
G37*
%TD*%
%TO.C,D32*%
G36*
G01*
X36502500Y45710000D02*
X36897500Y45710000D01*
G75*
G02*
X37070000Y45537500I0J-172500D01*
G01*
X37070000Y45192500D01*
G75*
G02*
X36897500Y45020000I-172500J0D01*
G01*
X36502500Y45020000D01*
G75*
G02*
X36330000Y45192500I0J172500D01*
G01*
X36330000Y45537500D01*
G75*
G02*
X36502500Y45710000I172500J0D01*
G01*
G37*
G36*
G01*
X36502500Y46680000D02*
X36897500Y46680000D01*
G75*
G02*
X37070000Y46507500I0J-172500D01*
G01*
X37070000Y46162500D01*
G75*
G02*
X36897500Y45990000I-172500J0D01*
G01*
X36502500Y45990000D01*
G75*
G02*
X36330000Y46162500I0J172500D01*
G01*
X36330000Y46507500D01*
G75*
G02*
X36502500Y46680000I172500J0D01*
G01*
G37*
%TD*%
%TO.C,D31*%
G36*
G01*
X35402500Y45710000D02*
X35797500Y45710000D01*
G75*
G02*
X35970000Y45537500I0J-172500D01*
G01*
X35970000Y45192500D01*
G75*
G02*
X35797500Y45020000I-172500J0D01*
G01*
X35402500Y45020000D01*
G75*
G02*
X35230000Y45192500I0J172500D01*
G01*
X35230000Y45537500D01*
G75*
G02*
X35402500Y45710000I172500J0D01*
G01*
G37*
G36*
G01*
X35402500Y46680000D02*
X35797500Y46680000D01*
G75*
G02*
X35970000Y46507500I0J-172500D01*
G01*
X35970000Y46162500D01*
G75*
G02*
X35797500Y45990000I-172500J0D01*
G01*
X35402500Y45990000D01*
G75*
G02*
X35230000Y46162500I0J172500D01*
G01*
X35230000Y46507500D01*
G75*
G02*
X35402500Y46680000I172500J0D01*
G01*
G37*
%TD*%
%TO.C,D28*%
G36*
G01*
X39952500Y45710000D02*
X40347500Y45710000D01*
G75*
G02*
X40520000Y45537500I0J-172500D01*
G01*
X40520000Y45192500D01*
G75*
G02*
X40347500Y45020000I-172500J0D01*
G01*
X39952500Y45020000D01*
G75*
G02*
X39780000Y45192500I0J172500D01*
G01*
X39780000Y45537500D01*
G75*
G02*
X39952500Y45710000I172500J0D01*
G01*
G37*
G36*
G01*
X39952500Y46680000D02*
X40347500Y46680000D01*
G75*
G02*
X40520000Y46507500I0J-172500D01*
G01*
X40520000Y46162500D01*
G75*
G02*
X40347500Y45990000I-172500J0D01*
G01*
X39952500Y45990000D01*
G75*
G02*
X39780000Y46162500I0J172500D01*
G01*
X39780000Y46507500D01*
G75*
G02*
X39952500Y46680000I172500J0D01*
G01*
G37*
%TD*%
%TO.C,D27*%
G36*
G01*
X38852500Y45710000D02*
X39247500Y45710000D01*
G75*
G02*
X39420000Y45537500I0J-172500D01*
G01*
X39420000Y45192500D01*
G75*
G02*
X39247500Y45020000I-172500J0D01*
G01*
X38852500Y45020000D01*
G75*
G02*
X38680000Y45192500I0J172500D01*
G01*
X38680000Y45537500D01*
G75*
G02*
X38852500Y45710000I172500J0D01*
G01*
G37*
G36*
G01*
X38852500Y46680000D02*
X39247500Y46680000D01*
G75*
G02*
X39420000Y46507500I0J-172500D01*
G01*
X39420000Y46162500D01*
G75*
G02*
X39247500Y45990000I-172500J0D01*
G01*
X38852500Y45990000D01*
G75*
G02*
X38680000Y46162500I0J172500D01*
G01*
X38680000Y46507500D01*
G75*
G02*
X38852500Y46680000I172500J0D01*
G01*
G37*
%TD*%
%TO.C,D24*%
G36*
G01*
X22652500Y45760000D02*
X23047500Y45760000D01*
G75*
G02*
X23220000Y45587500I0J-172500D01*
G01*
X23220000Y45242500D01*
G75*
G02*
X23047500Y45070000I-172500J0D01*
G01*
X22652500Y45070000D01*
G75*
G02*
X22480000Y45242500I0J172500D01*
G01*
X22480000Y45587500D01*
G75*
G02*
X22652500Y45760000I172500J0D01*
G01*
G37*
G36*
G01*
X22652500Y46730000D02*
X23047500Y46730000D01*
G75*
G02*
X23220000Y46557500I0J-172500D01*
G01*
X23220000Y46212500D01*
G75*
G02*
X23047500Y46040000I-172500J0D01*
G01*
X22652500Y46040000D01*
G75*
G02*
X22480000Y46212500I0J172500D01*
G01*
X22480000Y46557500D01*
G75*
G02*
X22652500Y46730000I172500J0D01*
G01*
G37*
%TD*%
%TO.C,D23*%
G36*
G01*
X21602500Y45760000D02*
X21997500Y45760000D01*
G75*
G02*
X22170000Y45587500I0J-172500D01*
G01*
X22170000Y45242500D01*
G75*
G02*
X21997500Y45070000I-172500J0D01*
G01*
X21602500Y45070000D01*
G75*
G02*
X21430000Y45242500I0J172500D01*
G01*
X21430000Y45587500D01*
G75*
G02*
X21602500Y45760000I172500J0D01*
G01*
G37*
G36*
G01*
X21602500Y46730000D02*
X21997500Y46730000D01*
G75*
G02*
X22170000Y46557500I0J-172500D01*
G01*
X22170000Y46212500D01*
G75*
G02*
X21997500Y46040000I-172500J0D01*
G01*
X21602500Y46040000D01*
G75*
G02*
X21430000Y46212500I0J172500D01*
G01*
X21430000Y46557500D01*
G75*
G02*
X21602500Y46730000I172500J0D01*
G01*
G37*
%TD*%
%TO.C,D20*%
G36*
G01*
X26102500Y45760000D02*
X26497500Y45760000D01*
G75*
G02*
X26670000Y45587500I0J-172500D01*
G01*
X26670000Y45242500D01*
G75*
G02*
X26497500Y45070000I-172500J0D01*
G01*
X26102500Y45070000D01*
G75*
G02*
X25930000Y45242500I0J172500D01*
G01*
X25930000Y45587500D01*
G75*
G02*
X26102500Y45760000I172500J0D01*
G01*
G37*
G36*
G01*
X26102500Y46730000D02*
X26497500Y46730000D01*
G75*
G02*
X26670000Y46557500I0J-172500D01*
G01*
X26670000Y46212500D01*
G75*
G02*
X26497500Y46040000I-172500J0D01*
G01*
X26102500Y46040000D01*
G75*
G02*
X25930000Y46212500I0J172500D01*
G01*
X25930000Y46557500D01*
G75*
G02*
X26102500Y46730000I172500J0D01*
G01*
G37*
%TD*%
%TO.C,D19*%
G36*
G01*
X25002500Y45760000D02*
X25397500Y45760000D01*
G75*
G02*
X25570000Y45587500I0J-172500D01*
G01*
X25570000Y45242500D01*
G75*
G02*
X25397500Y45070000I-172500J0D01*
G01*
X25002500Y45070000D01*
G75*
G02*
X24830000Y45242500I0J172500D01*
G01*
X24830000Y45587500D01*
G75*
G02*
X25002500Y45760000I172500J0D01*
G01*
G37*
G36*
G01*
X25002500Y46730000D02*
X25397500Y46730000D01*
G75*
G02*
X25570000Y46557500I0J-172500D01*
G01*
X25570000Y46212500D01*
G75*
G02*
X25397500Y46040000I-172500J0D01*
G01*
X25002500Y46040000D01*
G75*
G02*
X24830000Y46212500I0J172500D01*
G01*
X24830000Y46557500D01*
G75*
G02*
X25002500Y46730000I172500J0D01*
G01*
G37*
%TD*%
%TO.C,D16*%
G36*
G01*
X29502500Y45760000D02*
X29897500Y45760000D01*
G75*
G02*
X30070000Y45587500I0J-172500D01*
G01*
X30070000Y45242500D01*
G75*
G02*
X29897500Y45070000I-172500J0D01*
G01*
X29502500Y45070000D01*
G75*
G02*
X29330000Y45242500I0J172500D01*
G01*
X29330000Y45587500D01*
G75*
G02*
X29502500Y45760000I172500J0D01*
G01*
G37*
G36*
G01*
X29502500Y46730000D02*
X29897500Y46730000D01*
G75*
G02*
X30070000Y46557500I0J-172500D01*
G01*
X30070000Y46212500D01*
G75*
G02*
X29897500Y46040000I-172500J0D01*
G01*
X29502500Y46040000D01*
G75*
G02*
X29330000Y46212500I0J172500D01*
G01*
X29330000Y46557500D01*
G75*
G02*
X29502500Y46730000I172500J0D01*
G01*
G37*
%TD*%
%TO.C,D15*%
G36*
G01*
X28452500Y45760000D02*
X28847500Y45760000D01*
G75*
G02*
X29020000Y45587500I0J-172500D01*
G01*
X29020000Y45242500D01*
G75*
G02*
X28847500Y45070000I-172500J0D01*
G01*
X28452500Y45070000D01*
G75*
G02*
X28280000Y45242500I0J172500D01*
G01*
X28280000Y45587500D01*
G75*
G02*
X28452500Y45760000I172500J0D01*
G01*
G37*
G36*
G01*
X28452500Y46730000D02*
X28847500Y46730000D01*
G75*
G02*
X29020000Y46557500I0J-172500D01*
G01*
X29020000Y46212500D01*
G75*
G02*
X28847500Y46040000I-172500J0D01*
G01*
X28452500Y46040000D01*
G75*
G02*
X28280000Y46212500I0J172500D01*
G01*
X28280000Y46557500D01*
G75*
G02*
X28452500Y46730000I172500J0D01*
G01*
G37*
%TD*%
%TO.C,D12*%
G36*
G01*
X12252500Y45760000D02*
X12647500Y45760000D01*
G75*
G02*
X12820000Y45587500I0J-172500D01*
G01*
X12820000Y45242500D01*
G75*
G02*
X12647500Y45070000I-172500J0D01*
G01*
X12252500Y45070000D01*
G75*
G02*
X12080000Y45242500I0J172500D01*
G01*
X12080000Y45587500D01*
G75*
G02*
X12252500Y45760000I172500J0D01*
G01*
G37*
G36*
G01*
X12252500Y46730000D02*
X12647500Y46730000D01*
G75*
G02*
X12820000Y46557500I0J-172500D01*
G01*
X12820000Y46212500D01*
G75*
G02*
X12647500Y46040000I-172500J0D01*
G01*
X12252500Y46040000D01*
G75*
G02*
X12080000Y46212500I0J172500D01*
G01*
X12080000Y46557500D01*
G75*
G02*
X12252500Y46730000I172500J0D01*
G01*
G37*
%TD*%
%TO.C,D11*%
G36*
G01*
X11202500Y45760000D02*
X11597500Y45760000D01*
G75*
G02*
X11770000Y45587500I0J-172500D01*
G01*
X11770000Y45242500D01*
G75*
G02*
X11597500Y45070000I-172500J0D01*
G01*
X11202500Y45070000D01*
G75*
G02*
X11030000Y45242500I0J172500D01*
G01*
X11030000Y45587500D01*
G75*
G02*
X11202500Y45760000I172500J0D01*
G01*
G37*
G36*
G01*
X11202500Y46730000D02*
X11597500Y46730000D01*
G75*
G02*
X11770000Y46557500I0J-172500D01*
G01*
X11770000Y46212500D01*
G75*
G02*
X11597500Y46040000I-172500J0D01*
G01*
X11202500Y46040000D01*
G75*
G02*
X11030000Y46212500I0J172500D01*
G01*
X11030000Y46557500D01*
G75*
G02*
X11202500Y46730000I172500J0D01*
G01*
G37*
%TD*%
%TO.C,D8*%
G36*
G01*
X15702500Y45760000D02*
X16097500Y45760000D01*
G75*
G02*
X16270000Y45587500I0J-172500D01*
G01*
X16270000Y45242500D01*
G75*
G02*
X16097500Y45070000I-172500J0D01*
G01*
X15702500Y45070000D01*
G75*
G02*
X15530000Y45242500I0J172500D01*
G01*
X15530000Y45587500D01*
G75*
G02*
X15702500Y45760000I172500J0D01*
G01*
G37*
G36*
G01*
X15702500Y46730000D02*
X16097500Y46730000D01*
G75*
G02*
X16270000Y46557500I0J-172500D01*
G01*
X16270000Y46212500D01*
G75*
G02*
X16097500Y46040000I-172500J0D01*
G01*
X15702500Y46040000D01*
G75*
G02*
X15530000Y46212500I0J172500D01*
G01*
X15530000Y46557500D01*
G75*
G02*
X15702500Y46730000I172500J0D01*
G01*
G37*
%TD*%
%TO.C,D7*%
G36*
G01*
X14652500Y45760000D02*
X15047500Y45760000D01*
G75*
G02*
X15220000Y45587500I0J-172500D01*
G01*
X15220000Y45242500D01*
G75*
G02*
X15047500Y45070000I-172500J0D01*
G01*
X14652500Y45070000D01*
G75*
G02*
X14480000Y45242500I0J172500D01*
G01*
X14480000Y45587500D01*
G75*
G02*
X14652500Y45760000I172500J0D01*
G01*
G37*
G36*
G01*
X14652500Y46730000D02*
X15047500Y46730000D01*
G75*
G02*
X15220000Y46557500I0J-172500D01*
G01*
X15220000Y46212500D01*
G75*
G02*
X15047500Y46040000I-172500J0D01*
G01*
X14652500Y46040000D01*
G75*
G02*
X14480000Y46212500I0J172500D01*
G01*
X14480000Y46557500D01*
G75*
G02*
X14652500Y46730000I172500J0D01*
G01*
G37*
%TD*%
%TO.C,D4*%
G36*
G01*
X19102500Y45760000D02*
X19497500Y45760000D01*
G75*
G02*
X19670000Y45587500I0J-172500D01*
G01*
X19670000Y45242500D01*
G75*
G02*
X19497500Y45070000I-172500J0D01*
G01*
X19102500Y45070000D01*
G75*
G02*
X18930000Y45242500I0J172500D01*
G01*
X18930000Y45587500D01*
G75*
G02*
X19102500Y45760000I172500J0D01*
G01*
G37*
G36*
G01*
X19102500Y46730000D02*
X19497500Y46730000D01*
G75*
G02*
X19670000Y46557500I0J-172500D01*
G01*
X19670000Y46212500D01*
G75*
G02*
X19497500Y46040000I-172500J0D01*
G01*
X19102500Y46040000D01*
G75*
G02*
X18930000Y46212500I0J172500D01*
G01*
X18930000Y46557500D01*
G75*
G02*
X19102500Y46730000I172500J0D01*
G01*
G37*
%TD*%
%TO.C,D3*%
G36*
G01*
X18052500Y45760000D02*
X18447500Y45760000D01*
G75*
G02*
X18620000Y45587500I0J-172500D01*
G01*
X18620000Y45242500D01*
G75*
G02*
X18447500Y45070000I-172500J0D01*
G01*
X18052500Y45070000D01*
G75*
G02*
X17880000Y45242500I0J172500D01*
G01*
X17880000Y45587500D01*
G75*
G02*
X18052500Y45760000I172500J0D01*
G01*
G37*
G36*
G01*
X18052500Y46730000D02*
X18447500Y46730000D01*
G75*
G02*
X18620000Y46557500I0J-172500D01*
G01*
X18620000Y46212500D01*
G75*
G02*
X18447500Y46040000I-172500J0D01*
G01*
X18052500Y46040000D01*
G75*
G02*
X17880000Y46212500I0J172500D01*
G01*
X17880000Y46557500D01*
G75*
G02*
X18052500Y46730000I172500J0D01*
G01*
G37*
%TD*%
%TO.C,R2*%
G36*
G01*
X3118750Y55800000D02*
X3681250Y55800000D01*
G75*
G02*
X3925000Y55556250I0J-243750D01*
G01*
X3925000Y55068750D01*
G75*
G02*
X3681250Y54825000I-243750J0D01*
G01*
X3118750Y54825000D01*
G75*
G02*
X2875000Y55068750I0J243750D01*
G01*
X2875000Y55556250D01*
G75*
G02*
X3118750Y55800000I243750J0D01*
G01*
G37*
G36*
G01*
X3118750Y57375000D02*
X3681250Y57375000D01*
G75*
G02*
X3925000Y57131250I0J-243750D01*
G01*
X3925000Y56643750D01*
G75*
G02*
X3681250Y56400000I-243750J0D01*
G01*
X3118750Y56400000D01*
G75*
G02*
X2875000Y56643750I0J243750D01*
G01*
X2875000Y57131250D01*
G75*
G02*
X3118750Y57375000I243750J0D01*
G01*
G37*
%TD*%
%TO.C,C4*%
G36*
G01*
X4768750Y55800000D02*
X5331250Y55800000D01*
G75*
G02*
X5575000Y55556250I0J-243750D01*
G01*
X5575000Y55068750D01*
G75*
G02*
X5331250Y54825000I-243750J0D01*
G01*
X4768750Y54825000D01*
G75*
G02*
X4525000Y55068750I0J243750D01*
G01*
X4525000Y55556250D01*
G75*
G02*
X4768750Y55800000I243750J0D01*
G01*
G37*
G36*
G01*
X4768750Y57375000D02*
X5331250Y57375000D01*
G75*
G02*
X5575000Y57131250I0J-243750D01*
G01*
X5575000Y56643750D01*
G75*
G02*
X5331250Y56400000I-243750J0D01*
G01*
X4768750Y56400000D01*
G75*
G02*
X4525000Y56643750I0J243750D01*
G01*
X4525000Y57131250D01*
G75*
G02*
X4768750Y57375000I243750J0D01*
G01*
G37*
%TD*%
%TO.C,R1*%
G36*
G01*
X31050000Y3631250D02*
X31050000Y3068750D01*
G75*
G02*
X30806250Y2825000I-243750J0D01*
G01*
X30318750Y2825000D01*
G75*
G02*
X30075000Y3068750I0J243750D01*
G01*
X30075000Y3631250D01*
G75*
G02*
X30318750Y3875000I243750J0D01*
G01*
X30806250Y3875000D01*
G75*
G02*
X31050000Y3631250I0J-243750D01*
G01*
G37*
G36*
G01*
X32625000Y3631250D02*
X32625000Y3068750D01*
G75*
G02*
X32381250Y2825000I-243750J0D01*
G01*
X31893750Y2825000D01*
G75*
G02*
X31650000Y3068750I0J243750D01*
G01*
X31650000Y3631250D01*
G75*
G02*
X31893750Y3875000I243750J0D01*
G01*
X32381250Y3875000D01*
G75*
G02*
X32625000Y3631250I0J-243750D01*
G01*
G37*
%TD*%
%TO.C,C1*%
G36*
G01*
X31050000Y5281250D02*
X31050000Y4718750D01*
G75*
G02*
X30806250Y4475000I-243750J0D01*
G01*
X30318750Y4475000D01*
G75*
G02*
X30075000Y4718750I0J243750D01*
G01*
X30075000Y5281250D01*
G75*
G02*
X30318750Y5525000I243750J0D01*
G01*
X30806250Y5525000D01*
G75*
G02*
X31050000Y5281250I0J-243750D01*
G01*
G37*
G36*
G01*
X32625000Y5281250D02*
X32625000Y4718750D01*
G75*
G02*
X32381250Y4475000I-243750J0D01*
G01*
X31893750Y4475000D01*
G75*
G02*
X31650000Y4718750I0J243750D01*
G01*
X31650000Y5281250D01*
G75*
G02*
X31893750Y5525000I243750J0D01*
G01*
X32381250Y5525000D01*
G75*
G02*
X32625000Y5281250I0J-243750D01*
G01*
G37*
%TD*%
M02*
